G04 (created by PCBNEW (2013-07-07 BZR 4022)-stable) date 9/7/2014 5:26:02 PM*
%MOIN*%
G04 Gerber Fmt 3.4, Leading zero omitted, Abs format*
%FSLAX34Y34*%
G01*
G70*
G90*
G04 APERTURE LIST*
%ADD10C,0.00590551*%
%ADD11R,0.0394X0.0315*%
%ADD12R,0.033X0.033*%
%ADD13R,0.02X0.045*%
%ADD14R,0.06X0.08*%
%ADD15R,0.035X0.055*%
%ADD16R,0.025X0.045*%
%ADD17R,0.045X0.025*%
%ADD18R,0.055X0.055*%
%ADD19C,0.055*%
%ADD20R,0.083X0.055*%
%ADD21C,0.045*%
%ADD22R,0.06X0.06*%
%ADD23C,0.06*%
%ADD24R,0.015748X0.0511811*%
%ADD25R,0.0511811X0.015748*%
%ADD26R,0.07X0.06*%
%ADD27R,0.1417X0.063*%
%ADD28R,0.1181X0.063*%
%ADD29C,0.0314961*%
%ADD30C,0.07*%
%ADD31R,0.025X0.03*%
%ADD32R,0.03X0.025*%
%ADD33C,0.138*%
G04 APERTURE END LIST*
G54D10*
G54D11*
X101523Y-47380D03*
X100657Y-47755D03*
X100657Y-47005D03*
X101523Y-48690D03*
X100657Y-49065D03*
X100657Y-48315D03*
G54D12*
X74905Y-45360D03*
X76215Y-45360D03*
X76030Y-46315D03*
X76030Y-47625D03*
X73425Y-62420D03*
X72115Y-62420D03*
X74370Y-61115D03*
X74370Y-62425D03*
G54D13*
X81820Y-61420D03*
X81320Y-61420D03*
X80820Y-61420D03*
X80320Y-61420D03*
X80320Y-58920D03*
X80820Y-58920D03*
X81320Y-58920D03*
X81820Y-58920D03*
X81820Y-48820D03*
X81320Y-48820D03*
X80820Y-48820D03*
X80320Y-48820D03*
X80320Y-46320D03*
X80820Y-46320D03*
X81320Y-46320D03*
X81820Y-46320D03*
X78320Y-48220D03*
X77820Y-48220D03*
X77320Y-48220D03*
X76820Y-48220D03*
X76820Y-45720D03*
X77320Y-45720D03*
X77820Y-45720D03*
X78320Y-45720D03*
X76820Y-60320D03*
X77320Y-60320D03*
X77820Y-60320D03*
X78320Y-60320D03*
X78320Y-62820D03*
X77820Y-62820D03*
X77320Y-62820D03*
X76820Y-62820D03*
X70320Y-62420D03*
X69820Y-62420D03*
X69320Y-62420D03*
X68820Y-62420D03*
X68820Y-59920D03*
X69320Y-59920D03*
X69820Y-59920D03*
X70320Y-59920D03*
X69320Y-46020D03*
X69820Y-46020D03*
X70320Y-46020D03*
X70820Y-46020D03*
X70820Y-48520D03*
X70320Y-48520D03*
X69820Y-48520D03*
X69320Y-48520D03*
X81820Y-55420D03*
X81320Y-55420D03*
X80820Y-55420D03*
X80320Y-55420D03*
X80320Y-52920D03*
X80820Y-52920D03*
X81320Y-52920D03*
X81820Y-52920D03*
X70820Y-55420D03*
X70320Y-55420D03*
X69820Y-55420D03*
X69320Y-55420D03*
X69320Y-52920D03*
X69820Y-52920D03*
X70320Y-52920D03*
X70820Y-52920D03*
G54D14*
X81520Y-62570D03*
X82820Y-62570D03*
X71620Y-54770D03*
X72920Y-54770D03*
X81520Y-57870D03*
X82820Y-57870D03*
X80520Y-45110D03*
X81820Y-45110D03*
X81590Y-49750D03*
X82890Y-49750D03*
X71620Y-53570D03*
X72920Y-53570D03*
G54D15*
X96295Y-57560D03*
X97045Y-57560D03*
G54D16*
X99580Y-50060D03*
X98980Y-50060D03*
G54D17*
X98410Y-57260D03*
X98410Y-57860D03*
G54D16*
X80370Y-56170D03*
X80970Y-56170D03*
G54D17*
X93600Y-47340D03*
X93600Y-46740D03*
G54D16*
X101000Y-53110D03*
X100400Y-53110D03*
X75370Y-57870D03*
X74770Y-57870D03*
G54D17*
X88790Y-50880D03*
X88790Y-50280D03*
G54D16*
X72770Y-55670D03*
X72170Y-55670D03*
X91390Y-49000D03*
X91990Y-49000D03*
X81370Y-51470D03*
X81970Y-51470D03*
G54D17*
X92930Y-49240D03*
X92930Y-48640D03*
X100020Y-48380D03*
X100020Y-48980D03*
G54D16*
X106360Y-47770D03*
X106960Y-47770D03*
X89460Y-49264D03*
X90060Y-49264D03*
X87388Y-51382D03*
X87988Y-51382D03*
G54D17*
X99720Y-56250D03*
X99720Y-56850D03*
X100330Y-56250D03*
X100330Y-56850D03*
G54D16*
X69770Y-57770D03*
X69170Y-57770D03*
X69170Y-58470D03*
X69770Y-58470D03*
X90260Y-58590D03*
X90860Y-58590D03*
X92270Y-60160D03*
X92870Y-60160D03*
G54D17*
X100330Y-57400D03*
X100330Y-58000D03*
X99720Y-57400D03*
X99720Y-58000D03*
X97810Y-58860D03*
X97810Y-58260D03*
G54D16*
X106360Y-48770D03*
X106960Y-48770D03*
X106360Y-51770D03*
X106960Y-51770D03*
G54D17*
X95690Y-58800D03*
X95690Y-59400D03*
X95690Y-60400D03*
X95690Y-59800D03*
G54D16*
X98630Y-48790D03*
X99230Y-48790D03*
X91390Y-49610D03*
X91990Y-49610D03*
G54D17*
X97810Y-57260D03*
X97810Y-57860D03*
G54D16*
X68270Y-60570D03*
X67670Y-60570D03*
X67670Y-61970D03*
X68270Y-61970D03*
G54D17*
X68470Y-54470D03*
X68470Y-55070D03*
G54D16*
X75370Y-50470D03*
X74770Y-50470D03*
G54D17*
X63070Y-55770D03*
X63070Y-56370D03*
X63070Y-58170D03*
X63070Y-58770D03*
X63070Y-52170D03*
X63070Y-52770D03*
X63070Y-49770D03*
X63070Y-50370D03*
G54D16*
X84530Y-52860D03*
X85130Y-52860D03*
X71970Y-47170D03*
X71370Y-47170D03*
X71370Y-47870D03*
X71970Y-47870D03*
X70370Y-56870D03*
X69770Y-56870D03*
X67870Y-55770D03*
X68470Y-55770D03*
X67870Y-58770D03*
X68470Y-58770D03*
X70970Y-52070D03*
X70370Y-52070D03*
X69170Y-52070D03*
X69770Y-52070D03*
X67870Y-49770D03*
X68470Y-49770D03*
X67870Y-52770D03*
X68470Y-52770D03*
X73070Y-61470D03*
X73670Y-61470D03*
X98630Y-47380D03*
X99230Y-47380D03*
X72770Y-52670D03*
X72170Y-52670D03*
G54D17*
X100020Y-47070D03*
X100020Y-47670D03*
X101520Y-45990D03*
X101520Y-46590D03*
G54D16*
X70370Y-50670D03*
X69770Y-50670D03*
X69770Y-49970D03*
X70370Y-49970D03*
X75570Y-60370D03*
X76170Y-60370D03*
X72570Y-60370D03*
X73170Y-60370D03*
X74370Y-60370D03*
X74970Y-60370D03*
X71920Y-61470D03*
X72520Y-61470D03*
X76970Y-49070D03*
X77570Y-49070D03*
X73570Y-46220D03*
X74170Y-46220D03*
G54D17*
X75070Y-46270D03*
X75070Y-46870D03*
G54D16*
X73570Y-45370D03*
X74170Y-45370D03*
X73570Y-47170D03*
X74170Y-47170D03*
G54D17*
X102130Y-49290D03*
X102130Y-48690D03*
X72870Y-47170D03*
X72870Y-46570D03*
G54D16*
X86830Y-56490D03*
X86230Y-56490D03*
G54D17*
X68670Y-46020D03*
X68670Y-46620D03*
G54D16*
X71970Y-46470D03*
X71370Y-46470D03*
X79770Y-53570D03*
X79170Y-53570D03*
G54D17*
X97440Y-60430D03*
X97440Y-59830D03*
G54D16*
X96290Y-58200D03*
X96890Y-58200D03*
G54D17*
X98010Y-50910D03*
X98010Y-50310D03*
G54D16*
X99130Y-55820D03*
X98530Y-55820D03*
X91990Y-50200D03*
X91390Y-50200D03*
X90690Y-56440D03*
X91290Y-56440D03*
X85130Y-53500D03*
X84530Y-53500D03*
X69170Y-59170D03*
X69770Y-59170D03*
G54D17*
X92930Y-48160D03*
X92930Y-47560D03*
X88790Y-49210D03*
X88790Y-49810D03*
G54D16*
X67670Y-61270D03*
X68270Y-61270D03*
X67670Y-62670D03*
X68270Y-62670D03*
X68270Y-59870D03*
X67670Y-59870D03*
X70870Y-62370D03*
X71470Y-62370D03*
X71170Y-58470D03*
X70570Y-58470D03*
X78370Y-55670D03*
X77770Y-55670D03*
X69170Y-51370D03*
X69770Y-51370D03*
X70970Y-51370D03*
X70370Y-51370D03*
G54D17*
X67770Y-54470D03*
X67770Y-55070D03*
G54D16*
X70370Y-56170D03*
X69770Y-56170D03*
G54D17*
X71370Y-55570D03*
X71370Y-56170D03*
G54D16*
X68170Y-53470D03*
X68770Y-53470D03*
X78840Y-62820D03*
X79440Y-62820D03*
G54D17*
X76820Y-59700D03*
X76820Y-59100D03*
X78270Y-48970D03*
X78270Y-49570D03*
G54D16*
X76820Y-44970D03*
X77420Y-44970D03*
X78370Y-52670D03*
X77770Y-52670D03*
X76970Y-52670D03*
X76370Y-52670D03*
X81370Y-52170D03*
X81970Y-52170D03*
X71370Y-48570D03*
X71970Y-48570D03*
X76970Y-55670D03*
X76370Y-55670D03*
X80370Y-56870D03*
X80970Y-56870D03*
G54D17*
X81820Y-56030D03*
X81820Y-56630D03*
X80830Y-50070D03*
X80830Y-49470D03*
X80170Y-50070D03*
X80170Y-49470D03*
X86580Y-46670D03*
X86580Y-47270D03*
X86580Y-49520D03*
X86580Y-48920D03*
X80490Y-62860D03*
X80490Y-62260D03*
X79620Y-60820D03*
X79620Y-61420D03*
X86580Y-59010D03*
X86580Y-59610D03*
X86580Y-61820D03*
X86580Y-61220D03*
X69070Y-49970D03*
X69070Y-49370D03*
G54D16*
X70970Y-49260D03*
X70370Y-49260D03*
G54D18*
X72370Y-56770D03*
G54D19*
X73370Y-56770D03*
X74370Y-56770D03*
X75370Y-56770D03*
X76370Y-56770D03*
X77370Y-56770D03*
X78370Y-56770D03*
X79370Y-56770D03*
G54D18*
X72370Y-51570D03*
G54D19*
X73370Y-51570D03*
X74370Y-51570D03*
X75370Y-51570D03*
X76370Y-51570D03*
X77370Y-51570D03*
X78370Y-51570D03*
X79370Y-51570D03*
G54D18*
X60970Y-52770D03*
G54D19*
X60970Y-53770D03*
X60970Y-54770D03*
X60970Y-55770D03*
G54D18*
X108210Y-52310D03*
G54D19*
X108210Y-53310D03*
X108210Y-54310D03*
X108210Y-55310D03*
G54D18*
X97800Y-46380D03*
G54D19*
X96800Y-46380D03*
X95800Y-46380D03*
G54D18*
X75770Y-49470D03*
G54D19*
X74770Y-49470D03*
X73770Y-49470D03*
G54D18*
X73770Y-58870D03*
G54D19*
X74770Y-58870D03*
X75770Y-58870D03*
G54D20*
X102155Y-61605D03*
X98565Y-61605D03*
X102155Y-59835D03*
X98565Y-59835D03*
G54D21*
X70970Y-50670D03*
X82570Y-54670D03*
X82570Y-53670D03*
X79070Y-47670D03*
X77320Y-58280D03*
X70370Y-57770D03*
X62270Y-55770D03*
X62270Y-58770D03*
X62270Y-49770D03*
X62270Y-52770D03*
X79370Y-49570D03*
X79470Y-58300D03*
X87690Y-50270D03*
X86580Y-44710D03*
X86580Y-63860D03*
X87690Y-58270D03*
X72870Y-45960D03*
X71450Y-60040D03*
G54D22*
X102630Y-54520D03*
G54D23*
X102630Y-53520D03*
X102630Y-52520D03*
X102630Y-51520D03*
G54D22*
X103030Y-46540D03*
G54D23*
X103030Y-47540D03*
G54D22*
X101250Y-51550D03*
G54D23*
X101250Y-50550D03*
G54D22*
X105490Y-56770D03*
G54D23*
X104490Y-56770D03*
X105490Y-55770D03*
X104490Y-55770D03*
X105490Y-54770D03*
X104490Y-54770D03*
X105490Y-53770D03*
X104490Y-53770D03*
X105490Y-52770D03*
X104490Y-52770D03*
X105490Y-51770D03*
X104490Y-51770D03*
X105490Y-50770D03*
X104490Y-50770D03*
X105490Y-49770D03*
X104490Y-49770D03*
X105490Y-48770D03*
X104490Y-48770D03*
X105490Y-47770D03*
X104490Y-47770D03*
X105490Y-46770D03*
X104490Y-46770D03*
X105490Y-45770D03*
X104490Y-45770D03*
G54D24*
X92337Y-56671D03*
X92534Y-56671D03*
X92731Y-56671D03*
X92928Y-56671D03*
X93125Y-56671D03*
X93322Y-56671D03*
X93518Y-56671D03*
X93715Y-56671D03*
X93912Y-56671D03*
X94109Y-56671D03*
X94306Y-56671D03*
X94503Y-56671D03*
X94700Y-56671D03*
X94896Y-56671D03*
X95093Y-56671D03*
X95290Y-56671D03*
X95487Y-56671D03*
X95684Y-56671D03*
X95881Y-56671D03*
X96077Y-56671D03*
X96274Y-56671D03*
X96471Y-56671D03*
X96668Y-56671D03*
X96865Y-56671D03*
X97062Y-56671D03*
G54D25*
X97751Y-55982D03*
X97751Y-55785D03*
X97751Y-55588D03*
X97751Y-55391D03*
X97751Y-55194D03*
X97751Y-54997D03*
X97751Y-54801D03*
X97751Y-54604D03*
X97751Y-54407D03*
X97751Y-54210D03*
X97751Y-54013D03*
X97751Y-53816D03*
X97751Y-53620D03*
X97751Y-53423D03*
X97751Y-53226D03*
X97751Y-53029D03*
X97751Y-52832D03*
X97751Y-52635D03*
X97751Y-52438D03*
X97751Y-52242D03*
X97751Y-52045D03*
X97751Y-51848D03*
X97751Y-51651D03*
X97751Y-51454D03*
X97751Y-51257D03*
G54D24*
X97062Y-50568D03*
X96865Y-50568D03*
X96668Y-50568D03*
X96471Y-50568D03*
X96274Y-50568D03*
X96077Y-50568D03*
X95881Y-50568D03*
X95684Y-50568D03*
X95487Y-50568D03*
X95290Y-50568D03*
X95093Y-50568D03*
X94896Y-50568D03*
X94700Y-50568D03*
X94503Y-50568D03*
X94306Y-50568D03*
X94109Y-50568D03*
X93912Y-50568D03*
X93715Y-50568D03*
X93518Y-50568D03*
X93322Y-50568D03*
X93125Y-50568D03*
X92928Y-50568D03*
X92731Y-50568D03*
X92534Y-50568D03*
X92337Y-50568D03*
G54D25*
X91648Y-51257D03*
X91648Y-51454D03*
X91648Y-51651D03*
X91648Y-51848D03*
X91648Y-52045D03*
X91648Y-52242D03*
X91648Y-52438D03*
X91648Y-52635D03*
X91648Y-52832D03*
X91648Y-53029D03*
X91648Y-53226D03*
X91648Y-53423D03*
X91648Y-53620D03*
X91648Y-53816D03*
X91648Y-54013D03*
X91648Y-54210D03*
X91648Y-54407D03*
X91648Y-54604D03*
X91648Y-54801D03*
X91648Y-54997D03*
X91648Y-55194D03*
X91648Y-55391D03*
X91648Y-55588D03*
X91648Y-55785D03*
X91648Y-55982D03*
G54D26*
X84030Y-50270D03*
X84030Y-51610D03*
X84060Y-59600D03*
X84060Y-58260D03*
X84060Y-60410D03*
X84060Y-61750D03*
X84060Y-57440D03*
X84060Y-56100D03*
X84060Y-62570D03*
X84060Y-63910D03*
X84030Y-45110D03*
X84030Y-43770D03*
X84030Y-48110D03*
X84030Y-49450D03*
X84030Y-47270D03*
X84030Y-45930D03*
G54D27*
X64387Y-58770D03*
X66553Y-58770D03*
X64387Y-55770D03*
X66553Y-55770D03*
X64387Y-49770D03*
X66553Y-49770D03*
X64387Y-52770D03*
X66553Y-52770D03*
G54D28*
X89876Y-57180D03*
X88144Y-57180D03*
G54D29*
X86230Y-54920D03*
X86230Y-52999D03*
G54D30*
X89220Y-45710D03*
X91220Y-45710D03*
X92220Y-45710D03*
X93220Y-45710D03*
X93220Y-43710D03*
X92220Y-43710D03*
X91220Y-43710D03*
X89220Y-43710D03*
X89220Y-63700D03*
X91220Y-63700D03*
X92220Y-63700D03*
X93220Y-63700D03*
X93220Y-61700D03*
X92220Y-61700D03*
X91220Y-61700D03*
X89220Y-61700D03*
G54D31*
X88540Y-52080D03*
X88540Y-52580D03*
X88540Y-53080D03*
X88540Y-53580D03*
X88540Y-54080D03*
X88540Y-54580D03*
X88540Y-55080D03*
X88540Y-55580D03*
X87990Y-55580D03*
X87990Y-55080D03*
X87990Y-54580D03*
X87990Y-54080D03*
X87990Y-53580D03*
X87990Y-53080D03*
X87990Y-52580D03*
X87990Y-52080D03*
X89460Y-53470D03*
X89460Y-52970D03*
X89460Y-52470D03*
X89460Y-51970D03*
X89460Y-51470D03*
X89460Y-50970D03*
X89460Y-50470D03*
X89460Y-49970D03*
X90010Y-49970D03*
X90010Y-50470D03*
X90010Y-50970D03*
X90010Y-51470D03*
X90010Y-51970D03*
X90010Y-52470D03*
X90010Y-52970D03*
X90010Y-53470D03*
X99030Y-54240D03*
X99030Y-53740D03*
X99030Y-53240D03*
X99030Y-52740D03*
X99030Y-52240D03*
X99030Y-51740D03*
X99030Y-51240D03*
X99030Y-50740D03*
X99580Y-50740D03*
X99580Y-51240D03*
X99580Y-51740D03*
X99580Y-52240D03*
X99580Y-52740D03*
X99580Y-53240D03*
X99580Y-53740D03*
X99580Y-54240D03*
G54D32*
X94530Y-47380D03*
X95030Y-47380D03*
X95530Y-47380D03*
X96030Y-47380D03*
X96530Y-47380D03*
X97030Y-47380D03*
X97530Y-47380D03*
X98030Y-47380D03*
X98030Y-47930D03*
X97530Y-47930D03*
X97030Y-47930D03*
X96530Y-47930D03*
X96030Y-47930D03*
X95530Y-47930D03*
X95030Y-47930D03*
X94530Y-47930D03*
X91470Y-58040D03*
X91970Y-58040D03*
X92470Y-58040D03*
X92970Y-58040D03*
X93470Y-58040D03*
X93970Y-58040D03*
X94470Y-58040D03*
X94970Y-58040D03*
X94970Y-58590D03*
X94470Y-58590D03*
X93970Y-58590D03*
X93470Y-58590D03*
X92970Y-58590D03*
X92470Y-58590D03*
X91970Y-58590D03*
X91470Y-58590D03*
X94540Y-48790D03*
X95040Y-48790D03*
X95540Y-48790D03*
X96040Y-48790D03*
X96540Y-48790D03*
X97040Y-48790D03*
X97540Y-48790D03*
X98040Y-48790D03*
X98040Y-49340D03*
X97540Y-49340D03*
X97040Y-49340D03*
X96540Y-49340D03*
X96040Y-49340D03*
X95540Y-49340D03*
X95040Y-49340D03*
X94540Y-49340D03*
X93520Y-59610D03*
X94020Y-59610D03*
X94520Y-59610D03*
X95020Y-59610D03*
X95020Y-60160D03*
X94520Y-60160D03*
X94020Y-60160D03*
X93520Y-60160D03*
G54D31*
X89460Y-55680D03*
X89460Y-55180D03*
X89460Y-54680D03*
X89460Y-54180D03*
X90010Y-54180D03*
X90010Y-54680D03*
X90010Y-55180D03*
X90010Y-55680D03*
X100450Y-55240D03*
X100450Y-54740D03*
X100450Y-54240D03*
X100450Y-53740D03*
X101000Y-53740D03*
X101000Y-54240D03*
X101000Y-54740D03*
X101000Y-55240D03*
G54D14*
X85280Y-50270D03*
X86580Y-50270D03*
X85280Y-45930D03*
X86580Y-45930D03*
X85280Y-62570D03*
X86580Y-62570D03*
X85280Y-58260D03*
X86580Y-58260D03*
G54D22*
X94990Y-45180D03*
G54D23*
X94990Y-44180D03*
G54D22*
X94930Y-63200D03*
G54D23*
X94930Y-62200D03*
G54D16*
X70910Y-60760D03*
X71510Y-60760D03*
G54D17*
X72870Y-45060D03*
X72870Y-44460D03*
X87410Y-59660D03*
X87410Y-60260D03*
G54D16*
X87570Y-64220D03*
X88170Y-64220D03*
X87480Y-44660D03*
X88080Y-44660D03*
G54D17*
X87690Y-49070D03*
X87690Y-48470D03*
G54D16*
X73900Y-57750D03*
X73300Y-57750D03*
G54D17*
X74290Y-55270D03*
X74290Y-55870D03*
X74970Y-52990D03*
X74970Y-52390D03*
X74000Y-52990D03*
X74000Y-52390D03*
X80320Y-57630D03*
X80320Y-58230D03*
X82570Y-51470D03*
X82570Y-50870D03*
G54D16*
X77600Y-59070D03*
X78200Y-59070D03*
G54D17*
X78890Y-50090D03*
X78890Y-50690D03*
G54D21*
X82180Y-63490D03*
X70370Y-44560D03*
X78940Y-60200D03*
X82670Y-46610D03*
X71900Y-44870D03*
X64500Y-43840D03*
X101110Y-45060D03*
X99470Y-46170D03*
X104040Y-59400D03*
X75520Y-54910D03*
X75030Y-63190D03*
X101640Y-57890D03*
G54D22*
X62300Y-46830D03*
G54D23*
X62300Y-45830D03*
X62300Y-44830D03*
X62300Y-43830D03*
X62300Y-42830D03*
G54D33*
X61750Y-63750D03*
X108000Y-43000D03*
X108000Y-63750D03*
X66750Y-46750D03*
M02*
