G04 (created by PCBNEW (2013-07-07 BZR 4022)-stable) date 9/7/2014 5:26:02 PM*
%MOIN*%
G04 Gerber Fmt 3.4, Leading zero omitted, Abs format*
%FSLAX34Y34*%
G01*
G70*
G90*
G04 APERTURE LIST*
%ADD10C,0.00590551*%
%ADD11R,0.055X0.055*%
%ADD12C,0.055*%
%ADD13C,0.045*%
%ADD14R,0.06X0.06*%
%ADD15C,0.06*%
%ADD16C,0.0314961*%
%ADD17C,0.07*%
%ADD18C,0.02*%
%ADD19C,0.006*%
%ADD20C,0.01*%
G04 APERTURE END LIST*
G54D10*
G54D11*
X72370Y-56770D03*
G54D12*
X73370Y-56770D03*
X74370Y-56770D03*
X75370Y-56770D03*
X76370Y-56770D03*
X77370Y-56770D03*
X78370Y-56770D03*
X79370Y-56770D03*
G54D11*
X72370Y-51570D03*
G54D12*
X73370Y-51570D03*
X74370Y-51570D03*
X75370Y-51570D03*
X76370Y-51570D03*
X77370Y-51570D03*
X78370Y-51570D03*
X79370Y-51570D03*
G54D11*
X60970Y-52770D03*
G54D12*
X60970Y-53770D03*
X60970Y-54770D03*
X60970Y-55770D03*
G54D11*
X108210Y-52310D03*
G54D12*
X108210Y-53310D03*
X108210Y-54310D03*
X108210Y-55310D03*
G54D11*
X97800Y-46380D03*
G54D12*
X96800Y-46380D03*
X95800Y-46380D03*
G54D11*
X75770Y-49470D03*
G54D12*
X74770Y-49470D03*
X73770Y-49470D03*
G54D11*
X73770Y-58870D03*
G54D12*
X74770Y-58870D03*
X75770Y-58870D03*
G54D13*
X70970Y-50670D03*
X82570Y-54670D03*
X82570Y-53670D03*
X79070Y-47670D03*
X77320Y-58280D03*
X70370Y-57770D03*
X62270Y-55770D03*
X62270Y-58770D03*
X62270Y-49770D03*
X62270Y-52770D03*
X79370Y-49570D03*
X79470Y-58300D03*
X87690Y-50270D03*
X86580Y-44710D03*
X86580Y-63860D03*
X87690Y-58270D03*
X72870Y-45960D03*
X71450Y-60040D03*
G54D14*
X102630Y-54520D03*
G54D15*
X102630Y-53520D03*
X102630Y-52520D03*
X102630Y-51520D03*
G54D14*
X103030Y-46540D03*
G54D15*
X103030Y-47540D03*
G54D14*
X101250Y-51550D03*
G54D15*
X101250Y-50550D03*
G54D14*
X105490Y-56770D03*
G54D15*
X104490Y-56770D03*
X105490Y-55770D03*
X104490Y-55770D03*
X105490Y-54770D03*
X104490Y-54770D03*
X105490Y-53770D03*
X104490Y-53770D03*
X105490Y-52770D03*
X104490Y-52770D03*
X105490Y-51770D03*
X104490Y-51770D03*
X105490Y-50770D03*
X104490Y-50770D03*
X105490Y-49770D03*
X104490Y-49770D03*
X105490Y-48770D03*
X104490Y-48770D03*
X105490Y-47770D03*
X104490Y-47770D03*
X105490Y-46770D03*
X104490Y-46770D03*
X105490Y-45770D03*
X104490Y-45770D03*
G54D16*
X86230Y-54920D03*
X86230Y-52999D03*
G54D17*
X89220Y-45710D03*
X91220Y-45710D03*
X92220Y-45710D03*
X93220Y-45710D03*
X93220Y-43710D03*
X92220Y-43710D03*
X91220Y-43710D03*
X89220Y-43710D03*
X89220Y-63700D03*
X91220Y-63700D03*
X92220Y-63700D03*
X93220Y-63700D03*
X93220Y-61700D03*
X92220Y-61700D03*
X91220Y-61700D03*
X89220Y-61700D03*
G54D14*
X94990Y-45180D03*
G54D15*
X94990Y-44180D03*
G54D14*
X94930Y-63200D03*
G54D15*
X94930Y-62200D03*
G54D13*
X82180Y-63490D03*
X70370Y-44560D03*
X78940Y-60200D03*
X82670Y-46610D03*
X71900Y-44870D03*
X64500Y-43840D03*
X101110Y-45060D03*
X99470Y-46170D03*
X104040Y-59400D03*
X75520Y-54910D03*
X75030Y-63190D03*
X101640Y-57890D03*
G54D14*
X62300Y-46830D03*
G54D15*
X62300Y-45830D03*
X62300Y-44830D03*
X62300Y-43830D03*
X62300Y-42830D03*
G54D18*
X90720Y-57100D03*
X91290Y-56820D03*
X98530Y-56220D03*
X91990Y-50590D03*
X98410Y-51090D03*
X99620Y-48380D03*
X99630Y-47070D03*
X96580Y-57270D03*
X90550Y-47950D03*
X88840Y-59080D03*
X70600Y-53760D03*
X89240Y-42250D03*
X70070Y-57330D03*
X70710Y-54090D03*
X89250Y-65020D03*
X96670Y-56010D03*
X78880Y-51060D03*
X78310Y-57890D03*
X96870Y-56250D03*
X99580Y-47990D03*
X94110Y-47650D03*
X100020Y-49340D03*
X94110Y-48000D03*
X74970Y-53720D03*
X99720Y-57120D03*
X100330Y-57130D03*
X74390Y-57890D03*
X92100Y-54160D03*
X91240Y-51210D03*
X92070Y-51480D03*
X92100Y-53820D03*
X100230Y-50520D03*
X103350Y-55130D03*
X96100Y-54670D03*
X94470Y-56230D03*
X94700Y-56010D03*
X85500Y-52860D03*
X74460Y-52990D03*
X89090Y-48170D03*
X71970Y-49060D03*
X71320Y-49310D03*
X88400Y-49200D03*
X92930Y-47290D03*
X93210Y-46740D03*
X102730Y-61600D03*
X97070Y-60430D03*
X97990Y-61600D03*
X87380Y-57180D03*
X91990Y-48560D03*
X106960Y-48150D03*
X106960Y-49120D03*
X106960Y-52130D03*
X100330Y-58280D03*
X99720Y-58280D03*
X91600Y-46860D03*
X88290Y-60860D03*
X89430Y-47470D03*
X99230Y-47750D03*
X99230Y-49170D03*
X98210Y-51340D03*
X98700Y-50060D03*
X100110Y-53120D03*
X99390Y-55820D03*
X96080Y-56250D03*
X97810Y-59100D03*
X95690Y-60680D03*
X91980Y-60160D03*
X90260Y-58940D03*
X89910Y-59980D03*
X91190Y-55890D03*
X90410Y-56440D03*
X92530Y-50210D03*
X91120Y-50200D03*
X90290Y-49260D03*
X87136Y-51382D03*
X98300Y-50060D03*
X85130Y-53830D03*
X87110Y-56490D03*
X97370Y-57560D03*
X97190Y-58200D03*
X80170Y-50410D03*
X80830Y-50410D03*
X86580Y-47650D03*
X86580Y-48540D03*
X79990Y-62860D03*
X82320Y-56630D03*
X86580Y-59990D03*
X86580Y-60830D03*
X80820Y-58430D03*
X79620Y-60410D03*
X80820Y-45900D03*
X80820Y-54990D03*
X80820Y-52410D03*
X78770Y-53560D03*
X77390Y-52670D03*
X77370Y-55670D03*
X76660Y-58240D03*
X77320Y-63320D03*
X79440Y-62360D03*
X77820Y-59820D03*
X67260Y-59870D03*
X67250Y-62670D03*
X71470Y-62770D03*
X71580Y-58470D03*
X77800Y-49820D03*
X77420Y-44420D03*
X77320Y-47640D03*
X71970Y-45920D03*
X63070Y-56870D03*
X63070Y-57670D03*
X63070Y-50870D03*
X63070Y-51670D03*
X71370Y-56960D03*
X67530Y-53470D03*
X68590Y-51720D03*
X68670Y-47090D03*
X98350Y-53530D03*
X100000Y-55240D03*
X97310Y-55000D03*
X99990Y-54240D03*
X97310Y-54210D03*
X96520Y-59550D03*
X94770Y-57100D03*
X98110Y-53410D03*
X98180Y-53090D03*
X97330Y-53030D03*
X91290Y-54210D03*
X88990Y-51350D03*
X89030Y-55080D03*
X91110Y-55610D03*
X89030Y-54580D03*
X91300Y-55390D03*
X89020Y-52080D03*
X91110Y-54410D03*
X88990Y-52580D03*
X91290Y-54600D03*
X89030Y-53080D03*
X91120Y-54810D03*
X89030Y-53580D03*
X91300Y-55000D03*
X89030Y-54080D03*
X91110Y-55210D03*
X93520Y-59090D03*
X95100Y-57100D03*
X94020Y-59090D03*
X95290Y-57280D03*
X94520Y-59080D03*
X95490Y-57080D03*
X95020Y-59080D03*
X95690Y-57270D03*
X99990Y-54790D03*
X97070Y-54800D03*
X100000Y-53750D03*
X97130Y-54020D03*
X96410Y-54220D03*
X96660Y-53950D03*
X93310Y-51010D03*
X93910Y-51010D03*
X98030Y-48360D03*
X95490Y-50180D03*
X97530Y-48360D03*
X95270Y-50040D03*
X97030Y-48360D03*
X95090Y-50230D03*
X96530Y-48360D03*
X94880Y-49810D03*
X96030Y-48360D03*
X94700Y-50150D03*
X95530Y-48360D03*
X94430Y-49960D03*
X95030Y-48360D03*
X94310Y-50210D03*
X94530Y-48360D03*
X94030Y-50130D03*
X70130Y-55020D03*
X70790Y-53400D03*
X70490Y-52470D03*
X68310Y-52270D03*
X74880Y-47620D03*
X78350Y-45000D03*
X79850Y-61990D03*
X80830Y-49320D03*
X78520Y-49090D03*
X71370Y-55740D03*
X68880Y-60360D03*
X78570Y-63610D03*
X85010Y-63910D03*
X77780Y-53670D03*
X78370Y-55170D03*
X84060Y-55450D03*
X84930Y-51610D03*
X68680Y-45390D03*
X83300Y-43770D03*
X83470Y-59600D03*
X71500Y-48870D03*
X80020Y-52920D03*
X76400Y-59700D03*
X70900Y-61910D03*
X69020Y-52920D03*
X76820Y-44420D03*
X79970Y-48920D03*
X83470Y-47270D03*
X83470Y-47870D03*
G54D19*
X71970Y-49060D02*
X71970Y-45920D01*
X71970Y-49060D02*
X71970Y-49310D01*
X73350Y-48560D02*
X76370Y-48560D01*
X72600Y-49310D02*
X73350Y-48560D01*
X71320Y-49310D02*
X71970Y-49310D01*
X71970Y-49310D02*
X72600Y-49310D01*
X95800Y-46380D02*
X93570Y-46380D01*
X93570Y-46380D02*
X93210Y-46740D01*
X87240Y-49200D02*
X86580Y-48540D01*
X88400Y-49200D02*
X87240Y-49200D01*
X92930Y-47020D02*
X93210Y-46740D01*
X92930Y-47290D02*
X92930Y-47020D01*
X91720Y-46740D02*
X91600Y-46860D01*
X93210Y-46740D02*
X91720Y-46740D01*
X102730Y-61600D02*
X97990Y-61600D01*
X95940Y-60430D02*
X95690Y-60680D01*
X97070Y-60430D02*
X95940Y-60430D01*
X96610Y-61600D02*
X95690Y-60680D01*
X97990Y-61600D02*
X96610Y-61600D01*
X104490Y-53770D02*
X104490Y-54770D01*
X87110Y-56910D02*
X87110Y-56490D01*
X87380Y-57180D02*
X87110Y-56910D01*
X91290Y-49260D02*
X90290Y-49260D01*
X91990Y-48560D02*
X91290Y-49260D01*
X105010Y-48250D02*
X104490Y-48770D01*
X106860Y-48250D02*
X105010Y-48250D01*
X106960Y-48150D02*
X106860Y-48250D01*
X104980Y-49280D02*
X104490Y-49770D01*
X106800Y-49280D02*
X104980Y-49280D01*
X106960Y-49120D02*
X106800Y-49280D01*
X105000Y-52280D02*
X104490Y-51770D01*
X106810Y-52280D02*
X105000Y-52280D01*
X106960Y-52130D02*
X106810Y-52280D01*
X104490Y-47770D02*
X104490Y-48770D01*
X104490Y-48770D02*
X104490Y-49770D01*
X104490Y-49770D02*
X104490Y-50770D01*
X104490Y-50770D02*
X104490Y-51770D01*
X104490Y-51770D02*
X104460Y-51800D01*
X104460Y-51800D02*
X104460Y-52740D01*
X104460Y-52740D02*
X104490Y-52770D01*
X104490Y-52770D02*
X104490Y-54770D01*
X104490Y-54770D02*
X104490Y-55770D01*
X104490Y-55770D02*
X104440Y-55820D01*
X104440Y-55820D02*
X99390Y-55820D01*
X100330Y-58280D02*
X99720Y-58280D01*
X98900Y-59100D02*
X97810Y-59100D01*
X99720Y-58280D02*
X98900Y-59100D01*
X90990Y-47470D02*
X89430Y-47470D01*
X91600Y-46860D02*
X90990Y-47470D01*
X88260Y-60830D02*
X86580Y-60830D01*
X88290Y-60860D02*
X88260Y-60830D01*
X89250Y-47650D02*
X86580Y-47650D01*
X89430Y-47470D02*
X89250Y-47650D01*
X99230Y-49170D02*
X99230Y-47750D01*
X98700Y-50060D02*
X98700Y-49700D01*
X98700Y-49700D02*
X99230Y-49170D01*
X98210Y-51220D02*
X98210Y-51340D01*
X98300Y-50060D02*
X98700Y-50060D01*
X98300Y-50060D02*
X98210Y-50150D01*
X98210Y-50150D02*
X98210Y-51220D01*
X98210Y-51220D02*
X100110Y-53120D01*
X100110Y-53120D02*
X100200Y-53120D01*
X100090Y-55820D02*
X99390Y-55820D01*
X100510Y-55400D02*
X100090Y-55820D01*
X100510Y-53430D02*
X100510Y-55400D01*
X100200Y-53120D02*
X100510Y-53430D01*
X99390Y-55820D02*
X99390Y-57520D01*
X99390Y-57520D02*
X97810Y-59100D01*
X96080Y-56250D02*
X96080Y-56270D01*
X96080Y-56270D02*
X97370Y-57560D01*
X97370Y-57560D02*
X97810Y-58000D01*
X97810Y-58000D02*
X97810Y-59100D01*
X97190Y-58200D02*
X97810Y-58820D01*
X97810Y-58820D02*
X97810Y-59100D01*
X97810Y-59100D02*
X96230Y-60680D01*
X96230Y-60680D02*
X95690Y-60680D01*
X95690Y-60680D02*
X92500Y-60680D01*
X92500Y-60680D02*
X91980Y-60160D01*
X91980Y-60160D02*
X90090Y-60160D01*
X90090Y-60160D02*
X89910Y-59980D01*
X90260Y-58940D02*
X90260Y-59630D01*
X90260Y-59630D02*
X89910Y-59980D01*
X89900Y-59990D02*
X86580Y-59990D01*
X89910Y-59980D02*
X89900Y-59990D01*
X90640Y-56440D02*
X90410Y-56440D01*
X91190Y-55890D02*
X90640Y-56440D01*
X90360Y-56490D02*
X87110Y-56490D01*
X90410Y-56440D02*
X90360Y-56490D01*
X92520Y-50200D02*
X91120Y-50200D01*
X92530Y-50210D02*
X92520Y-50200D01*
X90290Y-49370D02*
X90290Y-49260D01*
X91120Y-50200D02*
X90290Y-49370D01*
X89570Y-48540D02*
X86580Y-48540D01*
X90290Y-49260D02*
X89570Y-48540D01*
X86580Y-50826D02*
X86580Y-48540D01*
X87136Y-51382D02*
X86580Y-50826D01*
X83710Y-52410D02*
X82710Y-52410D01*
X85130Y-53830D02*
X83710Y-52410D01*
X87110Y-56490D02*
X87110Y-56630D01*
X82320Y-56630D02*
X87110Y-56630D01*
X87110Y-56630D02*
X90880Y-56630D01*
X90880Y-56630D02*
X92835Y-54675D01*
X92835Y-54675D02*
X93590Y-53920D01*
X80170Y-50410D02*
X78390Y-50410D01*
X78390Y-50410D02*
X77800Y-49820D01*
X80170Y-50410D02*
X80830Y-50410D01*
X86580Y-47650D02*
X86580Y-48540D01*
X82710Y-52410D02*
X80820Y-52410D01*
X86580Y-48540D02*
X82710Y-52410D01*
X79490Y-62360D02*
X79440Y-62360D01*
X79990Y-62860D02*
X79490Y-62360D01*
X80820Y-58130D02*
X80820Y-58430D01*
X82320Y-56630D02*
X80820Y-58130D01*
X86580Y-59990D02*
X86160Y-60410D01*
X86160Y-60410D02*
X79620Y-60410D01*
X86580Y-60830D02*
X86160Y-60410D01*
X79620Y-59630D02*
X79620Y-60410D01*
X80820Y-58430D02*
X79620Y-59630D01*
X79020Y-61010D02*
X79010Y-61010D01*
X79620Y-60410D02*
X79020Y-61010D01*
X79340Y-44420D02*
X77420Y-44420D01*
X80820Y-45900D02*
X79340Y-44420D01*
X80820Y-54990D02*
X80820Y-52410D01*
X79920Y-52410D02*
X78770Y-53560D01*
X80820Y-52410D02*
X79920Y-52410D01*
X78280Y-53560D02*
X77390Y-52670D01*
X78770Y-53560D02*
X78280Y-53560D01*
X77370Y-55670D02*
X77390Y-55650D01*
X77390Y-55650D02*
X77390Y-52670D01*
X77370Y-51570D02*
X77390Y-51590D01*
X77390Y-51590D02*
X77390Y-52670D01*
X77370Y-55670D02*
X77370Y-56770D01*
X77820Y-59820D02*
X76660Y-58660D01*
X76660Y-58660D02*
X76660Y-58240D01*
X77370Y-57530D02*
X77370Y-56770D01*
X76660Y-58240D02*
X77370Y-57530D01*
X78280Y-62360D02*
X79440Y-62360D01*
X77320Y-63320D02*
X78280Y-62360D01*
X79440Y-61440D02*
X79440Y-62360D01*
X77820Y-59820D02*
X79010Y-61010D01*
X79010Y-61010D02*
X79440Y-61440D01*
X71580Y-58470D02*
X68660Y-58470D01*
X68660Y-58470D02*
X67260Y-59870D01*
X67250Y-62670D02*
X67250Y-59880D01*
X67250Y-59880D02*
X67260Y-59870D01*
X71370Y-62670D02*
X67250Y-62670D01*
X71470Y-62770D02*
X71370Y-62670D01*
X71370Y-58260D02*
X71370Y-56960D01*
X71580Y-58470D02*
X71370Y-58260D01*
X77370Y-50250D02*
X77370Y-49560D01*
X77370Y-49560D02*
X76370Y-48560D01*
X77370Y-50250D02*
X77370Y-51570D01*
X77800Y-49820D02*
X77370Y-50250D01*
X77320Y-44520D02*
X77320Y-47640D01*
X77420Y-44420D02*
X77320Y-44520D01*
X76400Y-48560D02*
X76370Y-48560D01*
X77320Y-47640D02*
X76400Y-48560D01*
X69970Y-47090D02*
X68670Y-47090D01*
X70800Y-47090D02*
X68670Y-47090D01*
X71970Y-45920D02*
X70800Y-47090D01*
X63070Y-56870D02*
X64130Y-56870D01*
X64130Y-56870D02*
X67530Y-53470D01*
X63070Y-50870D02*
X67740Y-50870D01*
X67740Y-50870D02*
X68590Y-51720D01*
X63070Y-56870D02*
X63070Y-57670D01*
X63070Y-50870D02*
X63070Y-51670D01*
X71370Y-56960D02*
X71020Y-56960D01*
X71020Y-56960D02*
X67530Y-53470D01*
X68590Y-51720D02*
X68590Y-52410D01*
X68590Y-52410D02*
X67530Y-53470D01*
X68670Y-47090D02*
X68670Y-51640D01*
X68670Y-51640D02*
X68590Y-51720D01*
G54D10*
G36*
X109400Y-65049D02*
X108940Y-65049D01*
X108940Y-63563D01*
X108940Y-42813D01*
X108797Y-42468D01*
X108533Y-42203D01*
X108187Y-42060D01*
X107813Y-42059D01*
X107468Y-42202D01*
X107203Y-42466D01*
X107060Y-42812D01*
X107059Y-43186D01*
X107202Y-43531D01*
X107466Y-43796D01*
X107812Y-43939D01*
X108186Y-43940D01*
X108531Y-43797D01*
X108796Y-43533D01*
X108939Y-43187D01*
X108940Y-42813D01*
X108940Y-63563D01*
X108797Y-63218D01*
X108735Y-63155D01*
X108735Y-55206D01*
X108655Y-55013D01*
X108507Y-54865D01*
X108374Y-54809D01*
X108507Y-54755D01*
X108654Y-54607D01*
X108734Y-54414D01*
X108735Y-54206D01*
X108655Y-54013D01*
X108507Y-53865D01*
X108374Y-53809D01*
X108507Y-53755D01*
X108654Y-53607D01*
X108734Y-53414D01*
X108735Y-53206D01*
X108655Y-53013D01*
X108507Y-52865D01*
X108435Y-52835D01*
X108534Y-52835D01*
X108626Y-52797D01*
X108696Y-52726D01*
X108734Y-52634D01*
X108735Y-52535D01*
X108735Y-51985D01*
X108697Y-51893D01*
X108626Y-51823D01*
X108534Y-51785D01*
X108435Y-51784D01*
X107885Y-51784D01*
X107793Y-51822D01*
X107723Y-51893D01*
X107685Y-51985D01*
X107684Y-52084D01*
X107684Y-52634D01*
X107722Y-52726D01*
X107793Y-52796D01*
X107885Y-52834D01*
X107984Y-52835D01*
X107984Y-52835D01*
X107913Y-52864D01*
X107765Y-53012D01*
X107685Y-53205D01*
X107684Y-53413D01*
X107764Y-53607D01*
X107912Y-53754D01*
X108045Y-53810D01*
X107913Y-53864D01*
X107765Y-54012D01*
X107685Y-54205D01*
X107684Y-54413D01*
X107764Y-54607D01*
X107912Y-54754D01*
X108045Y-54810D01*
X107913Y-54864D01*
X107765Y-55012D01*
X107685Y-55205D01*
X107684Y-55413D01*
X107764Y-55607D01*
X107912Y-55754D01*
X108105Y-55834D01*
X108313Y-55835D01*
X108507Y-55755D01*
X108654Y-55607D01*
X108734Y-55414D01*
X108735Y-55206D01*
X108735Y-63155D01*
X108533Y-62953D01*
X108187Y-62810D01*
X107813Y-62809D01*
X107468Y-62952D01*
X107203Y-63216D01*
X107060Y-63562D01*
X107059Y-63936D01*
X107202Y-64281D01*
X107466Y-64546D01*
X107812Y-64689D01*
X108186Y-64690D01*
X108531Y-64547D01*
X108796Y-64283D01*
X108939Y-63937D01*
X108940Y-63563D01*
X108940Y-65049D01*
X106040Y-65048D01*
X106040Y-55661D01*
X105956Y-55458D01*
X105801Y-55304D01*
X105720Y-55270D01*
X105801Y-55236D01*
X105955Y-55081D01*
X106039Y-54879D01*
X106040Y-54661D01*
X105956Y-54458D01*
X105801Y-54304D01*
X105720Y-54270D01*
X105801Y-54236D01*
X105955Y-54081D01*
X106039Y-53879D01*
X106040Y-53661D01*
X105956Y-53458D01*
X105801Y-53304D01*
X105720Y-53270D01*
X105801Y-53236D01*
X105955Y-53081D01*
X106039Y-52879D01*
X106040Y-52661D01*
X105956Y-52458D01*
X105801Y-52304D01*
X105720Y-52270D01*
X105801Y-52236D01*
X105955Y-52081D01*
X106039Y-51879D01*
X106040Y-51661D01*
X105956Y-51458D01*
X105801Y-51304D01*
X105720Y-51270D01*
X105801Y-51236D01*
X105955Y-51081D01*
X106039Y-50879D01*
X106040Y-50661D01*
X105956Y-50458D01*
X105801Y-50304D01*
X105720Y-50270D01*
X105801Y-50236D01*
X105955Y-50081D01*
X106039Y-49879D01*
X106040Y-49661D01*
X105956Y-49458D01*
X105801Y-49304D01*
X105720Y-49270D01*
X105801Y-49236D01*
X105955Y-49081D01*
X106039Y-48879D01*
X106040Y-48661D01*
X105956Y-48458D01*
X105801Y-48304D01*
X105720Y-48270D01*
X105801Y-48236D01*
X105955Y-48081D01*
X106039Y-47879D01*
X106040Y-47661D01*
X105956Y-47458D01*
X105801Y-47304D01*
X105720Y-47270D01*
X105801Y-47236D01*
X105955Y-47081D01*
X106039Y-46879D01*
X106040Y-46661D01*
X105956Y-46458D01*
X105801Y-46304D01*
X105720Y-46270D01*
X105801Y-46236D01*
X105955Y-46081D01*
X106039Y-45879D01*
X106040Y-45661D01*
X105956Y-45458D01*
X105801Y-45304D01*
X105599Y-45220D01*
X105381Y-45219D01*
X105178Y-45303D01*
X105024Y-45458D01*
X104990Y-45539D01*
X104956Y-45458D01*
X104801Y-45304D01*
X104599Y-45220D01*
X104381Y-45219D01*
X104178Y-45303D01*
X104024Y-45458D01*
X103940Y-45660D01*
X103939Y-45878D01*
X104023Y-46081D01*
X104178Y-46235D01*
X104259Y-46269D01*
X104178Y-46303D01*
X104024Y-46458D01*
X103940Y-46660D01*
X103939Y-46878D01*
X104023Y-47081D01*
X104178Y-47235D01*
X104380Y-47319D01*
X104598Y-47320D01*
X104801Y-47236D01*
X104955Y-47081D01*
X104989Y-47000D01*
X105023Y-47081D01*
X105178Y-47235D01*
X105259Y-47269D01*
X105178Y-47303D01*
X105024Y-47458D01*
X104940Y-47660D01*
X104939Y-47878D01*
X105023Y-48081D01*
X105178Y-48235D01*
X105259Y-48269D01*
X105178Y-48303D01*
X105024Y-48458D01*
X104940Y-48660D01*
X104939Y-48878D01*
X105023Y-49081D01*
X105178Y-49235D01*
X105259Y-49269D01*
X105178Y-49303D01*
X105024Y-49458D01*
X104940Y-49660D01*
X104939Y-49878D01*
X105023Y-50081D01*
X105178Y-50235D01*
X105259Y-50269D01*
X105178Y-50303D01*
X105024Y-50458D01*
X104940Y-50660D01*
X104939Y-50878D01*
X105023Y-51081D01*
X105178Y-51235D01*
X105259Y-51269D01*
X105178Y-51303D01*
X105024Y-51458D01*
X104940Y-51660D01*
X104939Y-51878D01*
X105023Y-52081D01*
X105178Y-52235D01*
X105259Y-52269D01*
X105178Y-52303D01*
X105024Y-52458D01*
X104940Y-52660D01*
X104939Y-52878D01*
X105023Y-53081D01*
X105178Y-53235D01*
X105259Y-53269D01*
X105178Y-53303D01*
X105024Y-53458D01*
X104940Y-53660D01*
X104939Y-53878D01*
X105023Y-54081D01*
X105178Y-54235D01*
X105259Y-54269D01*
X105178Y-54303D01*
X105024Y-54458D01*
X104940Y-54660D01*
X104939Y-54878D01*
X105023Y-55081D01*
X105178Y-55235D01*
X105259Y-55269D01*
X105178Y-55303D01*
X105024Y-55458D01*
X104940Y-55660D01*
X104939Y-55878D01*
X105023Y-56081D01*
X105162Y-56219D01*
X105140Y-56219D01*
X105048Y-56257D01*
X104978Y-56328D01*
X104940Y-56420D01*
X104940Y-56442D01*
X104801Y-56304D01*
X104599Y-56220D01*
X104381Y-56219D01*
X104178Y-56303D01*
X104024Y-56458D01*
X103940Y-56660D01*
X103939Y-56878D01*
X104023Y-57081D01*
X104178Y-57235D01*
X104380Y-57319D01*
X104598Y-57320D01*
X104801Y-57236D01*
X104939Y-57097D01*
X104939Y-57119D01*
X104977Y-57211D01*
X105048Y-57281D01*
X105140Y-57319D01*
X105239Y-57320D01*
X105839Y-57320D01*
X105931Y-57282D01*
X106001Y-57211D01*
X106039Y-57119D01*
X106040Y-57020D01*
X106040Y-56420D01*
X106002Y-56328D01*
X105931Y-56258D01*
X105839Y-56220D01*
X105817Y-56220D01*
X105955Y-56081D01*
X106039Y-55879D01*
X106040Y-55661D01*
X106040Y-65048D01*
X104515Y-65047D01*
X104515Y-59305D01*
X104442Y-59131D01*
X104309Y-58997D01*
X104134Y-58925D01*
X103945Y-58924D01*
X103771Y-58997D01*
X103700Y-59068D01*
X103700Y-55060D01*
X103646Y-54932D01*
X103580Y-54865D01*
X103580Y-47431D01*
X103496Y-47228D01*
X103357Y-47090D01*
X103379Y-47090D01*
X103471Y-47052D01*
X103541Y-46981D01*
X103579Y-46889D01*
X103580Y-46790D01*
X103580Y-46190D01*
X103542Y-46098D01*
X103471Y-46028D01*
X103379Y-45990D01*
X103280Y-45989D01*
X102680Y-45989D01*
X102588Y-46027D01*
X102518Y-46098D01*
X102480Y-46190D01*
X102479Y-46289D01*
X102479Y-46889D01*
X102517Y-46981D01*
X102588Y-47051D01*
X102680Y-47089D01*
X102702Y-47089D01*
X102564Y-47228D01*
X102480Y-47430D01*
X102479Y-47648D01*
X102563Y-47851D01*
X102718Y-48005D01*
X102920Y-48089D01*
X103138Y-48090D01*
X103341Y-48006D01*
X103495Y-47851D01*
X103579Y-47649D01*
X103580Y-47431D01*
X103580Y-54865D01*
X103548Y-54833D01*
X103419Y-54780D01*
X103280Y-54779D01*
X103179Y-54821D01*
X103180Y-54770D01*
X103180Y-54170D01*
X103142Y-54078D01*
X103071Y-54008D01*
X102979Y-53970D01*
X102957Y-53970D01*
X103095Y-53831D01*
X103179Y-53629D01*
X103180Y-53411D01*
X103096Y-53208D01*
X102941Y-53054D01*
X102860Y-53020D01*
X102941Y-52986D01*
X103095Y-52831D01*
X103179Y-52629D01*
X103180Y-52411D01*
X103096Y-52208D01*
X102941Y-52054D01*
X102860Y-52020D01*
X102941Y-51986D01*
X103095Y-51831D01*
X103179Y-51629D01*
X103180Y-51411D01*
X103096Y-51208D01*
X102941Y-51054D01*
X102739Y-50970D01*
X102521Y-50969D01*
X102318Y-51053D01*
X102164Y-51208D01*
X102080Y-51410D01*
X102079Y-51628D01*
X102163Y-51831D01*
X102318Y-51985D01*
X102399Y-52019D01*
X102318Y-52053D01*
X102164Y-52208D01*
X102080Y-52410D01*
X102079Y-52628D01*
X102163Y-52831D01*
X102318Y-52985D01*
X102399Y-53019D01*
X102318Y-53053D01*
X102164Y-53208D01*
X102080Y-53410D01*
X102079Y-53628D01*
X102163Y-53831D01*
X102302Y-53969D01*
X102280Y-53969D01*
X102188Y-54007D01*
X102118Y-54078D01*
X102080Y-54170D01*
X102079Y-54269D01*
X102079Y-54869D01*
X102117Y-54961D01*
X102188Y-55031D01*
X102280Y-55069D01*
X102379Y-55070D01*
X102979Y-55070D01*
X103000Y-55061D01*
X102999Y-55199D01*
X103053Y-55328D01*
X103151Y-55426D01*
X103280Y-55479D01*
X103419Y-55480D01*
X103548Y-55426D01*
X103646Y-55328D01*
X103699Y-55199D01*
X103700Y-55060D01*
X103700Y-59068D01*
X103637Y-59130D01*
X103565Y-59305D01*
X103564Y-59494D01*
X103637Y-59668D01*
X103770Y-59802D01*
X103945Y-59874D01*
X104134Y-59875D01*
X104308Y-59802D01*
X104442Y-59669D01*
X104514Y-59494D01*
X104515Y-59305D01*
X104515Y-65047D01*
X101800Y-65046D01*
X101800Y-50441D01*
X101716Y-50238D01*
X101585Y-50107D01*
X101585Y-44965D01*
X101512Y-44791D01*
X101379Y-44657D01*
X101204Y-44585D01*
X101015Y-44584D01*
X100841Y-44657D01*
X100707Y-44790D01*
X100635Y-44965D01*
X100634Y-45154D01*
X100707Y-45328D01*
X100840Y-45462D01*
X101015Y-45534D01*
X101204Y-45535D01*
X101378Y-45462D01*
X101512Y-45329D01*
X101584Y-45154D01*
X101585Y-44965D01*
X101585Y-50107D01*
X101561Y-50084D01*
X101359Y-50000D01*
X101141Y-49999D01*
X100938Y-50083D01*
X100784Y-50238D01*
X100700Y-50440D01*
X100699Y-50658D01*
X100783Y-50861D01*
X100922Y-50999D01*
X100900Y-50999D01*
X100808Y-51037D01*
X100738Y-51108D01*
X100700Y-51200D01*
X100699Y-51299D01*
X100699Y-51899D01*
X100737Y-51991D01*
X100808Y-52061D01*
X100900Y-52099D01*
X100999Y-52100D01*
X101599Y-52100D01*
X101691Y-52062D01*
X101761Y-51991D01*
X101799Y-51899D01*
X101800Y-51800D01*
X101800Y-51200D01*
X101762Y-51108D01*
X101691Y-51038D01*
X101599Y-51000D01*
X101577Y-51000D01*
X101715Y-50861D01*
X101799Y-50659D01*
X101800Y-50441D01*
X101800Y-65046D01*
X100680Y-65046D01*
X100680Y-57060D01*
X100626Y-56932D01*
X100580Y-56885D01*
X100580Y-50450D01*
X100526Y-50322D01*
X100428Y-50223D01*
X100370Y-50199D01*
X100370Y-49270D01*
X100316Y-49142D01*
X100218Y-49043D01*
X100089Y-48990D01*
X99980Y-48989D01*
X99980Y-47000D01*
X99945Y-46916D01*
X99945Y-46075D01*
X99872Y-45901D01*
X99739Y-45767D01*
X99564Y-45695D01*
X99375Y-45694D01*
X99201Y-45767D01*
X99067Y-45900D01*
X98995Y-46075D01*
X98994Y-46264D01*
X99067Y-46438D01*
X99200Y-46572D01*
X99375Y-46644D01*
X99564Y-46645D01*
X99738Y-46572D01*
X99872Y-46439D01*
X99944Y-46264D01*
X99945Y-46075D01*
X99945Y-46916D01*
X99926Y-46872D01*
X99828Y-46773D01*
X99699Y-46720D01*
X99560Y-46719D01*
X99432Y-46773D01*
X99333Y-46871D01*
X99280Y-47000D01*
X99279Y-47139D01*
X99333Y-47268D01*
X99431Y-47366D01*
X99560Y-47419D01*
X99699Y-47420D01*
X99828Y-47366D01*
X99926Y-47268D01*
X99979Y-47139D01*
X99980Y-47000D01*
X99980Y-48989D01*
X99970Y-48989D01*
X99970Y-48310D01*
X99916Y-48182D01*
X99890Y-48155D01*
X99929Y-48059D01*
X99930Y-47920D01*
X99876Y-47792D01*
X99778Y-47693D01*
X99649Y-47640D01*
X99510Y-47639D01*
X99382Y-47693D01*
X99283Y-47791D01*
X99230Y-47920D01*
X99229Y-48059D01*
X99283Y-48188D01*
X99309Y-48214D01*
X99270Y-48310D01*
X99269Y-48449D01*
X99323Y-48578D01*
X99421Y-48676D01*
X99550Y-48729D01*
X99689Y-48730D01*
X99818Y-48676D01*
X99916Y-48578D01*
X99969Y-48449D01*
X99970Y-48310D01*
X99970Y-48989D01*
X99950Y-48989D01*
X99822Y-49043D01*
X99723Y-49141D01*
X99670Y-49270D01*
X99669Y-49409D01*
X99723Y-49538D01*
X99821Y-49636D01*
X99950Y-49689D01*
X100089Y-49690D01*
X100218Y-49636D01*
X100316Y-49538D01*
X100369Y-49409D01*
X100370Y-49270D01*
X100370Y-50199D01*
X100299Y-50170D01*
X100160Y-50169D01*
X100032Y-50223D01*
X99933Y-50321D01*
X99880Y-50450D01*
X99879Y-50589D01*
X99933Y-50718D01*
X100031Y-50816D01*
X100160Y-50869D01*
X100299Y-50870D01*
X100428Y-50816D01*
X100526Y-50718D01*
X100579Y-50589D01*
X100580Y-50450D01*
X100580Y-56885D01*
X100528Y-56833D01*
X100399Y-56780D01*
X100350Y-56780D01*
X100350Y-55170D01*
X100296Y-55042D01*
X100264Y-55010D01*
X100286Y-54988D01*
X100339Y-54859D01*
X100340Y-54720D01*
X100286Y-54592D01*
X100209Y-54514D01*
X100286Y-54438D01*
X100339Y-54309D01*
X100340Y-54170D01*
X100286Y-54042D01*
X100244Y-54000D01*
X100296Y-53948D01*
X100349Y-53819D01*
X100350Y-53680D01*
X100296Y-53552D01*
X100198Y-53453D01*
X100069Y-53400D01*
X99930Y-53399D01*
X99802Y-53453D01*
X99703Y-53551D01*
X99650Y-53680D01*
X99649Y-53819D01*
X99703Y-53948D01*
X99745Y-53989D01*
X99693Y-54041D01*
X99640Y-54170D01*
X99639Y-54309D01*
X99693Y-54438D01*
X99770Y-54515D01*
X99693Y-54591D01*
X99640Y-54720D01*
X99639Y-54859D01*
X99693Y-54988D01*
X99725Y-55019D01*
X99703Y-55041D01*
X99650Y-55170D01*
X99649Y-55309D01*
X99703Y-55438D01*
X99801Y-55536D01*
X99930Y-55589D01*
X100069Y-55590D01*
X100198Y-55536D01*
X100296Y-55438D01*
X100349Y-55309D01*
X100350Y-55170D01*
X100350Y-56780D01*
X100260Y-56779D01*
X100132Y-56833D01*
X100033Y-56931D01*
X100027Y-56946D01*
X100016Y-56922D01*
X99918Y-56823D01*
X99789Y-56770D01*
X99650Y-56769D01*
X99522Y-56823D01*
X99423Y-56921D01*
X99370Y-57050D01*
X99369Y-57189D01*
X99423Y-57318D01*
X99521Y-57416D01*
X99650Y-57469D01*
X99789Y-57470D01*
X99918Y-57416D01*
X100016Y-57318D01*
X100022Y-57303D01*
X100033Y-57328D01*
X100131Y-57426D01*
X100260Y-57479D01*
X100399Y-57480D01*
X100528Y-57426D01*
X100626Y-57328D01*
X100679Y-57199D01*
X100680Y-57060D01*
X100680Y-65046D01*
X98880Y-65045D01*
X98880Y-56150D01*
X98826Y-56022D01*
X98760Y-55955D01*
X98760Y-51020D01*
X98706Y-50892D01*
X98608Y-50793D01*
X98479Y-50740D01*
X98380Y-50739D01*
X98380Y-48290D01*
X98326Y-48162D01*
X98325Y-48160D01*
X98325Y-46605D01*
X98325Y-46055D01*
X98287Y-45963D01*
X98216Y-45893D01*
X98124Y-45855D01*
X98025Y-45854D01*
X97475Y-45854D01*
X97383Y-45892D01*
X97313Y-45963D01*
X97275Y-46055D01*
X97274Y-46154D01*
X97274Y-46154D01*
X97245Y-46083D01*
X97097Y-45935D01*
X96904Y-45855D01*
X96696Y-45854D01*
X96503Y-45934D01*
X96355Y-46082D01*
X96275Y-46275D01*
X96274Y-46483D01*
X96354Y-46677D01*
X96502Y-46824D01*
X96695Y-46904D01*
X96903Y-46905D01*
X97097Y-46825D01*
X97244Y-46677D01*
X97274Y-46605D01*
X97274Y-46704D01*
X97312Y-46796D01*
X97383Y-46866D01*
X97475Y-46904D01*
X97574Y-46905D01*
X98124Y-46905D01*
X98216Y-46867D01*
X98286Y-46796D01*
X98324Y-46704D01*
X98325Y-46605D01*
X98325Y-48160D01*
X98228Y-48063D01*
X98099Y-48010D01*
X97960Y-48009D01*
X97832Y-48063D01*
X97779Y-48115D01*
X97728Y-48063D01*
X97599Y-48010D01*
X97460Y-48009D01*
X97332Y-48063D01*
X97279Y-48115D01*
X97228Y-48063D01*
X97099Y-48010D01*
X96960Y-48009D01*
X96832Y-48063D01*
X96779Y-48115D01*
X96728Y-48063D01*
X96599Y-48010D01*
X96460Y-48009D01*
X96332Y-48063D01*
X96279Y-48115D01*
X96228Y-48063D01*
X96099Y-48010D01*
X95960Y-48009D01*
X95832Y-48063D01*
X95779Y-48115D01*
X95728Y-48063D01*
X95599Y-48010D01*
X95540Y-48010D01*
X95540Y-44071D01*
X95456Y-43868D01*
X95301Y-43714D01*
X95099Y-43630D01*
X94881Y-43629D01*
X94678Y-43713D01*
X94524Y-43868D01*
X94440Y-44070D01*
X94439Y-44288D01*
X94523Y-44491D01*
X94662Y-44629D01*
X94640Y-44629D01*
X94548Y-44667D01*
X94478Y-44738D01*
X94440Y-44830D01*
X94439Y-44929D01*
X94439Y-45529D01*
X94477Y-45621D01*
X94548Y-45691D01*
X94640Y-45729D01*
X94739Y-45730D01*
X95339Y-45730D01*
X95431Y-45692D01*
X95501Y-45621D01*
X95539Y-45529D01*
X95540Y-45430D01*
X95540Y-44830D01*
X95502Y-44738D01*
X95431Y-44668D01*
X95339Y-44630D01*
X95317Y-44630D01*
X95455Y-44491D01*
X95539Y-44289D01*
X95540Y-44071D01*
X95540Y-48010D01*
X95460Y-48009D01*
X95332Y-48063D01*
X95279Y-48115D01*
X95228Y-48063D01*
X95099Y-48010D01*
X94960Y-48009D01*
X94832Y-48063D01*
X94779Y-48115D01*
X94728Y-48063D01*
X94599Y-48010D01*
X94460Y-48009D01*
X94459Y-48010D01*
X94460Y-47930D01*
X94416Y-47824D01*
X94459Y-47719D01*
X94460Y-47580D01*
X94406Y-47452D01*
X94308Y-47353D01*
X94179Y-47300D01*
X94040Y-47299D01*
X93912Y-47353D01*
X93820Y-47444D01*
X93820Y-45591D01*
X93820Y-43591D01*
X93728Y-43370D01*
X93560Y-43201D01*
X93339Y-43110D01*
X93101Y-43109D01*
X92880Y-43201D01*
X92719Y-43361D01*
X92560Y-43201D01*
X92339Y-43110D01*
X92101Y-43109D01*
X91880Y-43201D01*
X91719Y-43361D01*
X91560Y-43201D01*
X91339Y-43110D01*
X91101Y-43109D01*
X90880Y-43201D01*
X90711Y-43369D01*
X90620Y-43590D01*
X90619Y-43828D01*
X90711Y-44049D01*
X90879Y-44218D01*
X91100Y-44309D01*
X91338Y-44310D01*
X91559Y-44218D01*
X91720Y-44058D01*
X91879Y-44218D01*
X92100Y-44309D01*
X92338Y-44310D01*
X92559Y-44218D01*
X92720Y-44058D01*
X92879Y-44218D01*
X93100Y-44309D01*
X93338Y-44310D01*
X93559Y-44218D01*
X93728Y-44050D01*
X93819Y-43829D01*
X93820Y-43591D01*
X93820Y-45591D01*
X93728Y-45370D01*
X93560Y-45201D01*
X93339Y-45110D01*
X93101Y-45109D01*
X92880Y-45201D01*
X92719Y-45361D01*
X92560Y-45201D01*
X92339Y-45110D01*
X92101Y-45109D01*
X91880Y-45201D01*
X91719Y-45361D01*
X91560Y-45201D01*
X91339Y-45110D01*
X91101Y-45109D01*
X90880Y-45201D01*
X90711Y-45369D01*
X90620Y-45590D01*
X90619Y-45828D01*
X90711Y-46049D01*
X90879Y-46218D01*
X91100Y-46309D01*
X91338Y-46310D01*
X91559Y-46218D01*
X91720Y-46058D01*
X91879Y-46218D01*
X92100Y-46309D01*
X92338Y-46310D01*
X92559Y-46218D01*
X92720Y-46058D01*
X92879Y-46218D01*
X93100Y-46309D01*
X93338Y-46310D01*
X93559Y-46218D01*
X93728Y-46050D01*
X93819Y-45829D01*
X93820Y-45591D01*
X93820Y-47444D01*
X93813Y-47451D01*
X93760Y-47580D01*
X93759Y-47719D01*
X93803Y-47825D01*
X93760Y-47930D01*
X93759Y-48069D01*
X93813Y-48198D01*
X93911Y-48296D01*
X94040Y-48349D01*
X94179Y-48350D01*
X94180Y-48349D01*
X94179Y-48429D01*
X94233Y-48558D01*
X94331Y-48656D01*
X94460Y-48709D01*
X94599Y-48710D01*
X94728Y-48656D01*
X94780Y-48604D01*
X94831Y-48656D01*
X94960Y-48709D01*
X95099Y-48710D01*
X95228Y-48656D01*
X95280Y-48604D01*
X95331Y-48656D01*
X95460Y-48709D01*
X95599Y-48710D01*
X95728Y-48656D01*
X95780Y-48604D01*
X95831Y-48656D01*
X95960Y-48709D01*
X96099Y-48710D01*
X96228Y-48656D01*
X96280Y-48604D01*
X96331Y-48656D01*
X96460Y-48709D01*
X96599Y-48710D01*
X96728Y-48656D01*
X96780Y-48604D01*
X96831Y-48656D01*
X96960Y-48709D01*
X97099Y-48710D01*
X97228Y-48656D01*
X97280Y-48604D01*
X97331Y-48656D01*
X97460Y-48709D01*
X97599Y-48710D01*
X97728Y-48656D01*
X97780Y-48604D01*
X97831Y-48656D01*
X97960Y-48709D01*
X98099Y-48710D01*
X98228Y-48656D01*
X98326Y-48558D01*
X98379Y-48429D01*
X98380Y-48290D01*
X98380Y-50739D01*
X98340Y-50739D01*
X98212Y-50793D01*
X98113Y-50891D01*
X98060Y-51020D01*
X98059Y-51159D01*
X98113Y-51288D01*
X98211Y-51386D01*
X98340Y-51439D01*
X98479Y-51440D01*
X98608Y-51386D01*
X98706Y-51288D01*
X98759Y-51159D01*
X98760Y-51020D01*
X98760Y-55955D01*
X98728Y-55923D01*
X98700Y-55911D01*
X98700Y-53460D01*
X98646Y-53332D01*
X98548Y-53233D01*
X98506Y-53216D01*
X98529Y-53159D01*
X98530Y-53020D01*
X98476Y-52892D01*
X98378Y-52793D01*
X98249Y-52740D01*
X98110Y-52739D01*
X97982Y-52793D01*
X97883Y-52891D01*
X97830Y-53020D01*
X97829Y-53159D01*
X97840Y-53184D01*
X97813Y-53211D01*
X97760Y-53340D01*
X97759Y-53479D01*
X97813Y-53608D01*
X97911Y-53706D01*
X98040Y-53759D01*
X98085Y-53759D01*
X98151Y-53826D01*
X98280Y-53879D01*
X98419Y-53880D01*
X98548Y-53826D01*
X98646Y-53728D01*
X98699Y-53599D01*
X98700Y-53460D01*
X98700Y-55911D01*
X98599Y-55870D01*
X98460Y-55869D01*
X98332Y-55923D01*
X98233Y-56021D01*
X98180Y-56150D01*
X98179Y-56289D01*
X98233Y-56418D01*
X98331Y-56516D01*
X98460Y-56569D01*
X98599Y-56570D01*
X98728Y-56516D01*
X98826Y-56418D01*
X98879Y-56289D01*
X98880Y-56150D01*
X98880Y-65045D01*
X97680Y-65045D01*
X97680Y-52960D01*
X97626Y-52832D01*
X97528Y-52733D01*
X97399Y-52680D01*
X97260Y-52679D01*
X97132Y-52733D01*
X97033Y-52831D01*
X96980Y-52960D01*
X96979Y-53099D01*
X97033Y-53228D01*
X97131Y-53326D01*
X97260Y-53379D01*
X97399Y-53380D01*
X97528Y-53326D01*
X97626Y-53228D01*
X97679Y-53099D01*
X97680Y-52960D01*
X97680Y-65045D01*
X97660Y-65045D01*
X97660Y-54930D01*
X97606Y-54802D01*
X97508Y-54703D01*
X97388Y-54653D01*
X97366Y-54602D01*
X97324Y-54560D01*
X97379Y-54560D01*
X97508Y-54506D01*
X97606Y-54408D01*
X97659Y-54279D01*
X97660Y-54140D01*
X97606Y-54012D01*
X97508Y-53913D01*
X97455Y-53891D01*
X97426Y-53822D01*
X97328Y-53723D01*
X97199Y-53670D01*
X97060Y-53669D01*
X96932Y-53723D01*
X96930Y-53725D01*
X96858Y-53653D01*
X96729Y-53600D01*
X96590Y-53599D01*
X96462Y-53653D01*
X96363Y-53751D01*
X96310Y-53880D01*
X96310Y-53882D01*
X96212Y-53923D01*
X96113Y-54021D01*
X96060Y-54150D01*
X96059Y-54289D01*
X96072Y-54319D01*
X96030Y-54319D01*
X95902Y-54373D01*
X95840Y-54434D01*
X95840Y-50110D01*
X95786Y-49982D01*
X95688Y-49883D01*
X95559Y-49830D01*
X95554Y-49830D01*
X95468Y-49743D01*
X95339Y-49690D01*
X95209Y-49689D01*
X95176Y-49612D01*
X95078Y-49513D01*
X94949Y-49460D01*
X94810Y-49459D01*
X94682Y-49513D01*
X94583Y-49611D01*
X94571Y-49639D01*
X94499Y-49610D01*
X94360Y-49609D01*
X94232Y-49663D01*
X94133Y-49761D01*
X94121Y-49789D01*
X94099Y-49780D01*
X93960Y-49779D01*
X93832Y-49833D01*
X93733Y-49931D01*
X93680Y-50060D01*
X93679Y-50199D01*
X93733Y-50328D01*
X93831Y-50426D01*
X93960Y-50479D01*
X94085Y-50480D01*
X94111Y-50506D01*
X94240Y-50559D01*
X94379Y-50560D01*
X94508Y-50506D01*
X94548Y-50466D01*
X94630Y-50499D01*
X94769Y-50500D01*
X94837Y-50472D01*
X94891Y-50526D01*
X95020Y-50579D01*
X95159Y-50580D01*
X95288Y-50526D01*
X95324Y-50490D01*
X95420Y-50529D01*
X95559Y-50530D01*
X95688Y-50476D01*
X95786Y-50378D01*
X95839Y-50249D01*
X95840Y-50110D01*
X95840Y-54434D01*
X95803Y-54471D01*
X95750Y-54600D01*
X95749Y-54739D01*
X95803Y-54868D01*
X95901Y-54966D01*
X96030Y-55019D01*
X96169Y-55020D01*
X96298Y-54966D01*
X96396Y-54868D01*
X96449Y-54739D01*
X96450Y-54600D01*
X96437Y-54570D01*
X96479Y-54570D01*
X96608Y-54516D01*
X96706Y-54418D01*
X96759Y-54289D01*
X96759Y-54287D01*
X96858Y-54246D01*
X96859Y-54244D01*
X96931Y-54316D01*
X96984Y-54338D01*
X97013Y-54408D01*
X97055Y-54449D01*
X97000Y-54449D01*
X96872Y-54503D01*
X96773Y-54601D01*
X96720Y-54730D01*
X96719Y-54869D01*
X96773Y-54998D01*
X96871Y-55096D01*
X96991Y-55146D01*
X97013Y-55198D01*
X97111Y-55296D01*
X97240Y-55349D01*
X97379Y-55350D01*
X97508Y-55296D01*
X97606Y-55198D01*
X97659Y-55069D01*
X97660Y-54930D01*
X97660Y-65045D01*
X97220Y-65044D01*
X97220Y-56180D01*
X97166Y-56052D01*
X97068Y-55953D01*
X97016Y-55931D01*
X96966Y-55812D01*
X96868Y-55713D01*
X96739Y-55660D01*
X96600Y-55659D01*
X96472Y-55713D01*
X96373Y-55811D01*
X96320Y-55940D01*
X96319Y-56079D01*
X96373Y-56208D01*
X96471Y-56306D01*
X96523Y-56328D01*
X96573Y-56448D01*
X96671Y-56546D01*
X96800Y-56599D01*
X96939Y-56600D01*
X97068Y-56546D01*
X97166Y-56448D01*
X97219Y-56319D01*
X97220Y-56180D01*
X97220Y-65044D01*
X96930Y-65044D01*
X96930Y-57200D01*
X96876Y-57072D01*
X96778Y-56973D01*
X96649Y-56920D01*
X96510Y-56919D01*
X96382Y-56973D01*
X96283Y-57071D01*
X96230Y-57200D01*
X96229Y-57339D01*
X96283Y-57468D01*
X96381Y-57566D01*
X96510Y-57619D01*
X96649Y-57620D01*
X96778Y-57566D01*
X96876Y-57468D01*
X96929Y-57339D01*
X96930Y-57200D01*
X96930Y-65044D01*
X96870Y-65044D01*
X96870Y-59480D01*
X96816Y-59352D01*
X96718Y-59253D01*
X96589Y-59200D01*
X96450Y-59199D01*
X96322Y-59253D01*
X96223Y-59351D01*
X96170Y-59480D01*
X96169Y-59619D01*
X96223Y-59748D01*
X96321Y-59846D01*
X96450Y-59899D01*
X96589Y-59900D01*
X96718Y-59846D01*
X96816Y-59748D01*
X96869Y-59619D01*
X96870Y-59480D01*
X96870Y-65044D01*
X96040Y-65044D01*
X96040Y-57200D01*
X95986Y-57072D01*
X95888Y-56973D01*
X95811Y-56941D01*
X95786Y-56882D01*
X95688Y-56783D01*
X95559Y-56730D01*
X95420Y-56729D01*
X95292Y-56783D01*
X95279Y-56795D01*
X95169Y-56750D01*
X95050Y-56749D01*
X95050Y-55940D01*
X94996Y-55812D01*
X94898Y-55713D01*
X94769Y-55660D01*
X94630Y-55659D01*
X94502Y-55713D01*
X94403Y-55811D01*
X94369Y-55892D01*
X94272Y-55933D01*
X94260Y-55945D01*
X94260Y-50940D01*
X94206Y-50812D01*
X94108Y-50713D01*
X93979Y-50660D01*
X93840Y-50659D01*
X93712Y-50713D01*
X93613Y-50811D01*
X93610Y-50819D01*
X93606Y-50812D01*
X93508Y-50713D01*
X93379Y-50660D01*
X93240Y-50659D01*
X93112Y-50713D01*
X93013Y-50811D01*
X92960Y-50940D01*
X92959Y-51079D01*
X93013Y-51208D01*
X93111Y-51306D01*
X93240Y-51359D01*
X93379Y-51360D01*
X93508Y-51306D01*
X93606Y-51208D01*
X93609Y-51200D01*
X93613Y-51208D01*
X93711Y-51306D01*
X93840Y-51359D01*
X93979Y-51360D01*
X94108Y-51306D01*
X94206Y-51208D01*
X94259Y-51079D01*
X94260Y-50940D01*
X94260Y-55945D01*
X94173Y-56031D01*
X94120Y-56160D01*
X94119Y-56299D01*
X94173Y-56428D01*
X94271Y-56526D01*
X94400Y-56579D01*
X94539Y-56580D01*
X94668Y-56526D01*
X94766Y-56428D01*
X94800Y-56347D01*
X94898Y-56306D01*
X94996Y-56208D01*
X95049Y-56079D01*
X95050Y-55940D01*
X95050Y-56749D01*
X95030Y-56749D01*
X94934Y-56789D01*
X94839Y-56750D01*
X94700Y-56749D01*
X94572Y-56803D01*
X94473Y-56901D01*
X94420Y-57030D01*
X94419Y-57169D01*
X94473Y-57298D01*
X94571Y-57396D01*
X94700Y-57449D01*
X94839Y-57450D01*
X94935Y-57410D01*
X94971Y-57425D01*
X94993Y-57478D01*
X95091Y-57576D01*
X95220Y-57629D01*
X95359Y-57630D01*
X95488Y-57576D01*
X95496Y-57568D01*
X95620Y-57619D01*
X95759Y-57620D01*
X95888Y-57566D01*
X95986Y-57468D01*
X96039Y-57339D01*
X96040Y-57200D01*
X96040Y-65044D01*
X95480Y-65044D01*
X95480Y-62091D01*
X95396Y-61888D01*
X95370Y-61862D01*
X95370Y-59010D01*
X95316Y-58882D01*
X95218Y-58783D01*
X95089Y-58730D01*
X94950Y-58729D01*
X94822Y-58783D01*
X94769Y-58835D01*
X94718Y-58783D01*
X94589Y-58730D01*
X94450Y-58729D01*
X94322Y-58783D01*
X94264Y-58840D01*
X94218Y-58793D01*
X94089Y-58740D01*
X93950Y-58739D01*
X93822Y-58793D01*
X93769Y-58845D01*
X93718Y-58793D01*
X93589Y-58740D01*
X93450Y-58739D01*
X93322Y-58793D01*
X93223Y-58891D01*
X93170Y-59020D01*
X93169Y-59159D01*
X93223Y-59288D01*
X93321Y-59386D01*
X93450Y-59439D01*
X93589Y-59440D01*
X93718Y-59386D01*
X93770Y-59334D01*
X93821Y-59386D01*
X93950Y-59439D01*
X94089Y-59440D01*
X94218Y-59386D01*
X94275Y-59329D01*
X94321Y-59376D01*
X94450Y-59429D01*
X94589Y-59430D01*
X94718Y-59376D01*
X94770Y-59324D01*
X94821Y-59376D01*
X94950Y-59429D01*
X95089Y-59430D01*
X95218Y-59376D01*
X95316Y-59278D01*
X95369Y-59149D01*
X95370Y-59010D01*
X95370Y-61862D01*
X95241Y-61734D01*
X95039Y-61650D01*
X94821Y-61649D01*
X94618Y-61733D01*
X94464Y-61888D01*
X94380Y-62090D01*
X94379Y-62308D01*
X94463Y-62511D01*
X94602Y-62649D01*
X94580Y-62649D01*
X94488Y-62687D01*
X94418Y-62758D01*
X94380Y-62850D01*
X94379Y-62949D01*
X94379Y-63549D01*
X94417Y-63641D01*
X94488Y-63711D01*
X94580Y-63749D01*
X94679Y-63750D01*
X95279Y-63750D01*
X95371Y-63712D01*
X95441Y-63641D01*
X95479Y-63549D01*
X95480Y-63450D01*
X95480Y-62850D01*
X95442Y-62758D01*
X95371Y-62688D01*
X95279Y-62650D01*
X95257Y-62650D01*
X95395Y-62511D01*
X95479Y-62309D01*
X95480Y-62091D01*
X95480Y-65044D01*
X93820Y-65043D01*
X93820Y-63581D01*
X93820Y-61581D01*
X93728Y-61360D01*
X93560Y-61191D01*
X93339Y-61100D01*
X93101Y-61099D01*
X92880Y-61191D01*
X92719Y-61351D01*
X92560Y-61191D01*
X92450Y-61145D01*
X92450Y-54090D01*
X92408Y-53989D01*
X92449Y-53889D01*
X92450Y-53750D01*
X92420Y-53678D01*
X92420Y-51410D01*
X92366Y-51282D01*
X92340Y-51255D01*
X92340Y-50520D01*
X92286Y-50392D01*
X92188Y-50293D01*
X92059Y-50240D01*
X91920Y-50239D01*
X91792Y-50293D01*
X91693Y-50391D01*
X91640Y-50520D01*
X91639Y-50659D01*
X91693Y-50788D01*
X91791Y-50886D01*
X91920Y-50939D01*
X92059Y-50940D01*
X92188Y-50886D01*
X92286Y-50788D01*
X92339Y-50659D01*
X92340Y-50520D01*
X92340Y-51255D01*
X92268Y-51183D01*
X92139Y-51130D01*
X92000Y-51129D01*
X91872Y-51183D01*
X91773Y-51281D01*
X91720Y-51410D01*
X91719Y-51549D01*
X91773Y-51678D01*
X91871Y-51776D01*
X92000Y-51829D01*
X92139Y-51830D01*
X92268Y-51776D01*
X92366Y-51678D01*
X92419Y-51549D01*
X92420Y-51410D01*
X92420Y-53678D01*
X92396Y-53622D01*
X92298Y-53523D01*
X92169Y-53470D01*
X92030Y-53469D01*
X91902Y-53523D01*
X91803Y-53621D01*
X91750Y-53750D01*
X91749Y-53889D01*
X91791Y-53990D01*
X91750Y-54090D01*
X91749Y-54229D01*
X91803Y-54358D01*
X91901Y-54456D01*
X92030Y-54509D01*
X92169Y-54510D01*
X92298Y-54456D01*
X92396Y-54358D01*
X92449Y-54229D01*
X92450Y-54090D01*
X92450Y-61145D01*
X92339Y-61100D01*
X92101Y-61099D01*
X91880Y-61191D01*
X91719Y-61351D01*
X91650Y-61281D01*
X91650Y-55320D01*
X91598Y-55194D01*
X91649Y-55069D01*
X91650Y-54930D01*
X91596Y-54802D01*
X91588Y-54793D01*
X91639Y-54669D01*
X91640Y-54530D01*
X91588Y-54404D01*
X91639Y-54279D01*
X91640Y-54140D01*
X91590Y-54019D01*
X91590Y-51140D01*
X91536Y-51012D01*
X91438Y-50913D01*
X91309Y-50860D01*
X91170Y-50859D01*
X91042Y-50913D01*
X90943Y-51011D01*
X90900Y-51115D01*
X90900Y-47880D01*
X90846Y-47752D01*
X90748Y-47653D01*
X90619Y-47600D01*
X90480Y-47599D01*
X90352Y-47653D01*
X90253Y-47751D01*
X90200Y-47880D01*
X90199Y-48019D01*
X90253Y-48148D01*
X90351Y-48246D01*
X90480Y-48299D01*
X90619Y-48300D01*
X90748Y-48246D01*
X90846Y-48148D01*
X90899Y-48019D01*
X90900Y-47880D01*
X90900Y-51115D01*
X90890Y-51140D01*
X90889Y-51279D01*
X90943Y-51408D01*
X91041Y-51506D01*
X91170Y-51559D01*
X91309Y-51560D01*
X91438Y-51506D01*
X91536Y-51408D01*
X91589Y-51279D01*
X91590Y-51140D01*
X91590Y-54019D01*
X91586Y-54012D01*
X91488Y-53913D01*
X91359Y-53860D01*
X91220Y-53859D01*
X91092Y-53913D01*
X90993Y-54011D01*
X90959Y-54093D01*
X90912Y-54113D01*
X90813Y-54211D01*
X90760Y-54340D01*
X90759Y-54479D01*
X90813Y-54608D01*
X90821Y-54616D01*
X90770Y-54740D01*
X90769Y-54879D01*
X90821Y-55003D01*
X90813Y-55011D01*
X90760Y-55140D01*
X90759Y-55279D01*
X90813Y-55408D01*
X90815Y-55409D01*
X90813Y-55411D01*
X90760Y-55540D01*
X90759Y-55679D01*
X90813Y-55808D01*
X90911Y-55906D01*
X91040Y-55959D01*
X91179Y-55960D01*
X91308Y-55906D01*
X91406Y-55808D01*
X91448Y-55707D01*
X91498Y-55686D01*
X91596Y-55588D01*
X91649Y-55459D01*
X91650Y-55320D01*
X91650Y-61281D01*
X91640Y-61271D01*
X91640Y-56750D01*
X91586Y-56622D01*
X91488Y-56523D01*
X91359Y-56470D01*
X91220Y-56469D01*
X91092Y-56523D01*
X90993Y-56621D01*
X90940Y-56750D01*
X90939Y-56824D01*
X90918Y-56803D01*
X90789Y-56750D01*
X90650Y-56749D01*
X90522Y-56803D01*
X90423Y-56901D01*
X90370Y-57030D01*
X90369Y-57169D01*
X90423Y-57298D01*
X90521Y-57396D01*
X90650Y-57449D01*
X90789Y-57450D01*
X90918Y-57396D01*
X91016Y-57298D01*
X91069Y-57169D01*
X91070Y-57095D01*
X91091Y-57116D01*
X91220Y-57169D01*
X91359Y-57170D01*
X91488Y-57116D01*
X91586Y-57018D01*
X91639Y-56889D01*
X91640Y-56750D01*
X91640Y-61271D01*
X91560Y-61191D01*
X91339Y-61100D01*
X91101Y-61099D01*
X90880Y-61191D01*
X90711Y-61359D01*
X90620Y-61580D01*
X90619Y-61818D01*
X90711Y-62039D01*
X90879Y-62208D01*
X91100Y-62299D01*
X91338Y-62300D01*
X91559Y-62208D01*
X91720Y-62048D01*
X91879Y-62208D01*
X92100Y-62299D01*
X92338Y-62300D01*
X92559Y-62208D01*
X92720Y-62048D01*
X92879Y-62208D01*
X93100Y-62299D01*
X93338Y-62300D01*
X93559Y-62208D01*
X93728Y-62040D01*
X93819Y-61819D01*
X93820Y-61581D01*
X93820Y-63581D01*
X93728Y-63360D01*
X93560Y-63191D01*
X93339Y-63100D01*
X93101Y-63099D01*
X92880Y-63191D01*
X92719Y-63351D01*
X92560Y-63191D01*
X92339Y-63100D01*
X92101Y-63099D01*
X91880Y-63191D01*
X91719Y-63351D01*
X91560Y-63191D01*
X91339Y-63100D01*
X91101Y-63099D01*
X90880Y-63191D01*
X90711Y-63359D01*
X90620Y-63580D01*
X90619Y-63818D01*
X90711Y-64039D01*
X90879Y-64208D01*
X91100Y-64299D01*
X91338Y-64300D01*
X91559Y-64208D01*
X91720Y-64048D01*
X91879Y-64208D01*
X92100Y-64299D01*
X92338Y-64300D01*
X92559Y-64208D01*
X92720Y-64048D01*
X92879Y-64208D01*
X93100Y-64299D01*
X93338Y-64300D01*
X93559Y-64208D01*
X93728Y-64040D01*
X93819Y-63819D01*
X93820Y-63581D01*
X93820Y-65043D01*
X89820Y-65041D01*
X89820Y-63581D01*
X89820Y-61581D01*
X89820Y-45591D01*
X89820Y-43591D01*
X89728Y-43370D01*
X89590Y-43231D01*
X89590Y-42180D01*
X89536Y-42052D01*
X89438Y-41953D01*
X89309Y-41900D01*
X89170Y-41899D01*
X89042Y-41953D01*
X88943Y-42051D01*
X88890Y-42180D01*
X88889Y-42319D01*
X88943Y-42448D01*
X89041Y-42546D01*
X89170Y-42599D01*
X89309Y-42600D01*
X89438Y-42546D01*
X89536Y-42448D01*
X89589Y-42319D01*
X89590Y-42180D01*
X89590Y-43231D01*
X89560Y-43201D01*
X89339Y-43110D01*
X89101Y-43109D01*
X88880Y-43201D01*
X88711Y-43369D01*
X88620Y-43590D01*
X88619Y-43828D01*
X88711Y-44049D01*
X88879Y-44218D01*
X89100Y-44309D01*
X89338Y-44310D01*
X89559Y-44218D01*
X89728Y-44050D01*
X89819Y-43829D01*
X89820Y-43591D01*
X89820Y-45591D01*
X89728Y-45370D01*
X89560Y-45201D01*
X89339Y-45110D01*
X89101Y-45109D01*
X88880Y-45201D01*
X88711Y-45369D01*
X88620Y-45590D01*
X88619Y-45828D01*
X88711Y-46049D01*
X88879Y-46218D01*
X89100Y-46309D01*
X89338Y-46310D01*
X89559Y-46218D01*
X89728Y-46050D01*
X89819Y-45829D01*
X89820Y-45591D01*
X89820Y-61581D01*
X89728Y-61360D01*
X89560Y-61191D01*
X89440Y-61141D01*
X89440Y-48100D01*
X89386Y-47972D01*
X89288Y-47873D01*
X89159Y-47820D01*
X89020Y-47819D01*
X88892Y-47873D01*
X88793Y-47971D01*
X88740Y-48100D01*
X88739Y-48239D01*
X88793Y-48368D01*
X88891Y-48466D01*
X89020Y-48519D01*
X89159Y-48520D01*
X89288Y-48466D01*
X89386Y-48368D01*
X89439Y-48239D01*
X89440Y-48100D01*
X89440Y-61141D01*
X89380Y-61116D01*
X89380Y-55010D01*
X89326Y-54882D01*
X89274Y-54829D01*
X89326Y-54778D01*
X89379Y-54649D01*
X89380Y-54510D01*
X89326Y-54382D01*
X89274Y-54329D01*
X89326Y-54278D01*
X89379Y-54149D01*
X89380Y-54010D01*
X89326Y-53882D01*
X89274Y-53829D01*
X89326Y-53778D01*
X89379Y-53649D01*
X89380Y-53510D01*
X89326Y-53382D01*
X89274Y-53329D01*
X89326Y-53278D01*
X89379Y-53149D01*
X89380Y-53010D01*
X89326Y-52882D01*
X89255Y-52809D01*
X89286Y-52778D01*
X89339Y-52649D01*
X89340Y-52510D01*
X89286Y-52382D01*
X89249Y-52344D01*
X89316Y-52278D01*
X89369Y-52149D01*
X89370Y-52010D01*
X89340Y-51938D01*
X89340Y-51280D01*
X89286Y-51152D01*
X89188Y-51053D01*
X89059Y-51000D01*
X88920Y-50999D01*
X88792Y-51053D01*
X88693Y-51151D01*
X88640Y-51280D01*
X88639Y-51419D01*
X88693Y-51548D01*
X88791Y-51646D01*
X88920Y-51699D01*
X89059Y-51700D01*
X89188Y-51646D01*
X89286Y-51548D01*
X89339Y-51419D01*
X89340Y-51280D01*
X89340Y-51938D01*
X89316Y-51882D01*
X89218Y-51783D01*
X89089Y-51730D01*
X88950Y-51729D01*
X88822Y-51783D01*
X88723Y-51881D01*
X88670Y-52010D01*
X88669Y-52149D01*
X88723Y-52278D01*
X88760Y-52315D01*
X88693Y-52381D01*
X88640Y-52510D01*
X88639Y-52649D01*
X88693Y-52778D01*
X88764Y-52850D01*
X88733Y-52881D01*
X88680Y-53010D01*
X88679Y-53149D01*
X88733Y-53278D01*
X88785Y-53330D01*
X88733Y-53381D01*
X88680Y-53510D01*
X88679Y-53649D01*
X88733Y-53778D01*
X88785Y-53830D01*
X88733Y-53881D01*
X88680Y-54010D01*
X88679Y-54149D01*
X88733Y-54278D01*
X88785Y-54330D01*
X88733Y-54381D01*
X88680Y-54510D01*
X88679Y-54649D01*
X88733Y-54778D01*
X88785Y-54830D01*
X88733Y-54881D01*
X88680Y-55010D01*
X88679Y-55149D01*
X88733Y-55278D01*
X88831Y-55376D01*
X88960Y-55429D01*
X89099Y-55430D01*
X89228Y-55376D01*
X89326Y-55278D01*
X89379Y-55149D01*
X89380Y-55010D01*
X89380Y-61116D01*
X89339Y-61100D01*
X89190Y-61099D01*
X89190Y-59010D01*
X89136Y-58882D01*
X89038Y-58783D01*
X88909Y-58730D01*
X88770Y-58729D01*
X88642Y-58783D01*
X88543Y-58881D01*
X88490Y-59010D01*
X88489Y-59149D01*
X88543Y-59278D01*
X88641Y-59376D01*
X88770Y-59429D01*
X88909Y-59430D01*
X89038Y-59376D01*
X89136Y-59278D01*
X89189Y-59149D01*
X89190Y-59010D01*
X89190Y-61099D01*
X89101Y-61099D01*
X88880Y-61191D01*
X88711Y-61359D01*
X88620Y-61580D01*
X88619Y-61818D01*
X88711Y-62039D01*
X88879Y-62208D01*
X89100Y-62299D01*
X89338Y-62300D01*
X89559Y-62208D01*
X89728Y-62040D01*
X89819Y-61819D01*
X89820Y-61581D01*
X89820Y-63581D01*
X89728Y-63360D01*
X89560Y-63191D01*
X89339Y-63100D01*
X89101Y-63099D01*
X88880Y-63191D01*
X88711Y-63359D01*
X88620Y-63580D01*
X88619Y-63818D01*
X88711Y-64039D01*
X88879Y-64208D01*
X89100Y-64299D01*
X89338Y-64300D01*
X89559Y-64208D01*
X89728Y-64040D01*
X89819Y-63819D01*
X89820Y-63581D01*
X89820Y-65041D01*
X89599Y-65041D01*
X89600Y-64950D01*
X89546Y-64822D01*
X89448Y-64723D01*
X89319Y-64670D01*
X89180Y-64669D01*
X89052Y-64723D01*
X88953Y-64821D01*
X88900Y-64950D01*
X88899Y-65041D01*
X88165Y-65041D01*
X88165Y-58175D01*
X88165Y-50175D01*
X88092Y-50001D01*
X87959Y-49867D01*
X87784Y-49795D01*
X87595Y-49794D01*
X87421Y-49867D01*
X87287Y-50000D01*
X87215Y-50175D01*
X87214Y-50364D01*
X87287Y-50538D01*
X87420Y-50672D01*
X87595Y-50744D01*
X87784Y-50745D01*
X87958Y-50672D01*
X88092Y-50539D01*
X88164Y-50364D01*
X88165Y-50175D01*
X88165Y-58175D01*
X88092Y-58001D01*
X87959Y-57867D01*
X87784Y-57795D01*
X87595Y-57794D01*
X87421Y-57867D01*
X87287Y-58000D01*
X87215Y-58175D01*
X87214Y-58364D01*
X87287Y-58538D01*
X87420Y-58672D01*
X87595Y-58744D01*
X87784Y-58745D01*
X87958Y-58672D01*
X88092Y-58539D01*
X88164Y-58364D01*
X88165Y-58175D01*
X88165Y-65041D01*
X87055Y-65040D01*
X87055Y-63765D01*
X87055Y-44615D01*
X86982Y-44441D01*
X86849Y-44307D01*
X86674Y-44235D01*
X86485Y-44234D01*
X86311Y-44307D01*
X86177Y-44440D01*
X86105Y-44615D01*
X86104Y-44804D01*
X86177Y-44978D01*
X86310Y-45112D01*
X86485Y-45184D01*
X86674Y-45185D01*
X86848Y-45112D01*
X86982Y-44979D01*
X87054Y-44804D01*
X87055Y-44615D01*
X87055Y-63765D01*
X86982Y-63591D01*
X86849Y-63457D01*
X86674Y-63385D01*
X86637Y-63385D01*
X86637Y-54839D01*
X86637Y-52918D01*
X86575Y-52768D01*
X86461Y-52654D01*
X86311Y-52591D01*
X86149Y-52591D01*
X85999Y-52653D01*
X85884Y-52768D01*
X85850Y-52851D01*
X85850Y-52790D01*
X85796Y-52662D01*
X85698Y-52563D01*
X85569Y-52510D01*
X85430Y-52509D01*
X85302Y-52563D01*
X85280Y-52585D01*
X85280Y-51540D01*
X85226Y-51412D01*
X85128Y-51313D01*
X84999Y-51260D01*
X84860Y-51259D01*
X84732Y-51313D01*
X84633Y-51411D01*
X84580Y-51540D01*
X84579Y-51679D01*
X84633Y-51808D01*
X84731Y-51906D01*
X84860Y-51959D01*
X84999Y-51960D01*
X85128Y-51906D01*
X85226Y-51808D01*
X85279Y-51679D01*
X85280Y-51540D01*
X85280Y-52585D01*
X85203Y-52661D01*
X85150Y-52790D01*
X85149Y-52929D01*
X85203Y-53058D01*
X85301Y-53156D01*
X85430Y-53209D01*
X85569Y-53210D01*
X85698Y-53156D01*
X85796Y-53058D01*
X85822Y-52995D01*
X85822Y-53080D01*
X85884Y-53229D01*
X85998Y-53344D01*
X86148Y-53406D01*
X86310Y-53406D01*
X86460Y-53345D01*
X86575Y-53230D01*
X86637Y-53080D01*
X86637Y-52918D01*
X86637Y-54839D01*
X86575Y-54690D01*
X86461Y-54575D01*
X86311Y-54513D01*
X86149Y-54513D01*
X85999Y-54574D01*
X85884Y-54689D01*
X85822Y-54839D01*
X85822Y-55001D01*
X85884Y-55151D01*
X85998Y-55265D01*
X86148Y-55328D01*
X86310Y-55328D01*
X86460Y-55266D01*
X86575Y-55151D01*
X86637Y-55002D01*
X86637Y-54839D01*
X86637Y-63385D01*
X86485Y-63384D01*
X86311Y-63457D01*
X86177Y-63590D01*
X86105Y-63765D01*
X86104Y-63954D01*
X86177Y-64128D01*
X86310Y-64262D01*
X86485Y-64334D01*
X86674Y-64335D01*
X86848Y-64262D01*
X86982Y-64129D01*
X87054Y-63954D01*
X87055Y-63765D01*
X87055Y-65040D01*
X85360Y-65040D01*
X85360Y-63840D01*
X85306Y-63712D01*
X85208Y-63613D01*
X85079Y-63560D01*
X84940Y-63559D01*
X84812Y-63613D01*
X84713Y-63711D01*
X84660Y-63840D01*
X84659Y-63979D01*
X84713Y-64108D01*
X84811Y-64206D01*
X84940Y-64259D01*
X85079Y-64260D01*
X85208Y-64206D01*
X85306Y-64108D01*
X85359Y-63979D01*
X85360Y-63840D01*
X85360Y-65040D01*
X84410Y-65039D01*
X84410Y-55380D01*
X84356Y-55252D01*
X84258Y-55153D01*
X84129Y-55100D01*
X83990Y-55099D01*
X83862Y-55153D01*
X83820Y-55194D01*
X83820Y-47800D01*
X83766Y-47672D01*
X83668Y-47573D01*
X83660Y-47570D01*
X83668Y-47566D01*
X83766Y-47468D01*
X83819Y-47339D01*
X83820Y-47200D01*
X83766Y-47072D01*
X83668Y-46973D01*
X83650Y-46965D01*
X83650Y-43700D01*
X83596Y-43572D01*
X83498Y-43473D01*
X83369Y-43420D01*
X83230Y-43419D01*
X83102Y-43473D01*
X83003Y-43571D01*
X82950Y-43700D01*
X82949Y-43839D01*
X83003Y-43968D01*
X83101Y-44066D01*
X83230Y-44119D01*
X83369Y-44120D01*
X83498Y-44066D01*
X83596Y-43968D01*
X83649Y-43839D01*
X83650Y-43700D01*
X83650Y-46965D01*
X83539Y-46920D01*
X83400Y-46919D01*
X83272Y-46973D01*
X83173Y-47071D01*
X83145Y-47139D01*
X83145Y-46515D01*
X83072Y-46341D01*
X82939Y-46207D01*
X82764Y-46135D01*
X82575Y-46134D01*
X82401Y-46207D01*
X82267Y-46340D01*
X82195Y-46515D01*
X82194Y-46704D01*
X82267Y-46878D01*
X82400Y-47012D01*
X82575Y-47084D01*
X82764Y-47085D01*
X82938Y-47012D01*
X83072Y-46879D01*
X83144Y-46704D01*
X83145Y-46515D01*
X83145Y-47139D01*
X83120Y-47200D01*
X83119Y-47339D01*
X83173Y-47468D01*
X83271Y-47566D01*
X83279Y-47569D01*
X83272Y-47573D01*
X83173Y-47671D01*
X83120Y-47800D01*
X83119Y-47939D01*
X83173Y-48068D01*
X83271Y-48166D01*
X83400Y-48219D01*
X83539Y-48220D01*
X83668Y-48166D01*
X83766Y-48068D01*
X83819Y-47939D01*
X83820Y-47800D01*
X83820Y-55194D01*
X83763Y-55251D01*
X83710Y-55380D01*
X83709Y-55519D01*
X83763Y-55648D01*
X83861Y-55746D01*
X83990Y-55799D01*
X84129Y-55800D01*
X84258Y-55746D01*
X84356Y-55648D01*
X84409Y-55519D01*
X84410Y-55380D01*
X84410Y-65039D01*
X83820Y-65039D01*
X83820Y-59530D01*
X83766Y-59402D01*
X83668Y-59303D01*
X83539Y-59250D01*
X83400Y-59249D01*
X83272Y-59303D01*
X83173Y-59401D01*
X83120Y-59530D01*
X83119Y-59669D01*
X83173Y-59798D01*
X83271Y-59896D01*
X83400Y-59949D01*
X83539Y-59950D01*
X83668Y-59896D01*
X83766Y-59798D01*
X83819Y-59669D01*
X83820Y-59530D01*
X83820Y-65039D01*
X83045Y-65039D01*
X83045Y-54575D01*
X83045Y-53575D01*
X82972Y-53401D01*
X82839Y-53267D01*
X82664Y-53195D01*
X82475Y-53194D01*
X82301Y-53267D01*
X82167Y-53400D01*
X82095Y-53575D01*
X82094Y-53764D01*
X82167Y-53938D01*
X82300Y-54072D01*
X82475Y-54144D01*
X82664Y-54145D01*
X82838Y-54072D01*
X82972Y-53939D01*
X83044Y-53764D01*
X83045Y-53575D01*
X83045Y-54575D01*
X82972Y-54401D01*
X82839Y-54267D01*
X82664Y-54195D01*
X82475Y-54194D01*
X82301Y-54267D01*
X82167Y-54400D01*
X82095Y-54575D01*
X82094Y-54764D01*
X82167Y-54938D01*
X82300Y-55072D01*
X82475Y-55144D01*
X82664Y-55145D01*
X82838Y-55072D01*
X82972Y-54939D01*
X83044Y-54764D01*
X83045Y-54575D01*
X83045Y-65039D01*
X82655Y-65039D01*
X82655Y-63395D01*
X82582Y-63221D01*
X82449Y-63087D01*
X82274Y-63015D01*
X82085Y-63014D01*
X81911Y-63087D01*
X81777Y-63220D01*
X81705Y-63395D01*
X81704Y-63584D01*
X81777Y-63758D01*
X81910Y-63892D01*
X82085Y-63964D01*
X82274Y-63965D01*
X82448Y-63892D01*
X82582Y-63759D01*
X82654Y-63584D01*
X82655Y-63395D01*
X82655Y-65039D01*
X81180Y-65038D01*
X81180Y-49250D01*
X81126Y-49122D01*
X81028Y-49023D01*
X80899Y-48970D01*
X80760Y-48969D01*
X80632Y-49023D01*
X80533Y-49121D01*
X80480Y-49250D01*
X80479Y-49389D01*
X80533Y-49518D01*
X80631Y-49616D01*
X80760Y-49669D01*
X80899Y-49670D01*
X81028Y-49616D01*
X81126Y-49518D01*
X81179Y-49389D01*
X81180Y-49250D01*
X81180Y-65038D01*
X80370Y-65038D01*
X80370Y-52850D01*
X80320Y-52729D01*
X80320Y-48850D01*
X80266Y-48722D01*
X80168Y-48623D01*
X80039Y-48570D01*
X79900Y-48569D01*
X79772Y-48623D01*
X79673Y-48721D01*
X79620Y-48850D01*
X79619Y-48989D01*
X79673Y-49118D01*
X79771Y-49216D01*
X79900Y-49269D01*
X80039Y-49270D01*
X80168Y-49216D01*
X80266Y-49118D01*
X80319Y-48989D01*
X80320Y-48850D01*
X80320Y-52729D01*
X80316Y-52722D01*
X80218Y-52623D01*
X80089Y-52570D01*
X79950Y-52569D01*
X79895Y-52592D01*
X79895Y-51466D01*
X79845Y-51344D01*
X79845Y-49475D01*
X79772Y-49301D01*
X79639Y-49167D01*
X79545Y-49128D01*
X79545Y-47575D01*
X79472Y-47401D01*
X79339Y-47267D01*
X79164Y-47195D01*
X78975Y-47194D01*
X78801Y-47267D01*
X78700Y-47368D01*
X78700Y-44930D01*
X78646Y-44802D01*
X78548Y-44703D01*
X78419Y-44650D01*
X78280Y-44649D01*
X78152Y-44703D01*
X78053Y-44801D01*
X78000Y-44930D01*
X77999Y-45069D01*
X78053Y-45198D01*
X78151Y-45296D01*
X78280Y-45349D01*
X78419Y-45350D01*
X78548Y-45296D01*
X78646Y-45198D01*
X78699Y-45069D01*
X78700Y-44930D01*
X78700Y-47368D01*
X78667Y-47400D01*
X78595Y-47575D01*
X78594Y-47764D01*
X78667Y-47938D01*
X78800Y-48072D01*
X78975Y-48144D01*
X79164Y-48145D01*
X79338Y-48072D01*
X79472Y-47939D01*
X79544Y-47764D01*
X79545Y-47575D01*
X79545Y-49128D01*
X79464Y-49095D01*
X79275Y-49094D01*
X79101Y-49167D01*
X78967Y-49300D01*
X78895Y-49475D01*
X78894Y-49664D01*
X78967Y-49838D01*
X79100Y-49972D01*
X79275Y-50044D01*
X79464Y-50045D01*
X79638Y-49972D01*
X79772Y-49839D01*
X79844Y-49664D01*
X79845Y-49475D01*
X79845Y-51344D01*
X79815Y-51273D01*
X79667Y-51125D01*
X79474Y-51045D01*
X79266Y-51044D01*
X79230Y-51059D01*
X79230Y-50990D01*
X79176Y-50862D01*
X79078Y-50763D01*
X78949Y-50710D01*
X78870Y-50709D01*
X78870Y-49020D01*
X78816Y-48892D01*
X78718Y-48793D01*
X78589Y-48740D01*
X78450Y-48739D01*
X78322Y-48793D01*
X78223Y-48891D01*
X78170Y-49020D01*
X78169Y-49159D01*
X78223Y-49288D01*
X78321Y-49386D01*
X78450Y-49439D01*
X78589Y-49440D01*
X78718Y-49386D01*
X78816Y-49288D01*
X78869Y-49159D01*
X78870Y-49020D01*
X78870Y-50709D01*
X78810Y-50709D01*
X78682Y-50763D01*
X78583Y-50861D01*
X78530Y-50990D01*
X78529Y-51067D01*
X78474Y-51045D01*
X78266Y-51044D01*
X78073Y-51124D01*
X77925Y-51272D01*
X77845Y-51465D01*
X77844Y-51673D01*
X77924Y-51867D01*
X78072Y-52014D01*
X78265Y-52094D01*
X78473Y-52095D01*
X78667Y-52015D01*
X78814Y-51867D01*
X78870Y-51734D01*
X78924Y-51867D01*
X79072Y-52014D01*
X79265Y-52094D01*
X79473Y-52095D01*
X79667Y-52015D01*
X79814Y-51867D01*
X79894Y-51674D01*
X79895Y-51466D01*
X79895Y-52592D01*
X79822Y-52623D01*
X79723Y-52721D01*
X79670Y-52850D01*
X79669Y-52989D01*
X79723Y-53118D01*
X79821Y-53216D01*
X79950Y-53269D01*
X80089Y-53270D01*
X80218Y-53216D01*
X80316Y-53118D01*
X80369Y-52989D01*
X80370Y-52850D01*
X80370Y-65038D01*
X80200Y-65038D01*
X80200Y-61920D01*
X80146Y-61792D01*
X80048Y-61693D01*
X79945Y-61650D01*
X79945Y-58205D01*
X79895Y-58084D01*
X79895Y-56666D01*
X79815Y-56473D01*
X79667Y-56325D01*
X79474Y-56245D01*
X79266Y-56244D01*
X79073Y-56324D01*
X78925Y-56472D01*
X78869Y-56605D01*
X78815Y-56473D01*
X78720Y-56377D01*
X78720Y-55100D01*
X78666Y-54972D01*
X78568Y-54873D01*
X78439Y-54820D01*
X78300Y-54819D01*
X78172Y-54873D01*
X78130Y-54914D01*
X78130Y-53600D01*
X78076Y-53472D01*
X77978Y-53373D01*
X77849Y-53320D01*
X77710Y-53319D01*
X77582Y-53373D01*
X77483Y-53471D01*
X77430Y-53600D01*
X77429Y-53739D01*
X77483Y-53868D01*
X77581Y-53966D01*
X77710Y-54019D01*
X77849Y-54020D01*
X77978Y-53966D01*
X78076Y-53868D01*
X78129Y-53739D01*
X78130Y-53600D01*
X78130Y-54914D01*
X78073Y-54971D01*
X78020Y-55100D01*
X78019Y-55239D01*
X78073Y-55368D01*
X78171Y-55466D01*
X78300Y-55519D01*
X78439Y-55520D01*
X78568Y-55466D01*
X78666Y-55368D01*
X78719Y-55239D01*
X78720Y-55100D01*
X78720Y-56377D01*
X78667Y-56325D01*
X78474Y-56245D01*
X78266Y-56244D01*
X78073Y-56324D01*
X77925Y-56472D01*
X77845Y-56665D01*
X77844Y-56873D01*
X77924Y-57067D01*
X78072Y-57214D01*
X78265Y-57294D01*
X78473Y-57295D01*
X78667Y-57215D01*
X78814Y-57067D01*
X78870Y-56934D01*
X78924Y-57067D01*
X79072Y-57214D01*
X79265Y-57294D01*
X79473Y-57295D01*
X79667Y-57215D01*
X79814Y-57067D01*
X79894Y-56874D01*
X79895Y-56666D01*
X79895Y-58084D01*
X79872Y-58031D01*
X79739Y-57897D01*
X79564Y-57825D01*
X79375Y-57824D01*
X79201Y-57897D01*
X79067Y-58030D01*
X78995Y-58205D01*
X78994Y-58394D01*
X79067Y-58568D01*
X79200Y-58702D01*
X79375Y-58774D01*
X79564Y-58775D01*
X79738Y-58702D01*
X79872Y-58569D01*
X79944Y-58394D01*
X79945Y-58205D01*
X79945Y-61650D01*
X79919Y-61640D01*
X79780Y-61639D01*
X79652Y-61693D01*
X79553Y-61791D01*
X79500Y-61920D01*
X79499Y-62059D01*
X79553Y-62188D01*
X79651Y-62286D01*
X79780Y-62339D01*
X79919Y-62340D01*
X80048Y-62286D01*
X80146Y-62188D01*
X80199Y-62059D01*
X80200Y-61920D01*
X80200Y-65038D01*
X79415Y-65037D01*
X79415Y-60105D01*
X79342Y-59931D01*
X79209Y-59797D01*
X79034Y-59725D01*
X78845Y-59724D01*
X78671Y-59797D01*
X78660Y-59808D01*
X78660Y-57820D01*
X78606Y-57692D01*
X78508Y-57593D01*
X78379Y-57540D01*
X78240Y-57539D01*
X78112Y-57593D01*
X78013Y-57691D01*
X77960Y-57820D01*
X77959Y-57959D01*
X78013Y-58088D01*
X78111Y-58186D01*
X78240Y-58239D01*
X78379Y-58240D01*
X78508Y-58186D01*
X78606Y-58088D01*
X78659Y-57959D01*
X78660Y-57820D01*
X78660Y-59808D01*
X78537Y-59930D01*
X78465Y-60105D01*
X78464Y-60294D01*
X78537Y-60468D01*
X78670Y-60602D01*
X78845Y-60674D01*
X79034Y-60675D01*
X79208Y-60602D01*
X79342Y-60469D01*
X79414Y-60294D01*
X79415Y-60105D01*
X79415Y-65037D01*
X78920Y-65037D01*
X78920Y-63540D01*
X78866Y-63412D01*
X78768Y-63313D01*
X78639Y-63260D01*
X78500Y-63259D01*
X78372Y-63313D01*
X78273Y-63411D01*
X78220Y-63540D01*
X78219Y-63679D01*
X78273Y-63808D01*
X78371Y-63906D01*
X78500Y-63959D01*
X78639Y-63960D01*
X78768Y-63906D01*
X78866Y-63808D01*
X78919Y-63679D01*
X78920Y-63540D01*
X78920Y-65037D01*
X77795Y-65037D01*
X77795Y-58185D01*
X77722Y-58011D01*
X77589Y-57877D01*
X77414Y-57805D01*
X77225Y-57804D01*
X77170Y-57828D01*
X77170Y-44350D01*
X77116Y-44222D01*
X77018Y-44123D01*
X76889Y-44070D01*
X76750Y-44069D01*
X76622Y-44123D01*
X76523Y-44221D01*
X76470Y-44350D01*
X76469Y-44489D01*
X76523Y-44618D01*
X76621Y-44716D01*
X76750Y-44769D01*
X76889Y-44770D01*
X77018Y-44716D01*
X77116Y-44618D01*
X77169Y-44489D01*
X77170Y-44350D01*
X77170Y-57828D01*
X77051Y-57877D01*
X76917Y-58010D01*
X76895Y-58064D01*
X76895Y-56666D01*
X76895Y-51466D01*
X76815Y-51273D01*
X76667Y-51125D01*
X76474Y-51045D01*
X76295Y-51044D01*
X76295Y-49695D01*
X76295Y-49145D01*
X76257Y-49053D01*
X76186Y-48983D01*
X76094Y-48945D01*
X75995Y-48944D01*
X75445Y-48944D01*
X75353Y-48982D01*
X75283Y-49053D01*
X75245Y-49145D01*
X75244Y-49244D01*
X75244Y-49244D01*
X75230Y-49208D01*
X75230Y-47550D01*
X75176Y-47422D01*
X75078Y-47323D01*
X74949Y-47270D01*
X74810Y-47269D01*
X74682Y-47323D01*
X74583Y-47421D01*
X74530Y-47550D01*
X74529Y-47689D01*
X74583Y-47818D01*
X74681Y-47916D01*
X74810Y-47969D01*
X74949Y-47970D01*
X75078Y-47916D01*
X75176Y-47818D01*
X75229Y-47689D01*
X75230Y-47550D01*
X75230Y-49208D01*
X75215Y-49173D01*
X75067Y-49025D01*
X74874Y-48945D01*
X74666Y-48944D01*
X74473Y-49024D01*
X74325Y-49172D01*
X74269Y-49305D01*
X74215Y-49173D01*
X74067Y-49025D01*
X73874Y-48945D01*
X73666Y-48944D01*
X73473Y-49024D01*
X73345Y-49152D01*
X73345Y-45865D01*
X73272Y-45691D01*
X73139Y-45557D01*
X72964Y-45485D01*
X72775Y-45484D01*
X72601Y-45557D01*
X72467Y-45690D01*
X72395Y-45865D01*
X72394Y-46054D01*
X72467Y-46228D01*
X72600Y-46362D01*
X72775Y-46434D01*
X72964Y-46435D01*
X73138Y-46362D01*
X73272Y-46229D01*
X73344Y-46054D01*
X73345Y-45865D01*
X73345Y-49152D01*
X73325Y-49172D01*
X73245Y-49365D01*
X73244Y-49573D01*
X73324Y-49767D01*
X73472Y-49914D01*
X73665Y-49994D01*
X73873Y-49995D01*
X74067Y-49915D01*
X74214Y-49767D01*
X74270Y-49634D01*
X74324Y-49767D01*
X74472Y-49914D01*
X74665Y-49994D01*
X74873Y-49995D01*
X75067Y-49915D01*
X75214Y-49767D01*
X75244Y-49695D01*
X75244Y-49794D01*
X75282Y-49886D01*
X75353Y-49956D01*
X75445Y-49994D01*
X75544Y-49995D01*
X76094Y-49995D01*
X76186Y-49957D01*
X76256Y-49886D01*
X76294Y-49794D01*
X76295Y-49695D01*
X76295Y-51044D01*
X76266Y-51044D01*
X76073Y-51124D01*
X75925Y-51272D01*
X75869Y-51405D01*
X75815Y-51273D01*
X75667Y-51125D01*
X75474Y-51045D01*
X75266Y-51044D01*
X75073Y-51124D01*
X74925Y-51272D01*
X74869Y-51405D01*
X74815Y-51273D01*
X74667Y-51125D01*
X74474Y-51045D01*
X74266Y-51044D01*
X74073Y-51124D01*
X73925Y-51272D01*
X73869Y-51405D01*
X73815Y-51273D01*
X73667Y-51125D01*
X73474Y-51045D01*
X73266Y-51044D01*
X73073Y-51124D01*
X72925Y-51272D01*
X72895Y-51344D01*
X72895Y-51245D01*
X72857Y-51153D01*
X72786Y-51083D01*
X72694Y-51045D01*
X72595Y-51044D01*
X72045Y-51044D01*
X71953Y-51082D01*
X71883Y-51153D01*
X71850Y-51232D01*
X71850Y-48800D01*
X71796Y-48672D01*
X71698Y-48573D01*
X71569Y-48520D01*
X71430Y-48519D01*
X71302Y-48573D01*
X71203Y-48671D01*
X71150Y-48800D01*
X71149Y-48939D01*
X71203Y-49068D01*
X71301Y-49166D01*
X71430Y-49219D01*
X71569Y-49220D01*
X71698Y-49166D01*
X71796Y-49068D01*
X71849Y-48939D01*
X71850Y-48800D01*
X71850Y-51232D01*
X71845Y-51245D01*
X71844Y-51344D01*
X71844Y-51894D01*
X71882Y-51986D01*
X71953Y-52056D01*
X72045Y-52094D01*
X72144Y-52095D01*
X72694Y-52095D01*
X72786Y-52057D01*
X72856Y-51986D01*
X72894Y-51894D01*
X72895Y-51795D01*
X72895Y-51795D01*
X72924Y-51867D01*
X73072Y-52014D01*
X73265Y-52094D01*
X73473Y-52095D01*
X73667Y-52015D01*
X73814Y-51867D01*
X73870Y-51734D01*
X73924Y-51867D01*
X74072Y-52014D01*
X74265Y-52094D01*
X74473Y-52095D01*
X74667Y-52015D01*
X74814Y-51867D01*
X74870Y-51734D01*
X74924Y-51867D01*
X75072Y-52014D01*
X75265Y-52094D01*
X75473Y-52095D01*
X75667Y-52015D01*
X75814Y-51867D01*
X75870Y-51734D01*
X75924Y-51867D01*
X76072Y-52014D01*
X76265Y-52094D01*
X76473Y-52095D01*
X76667Y-52015D01*
X76814Y-51867D01*
X76894Y-51674D01*
X76895Y-51466D01*
X76895Y-56666D01*
X76815Y-56473D01*
X76667Y-56325D01*
X76474Y-56245D01*
X76266Y-56244D01*
X76073Y-56324D01*
X75925Y-56472D01*
X75869Y-56605D01*
X75815Y-56473D01*
X75667Y-56325D01*
X75474Y-56245D01*
X75320Y-56244D01*
X75320Y-53650D01*
X75266Y-53522D01*
X75168Y-53423D01*
X75039Y-53370D01*
X74900Y-53369D01*
X74810Y-53407D01*
X74810Y-52920D01*
X74756Y-52792D01*
X74658Y-52693D01*
X74529Y-52640D01*
X74390Y-52639D01*
X74262Y-52693D01*
X74163Y-52791D01*
X74110Y-52920D01*
X74109Y-53059D01*
X74163Y-53188D01*
X74261Y-53286D01*
X74390Y-53339D01*
X74529Y-53340D01*
X74658Y-53286D01*
X74756Y-53188D01*
X74809Y-53059D01*
X74810Y-52920D01*
X74810Y-53407D01*
X74772Y-53423D01*
X74673Y-53521D01*
X74620Y-53650D01*
X74619Y-53789D01*
X74673Y-53918D01*
X74771Y-54016D01*
X74900Y-54069D01*
X75039Y-54070D01*
X75168Y-54016D01*
X75266Y-53918D01*
X75319Y-53789D01*
X75320Y-53650D01*
X75320Y-56244D01*
X75266Y-56244D01*
X75073Y-56324D01*
X74925Y-56472D01*
X74869Y-56605D01*
X74815Y-56473D01*
X74667Y-56325D01*
X74474Y-56245D01*
X74266Y-56244D01*
X74073Y-56324D01*
X73925Y-56472D01*
X73869Y-56605D01*
X73815Y-56473D01*
X73667Y-56325D01*
X73474Y-56245D01*
X73266Y-56244D01*
X73073Y-56324D01*
X72925Y-56472D01*
X72895Y-56544D01*
X72895Y-56445D01*
X72857Y-56353D01*
X72786Y-56283D01*
X72694Y-56245D01*
X72595Y-56244D01*
X72045Y-56244D01*
X71953Y-56282D01*
X71883Y-56353D01*
X71845Y-56445D01*
X71844Y-56544D01*
X71844Y-57094D01*
X71882Y-57186D01*
X71953Y-57256D01*
X72045Y-57294D01*
X72144Y-57295D01*
X72694Y-57295D01*
X72786Y-57257D01*
X72856Y-57186D01*
X72894Y-57094D01*
X72895Y-56995D01*
X72895Y-56995D01*
X72924Y-57067D01*
X73072Y-57214D01*
X73265Y-57294D01*
X73473Y-57295D01*
X73667Y-57215D01*
X73814Y-57067D01*
X73870Y-56934D01*
X73924Y-57067D01*
X74072Y-57214D01*
X74265Y-57294D01*
X74473Y-57295D01*
X74667Y-57215D01*
X74814Y-57067D01*
X74870Y-56934D01*
X74924Y-57067D01*
X75072Y-57214D01*
X75265Y-57294D01*
X75473Y-57295D01*
X75667Y-57215D01*
X75814Y-57067D01*
X75870Y-56934D01*
X75924Y-57067D01*
X76072Y-57214D01*
X76265Y-57294D01*
X76473Y-57295D01*
X76667Y-57215D01*
X76814Y-57067D01*
X76894Y-56874D01*
X76895Y-56666D01*
X76895Y-58064D01*
X76845Y-58185D01*
X76844Y-58374D01*
X76917Y-58548D01*
X77050Y-58682D01*
X77225Y-58754D01*
X77414Y-58755D01*
X77588Y-58682D01*
X77722Y-58549D01*
X77794Y-58374D01*
X77795Y-58185D01*
X77795Y-65037D01*
X76750Y-65036D01*
X76750Y-59630D01*
X76696Y-59502D01*
X76598Y-59403D01*
X76469Y-59350D01*
X76330Y-59349D01*
X76295Y-59364D01*
X76295Y-58766D01*
X76215Y-58573D01*
X76067Y-58425D01*
X75874Y-58345D01*
X75666Y-58344D01*
X75473Y-58424D01*
X75325Y-58572D01*
X75269Y-58705D01*
X75215Y-58573D01*
X75067Y-58425D01*
X74874Y-58345D01*
X74740Y-58344D01*
X74740Y-57820D01*
X74686Y-57692D01*
X74588Y-57593D01*
X74459Y-57540D01*
X74320Y-57539D01*
X74192Y-57593D01*
X74093Y-57691D01*
X74040Y-57820D01*
X74039Y-57959D01*
X74093Y-58088D01*
X74191Y-58186D01*
X74320Y-58239D01*
X74459Y-58240D01*
X74588Y-58186D01*
X74686Y-58088D01*
X74739Y-57959D01*
X74740Y-57820D01*
X74740Y-58344D01*
X74666Y-58344D01*
X74473Y-58424D01*
X74325Y-58572D01*
X74295Y-58644D01*
X74295Y-58545D01*
X74257Y-58453D01*
X74186Y-58383D01*
X74094Y-58345D01*
X73995Y-58344D01*
X73445Y-58344D01*
X73353Y-58382D01*
X73283Y-58453D01*
X73245Y-58545D01*
X73244Y-58644D01*
X73244Y-59194D01*
X73282Y-59286D01*
X73353Y-59356D01*
X73445Y-59394D01*
X73544Y-59395D01*
X74094Y-59395D01*
X74186Y-59357D01*
X74256Y-59286D01*
X74294Y-59194D01*
X74295Y-59095D01*
X74295Y-59095D01*
X74324Y-59167D01*
X74472Y-59314D01*
X74665Y-59394D01*
X74873Y-59395D01*
X75067Y-59315D01*
X75214Y-59167D01*
X75270Y-59034D01*
X75324Y-59167D01*
X75472Y-59314D01*
X75665Y-59394D01*
X75873Y-59395D01*
X76067Y-59315D01*
X76214Y-59167D01*
X76294Y-58974D01*
X76295Y-58766D01*
X76295Y-59364D01*
X76202Y-59403D01*
X76103Y-59501D01*
X76050Y-59630D01*
X76049Y-59769D01*
X76103Y-59898D01*
X76201Y-59996D01*
X76330Y-60049D01*
X76469Y-60050D01*
X76598Y-59996D01*
X76696Y-59898D01*
X76749Y-59769D01*
X76750Y-59630D01*
X76750Y-65036D01*
X71925Y-65034D01*
X71925Y-59945D01*
X71852Y-59771D01*
X71720Y-59638D01*
X71720Y-55670D01*
X71666Y-55542D01*
X71568Y-55443D01*
X71445Y-55392D01*
X71445Y-50575D01*
X71372Y-50401D01*
X71239Y-50267D01*
X71064Y-50195D01*
X70875Y-50194D01*
X70845Y-50207D01*
X70845Y-44465D01*
X70772Y-44291D01*
X70639Y-44157D01*
X70464Y-44085D01*
X70275Y-44084D01*
X70101Y-44157D01*
X69967Y-44290D01*
X69895Y-44465D01*
X69894Y-44654D01*
X69967Y-44828D01*
X70100Y-44962D01*
X70275Y-45034D01*
X70464Y-45035D01*
X70638Y-44962D01*
X70772Y-44829D01*
X70844Y-44654D01*
X70845Y-44465D01*
X70845Y-50207D01*
X70701Y-50267D01*
X70567Y-50400D01*
X70495Y-50575D01*
X70494Y-50764D01*
X70567Y-50938D01*
X70700Y-51072D01*
X70875Y-51144D01*
X71064Y-51145D01*
X71238Y-51072D01*
X71372Y-50939D01*
X71444Y-50764D01*
X71445Y-50575D01*
X71445Y-55392D01*
X71439Y-55390D01*
X71300Y-55389D01*
X71172Y-55443D01*
X71140Y-55474D01*
X71140Y-53330D01*
X71086Y-53202D01*
X70988Y-53103D01*
X70859Y-53050D01*
X70840Y-53050D01*
X70840Y-52400D01*
X70786Y-52272D01*
X70688Y-52173D01*
X70559Y-52120D01*
X70420Y-52119D01*
X70292Y-52173D01*
X70193Y-52271D01*
X70140Y-52400D01*
X70139Y-52539D01*
X70193Y-52668D01*
X70291Y-52766D01*
X70420Y-52819D01*
X70559Y-52820D01*
X70688Y-52766D01*
X70786Y-52668D01*
X70839Y-52539D01*
X70840Y-52400D01*
X70840Y-53050D01*
X70720Y-53049D01*
X70592Y-53103D01*
X70493Y-53201D01*
X70440Y-53330D01*
X70439Y-53447D01*
X70402Y-53463D01*
X70303Y-53561D01*
X70250Y-53690D01*
X70249Y-53829D01*
X70303Y-53958D01*
X70361Y-54016D01*
X70360Y-54020D01*
X70359Y-54159D01*
X70413Y-54288D01*
X70511Y-54386D01*
X70640Y-54439D01*
X70779Y-54440D01*
X70908Y-54386D01*
X71006Y-54288D01*
X71059Y-54159D01*
X71060Y-54020D01*
X71006Y-53892D01*
X70948Y-53833D01*
X70949Y-53829D01*
X70950Y-53712D01*
X70988Y-53696D01*
X71086Y-53598D01*
X71139Y-53469D01*
X71140Y-53330D01*
X71140Y-55474D01*
X71073Y-55541D01*
X71020Y-55670D01*
X71019Y-55809D01*
X71073Y-55938D01*
X71171Y-56036D01*
X71300Y-56089D01*
X71439Y-56090D01*
X71568Y-56036D01*
X71666Y-55938D01*
X71719Y-55809D01*
X71720Y-55670D01*
X71720Y-59638D01*
X71719Y-59637D01*
X71544Y-59565D01*
X71355Y-59564D01*
X71181Y-59637D01*
X71047Y-59770D01*
X70975Y-59945D01*
X70974Y-60134D01*
X71047Y-60308D01*
X71180Y-60442D01*
X71355Y-60514D01*
X71544Y-60515D01*
X71718Y-60442D01*
X71852Y-60309D01*
X71924Y-60134D01*
X71925Y-59945D01*
X71925Y-65034D01*
X71250Y-65034D01*
X71250Y-61840D01*
X71196Y-61712D01*
X71098Y-61613D01*
X70969Y-61560D01*
X70845Y-61559D01*
X70845Y-57675D01*
X70772Y-57501D01*
X70639Y-57367D01*
X70480Y-57301D01*
X70480Y-54950D01*
X70426Y-54822D01*
X70328Y-54723D01*
X70199Y-54670D01*
X70060Y-54669D01*
X69932Y-54723D01*
X69833Y-54821D01*
X69780Y-54950D01*
X69779Y-55089D01*
X69833Y-55218D01*
X69931Y-55316D01*
X70060Y-55369D01*
X70199Y-55370D01*
X70328Y-55316D01*
X70426Y-55218D01*
X70479Y-55089D01*
X70480Y-54950D01*
X70480Y-57301D01*
X70464Y-57295D01*
X70420Y-57295D01*
X70420Y-57260D01*
X70366Y-57132D01*
X70268Y-57033D01*
X70139Y-56980D01*
X70000Y-56979D01*
X69872Y-57033D01*
X69773Y-57131D01*
X69720Y-57260D01*
X69719Y-57399D01*
X69773Y-57528D01*
X69871Y-57626D01*
X69908Y-57642D01*
X69895Y-57675D01*
X69894Y-57864D01*
X69967Y-58038D01*
X70100Y-58172D01*
X70275Y-58244D01*
X70464Y-58245D01*
X70638Y-58172D01*
X70772Y-58039D01*
X70844Y-57864D01*
X70845Y-57675D01*
X70845Y-61559D01*
X70830Y-61559D01*
X70702Y-61613D01*
X70603Y-61711D01*
X70550Y-61840D01*
X70549Y-61979D01*
X70603Y-62108D01*
X70701Y-62206D01*
X70830Y-62259D01*
X70969Y-62260D01*
X71098Y-62206D01*
X71196Y-62108D01*
X71249Y-61979D01*
X71250Y-61840D01*
X71250Y-65034D01*
X69370Y-65033D01*
X69370Y-52850D01*
X69316Y-52722D01*
X69218Y-52623D01*
X69089Y-52570D01*
X69030Y-52570D01*
X69030Y-45320D01*
X68976Y-45192D01*
X68878Y-45093D01*
X68749Y-45040D01*
X68610Y-45039D01*
X68482Y-45093D01*
X68383Y-45191D01*
X68330Y-45320D01*
X68329Y-45459D01*
X68383Y-45588D01*
X68481Y-45686D01*
X68610Y-45739D01*
X68749Y-45740D01*
X68878Y-45686D01*
X68976Y-45588D01*
X69029Y-45459D01*
X69030Y-45320D01*
X69030Y-52570D01*
X68950Y-52569D01*
X68822Y-52623D01*
X68723Y-52721D01*
X68670Y-52850D01*
X68669Y-52989D01*
X68723Y-53118D01*
X68821Y-53216D01*
X68950Y-53269D01*
X69089Y-53270D01*
X69218Y-53216D01*
X69316Y-53118D01*
X69369Y-52989D01*
X69370Y-52850D01*
X69370Y-65033D01*
X69230Y-65033D01*
X69230Y-60290D01*
X69176Y-60162D01*
X69078Y-60063D01*
X68949Y-60010D01*
X68810Y-60009D01*
X68682Y-60063D01*
X68660Y-60085D01*
X68660Y-52200D01*
X68606Y-52072D01*
X68508Y-51973D01*
X68379Y-51920D01*
X68240Y-51919D01*
X68112Y-51973D01*
X68013Y-52071D01*
X67960Y-52200D01*
X67959Y-52339D01*
X68013Y-52468D01*
X68111Y-52566D01*
X68240Y-52619D01*
X68379Y-52620D01*
X68508Y-52566D01*
X68606Y-52468D01*
X68659Y-52339D01*
X68660Y-52200D01*
X68660Y-60085D01*
X68583Y-60161D01*
X68530Y-60290D01*
X68529Y-60429D01*
X68583Y-60558D01*
X68681Y-60656D01*
X68810Y-60709D01*
X68949Y-60710D01*
X69078Y-60656D01*
X69176Y-60558D01*
X69229Y-60429D01*
X69230Y-60290D01*
X69230Y-65033D01*
X67690Y-65032D01*
X67690Y-46563D01*
X67547Y-46218D01*
X67283Y-45953D01*
X66937Y-45810D01*
X66563Y-45809D01*
X66218Y-45952D01*
X65953Y-46216D01*
X65810Y-46562D01*
X65809Y-46936D01*
X65952Y-47281D01*
X66216Y-47546D01*
X66562Y-47689D01*
X66936Y-47690D01*
X67281Y-47547D01*
X67546Y-47283D01*
X67689Y-46937D01*
X67690Y-46563D01*
X67690Y-65032D01*
X64975Y-65031D01*
X64975Y-43745D01*
X64902Y-43571D01*
X64769Y-43437D01*
X64594Y-43365D01*
X64405Y-43364D01*
X64231Y-43437D01*
X64097Y-43570D01*
X64025Y-43745D01*
X64024Y-43934D01*
X64097Y-44108D01*
X64230Y-44242D01*
X64405Y-44314D01*
X64594Y-44315D01*
X64768Y-44242D01*
X64902Y-44109D01*
X64974Y-43934D01*
X64975Y-43745D01*
X64975Y-65031D01*
X62850Y-65030D01*
X62850Y-45721D01*
X62766Y-45518D01*
X62611Y-45364D01*
X62530Y-45330D01*
X62611Y-45296D01*
X62765Y-45141D01*
X62849Y-44939D01*
X62850Y-44721D01*
X62766Y-44518D01*
X62611Y-44364D01*
X62530Y-44330D01*
X62611Y-44296D01*
X62765Y-44141D01*
X62849Y-43939D01*
X62850Y-43721D01*
X62766Y-43518D01*
X62611Y-43364D01*
X62530Y-43330D01*
X62611Y-43296D01*
X62765Y-43141D01*
X62849Y-42939D01*
X62850Y-42721D01*
X62766Y-42518D01*
X62611Y-42364D01*
X62409Y-42280D01*
X62191Y-42279D01*
X61988Y-42363D01*
X61834Y-42518D01*
X61750Y-42720D01*
X61749Y-42938D01*
X61833Y-43141D01*
X61988Y-43295D01*
X62069Y-43329D01*
X61988Y-43363D01*
X61834Y-43518D01*
X61750Y-43720D01*
X61749Y-43938D01*
X61833Y-44141D01*
X61988Y-44295D01*
X62069Y-44329D01*
X61988Y-44363D01*
X61834Y-44518D01*
X61750Y-44720D01*
X61749Y-44938D01*
X61833Y-45141D01*
X61988Y-45295D01*
X62069Y-45329D01*
X61988Y-45363D01*
X61834Y-45518D01*
X61750Y-45720D01*
X61749Y-45938D01*
X61833Y-46141D01*
X61988Y-46295D01*
X62190Y-46379D01*
X62408Y-46380D01*
X62611Y-46296D01*
X62765Y-46141D01*
X62849Y-45939D01*
X62850Y-45721D01*
X62850Y-65030D01*
X62745Y-65030D01*
X62745Y-58675D01*
X62745Y-55675D01*
X62745Y-52675D01*
X62745Y-49675D01*
X62672Y-49501D01*
X62539Y-49367D01*
X62364Y-49295D01*
X62175Y-49294D01*
X62001Y-49367D01*
X61867Y-49500D01*
X61795Y-49675D01*
X61794Y-49864D01*
X61867Y-50038D01*
X62000Y-50172D01*
X62175Y-50244D01*
X62364Y-50245D01*
X62538Y-50172D01*
X62672Y-50039D01*
X62744Y-49864D01*
X62745Y-49675D01*
X62745Y-52675D01*
X62672Y-52501D01*
X62539Y-52367D01*
X62364Y-52295D01*
X62175Y-52294D01*
X62001Y-52367D01*
X61867Y-52500D01*
X61795Y-52675D01*
X61794Y-52864D01*
X61867Y-53038D01*
X62000Y-53172D01*
X62175Y-53244D01*
X62364Y-53245D01*
X62538Y-53172D01*
X62672Y-53039D01*
X62744Y-52864D01*
X62745Y-52675D01*
X62745Y-55675D01*
X62672Y-55501D01*
X62539Y-55367D01*
X62364Y-55295D01*
X62175Y-55294D01*
X62001Y-55367D01*
X61867Y-55500D01*
X61795Y-55675D01*
X61794Y-55864D01*
X61867Y-56038D01*
X62000Y-56172D01*
X62175Y-56244D01*
X62364Y-56245D01*
X62538Y-56172D01*
X62672Y-56039D01*
X62744Y-55864D01*
X62745Y-55675D01*
X62745Y-58675D01*
X62672Y-58501D01*
X62539Y-58367D01*
X62364Y-58295D01*
X62175Y-58294D01*
X62001Y-58367D01*
X61867Y-58500D01*
X61795Y-58675D01*
X61794Y-58864D01*
X61867Y-59038D01*
X62000Y-59172D01*
X62175Y-59244D01*
X62364Y-59245D01*
X62538Y-59172D01*
X62672Y-59039D01*
X62744Y-58864D01*
X62745Y-58675D01*
X62745Y-65030D01*
X62690Y-65030D01*
X62690Y-63563D01*
X62547Y-63218D01*
X62283Y-62953D01*
X61937Y-62810D01*
X61563Y-62809D01*
X61218Y-62952D01*
X60953Y-63216D01*
X60810Y-63562D01*
X60809Y-63936D01*
X60952Y-64281D01*
X61216Y-64546D01*
X61562Y-64689D01*
X61936Y-64690D01*
X62281Y-64547D01*
X62546Y-64283D01*
X62689Y-63937D01*
X62690Y-63563D01*
X62690Y-65030D01*
X60580Y-65030D01*
X60580Y-56122D01*
X60672Y-56214D01*
X60865Y-56294D01*
X61073Y-56295D01*
X61267Y-56215D01*
X61414Y-56067D01*
X61494Y-55874D01*
X61495Y-55666D01*
X61415Y-55473D01*
X61267Y-55325D01*
X61134Y-55269D01*
X61267Y-55215D01*
X61414Y-55067D01*
X61494Y-54874D01*
X61495Y-54666D01*
X61415Y-54473D01*
X61267Y-54325D01*
X61134Y-54269D01*
X61267Y-54215D01*
X61414Y-54067D01*
X61494Y-53874D01*
X61495Y-53666D01*
X61415Y-53473D01*
X61267Y-53325D01*
X61195Y-53295D01*
X61294Y-53295D01*
X61386Y-53257D01*
X61456Y-53186D01*
X61494Y-53094D01*
X61495Y-52995D01*
X61495Y-52445D01*
X61457Y-52353D01*
X61386Y-52283D01*
X61294Y-52245D01*
X61195Y-52244D01*
X60645Y-52244D01*
X60580Y-52272D01*
X60580Y-41720D01*
X109400Y-41720D01*
X109400Y-65049D01*
X109400Y-65049D01*
G37*
G54D20*
X109400Y-65049D02*
X108940Y-65049D01*
X108940Y-63563D01*
X108940Y-42813D01*
X108797Y-42468D01*
X108533Y-42203D01*
X108187Y-42060D01*
X107813Y-42059D01*
X107468Y-42202D01*
X107203Y-42466D01*
X107060Y-42812D01*
X107059Y-43186D01*
X107202Y-43531D01*
X107466Y-43796D01*
X107812Y-43939D01*
X108186Y-43940D01*
X108531Y-43797D01*
X108796Y-43533D01*
X108939Y-43187D01*
X108940Y-42813D01*
X108940Y-63563D01*
X108797Y-63218D01*
X108735Y-63155D01*
X108735Y-55206D01*
X108655Y-55013D01*
X108507Y-54865D01*
X108374Y-54809D01*
X108507Y-54755D01*
X108654Y-54607D01*
X108734Y-54414D01*
X108735Y-54206D01*
X108655Y-54013D01*
X108507Y-53865D01*
X108374Y-53809D01*
X108507Y-53755D01*
X108654Y-53607D01*
X108734Y-53414D01*
X108735Y-53206D01*
X108655Y-53013D01*
X108507Y-52865D01*
X108435Y-52835D01*
X108534Y-52835D01*
X108626Y-52797D01*
X108696Y-52726D01*
X108734Y-52634D01*
X108735Y-52535D01*
X108735Y-51985D01*
X108697Y-51893D01*
X108626Y-51823D01*
X108534Y-51785D01*
X108435Y-51784D01*
X107885Y-51784D01*
X107793Y-51822D01*
X107723Y-51893D01*
X107685Y-51985D01*
X107684Y-52084D01*
X107684Y-52634D01*
X107722Y-52726D01*
X107793Y-52796D01*
X107885Y-52834D01*
X107984Y-52835D01*
X107984Y-52835D01*
X107913Y-52864D01*
X107765Y-53012D01*
X107685Y-53205D01*
X107684Y-53413D01*
X107764Y-53607D01*
X107912Y-53754D01*
X108045Y-53810D01*
X107913Y-53864D01*
X107765Y-54012D01*
X107685Y-54205D01*
X107684Y-54413D01*
X107764Y-54607D01*
X107912Y-54754D01*
X108045Y-54810D01*
X107913Y-54864D01*
X107765Y-55012D01*
X107685Y-55205D01*
X107684Y-55413D01*
X107764Y-55607D01*
X107912Y-55754D01*
X108105Y-55834D01*
X108313Y-55835D01*
X108507Y-55755D01*
X108654Y-55607D01*
X108734Y-55414D01*
X108735Y-55206D01*
X108735Y-63155D01*
X108533Y-62953D01*
X108187Y-62810D01*
X107813Y-62809D01*
X107468Y-62952D01*
X107203Y-63216D01*
X107060Y-63562D01*
X107059Y-63936D01*
X107202Y-64281D01*
X107466Y-64546D01*
X107812Y-64689D01*
X108186Y-64690D01*
X108531Y-64547D01*
X108796Y-64283D01*
X108939Y-63937D01*
X108940Y-63563D01*
X108940Y-65049D01*
X106040Y-65048D01*
X106040Y-55661D01*
X105956Y-55458D01*
X105801Y-55304D01*
X105720Y-55270D01*
X105801Y-55236D01*
X105955Y-55081D01*
X106039Y-54879D01*
X106040Y-54661D01*
X105956Y-54458D01*
X105801Y-54304D01*
X105720Y-54270D01*
X105801Y-54236D01*
X105955Y-54081D01*
X106039Y-53879D01*
X106040Y-53661D01*
X105956Y-53458D01*
X105801Y-53304D01*
X105720Y-53270D01*
X105801Y-53236D01*
X105955Y-53081D01*
X106039Y-52879D01*
X106040Y-52661D01*
X105956Y-52458D01*
X105801Y-52304D01*
X105720Y-52270D01*
X105801Y-52236D01*
X105955Y-52081D01*
X106039Y-51879D01*
X106040Y-51661D01*
X105956Y-51458D01*
X105801Y-51304D01*
X105720Y-51270D01*
X105801Y-51236D01*
X105955Y-51081D01*
X106039Y-50879D01*
X106040Y-50661D01*
X105956Y-50458D01*
X105801Y-50304D01*
X105720Y-50270D01*
X105801Y-50236D01*
X105955Y-50081D01*
X106039Y-49879D01*
X106040Y-49661D01*
X105956Y-49458D01*
X105801Y-49304D01*
X105720Y-49270D01*
X105801Y-49236D01*
X105955Y-49081D01*
X106039Y-48879D01*
X106040Y-48661D01*
X105956Y-48458D01*
X105801Y-48304D01*
X105720Y-48270D01*
X105801Y-48236D01*
X105955Y-48081D01*
X106039Y-47879D01*
X106040Y-47661D01*
X105956Y-47458D01*
X105801Y-47304D01*
X105720Y-47270D01*
X105801Y-47236D01*
X105955Y-47081D01*
X106039Y-46879D01*
X106040Y-46661D01*
X105956Y-46458D01*
X105801Y-46304D01*
X105720Y-46270D01*
X105801Y-46236D01*
X105955Y-46081D01*
X106039Y-45879D01*
X106040Y-45661D01*
X105956Y-45458D01*
X105801Y-45304D01*
X105599Y-45220D01*
X105381Y-45219D01*
X105178Y-45303D01*
X105024Y-45458D01*
X104990Y-45539D01*
X104956Y-45458D01*
X104801Y-45304D01*
X104599Y-45220D01*
X104381Y-45219D01*
X104178Y-45303D01*
X104024Y-45458D01*
X103940Y-45660D01*
X103939Y-45878D01*
X104023Y-46081D01*
X104178Y-46235D01*
X104259Y-46269D01*
X104178Y-46303D01*
X104024Y-46458D01*
X103940Y-46660D01*
X103939Y-46878D01*
X104023Y-47081D01*
X104178Y-47235D01*
X104380Y-47319D01*
X104598Y-47320D01*
X104801Y-47236D01*
X104955Y-47081D01*
X104989Y-47000D01*
X105023Y-47081D01*
X105178Y-47235D01*
X105259Y-47269D01*
X105178Y-47303D01*
X105024Y-47458D01*
X104940Y-47660D01*
X104939Y-47878D01*
X105023Y-48081D01*
X105178Y-48235D01*
X105259Y-48269D01*
X105178Y-48303D01*
X105024Y-48458D01*
X104940Y-48660D01*
X104939Y-48878D01*
X105023Y-49081D01*
X105178Y-49235D01*
X105259Y-49269D01*
X105178Y-49303D01*
X105024Y-49458D01*
X104940Y-49660D01*
X104939Y-49878D01*
X105023Y-50081D01*
X105178Y-50235D01*
X105259Y-50269D01*
X105178Y-50303D01*
X105024Y-50458D01*
X104940Y-50660D01*
X104939Y-50878D01*
X105023Y-51081D01*
X105178Y-51235D01*
X105259Y-51269D01*
X105178Y-51303D01*
X105024Y-51458D01*
X104940Y-51660D01*
X104939Y-51878D01*
X105023Y-52081D01*
X105178Y-52235D01*
X105259Y-52269D01*
X105178Y-52303D01*
X105024Y-52458D01*
X104940Y-52660D01*
X104939Y-52878D01*
X105023Y-53081D01*
X105178Y-53235D01*
X105259Y-53269D01*
X105178Y-53303D01*
X105024Y-53458D01*
X104940Y-53660D01*
X104939Y-53878D01*
X105023Y-54081D01*
X105178Y-54235D01*
X105259Y-54269D01*
X105178Y-54303D01*
X105024Y-54458D01*
X104940Y-54660D01*
X104939Y-54878D01*
X105023Y-55081D01*
X105178Y-55235D01*
X105259Y-55269D01*
X105178Y-55303D01*
X105024Y-55458D01*
X104940Y-55660D01*
X104939Y-55878D01*
X105023Y-56081D01*
X105162Y-56219D01*
X105140Y-56219D01*
X105048Y-56257D01*
X104978Y-56328D01*
X104940Y-56420D01*
X104940Y-56442D01*
X104801Y-56304D01*
X104599Y-56220D01*
X104381Y-56219D01*
X104178Y-56303D01*
X104024Y-56458D01*
X103940Y-56660D01*
X103939Y-56878D01*
X104023Y-57081D01*
X104178Y-57235D01*
X104380Y-57319D01*
X104598Y-57320D01*
X104801Y-57236D01*
X104939Y-57097D01*
X104939Y-57119D01*
X104977Y-57211D01*
X105048Y-57281D01*
X105140Y-57319D01*
X105239Y-57320D01*
X105839Y-57320D01*
X105931Y-57282D01*
X106001Y-57211D01*
X106039Y-57119D01*
X106040Y-57020D01*
X106040Y-56420D01*
X106002Y-56328D01*
X105931Y-56258D01*
X105839Y-56220D01*
X105817Y-56220D01*
X105955Y-56081D01*
X106039Y-55879D01*
X106040Y-55661D01*
X106040Y-65048D01*
X104515Y-65047D01*
X104515Y-59305D01*
X104442Y-59131D01*
X104309Y-58997D01*
X104134Y-58925D01*
X103945Y-58924D01*
X103771Y-58997D01*
X103700Y-59068D01*
X103700Y-55060D01*
X103646Y-54932D01*
X103580Y-54865D01*
X103580Y-47431D01*
X103496Y-47228D01*
X103357Y-47090D01*
X103379Y-47090D01*
X103471Y-47052D01*
X103541Y-46981D01*
X103579Y-46889D01*
X103580Y-46790D01*
X103580Y-46190D01*
X103542Y-46098D01*
X103471Y-46028D01*
X103379Y-45990D01*
X103280Y-45989D01*
X102680Y-45989D01*
X102588Y-46027D01*
X102518Y-46098D01*
X102480Y-46190D01*
X102479Y-46289D01*
X102479Y-46889D01*
X102517Y-46981D01*
X102588Y-47051D01*
X102680Y-47089D01*
X102702Y-47089D01*
X102564Y-47228D01*
X102480Y-47430D01*
X102479Y-47648D01*
X102563Y-47851D01*
X102718Y-48005D01*
X102920Y-48089D01*
X103138Y-48090D01*
X103341Y-48006D01*
X103495Y-47851D01*
X103579Y-47649D01*
X103580Y-47431D01*
X103580Y-54865D01*
X103548Y-54833D01*
X103419Y-54780D01*
X103280Y-54779D01*
X103179Y-54821D01*
X103180Y-54770D01*
X103180Y-54170D01*
X103142Y-54078D01*
X103071Y-54008D01*
X102979Y-53970D01*
X102957Y-53970D01*
X103095Y-53831D01*
X103179Y-53629D01*
X103180Y-53411D01*
X103096Y-53208D01*
X102941Y-53054D01*
X102860Y-53020D01*
X102941Y-52986D01*
X103095Y-52831D01*
X103179Y-52629D01*
X103180Y-52411D01*
X103096Y-52208D01*
X102941Y-52054D01*
X102860Y-52020D01*
X102941Y-51986D01*
X103095Y-51831D01*
X103179Y-51629D01*
X103180Y-51411D01*
X103096Y-51208D01*
X102941Y-51054D01*
X102739Y-50970D01*
X102521Y-50969D01*
X102318Y-51053D01*
X102164Y-51208D01*
X102080Y-51410D01*
X102079Y-51628D01*
X102163Y-51831D01*
X102318Y-51985D01*
X102399Y-52019D01*
X102318Y-52053D01*
X102164Y-52208D01*
X102080Y-52410D01*
X102079Y-52628D01*
X102163Y-52831D01*
X102318Y-52985D01*
X102399Y-53019D01*
X102318Y-53053D01*
X102164Y-53208D01*
X102080Y-53410D01*
X102079Y-53628D01*
X102163Y-53831D01*
X102302Y-53969D01*
X102280Y-53969D01*
X102188Y-54007D01*
X102118Y-54078D01*
X102080Y-54170D01*
X102079Y-54269D01*
X102079Y-54869D01*
X102117Y-54961D01*
X102188Y-55031D01*
X102280Y-55069D01*
X102379Y-55070D01*
X102979Y-55070D01*
X103000Y-55061D01*
X102999Y-55199D01*
X103053Y-55328D01*
X103151Y-55426D01*
X103280Y-55479D01*
X103419Y-55480D01*
X103548Y-55426D01*
X103646Y-55328D01*
X103699Y-55199D01*
X103700Y-55060D01*
X103700Y-59068D01*
X103637Y-59130D01*
X103565Y-59305D01*
X103564Y-59494D01*
X103637Y-59668D01*
X103770Y-59802D01*
X103945Y-59874D01*
X104134Y-59875D01*
X104308Y-59802D01*
X104442Y-59669D01*
X104514Y-59494D01*
X104515Y-59305D01*
X104515Y-65047D01*
X101800Y-65046D01*
X101800Y-50441D01*
X101716Y-50238D01*
X101585Y-50107D01*
X101585Y-44965D01*
X101512Y-44791D01*
X101379Y-44657D01*
X101204Y-44585D01*
X101015Y-44584D01*
X100841Y-44657D01*
X100707Y-44790D01*
X100635Y-44965D01*
X100634Y-45154D01*
X100707Y-45328D01*
X100840Y-45462D01*
X101015Y-45534D01*
X101204Y-45535D01*
X101378Y-45462D01*
X101512Y-45329D01*
X101584Y-45154D01*
X101585Y-44965D01*
X101585Y-50107D01*
X101561Y-50084D01*
X101359Y-50000D01*
X101141Y-49999D01*
X100938Y-50083D01*
X100784Y-50238D01*
X100700Y-50440D01*
X100699Y-50658D01*
X100783Y-50861D01*
X100922Y-50999D01*
X100900Y-50999D01*
X100808Y-51037D01*
X100738Y-51108D01*
X100700Y-51200D01*
X100699Y-51299D01*
X100699Y-51899D01*
X100737Y-51991D01*
X100808Y-52061D01*
X100900Y-52099D01*
X100999Y-52100D01*
X101599Y-52100D01*
X101691Y-52062D01*
X101761Y-51991D01*
X101799Y-51899D01*
X101800Y-51800D01*
X101800Y-51200D01*
X101762Y-51108D01*
X101691Y-51038D01*
X101599Y-51000D01*
X101577Y-51000D01*
X101715Y-50861D01*
X101799Y-50659D01*
X101800Y-50441D01*
X101800Y-65046D01*
X100680Y-65046D01*
X100680Y-57060D01*
X100626Y-56932D01*
X100580Y-56885D01*
X100580Y-50450D01*
X100526Y-50322D01*
X100428Y-50223D01*
X100370Y-50199D01*
X100370Y-49270D01*
X100316Y-49142D01*
X100218Y-49043D01*
X100089Y-48990D01*
X99980Y-48989D01*
X99980Y-47000D01*
X99945Y-46916D01*
X99945Y-46075D01*
X99872Y-45901D01*
X99739Y-45767D01*
X99564Y-45695D01*
X99375Y-45694D01*
X99201Y-45767D01*
X99067Y-45900D01*
X98995Y-46075D01*
X98994Y-46264D01*
X99067Y-46438D01*
X99200Y-46572D01*
X99375Y-46644D01*
X99564Y-46645D01*
X99738Y-46572D01*
X99872Y-46439D01*
X99944Y-46264D01*
X99945Y-46075D01*
X99945Y-46916D01*
X99926Y-46872D01*
X99828Y-46773D01*
X99699Y-46720D01*
X99560Y-46719D01*
X99432Y-46773D01*
X99333Y-46871D01*
X99280Y-47000D01*
X99279Y-47139D01*
X99333Y-47268D01*
X99431Y-47366D01*
X99560Y-47419D01*
X99699Y-47420D01*
X99828Y-47366D01*
X99926Y-47268D01*
X99979Y-47139D01*
X99980Y-47000D01*
X99980Y-48989D01*
X99970Y-48989D01*
X99970Y-48310D01*
X99916Y-48182D01*
X99890Y-48155D01*
X99929Y-48059D01*
X99930Y-47920D01*
X99876Y-47792D01*
X99778Y-47693D01*
X99649Y-47640D01*
X99510Y-47639D01*
X99382Y-47693D01*
X99283Y-47791D01*
X99230Y-47920D01*
X99229Y-48059D01*
X99283Y-48188D01*
X99309Y-48214D01*
X99270Y-48310D01*
X99269Y-48449D01*
X99323Y-48578D01*
X99421Y-48676D01*
X99550Y-48729D01*
X99689Y-48730D01*
X99818Y-48676D01*
X99916Y-48578D01*
X99969Y-48449D01*
X99970Y-48310D01*
X99970Y-48989D01*
X99950Y-48989D01*
X99822Y-49043D01*
X99723Y-49141D01*
X99670Y-49270D01*
X99669Y-49409D01*
X99723Y-49538D01*
X99821Y-49636D01*
X99950Y-49689D01*
X100089Y-49690D01*
X100218Y-49636D01*
X100316Y-49538D01*
X100369Y-49409D01*
X100370Y-49270D01*
X100370Y-50199D01*
X100299Y-50170D01*
X100160Y-50169D01*
X100032Y-50223D01*
X99933Y-50321D01*
X99880Y-50450D01*
X99879Y-50589D01*
X99933Y-50718D01*
X100031Y-50816D01*
X100160Y-50869D01*
X100299Y-50870D01*
X100428Y-50816D01*
X100526Y-50718D01*
X100579Y-50589D01*
X100580Y-50450D01*
X100580Y-56885D01*
X100528Y-56833D01*
X100399Y-56780D01*
X100350Y-56780D01*
X100350Y-55170D01*
X100296Y-55042D01*
X100264Y-55010D01*
X100286Y-54988D01*
X100339Y-54859D01*
X100340Y-54720D01*
X100286Y-54592D01*
X100209Y-54514D01*
X100286Y-54438D01*
X100339Y-54309D01*
X100340Y-54170D01*
X100286Y-54042D01*
X100244Y-54000D01*
X100296Y-53948D01*
X100349Y-53819D01*
X100350Y-53680D01*
X100296Y-53552D01*
X100198Y-53453D01*
X100069Y-53400D01*
X99930Y-53399D01*
X99802Y-53453D01*
X99703Y-53551D01*
X99650Y-53680D01*
X99649Y-53819D01*
X99703Y-53948D01*
X99745Y-53989D01*
X99693Y-54041D01*
X99640Y-54170D01*
X99639Y-54309D01*
X99693Y-54438D01*
X99770Y-54515D01*
X99693Y-54591D01*
X99640Y-54720D01*
X99639Y-54859D01*
X99693Y-54988D01*
X99725Y-55019D01*
X99703Y-55041D01*
X99650Y-55170D01*
X99649Y-55309D01*
X99703Y-55438D01*
X99801Y-55536D01*
X99930Y-55589D01*
X100069Y-55590D01*
X100198Y-55536D01*
X100296Y-55438D01*
X100349Y-55309D01*
X100350Y-55170D01*
X100350Y-56780D01*
X100260Y-56779D01*
X100132Y-56833D01*
X100033Y-56931D01*
X100027Y-56946D01*
X100016Y-56922D01*
X99918Y-56823D01*
X99789Y-56770D01*
X99650Y-56769D01*
X99522Y-56823D01*
X99423Y-56921D01*
X99370Y-57050D01*
X99369Y-57189D01*
X99423Y-57318D01*
X99521Y-57416D01*
X99650Y-57469D01*
X99789Y-57470D01*
X99918Y-57416D01*
X100016Y-57318D01*
X100022Y-57303D01*
X100033Y-57328D01*
X100131Y-57426D01*
X100260Y-57479D01*
X100399Y-57480D01*
X100528Y-57426D01*
X100626Y-57328D01*
X100679Y-57199D01*
X100680Y-57060D01*
X100680Y-65046D01*
X98880Y-65045D01*
X98880Y-56150D01*
X98826Y-56022D01*
X98760Y-55955D01*
X98760Y-51020D01*
X98706Y-50892D01*
X98608Y-50793D01*
X98479Y-50740D01*
X98380Y-50739D01*
X98380Y-48290D01*
X98326Y-48162D01*
X98325Y-48160D01*
X98325Y-46605D01*
X98325Y-46055D01*
X98287Y-45963D01*
X98216Y-45893D01*
X98124Y-45855D01*
X98025Y-45854D01*
X97475Y-45854D01*
X97383Y-45892D01*
X97313Y-45963D01*
X97275Y-46055D01*
X97274Y-46154D01*
X97274Y-46154D01*
X97245Y-46083D01*
X97097Y-45935D01*
X96904Y-45855D01*
X96696Y-45854D01*
X96503Y-45934D01*
X96355Y-46082D01*
X96275Y-46275D01*
X96274Y-46483D01*
X96354Y-46677D01*
X96502Y-46824D01*
X96695Y-46904D01*
X96903Y-46905D01*
X97097Y-46825D01*
X97244Y-46677D01*
X97274Y-46605D01*
X97274Y-46704D01*
X97312Y-46796D01*
X97383Y-46866D01*
X97475Y-46904D01*
X97574Y-46905D01*
X98124Y-46905D01*
X98216Y-46867D01*
X98286Y-46796D01*
X98324Y-46704D01*
X98325Y-46605D01*
X98325Y-48160D01*
X98228Y-48063D01*
X98099Y-48010D01*
X97960Y-48009D01*
X97832Y-48063D01*
X97779Y-48115D01*
X97728Y-48063D01*
X97599Y-48010D01*
X97460Y-48009D01*
X97332Y-48063D01*
X97279Y-48115D01*
X97228Y-48063D01*
X97099Y-48010D01*
X96960Y-48009D01*
X96832Y-48063D01*
X96779Y-48115D01*
X96728Y-48063D01*
X96599Y-48010D01*
X96460Y-48009D01*
X96332Y-48063D01*
X96279Y-48115D01*
X96228Y-48063D01*
X96099Y-48010D01*
X95960Y-48009D01*
X95832Y-48063D01*
X95779Y-48115D01*
X95728Y-48063D01*
X95599Y-48010D01*
X95540Y-48010D01*
X95540Y-44071D01*
X95456Y-43868D01*
X95301Y-43714D01*
X95099Y-43630D01*
X94881Y-43629D01*
X94678Y-43713D01*
X94524Y-43868D01*
X94440Y-44070D01*
X94439Y-44288D01*
X94523Y-44491D01*
X94662Y-44629D01*
X94640Y-44629D01*
X94548Y-44667D01*
X94478Y-44738D01*
X94440Y-44830D01*
X94439Y-44929D01*
X94439Y-45529D01*
X94477Y-45621D01*
X94548Y-45691D01*
X94640Y-45729D01*
X94739Y-45730D01*
X95339Y-45730D01*
X95431Y-45692D01*
X95501Y-45621D01*
X95539Y-45529D01*
X95540Y-45430D01*
X95540Y-44830D01*
X95502Y-44738D01*
X95431Y-44668D01*
X95339Y-44630D01*
X95317Y-44630D01*
X95455Y-44491D01*
X95539Y-44289D01*
X95540Y-44071D01*
X95540Y-48010D01*
X95460Y-48009D01*
X95332Y-48063D01*
X95279Y-48115D01*
X95228Y-48063D01*
X95099Y-48010D01*
X94960Y-48009D01*
X94832Y-48063D01*
X94779Y-48115D01*
X94728Y-48063D01*
X94599Y-48010D01*
X94460Y-48009D01*
X94459Y-48010D01*
X94460Y-47930D01*
X94416Y-47824D01*
X94459Y-47719D01*
X94460Y-47580D01*
X94406Y-47452D01*
X94308Y-47353D01*
X94179Y-47300D01*
X94040Y-47299D01*
X93912Y-47353D01*
X93820Y-47444D01*
X93820Y-45591D01*
X93820Y-43591D01*
X93728Y-43370D01*
X93560Y-43201D01*
X93339Y-43110D01*
X93101Y-43109D01*
X92880Y-43201D01*
X92719Y-43361D01*
X92560Y-43201D01*
X92339Y-43110D01*
X92101Y-43109D01*
X91880Y-43201D01*
X91719Y-43361D01*
X91560Y-43201D01*
X91339Y-43110D01*
X91101Y-43109D01*
X90880Y-43201D01*
X90711Y-43369D01*
X90620Y-43590D01*
X90619Y-43828D01*
X90711Y-44049D01*
X90879Y-44218D01*
X91100Y-44309D01*
X91338Y-44310D01*
X91559Y-44218D01*
X91720Y-44058D01*
X91879Y-44218D01*
X92100Y-44309D01*
X92338Y-44310D01*
X92559Y-44218D01*
X92720Y-44058D01*
X92879Y-44218D01*
X93100Y-44309D01*
X93338Y-44310D01*
X93559Y-44218D01*
X93728Y-44050D01*
X93819Y-43829D01*
X93820Y-43591D01*
X93820Y-45591D01*
X93728Y-45370D01*
X93560Y-45201D01*
X93339Y-45110D01*
X93101Y-45109D01*
X92880Y-45201D01*
X92719Y-45361D01*
X92560Y-45201D01*
X92339Y-45110D01*
X92101Y-45109D01*
X91880Y-45201D01*
X91719Y-45361D01*
X91560Y-45201D01*
X91339Y-45110D01*
X91101Y-45109D01*
X90880Y-45201D01*
X90711Y-45369D01*
X90620Y-45590D01*
X90619Y-45828D01*
X90711Y-46049D01*
X90879Y-46218D01*
X91100Y-46309D01*
X91338Y-46310D01*
X91559Y-46218D01*
X91720Y-46058D01*
X91879Y-46218D01*
X92100Y-46309D01*
X92338Y-46310D01*
X92559Y-46218D01*
X92720Y-46058D01*
X92879Y-46218D01*
X93100Y-46309D01*
X93338Y-46310D01*
X93559Y-46218D01*
X93728Y-46050D01*
X93819Y-45829D01*
X93820Y-45591D01*
X93820Y-47444D01*
X93813Y-47451D01*
X93760Y-47580D01*
X93759Y-47719D01*
X93803Y-47825D01*
X93760Y-47930D01*
X93759Y-48069D01*
X93813Y-48198D01*
X93911Y-48296D01*
X94040Y-48349D01*
X94179Y-48350D01*
X94180Y-48349D01*
X94179Y-48429D01*
X94233Y-48558D01*
X94331Y-48656D01*
X94460Y-48709D01*
X94599Y-48710D01*
X94728Y-48656D01*
X94780Y-48604D01*
X94831Y-48656D01*
X94960Y-48709D01*
X95099Y-48710D01*
X95228Y-48656D01*
X95280Y-48604D01*
X95331Y-48656D01*
X95460Y-48709D01*
X95599Y-48710D01*
X95728Y-48656D01*
X95780Y-48604D01*
X95831Y-48656D01*
X95960Y-48709D01*
X96099Y-48710D01*
X96228Y-48656D01*
X96280Y-48604D01*
X96331Y-48656D01*
X96460Y-48709D01*
X96599Y-48710D01*
X96728Y-48656D01*
X96780Y-48604D01*
X96831Y-48656D01*
X96960Y-48709D01*
X97099Y-48710D01*
X97228Y-48656D01*
X97280Y-48604D01*
X97331Y-48656D01*
X97460Y-48709D01*
X97599Y-48710D01*
X97728Y-48656D01*
X97780Y-48604D01*
X97831Y-48656D01*
X97960Y-48709D01*
X98099Y-48710D01*
X98228Y-48656D01*
X98326Y-48558D01*
X98379Y-48429D01*
X98380Y-48290D01*
X98380Y-50739D01*
X98340Y-50739D01*
X98212Y-50793D01*
X98113Y-50891D01*
X98060Y-51020D01*
X98059Y-51159D01*
X98113Y-51288D01*
X98211Y-51386D01*
X98340Y-51439D01*
X98479Y-51440D01*
X98608Y-51386D01*
X98706Y-51288D01*
X98759Y-51159D01*
X98760Y-51020D01*
X98760Y-55955D01*
X98728Y-55923D01*
X98700Y-55911D01*
X98700Y-53460D01*
X98646Y-53332D01*
X98548Y-53233D01*
X98506Y-53216D01*
X98529Y-53159D01*
X98530Y-53020D01*
X98476Y-52892D01*
X98378Y-52793D01*
X98249Y-52740D01*
X98110Y-52739D01*
X97982Y-52793D01*
X97883Y-52891D01*
X97830Y-53020D01*
X97829Y-53159D01*
X97840Y-53184D01*
X97813Y-53211D01*
X97760Y-53340D01*
X97759Y-53479D01*
X97813Y-53608D01*
X97911Y-53706D01*
X98040Y-53759D01*
X98085Y-53759D01*
X98151Y-53826D01*
X98280Y-53879D01*
X98419Y-53880D01*
X98548Y-53826D01*
X98646Y-53728D01*
X98699Y-53599D01*
X98700Y-53460D01*
X98700Y-55911D01*
X98599Y-55870D01*
X98460Y-55869D01*
X98332Y-55923D01*
X98233Y-56021D01*
X98180Y-56150D01*
X98179Y-56289D01*
X98233Y-56418D01*
X98331Y-56516D01*
X98460Y-56569D01*
X98599Y-56570D01*
X98728Y-56516D01*
X98826Y-56418D01*
X98879Y-56289D01*
X98880Y-56150D01*
X98880Y-65045D01*
X97680Y-65045D01*
X97680Y-52960D01*
X97626Y-52832D01*
X97528Y-52733D01*
X97399Y-52680D01*
X97260Y-52679D01*
X97132Y-52733D01*
X97033Y-52831D01*
X96980Y-52960D01*
X96979Y-53099D01*
X97033Y-53228D01*
X97131Y-53326D01*
X97260Y-53379D01*
X97399Y-53380D01*
X97528Y-53326D01*
X97626Y-53228D01*
X97679Y-53099D01*
X97680Y-52960D01*
X97680Y-65045D01*
X97660Y-65045D01*
X97660Y-54930D01*
X97606Y-54802D01*
X97508Y-54703D01*
X97388Y-54653D01*
X97366Y-54602D01*
X97324Y-54560D01*
X97379Y-54560D01*
X97508Y-54506D01*
X97606Y-54408D01*
X97659Y-54279D01*
X97660Y-54140D01*
X97606Y-54012D01*
X97508Y-53913D01*
X97455Y-53891D01*
X97426Y-53822D01*
X97328Y-53723D01*
X97199Y-53670D01*
X97060Y-53669D01*
X96932Y-53723D01*
X96930Y-53725D01*
X96858Y-53653D01*
X96729Y-53600D01*
X96590Y-53599D01*
X96462Y-53653D01*
X96363Y-53751D01*
X96310Y-53880D01*
X96310Y-53882D01*
X96212Y-53923D01*
X96113Y-54021D01*
X96060Y-54150D01*
X96059Y-54289D01*
X96072Y-54319D01*
X96030Y-54319D01*
X95902Y-54373D01*
X95840Y-54434D01*
X95840Y-50110D01*
X95786Y-49982D01*
X95688Y-49883D01*
X95559Y-49830D01*
X95554Y-49830D01*
X95468Y-49743D01*
X95339Y-49690D01*
X95209Y-49689D01*
X95176Y-49612D01*
X95078Y-49513D01*
X94949Y-49460D01*
X94810Y-49459D01*
X94682Y-49513D01*
X94583Y-49611D01*
X94571Y-49639D01*
X94499Y-49610D01*
X94360Y-49609D01*
X94232Y-49663D01*
X94133Y-49761D01*
X94121Y-49789D01*
X94099Y-49780D01*
X93960Y-49779D01*
X93832Y-49833D01*
X93733Y-49931D01*
X93680Y-50060D01*
X93679Y-50199D01*
X93733Y-50328D01*
X93831Y-50426D01*
X93960Y-50479D01*
X94085Y-50480D01*
X94111Y-50506D01*
X94240Y-50559D01*
X94379Y-50560D01*
X94508Y-50506D01*
X94548Y-50466D01*
X94630Y-50499D01*
X94769Y-50500D01*
X94837Y-50472D01*
X94891Y-50526D01*
X95020Y-50579D01*
X95159Y-50580D01*
X95288Y-50526D01*
X95324Y-50490D01*
X95420Y-50529D01*
X95559Y-50530D01*
X95688Y-50476D01*
X95786Y-50378D01*
X95839Y-50249D01*
X95840Y-50110D01*
X95840Y-54434D01*
X95803Y-54471D01*
X95750Y-54600D01*
X95749Y-54739D01*
X95803Y-54868D01*
X95901Y-54966D01*
X96030Y-55019D01*
X96169Y-55020D01*
X96298Y-54966D01*
X96396Y-54868D01*
X96449Y-54739D01*
X96450Y-54600D01*
X96437Y-54570D01*
X96479Y-54570D01*
X96608Y-54516D01*
X96706Y-54418D01*
X96759Y-54289D01*
X96759Y-54287D01*
X96858Y-54246D01*
X96859Y-54244D01*
X96931Y-54316D01*
X96984Y-54338D01*
X97013Y-54408D01*
X97055Y-54449D01*
X97000Y-54449D01*
X96872Y-54503D01*
X96773Y-54601D01*
X96720Y-54730D01*
X96719Y-54869D01*
X96773Y-54998D01*
X96871Y-55096D01*
X96991Y-55146D01*
X97013Y-55198D01*
X97111Y-55296D01*
X97240Y-55349D01*
X97379Y-55350D01*
X97508Y-55296D01*
X97606Y-55198D01*
X97659Y-55069D01*
X97660Y-54930D01*
X97660Y-65045D01*
X97220Y-65044D01*
X97220Y-56180D01*
X97166Y-56052D01*
X97068Y-55953D01*
X97016Y-55931D01*
X96966Y-55812D01*
X96868Y-55713D01*
X96739Y-55660D01*
X96600Y-55659D01*
X96472Y-55713D01*
X96373Y-55811D01*
X96320Y-55940D01*
X96319Y-56079D01*
X96373Y-56208D01*
X96471Y-56306D01*
X96523Y-56328D01*
X96573Y-56448D01*
X96671Y-56546D01*
X96800Y-56599D01*
X96939Y-56600D01*
X97068Y-56546D01*
X97166Y-56448D01*
X97219Y-56319D01*
X97220Y-56180D01*
X97220Y-65044D01*
X96930Y-65044D01*
X96930Y-57200D01*
X96876Y-57072D01*
X96778Y-56973D01*
X96649Y-56920D01*
X96510Y-56919D01*
X96382Y-56973D01*
X96283Y-57071D01*
X96230Y-57200D01*
X96229Y-57339D01*
X96283Y-57468D01*
X96381Y-57566D01*
X96510Y-57619D01*
X96649Y-57620D01*
X96778Y-57566D01*
X96876Y-57468D01*
X96929Y-57339D01*
X96930Y-57200D01*
X96930Y-65044D01*
X96870Y-65044D01*
X96870Y-59480D01*
X96816Y-59352D01*
X96718Y-59253D01*
X96589Y-59200D01*
X96450Y-59199D01*
X96322Y-59253D01*
X96223Y-59351D01*
X96170Y-59480D01*
X96169Y-59619D01*
X96223Y-59748D01*
X96321Y-59846D01*
X96450Y-59899D01*
X96589Y-59900D01*
X96718Y-59846D01*
X96816Y-59748D01*
X96869Y-59619D01*
X96870Y-59480D01*
X96870Y-65044D01*
X96040Y-65044D01*
X96040Y-57200D01*
X95986Y-57072D01*
X95888Y-56973D01*
X95811Y-56941D01*
X95786Y-56882D01*
X95688Y-56783D01*
X95559Y-56730D01*
X95420Y-56729D01*
X95292Y-56783D01*
X95279Y-56795D01*
X95169Y-56750D01*
X95050Y-56749D01*
X95050Y-55940D01*
X94996Y-55812D01*
X94898Y-55713D01*
X94769Y-55660D01*
X94630Y-55659D01*
X94502Y-55713D01*
X94403Y-55811D01*
X94369Y-55892D01*
X94272Y-55933D01*
X94260Y-55945D01*
X94260Y-50940D01*
X94206Y-50812D01*
X94108Y-50713D01*
X93979Y-50660D01*
X93840Y-50659D01*
X93712Y-50713D01*
X93613Y-50811D01*
X93610Y-50819D01*
X93606Y-50812D01*
X93508Y-50713D01*
X93379Y-50660D01*
X93240Y-50659D01*
X93112Y-50713D01*
X93013Y-50811D01*
X92960Y-50940D01*
X92959Y-51079D01*
X93013Y-51208D01*
X93111Y-51306D01*
X93240Y-51359D01*
X93379Y-51360D01*
X93508Y-51306D01*
X93606Y-51208D01*
X93609Y-51200D01*
X93613Y-51208D01*
X93711Y-51306D01*
X93840Y-51359D01*
X93979Y-51360D01*
X94108Y-51306D01*
X94206Y-51208D01*
X94259Y-51079D01*
X94260Y-50940D01*
X94260Y-55945D01*
X94173Y-56031D01*
X94120Y-56160D01*
X94119Y-56299D01*
X94173Y-56428D01*
X94271Y-56526D01*
X94400Y-56579D01*
X94539Y-56580D01*
X94668Y-56526D01*
X94766Y-56428D01*
X94800Y-56347D01*
X94898Y-56306D01*
X94996Y-56208D01*
X95049Y-56079D01*
X95050Y-55940D01*
X95050Y-56749D01*
X95030Y-56749D01*
X94934Y-56789D01*
X94839Y-56750D01*
X94700Y-56749D01*
X94572Y-56803D01*
X94473Y-56901D01*
X94420Y-57030D01*
X94419Y-57169D01*
X94473Y-57298D01*
X94571Y-57396D01*
X94700Y-57449D01*
X94839Y-57450D01*
X94935Y-57410D01*
X94971Y-57425D01*
X94993Y-57478D01*
X95091Y-57576D01*
X95220Y-57629D01*
X95359Y-57630D01*
X95488Y-57576D01*
X95496Y-57568D01*
X95620Y-57619D01*
X95759Y-57620D01*
X95888Y-57566D01*
X95986Y-57468D01*
X96039Y-57339D01*
X96040Y-57200D01*
X96040Y-65044D01*
X95480Y-65044D01*
X95480Y-62091D01*
X95396Y-61888D01*
X95370Y-61862D01*
X95370Y-59010D01*
X95316Y-58882D01*
X95218Y-58783D01*
X95089Y-58730D01*
X94950Y-58729D01*
X94822Y-58783D01*
X94769Y-58835D01*
X94718Y-58783D01*
X94589Y-58730D01*
X94450Y-58729D01*
X94322Y-58783D01*
X94264Y-58840D01*
X94218Y-58793D01*
X94089Y-58740D01*
X93950Y-58739D01*
X93822Y-58793D01*
X93769Y-58845D01*
X93718Y-58793D01*
X93589Y-58740D01*
X93450Y-58739D01*
X93322Y-58793D01*
X93223Y-58891D01*
X93170Y-59020D01*
X93169Y-59159D01*
X93223Y-59288D01*
X93321Y-59386D01*
X93450Y-59439D01*
X93589Y-59440D01*
X93718Y-59386D01*
X93770Y-59334D01*
X93821Y-59386D01*
X93950Y-59439D01*
X94089Y-59440D01*
X94218Y-59386D01*
X94275Y-59329D01*
X94321Y-59376D01*
X94450Y-59429D01*
X94589Y-59430D01*
X94718Y-59376D01*
X94770Y-59324D01*
X94821Y-59376D01*
X94950Y-59429D01*
X95089Y-59430D01*
X95218Y-59376D01*
X95316Y-59278D01*
X95369Y-59149D01*
X95370Y-59010D01*
X95370Y-61862D01*
X95241Y-61734D01*
X95039Y-61650D01*
X94821Y-61649D01*
X94618Y-61733D01*
X94464Y-61888D01*
X94380Y-62090D01*
X94379Y-62308D01*
X94463Y-62511D01*
X94602Y-62649D01*
X94580Y-62649D01*
X94488Y-62687D01*
X94418Y-62758D01*
X94380Y-62850D01*
X94379Y-62949D01*
X94379Y-63549D01*
X94417Y-63641D01*
X94488Y-63711D01*
X94580Y-63749D01*
X94679Y-63750D01*
X95279Y-63750D01*
X95371Y-63712D01*
X95441Y-63641D01*
X95479Y-63549D01*
X95480Y-63450D01*
X95480Y-62850D01*
X95442Y-62758D01*
X95371Y-62688D01*
X95279Y-62650D01*
X95257Y-62650D01*
X95395Y-62511D01*
X95479Y-62309D01*
X95480Y-62091D01*
X95480Y-65044D01*
X93820Y-65043D01*
X93820Y-63581D01*
X93820Y-61581D01*
X93728Y-61360D01*
X93560Y-61191D01*
X93339Y-61100D01*
X93101Y-61099D01*
X92880Y-61191D01*
X92719Y-61351D01*
X92560Y-61191D01*
X92450Y-61145D01*
X92450Y-54090D01*
X92408Y-53989D01*
X92449Y-53889D01*
X92450Y-53750D01*
X92420Y-53678D01*
X92420Y-51410D01*
X92366Y-51282D01*
X92340Y-51255D01*
X92340Y-50520D01*
X92286Y-50392D01*
X92188Y-50293D01*
X92059Y-50240D01*
X91920Y-50239D01*
X91792Y-50293D01*
X91693Y-50391D01*
X91640Y-50520D01*
X91639Y-50659D01*
X91693Y-50788D01*
X91791Y-50886D01*
X91920Y-50939D01*
X92059Y-50940D01*
X92188Y-50886D01*
X92286Y-50788D01*
X92339Y-50659D01*
X92340Y-50520D01*
X92340Y-51255D01*
X92268Y-51183D01*
X92139Y-51130D01*
X92000Y-51129D01*
X91872Y-51183D01*
X91773Y-51281D01*
X91720Y-51410D01*
X91719Y-51549D01*
X91773Y-51678D01*
X91871Y-51776D01*
X92000Y-51829D01*
X92139Y-51830D01*
X92268Y-51776D01*
X92366Y-51678D01*
X92419Y-51549D01*
X92420Y-51410D01*
X92420Y-53678D01*
X92396Y-53622D01*
X92298Y-53523D01*
X92169Y-53470D01*
X92030Y-53469D01*
X91902Y-53523D01*
X91803Y-53621D01*
X91750Y-53750D01*
X91749Y-53889D01*
X91791Y-53990D01*
X91750Y-54090D01*
X91749Y-54229D01*
X91803Y-54358D01*
X91901Y-54456D01*
X92030Y-54509D01*
X92169Y-54510D01*
X92298Y-54456D01*
X92396Y-54358D01*
X92449Y-54229D01*
X92450Y-54090D01*
X92450Y-61145D01*
X92339Y-61100D01*
X92101Y-61099D01*
X91880Y-61191D01*
X91719Y-61351D01*
X91650Y-61281D01*
X91650Y-55320D01*
X91598Y-55194D01*
X91649Y-55069D01*
X91650Y-54930D01*
X91596Y-54802D01*
X91588Y-54793D01*
X91639Y-54669D01*
X91640Y-54530D01*
X91588Y-54404D01*
X91639Y-54279D01*
X91640Y-54140D01*
X91590Y-54019D01*
X91590Y-51140D01*
X91536Y-51012D01*
X91438Y-50913D01*
X91309Y-50860D01*
X91170Y-50859D01*
X91042Y-50913D01*
X90943Y-51011D01*
X90900Y-51115D01*
X90900Y-47880D01*
X90846Y-47752D01*
X90748Y-47653D01*
X90619Y-47600D01*
X90480Y-47599D01*
X90352Y-47653D01*
X90253Y-47751D01*
X90200Y-47880D01*
X90199Y-48019D01*
X90253Y-48148D01*
X90351Y-48246D01*
X90480Y-48299D01*
X90619Y-48300D01*
X90748Y-48246D01*
X90846Y-48148D01*
X90899Y-48019D01*
X90900Y-47880D01*
X90900Y-51115D01*
X90890Y-51140D01*
X90889Y-51279D01*
X90943Y-51408D01*
X91041Y-51506D01*
X91170Y-51559D01*
X91309Y-51560D01*
X91438Y-51506D01*
X91536Y-51408D01*
X91589Y-51279D01*
X91590Y-51140D01*
X91590Y-54019D01*
X91586Y-54012D01*
X91488Y-53913D01*
X91359Y-53860D01*
X91220Y-53859D01*
X91092Y-53913D01*
X90993Y-54011D01*
X90959Y-54093D01*
X90912Y-54113D01*
X90813Y-54211D01*
X90760Y-54340D01*
X90759Y-54479D01*
X90813Y-54608D01*
X90821Y-54616D01*
X90770Y-54740D01*
X90769Y-54879D01*
X90821Y-55003D01*
X90813Y-55011D01*
X90760Y-55140D01*
X90759Y-55279D01*
X90813Y-55408D01*
X90815Y-55409D01*
X90813Y-55411D01*
X90760Y-55540D01*
X90759Y-55679D01*
X90813Y-55808D01*
X90911Y-55906D01*
X91040Y-55959D01*
X91179Y-55960D01*
X91308Y-55906D01*
X91406Y-55808D01*
X91448Y-55707D01*
X91498Y-55686D01*
X91596Y-55588D01*
X91649Y-55459D01*
X91650Y-55320D01*
X91650Y-61281D01*
X91640Y-61271D01*
X91640Y-56750D01*
X91586Y-56622D01*
X91488Y-56523D01*
X91359Y-56470D01*
X91220Y-56469D01*
X91092Y-56523D01*
X90993Y-56621D01*
X90940Y-56750D01*
X90939Y-56824D01*
X90918Y-56803D01*
X90789Y-56750D01*
X90650Y-56749D01*
X90522Y-56803D01*
X90423Y-56901D01*
X90370Y-57030D01*
X90369Y-57169D01*
X90423Y-57298D01*
X90521Y-57396D01*
X90650Y-57449D01*
X90789Y-57450D01*
X90918Y-57396D01*
X91016Y-57298D01*
X91069Y-57169D01*
X91070Y-57095D01*
X91091Y-57116D01*
X91220Y-57169D01*
X91359Y-57170D01*
X91488Y-57116D01*
X91586Y-57018D01*
X91639Y-56889D01*
X91640Y-56750D01*
X91640Y-61271D01*
X91560Y-61191D01*
X91339Y-61100D01*
X91101Y-61099D01*
X90880Y-61191D01*
X90711Y-61359D01*
X90620Y-61580D01*
X90619Y-61818D01*
X90711Y-62039D01*
X90879Y-62208D01*
X91100Y-62299D01*
X91338Y-62300D01*
X91559Y-62208D01*
X91720Y-62048D01*
X91879Y-62208D01*
X92100Y-62299D01*
X92338Y-62300D01*
X92559Y-62208D01*
X92720Y-62048D01*
X92879Y-62208D01*
X93100Y-62299D01*
X93338Y-62300D01*
X93559Y-62208D01*
X93728Y-62040D01*
X93819Y-61819D01*
X93820Y-61581D01*
X93820Y-63581D01*
X93728Y-63360D01*
X93560Y-63191D01*
X93339Y-63100D01*
X93101Y-63099D01*
X92880Y-63191D01*
X92719Y-63351D01*
X92560Y-63191D01*
X92339Y-63100D01*
X92101Y-63099D01*
X91880Y-63191D01*
X91719Y-63351D01*
X91560Y-63191D01*
X91339Y-63100D01*
X91101Y-63099D01*
X90880Y-63191D01*
X90711Y-63359D01*
X90620Y-63580D01*
X90619Y-63818D01*
X90711Y-64039D01*
X90879Y-64208D01*
X91100Y-64299D01*
X91338Y-64300D01*
X91559Y-64208D01*
X91720Y-64048D01*
X91879Y-64208D01*
X92100Y-64299D01*
X92338Y-64300D01*
X92559Y-64208D01*
X92720Y-64048D01*
X92879Y-64208D01*
X93100Y-64299D01*
X93338Y-64300D01*
X93559Y-64208D01*
X93728Y-64040D01*
X93819Y-63819D01*
X93820Y-63581D01*
X93820Y-65043D01*
X89820Y-65041D01*
X89820Y-63581D01*
X89820Y-61581D01*
X89820Y-45591D01*
X89820Y-43591D01*
X89728Y-43370D01*
X89590Y-43231D01*
X89590Y-42180D01*
X89536Y-42052D01*
X89438Y-41953D01*
X89309Y-41900D01*
X89170Y-41899D01*
X89042Y-41953D01*
X88943Y-42051D01*
X88890Y-42180D01*
X88889Y-42319D01*
X88943Y-42448D01*
X89041Y-42546D01*
X89170Y-42599D01*
X89309Y-42600D01*
X89438Y-42546D01*
X89536Y-42448D01*
X89589Y-42319D01*
X89590Y-42180D01*
X89590Y-43231D01*
X89560Y-43201D01*
X89339Y-43110D01*
X89101Y-43109D01*
X88880Y-43201D01*
X88711Y-43369D01*
X88620Y-43590D01*
X88619Y-43828D01*
X88711Y-44049D01*
X88879Y-44218D01*
X89100Y-44309D01*
X89338Y-44310D01*
X89559Y-44218D01*
X89728Y-44050D01*
X89819Y-43829D01*
X89820Y-43591D01*
X89820Y-45591D01*
X89728Y-45370D01*
X89560Y-45201D01*
X89339Y-45110D01*
X89101Y-45109D01*
X88880Y-45201D01*
X88711Y-45369D01*
X88620Y-45590D01*
X88619Y-45828D01*
X88711Y-46049D01*
X88879Y-46218D01*
X89100Y-46309D01*
X89338Y-46310D01*
X89559Y-46218D01*
X89728Y-46050D01*
X89819Y-45829D01*
X89820Y-45591D01*
X89820Y-61581D01*
X89728Y-61360D01*
X89560Y-61191D01*
X89440Y-61141D01*
X89440Y-48100D01*
X89386Y-47972D01*
X89288Y-47873D01*
X89159Y-47820D01*
X89020Y-47819D01*
X88892Y-47873D01*
X88793Y-47971D01*
X88740Y-48100D01*
X88739Y-48239D01*
X88793Y-48368D01*
X88891Y-48466D01*
X89020Y-48519D01*
X89159Y-48520D01*
X89288Y-48466D01*
X89386Y-48368D01*
X89439Y-48239D01*
X89440Y-48100D01*
X89440Y-61141D01*
X89380Y-61116D01*
X89380Y-55010D01*
X89326Y-54882D01*
X89274Y-54829D01*
X89326Y-54778D01*
X89379Y-54649D01*
X89380Y-54510D01*
X89326Y-54382D01*
X89274Y-54329D01*
X89326Y-54278D01*
X89379Y-54149D01*
X89380Y-54010D01*
X89326Y-53882D01*
X89274Y-53829D01*
X89326Y-53778D01*
X89379Y-53649D01*
X89380Y-53510D01*
X89326Y-53382D01*
X89274Y-53329D01*
X89326Y-53278D01*
X89379Y-53149D01*
X89380Y-53010D01*
X89326Y-52882D01*
X89255Y-52809D01*
X89286Y-52778D01*
X89339Y-52649D01*
X89340Y-52510D01*
X89286Y-52382D01*
X89249Y-52344D01*
X89316Y-52278D01*
X89369Y-52149D01*
X89370Y-52010D01*
X89340Y-51938D01*
X89340Y-51280D01*
X89286Y-51152D01*
X89188Y-51053D01*
X89059Y-51000D01*
X88920Y-50999D01*
X88792Y-51053D01*
X88693Y-51151D01*
X88640Y-51280D01*
X88639Y-51419D01*
X88693Y-51548D01*
X88791Y-51646D01*
X88920Y-51699D01*
X89059Y-51700D01*
X89188Y-51646D01*
X89286Y-51548D01*
X89339Y-51419D01*
X89340Y-51280D01*
X89340Y-51938D01*
X89316Y-51882D01*
X89218Y-51783D01*
X89089Y-51730D01*
X88950Y-51729D01*
X88822Y-51783D01*
X88723Y-51881D01*
X88670Y-52010D01*
X88669Y-52149D01*
X88723Y-52278D01*
X88760Y-52315D01*
X88693Y-52381D01*
X88640Y-52510D01*
X88639Y-52649D01*
X88693Y-52778D01*
X88764Y-52850D01*
X88733Y-52881D01*
X88680Y-53010D01*
X88679Y-53149D01*
X88733Y-53278D01*
X88785Y-53330D01*
X88733Y-53381D01*
X88680Y-53510D01*
X88679Y-53649D01*
X88733Y-53778D01*
X88785Y-53830D01*
X88733Y-53881D01*
X88680Y-54010D01*
X88679Y-54149D01*
X88733Y-54278D01*
X88785Y-54330D01*
X88733Y-54381D01*
X88680Y-54510D01*
X88679Y-54649D01*
X88733Y-54778D01*
X88785Y-54830D01*
X88733Y-54881D01*
X88680Y-55010D01*
X88679Y-55149D01*
X88733Y-55278D01*
X88831Y-55376D01*
X88960Y-55429D01*
X89099Y-55430D01*
X89228Y-55376D01*
X89326Y-55278D01*
X89379Y-55149D01*
X89380Y-55010D01*
X89380Y-61116D01*
X89339Y-61100D01*
X89190Y-61099D01*
X89190Y-59010D01*
X89136Y-58882D01*
X89038Y-58783D01*
X88909Y-58730D01*
X88770Y-58729D01*
X88642Y-58783D01*
X88543Y-58881D01*
X88490Y-59010D01*
X88489Y-59149D01*
X88543Y-59278D01*
X88641Y-59376D01*
X88770Y-59429D01*
X88909Y-59430D01*
X89038Y-59376D01*
X89136Y-59278D01*
X89189Y-59149D01*
X89190Y-59010D01*
X89190Y-61099D01*
X89101Y-61099D01*
X88880Y-61191D01*
X88711Y-61359D01*
X88620Y-61580D01*
X88619Y-61818D01*
X88711Y-62039D01*
X88879Y-62208D01*
X89100Y-62299D01*
X89338Y-62300D01*
X89559Y-62208D01*
X89728Y-62040D01*
X89819Y-61819D01*
X89820Y-61581D01*
X89820Y-63581D01*
X89728Y-63360D01*
X89560Y-63191D01*
X89339Y-63100D01*
X89101Y-63099D01*
X88880Y-63191D01*
X88711Y-63359D01*
X88620Y-63580D01*
X88619Y-63818D01*
X88711Y-64039D01*
X88879Y-64208D01*
X89100Y-64299D01*
X89338Y-64300D01*
X89559Y-64208D01*
X89728Y-64040D01*
X89819Y-63819D01*
X89820Y-63581D01*
X89820Y-65041D01*
X89599Y-65041D01*
X89600Y-64950D01*
X89546Y-64822D01*
X89448Y-64723D01*
X89319Y-64670D01*
X89180Y-64669D01*
X89052Y-64723D01*
X88953Y-64821D01*
X88900Y-64950D01*
X88899Y-65041D01*
X88165Y-65041D01*
X88165Y-58175D01*
X88165Y-50175D01*
X88092Y-50001D01*
X87959Y-49867D01*
X87784Y-49795D01*
X87595Y-49794D01*
X87421Y-49867D01*
X87287Y-50000D01*
X87215Y-50175D01*
X87214Y-50364D01*
X87287Y-50538D01*
X87420Y-50672D01*
X87595Y-50744D01*
X87784Y-50745D01*
X87958Y-50672D01*
X88092Y-50539D01*
X88164Y-50364D01*
X88165Y-50175D01*
X88165Y-58175D01*
X88092Y-58001D01*
X87959Y-57867D01*
X87784Y-57795D01*
X87595Y-57794D01*
X87421Y-57867D01*
X87287Y-58000D01*
X87215Y-58175D01*
X87214Y-58364D01*
X87287Y-58538D01*
X87420Y-58672D01*
X87595Y-58744D01*
X87784Y-58745D01*
X87958Y-58672D01*
X88092Y-58539D01*
X88164Y-58364D01*
X88165Y-58175D01*
X88165Y-65041D01*
X87055Y-65040D01*
X87055Y-63765D01*
X87055Y-44615D01*
X86982Y-44441D01*
X86849Y-44307D01*
X86674Y-44235D01*
X86485Y-44234D01*
X86311Y-44307D01*
X86177Y-44440D01*
X86105Y-44615D01*
X86104Y-44804D01*
X86177Y-44978D01*
X86310Y-45112D01*
X86485Y-45184D01*
X86674Y-45185D01*
X86848Y-45112D01*
X86982Y-44979D01*
X87054Y-44804D01*
X87055Y-44615D01*
X87055Y-63765D01*
X86982Y-63591D01*
X86849Y-63457D01*
X86674Y-63385D01*
X86637Y-63385D01*
X86637Y-54839D01*
X86637Y-52918D01*
X86575Y-52768D01*
X86461Y-52654D01*
X86311Y-52591D01*
X86149Y-52591D01*
X85999Y-52653D01*
X85884Y-52768D01*
X85850Y-52851D01*
X85850Y-52790D01*
X85796Y-52662D01*
X85698Y-52563D01*
X85569Y-52510D01*
X85430Y-52509D01*
X85302Y-52563D01*
X85280Y-52585D01*
X85280Y-51540D01*
X85226Y-51412D01*
X85128Y-51313D01*
X84999Y-51260D01*
X84860Y-51259D01*
X84732Y-51313D01*
X84633Y-51411D01*
X84580Y-51540D01*
X84579Y-51679D01*
X84633Y-51808D01*
X84731Y-51906D01*
X84860Y-51959D01*
X84999Y-51960D01*
X85128Y-51906D01*
X85226Y-51808D01*
X85279Y-51679D01*
X85280Y-51540D01*
X85280Y-52585D01*
X85203Y-52661D01*
X85150Y-52790D01*
X85149Y-52929D01*
X85203Y-53058D01*
X85301Y-53156D01*
X85430Y-53209D01*
X85569Y-53210D01*
X85698Y-53156D01*
X85796Y-53058D01*
X85822Y-52995D01*
X85822Y-53080D01*
X85884Y-53229D01*
X85998Y-53344D01*
X86148Y-53406D01*
X86310Y-53406D01*
X86460Y-53345D01*
X86575Y-53230D01*
X86637Y-53080D01*
X86637Y-52918D01*
X86637Y-54839D01*
X86575Y-54690D01*
X86461Y-54575D01*
X86311Y-54513D01*
X86149Y-54513D01*
X85999Y-54574D01*
X85884Y-54689D01*
X85822Y-54839D01*
X85822Y-55001D01*
X85884Y-55151D01*
X85998Y-55265D01*
X86148Y-55328D01*
X86310Y-55328D01*
X86460Y-55266D01*
X86575Y-55151D01*
X86637Y-55002D01*
X86637Y-54839D01*
X86637Y-63385D01*
X86485Y-63384D01*
X86311Y-63457D01*
X86177Y-63590D01*
X86105Y-63765D01*
X86104Y-63954D01*
X86177Y-64128D01*
X86310Y-64262D01*
X86485Y-64334D01*
X86674Y-64335D01*
X86848Y-64262D01*
X86982Y-64129D01*
X87054Y-63954D01*
X87055Y-63765D01*
X87055Y-65040D01*
X85360Y-65040D01*
X85360Y-63840D01*
X85306Y-63712D01*
X85208Y-63613D01*
X85079Y-63560D01*
X84940Y-63559D01*
X84812Y-63613D01*
X84713Y-63711D01*
X84660Y-63840D01*
X84659Y-63979D01*
X84713Y-64108D01*
X84811Y-64206D01*
X84940Y-64259D01*
X85079Y-64260D01*
X85208Y-64206D01*
X85306Y-64108D01*
X85359Y-63979D01*
X85360Y-63840D01*
X85360Y-65040D01*
X84410Y-65039D01*
X84410Y-55380D01*
X84356Y-55252D01*
X84258Y-55153D01*
X84129Y-55100D01*
X83990Y-55099D01*
X83862Y-55153D01*
X83820Y-55194D01*
X83820Y-47800D01*
X83766Y-47672D01*
X83668Y-47573D01*
X83660Y-47570D01*
X83668Y-47566D01*
X83766Y-47468D01*
X83819Y-47339D01*
X83820Y-47200D01*
X83766Y-47072D01*
X83668Y-46973D01*
X83650Y-46965D01*
X83650Y-43700D01*
X83596Y-43572D01*
X83498Y-43473D01*
X83369Y-43420D01*
X83230Y-43419D01*
X83102Y-43473D01*
X83003Y-43571D01*
X82950Y-43700D01*
X82949Y-43839D01*
X83003Y-43968D01*
X83101Y-44066D01*
X83230Y-44119D01*
X83369Y-44120D01*
X83498Y-44066D01*
X83596Y-43968D01*
X83649Y-43839D01*
X83650Y-43700D01*
X83650Y-46965D01*
X83539Y-46920D01*
X83400Y-46919D01*
X83272Y-46973D01*
X83173Y-47071D01*
X83145Y-47139D01*
X83145Y-46515D01*
X83072Y-46341D01*
X82939Y-46207D01*
X82764Y-46135D01*
X82575Y-46134D01*
X82401Y-46207D01*
X82267Y-46340D01*
X82195Y-46515D01*
X82194Y-46704D01*
X82267Y-46878D01*
X82400Y-47012D01*
X82575Y-47084D01*
X82764Y-47085D01*
X82938Y-47012D01*
X83072Y-46879D01*
X83144Y-46704D01*
X83145Y-46515D01*
X83145Y-47139D01*
X83120Y-47200D01*
X83119Y-47339D01*
X83173Y-47468D01*
X83271Y-47566D01*
X83279Y-47569D01*
X83272Y-47573D01*
X83173Y-47671D01*
X83120Y-47800D01*
X83119Y-47939D01*
X83173Y-48068D01*
X83271Y-48166D01*
X83400Y-48219D01*
X83539Y-48220D01*
X83668Y-48166D01*
X83766Y-48068D01*
X83819Y-47939D01*
X83820Y-47800D01*
X83820Y-55194D01*
X83763Y-55251D01*
X83710Y-55380D01*
X83709Y-55519D01*
X83763Y-55648D01*
X83861Y-55746D01*
X83990Y-55799D01*
X84129Y-55800D01*
X84258Y-55746D01*
X84356Y-55648D01*
X84409Y-55519D01*
X84410Y-55380D01*
X84410Y-65039D01*
X83820Y-65039D01*
X83820Y-59530D01*
X83766Y-59402D01*
X83668Y-59303D01*
X83539Y-59250D01*
X83400Y-59249D01*
X83272Y-59303D01*
X83173Y-59401D01*
X83120Y-59530D01*
X83119Y-59669D01*
X83173Y-59798D01*
X83271Y-59896D01*
X83400Y-59949D01*
X83539Y-59950D01*
X83668Y-59896D01*
X83766Y-59798D01*
X83819Y-59669D01*
X83820Y-59530D01*
X83820Y-65039D01*
X83045Y-65039D01*
X83045Y-54575D01*
X83045Y-53575D01*
X82972Y-53401D01*
X82839Y-53267D01*
X82664Y-53195D01*
X82475Y-53194D01*
X82301Y-53267D01*
X82167Y-53400D01*
X82095Y-53575D01*
X82094Y-53764D01*
X82167Y-53938D01*
X82300Y-54072D01*
X82475Y-54144D01*
X82664Y-54145D01*
X82838Y-54072D01*
X82972Y-53939D01*
X83044Y-53764D01*
X83045Y-53575D01*
X83045Y-54575D01*
X82972Y-54401D01*
X82839Y-54267D01*
X82664Y-54195D01*
X82475Y-54194D01*
X82301Y-54267D01*
X82167Y-54400D01*
X82095Y-54575D01*
X82094Y-54764D01*
X82167Y-54938D01*
X82300Y-55072D01*
X82475Y-55144D01*
X82664Y-55145D01*
X82838Y-55072D01*
X82972Y-54939D01*
X83044Y-54764D01*
X83045Y-54575D01*
X83045Y-65039D01*
X82655Y-65039D01*
X82655Y-63395D01*
X82582Y-63221D01*
X82449Y-63087D01*
X82274Y-63015D01*
X82085Y-63014D01*
X81911Y-63087D01*
X81777Y-63220D01*
X81705Y-63395D01*
X81704Y-63584D01*
X81777Y-63758D01*
X81910Y-63892D01*
X82085Y-63964D01*
X82274Y-63965D01*
X82448Y-63892D01*
X82582Y-63759D01*
X82654Y-63584D01*
X82655Y-63395D01*
X82655Y-65039D01*
X81180Y-65038D01*
X81180Y-49250D01*
X81126Y-49122D01*
X81028Y-49023D01*
X80899Y-48970D01*
X80760Y-48969D01*
X80632Y-49023D01*
X80533Y-49121D01*
X80480Y-49250D01*
X80479Y-49389D01*
X80533Y-49518D01*
X80631Y-49616D01*
X80760Y-49669D01*
X80899Y-49670D01*
X81028Y-49616D01*
X81126Y-49518D01*
X81179Y-49389D01*
X81180Y-49250D01*
X81180Y-65038D01*
X80370Y-65038D01*
X80370Y-52850D01*
X80320Y-52729D01*
X80320Y-48850D01*
X80266Y-48722D01*
X80168Y-48623D01*
X80039Y-48570D01*
X79900Y-48569D01*
X79772Y-48623D01*
X79673Y-48721D01*
X79620Y-48850D01*
X79619Y-48989D01*
X79673Y-49118D01*
X79771Y-49216D01*
X79900Y-49269D01*
X80039Y-49270D01*
X80168Y-49216D01*
X80266Y-49118D01*
X80319Y-48989D01*
X80320Y-48850D01*
X80320Y-52729D01*
X80316Y-52722D01*
X80218Y-52623D01*
X80089Y-52570D01*
X79950Y-52569D01*
X79895Y-52592D01*
X79895Y-51466D01*
X79845Y-51344D01*
X79845Y-49475D01*
X79772Y-49301D01*
X79639Y-49167D01*
X79545Y-49128D01*
X79545Y-47575D01*
X79472Y-47401D01*
X79339Y-47267D01*
X79164Y-47195D01*
X78975Y-47194D01*
X78801Y-47267D01*
X78700Y-47368D01*
X78700Y-44930D01*
X78646Y-44802D01*
X78548Y-44703D01*
X78419Y-44650D01*
X78280Y-44649D01*
X78152Y-44703D01*
X78053Y-44801D01*
X78000Y-44930D01*
X77999Y-45069D01*
X78053Y-45198D01*
X78151Y-45296D01*
X78280Y-45349D01*
X78419Y-45350D01*
X78548Y-45296D01*
X78646Y-45198D01*
X78699Y-45069D01*
X78700Y-44930D01*
X78700Y-47368D01*
X78667Y-47400D01*
X78595Y-47575D01*
X78594Y-47764D01*
X78667Y-47938D01*
X78800Y-48072D01*
X78975Y-48144D01*
X79164Y-48145D01*
X79338Y-48072D01*
X79472Y-47939D01*
X79544Y-47764D01*
X79545Y-47575D01*
X79545Y-49128D01*
X79464Y-49095D01*
X79275Y-49094D01*
X79101Y-49167D01*
X78967Y-49300D01*
X78895Y-49475D01*
X78894Y-49664D01*
X78967Y-49838D01*
X79100Y-49972D01*
X79275Y-50044D01*
X79464Y-50045D01*
X79638Y-49972D01*
X79772Y-49839D01*
X79844Y-49664D01*
X79845Y-49475D01*
X79845Y-51344D01*
X79815Y-51273D01*
X79667Y-51125D01*
X79474Y-51045D01*
X79266Y-51044D01*
X79230Y-51059D01*
X79230Y-50990D01*
X79176Y-50862D01*
X79078Y-50763D01*
X78949Y-50710D01*
X78870Y-50709D01*
X78870Y-49020D01*
X78816Y-48892D01*
X78718Y-48793D01*
X78589Y-48740D01*
X78450Y-48739D01*
X78322Y-48793D01*
X78223Y-48891D01*
X78170Y-49020D01*
X78169Y-49159D01*
X78223Y-49288D01*
X78321Y-49386D01*
X78450Y-49439D01*
X78589Y-49440D01*
X78718Y-49386D01*
X78816Y-49288D01*
X78869Y-49159D01*
X78870Y-49020D01*
X78870Y-50709D01*
X78810Y-50709D01*
X78682Y-50763D01*
X78583Y-50861D01*
X78530Y-50990D01*
X78529Y-51067D01*
X78474Y-51045D01*
X78266Y-51044D01*
X78073Y-51124D01*
X77925Y-51272D01*
X77845Y-51465D01*
X77844Y-51673D01*
X77924Y-51867D01*
X78072Y-52014D01*
X78265Y-52094D01*
X78473Y-52095D01*
X78667Y-52015D01*
X78814Y-51867D01*
X78870Y-51734D01*
X78924Y-51867D01*
X79072Y-52014D01*
X79265Y-52094D01*
X79473Y-52095D01*
X79667Y-52015D01*
X79814Y-51867D01*
X79894Y-51674D01*
X79895Y-51466D01*
X79895Y-52592D01*
X79822Y-52623D01*
X79723Y-52721D01*
X79670Y-52850D01*
X79669Y-52989D01*
X79723Y-53118D01*
X79821Y-53216D01*
X79950Y-53269D01*
X80089Y-53270D01*
X80218Y-53216D01*
X80316Y-53118D01*
X80369Y-52989D01*
X80370Y-52850D01*
X80370Y-65038D01*
X80200Y-65038D01*
X80200Y-61920D01*
X80146Y-61792D01*
X80048Y-61693D01*
X79945Y-61650D01*
X79945Y-58205D01*
X79895Y-58084D01*
X79895Y-56666D01*
X79815Y-56473D01*
X79667Y-56325D01*
X79474Y-56245D01*
X79266Y-56244D01*
X79073Y-56324D01*
X78925Y-56472D01*
X78869Y-56605D01*
X78815Y-56473D01*
X78720Y-56377D01*
X78720Y-55100D01*
X78666Y-54972D01*
X78568Y-54873D01*
X78439Y-54820D01*
X78300Y-54819D01*
X78172Y-54873D01*
X78130Y-54914D01*
X78130Y-53600D01*
X78076Y-53472D01*
X77978Y-53373D01*
X77849Y-53320D01*
X77710Y-53319D01*
X77582Y-53373D01*
X77483Y-53471D01*
X77430Y-53600D01*
X77429Y-53739D01*
X77483Y-53868D01*
X77581Y-53966D01*
X77710Y-54019D01*
X77849Y-54020D01*
X77978Y-53966D01*
X78076Y-53868D01*
X78129Y-53739D01*
X78130Y-53600D01*
X78130Y-54914D01*
X78073Y-54971D01*
X78020Y-55100D01*
X78019Y-55239D01*
X78073Y-55368D01*
X78171Y-55466D01*
X78300Y-55519D01*
X78439Y-55520D01*
X78568Y-55466D01*
X78666Y-55368D01*
X78719Y-55239D01*
X78720Y-55100D01*
X78720Y-56377D01*
X78667Y-56325D01*
X78474Y-56245D01*
X78266Y-56244D01*
X78073Y-56324D01*
X77925Y-56472D01*
X77845Y-56665D01*
X77844Y-56873D01*
X77924Y-57067D01*
X78072Y-57214D01*
X78265Y-57294D01*
X78473Y-57295D01*
X78667Y-57215D01*
X78814Y-57067D01*
X78870Y-56934D01*
X78924Y-57067D01*
X79072Y-57214D01*
X79265Y-57294D01*
X79473Y-57295D01*
X79667Y-57215D01*
X79814Y-57067D01*
X79894Y-56874D01*
X79895Y-56666D01*
X79895Y-58084D01*
X79872Y-58031D01*
X79739Y-57897D01*
X79564Y-57825D01*
X79375Y-57824D01*
X79201Y-57897D01*
X79067Y-58030D01*
X78995Y-58205D01*
X78994Y-58394D01*
X79067Y-58568D01*
X79200Y-58702D01*
X79375Y-58774D01*
X79564Y-58775D01*
X79738Y-58702D01*
X79872Y-58569D01*
X79944Y-58394D01*
X79945Y-58205D01*
X79945Y-61650D01*
X79919Y-61640D01*
X79780Y-61639D01*
X79652Y-61693D01*
X79553Y-61791D01*
X79500Y-61920D01*
X79499Y-62059D01*
X79553Y-62188D01*
X79651Y-62286D01*
X79780Y-62339D01*
X79919Y-62340D01*
X80048Y-62286D01*
X80146Y-62188D01*
X80199Y-62059D01*
X80200Y-61920D01*
X80200Y-65038D01*
X79415Y-65037D01*
X79415Y-60105D01*
X79342Y-59931D01*
X79209Y-59797D01*
X79034Y-59725D01*
X78845Y-59724D01*
X78671Y-59797D01*
X78660Y-59808D01*
X78660Y-57820D01*
X78606Y-57692D01*
X78508Y-57593D01*
X78379Y-57540D01*
X78240Y-57539D01*
X78112Y-57593D01*
X78013Y-57691D01*
X77960Y-57820D01*
X77959Y-57959D01*
X78013Y-58088D01*
X78111Y-58186D01*
X78240Y-58239D01*
X78379Y-58240D01*
X78508Y-58186D01*
X78606Y-58088D01*
X78659Y-57959D01*
X78660Y-57820D01*
X78660Y-59808D01*
X78537Y-59930D01*
X78465Y-60105D01*
X78464Y-60294D01*
X78537Y-60468D01*
X78670Y-60602D01*
X78845Y-60674D01*
X79034Y-60675D01*
X79208Y-60602D01*
X79342Y-60469D01*
X79414Y-60294D01*
X79415Y-60105D01*
X79415Y-65037D01*
X78920Y-65037D01*
X78920Y-63540D01*
X78866Y-63412D01*
X78768Y-63313D01*
X78639Y-63260D01*
X78500Y-63259D01*
X78372Y-63313D01*
X78273Y-63411D01*
X78220Y-63540D01*
X78219Y-63679D01*
X78273Y-63808D01*
X78371Y-63906D01*
X78500Y-63959D01*
X78639Y-63960D01*
X78768Y-63906D01*
X78866Y-63808D01*
X78919Y-63679D01*
X78920Y-63540D01*
X78920Y-65037D01*
X77795Y-65037D01*
X77795Y-58185D01*
X77722Y-58011D01*
X77589Y-57877D01*
X77414Y-57805D01*
X77225Y-57804D01*
X77170Y-57828D01*
X77170Y-44350D01*
X77116Y-44222D01*
X77018Y-44123D01*
X76889Y-44070D01*
X76750Y-44069D01*
X76622Y-44123D01*
X76523Y-44221D01*
X76470Y-44350D01*
X76469Y-44489D01*
X76523Y-44618D01*
X76621Y-44716D01*
X76750Y-44769D01*
X76889Y-44770D01*
X77018Y-44716D01*
X77116Y-44618D01*
X77169Y-44489D01*
X77170Y-44350D01*
X77170Y-57828D01*
X77051Y-57877D01*
X76917Y-58010D01*
X76895Y-58064D01*
X76895Y-56666D01*
X76895Y-51466D01*
X76815Y-51273D01*
X76667Y-51125D01*
X76474Y-51045D01*
X76295Y-51044D01*
X76295Y-49695D01*
X76295Y-49145D01*
X76257Y-49053D01*
X76186Y-48983D01*
X76094Y-48945D01*
X75995Y-48944D01*
X75445Y-48944D01*
X75353Y-48982D01*
X75283Y-49053D01*
X75245Y-49145D01*
X75244Y-49244D01*
X75244Y-49244D01*
X75230Y-49208D01*
X75230Y-47550D01*
X75176Y-47422D01*
X75078Y-47323D01*
X74949Y-47270D01*
X74810Y-47269D01*
X74682Y-47323D01*
X74583Y-47421D01*
X74530Y-47550D01*
X74529Y-47689D01*
X74583Y-47818D01*
X74681Y-47916D01*
X74810Y-47969D01*
X74949Y-47970D01*
X75078Y-47916D01*
X75176Y-47818D01*
X75229Y-47689D01*
X75230Y-47550D01*
X75230Y-49208D01*
X75215Y-49173D01*
X75067Y-49025D01*
X74874Y-48945D01*
X74666Y-48944D01*
X74473Y-49024D01*
X74325Y-49172D01*
X74269Y-49305D01*
X74215Y-49173D01*
X74067Y-49025D01*
X73874Y-48945D01*
X73666Y-48944D01*
X73473Y-49024D01*
X73345Y-49152D01*
X73345Y-45865D01*
X73272Y-45691D01*
X73139Y-45557D01*
X72964Y-45485D01*
X72775Y-45484D01*
X72601Y-45557D01*
X72467Y-45690D01*
X72395Y-45865D01*
X72394Y-46054D01*
X72467Y-46228D01*
X72600Y-46362D01*
X72775Y-46434D01*
X72964Y-46435D01*
X73138Y-46362D01*
X73272Y-46229D01*
X73344Y-46054D01*
X73345Y-45865D01*
X73345Y-49152D01*
X73325Y-49172D01*
X73245Y-49365D01*
X73244Y-49573D01*
X73324Y-49767D01*
X73472Y-49914D01*
X73665Y-49994D01*
X73873Y-49995D01*
X74067Y-49915D01*
X74214Y-49767D01*
X74270Y-49634D01*
X74324Y-49767D01*
X74472Y-49914D01*
X74665Y-49994D01*
X74873Y-49995D01*
X75067Y-49915D01*
X75214Y-49767D01*
X75244Y-49695D01*
X75244Y-49794D01*
X75282Y-49886D01*
X75353Y-49956D01*
X75445Y-49994D01*
X75544Y-49995D01*
X76094Y-49995D01*
X76186Y-49957D01*
X76256Y-49886D01*
X76294Y-49794D01*
X76295Y-49695D01*
X76295Y-51044D01*
X76266Y-51044D01*
X76073Y-51124D01*
X75925Y-51272D01*
X75869Y-51405D01*
X75815Y-51273D01*
X75667Y-51125D01*
X75474Y-51045D01*
X75266Y-51044D01*
X75073Y-51124D01*
X74925Y-51272D01*
X74869Y-51405D01*
X74815Y-51273D01*
X74667Y-51125D01*
X74474Y-51045D01*
X74266Y-51044D01*
X74073Y-51124D01*
X73925Y-51272D01*
X73869Y-51405D01*
X73815Y-51273D01*
X73667Y-51125D01*
X73474Y-51045D01*
X73266Y-51044D01*
X73073Y-51124D01*
X72925Y-51272D01*
X72895Y-51344D01*
X72895Y-51245D01*
X72857Y-51153D01*
X72786Y-51083D01*
X72694Y-51045D01*
X72595Y-51044D01*
X72045Y-51044D01*
X71953Y-51082D01*
X71883Y-51153D01*
X71850Y-51232D01*
X71850Y-48800D01*
X71796Y-48672D01*
X71698Y-48573D01*
X71569Y-48520D01*
X71430Y-48519D01*
X71302Y-48573D01*
X71203Y-48671D01*
X71150Y-48800D01*
X71149Y-48939D01*
X71203Y-49068D01*
X71301Y-49166D01*
X71430Y-49219D01*
X71569Y-49220D01*
X71698Y-49166D01*
X71796Y-49068D01*
X71849Y-48939D01*
X71850Y-48800D01*
X71850Y-51232D01*
X71845Y-51245D01*
X71844Y-51344D01*
X71844Y-51894D01*
X71882Y-51986D01*
X71953Y-52056D01*
X72045Y-52094D01*
X72144Y-52095D01*
X72694Y-52095D01*
X72786Y-52057D01*
X72856Y-51986D01*
X72894Y-51894D01*
X72895Y-51795D01*
X72895Y-51795D01*
X72924Y-51867D01*
X73072Y-52014D01*
X73265Y-52094D01*
X73473Y-52095D01*
X73667Y-52015D01*
X73814Y-51867D01*
X73870Y-51734D01*
X73924Y-51867D01*
X74072Y-52014D01*
X74265Y-52094D01*
X74473Y-52095D01*
X74667Y-52015D01*
X74814Y-51867D01*
X74870Y-51734D01*
X74924Y-51867D01*
X75072Y-52014D01*
X75265Y-52094D01*
X75473Y-52095D01*
X75667Y-52015D01*
X75814Y-51867D01*
X75870Y-51734D01*
X75924Y-51867D01*
X76072Y-52014D01*
X76265Y-52094D01*
X76473Y-52095D01*
X76667Y-52015D01*
X76814Y-51867D01*
X76894Y-51674D01*
X76895Y-51466D01*
X76895Y-56666D01*
X76815Y-56473D01*
X76667Y-56325D01*
X76474Y-56245D01*
X76266Y-56244D01*
X76073Y-56324D01*
X75925Y-56472D01*
X75869Y-56605D01*
X75815Y-56473D01*
X75667Y-56325D01*
X75474Y-56245D01*
X75320Y-56244D01*
X75320Y-53650D01*
X75266Y-53522D01*
X75168Y-53423D01*
X75039Y-53370D01*
X74900Y-53369D01*
X74810Y-53407D01*
X74810Y-52920D01*
X74756Y-52792D01*
X74658Y-52693D01*
X74529Y-52640D01*
X74390Y-52639D01*
X74262Y-52693D01*
X74163Y-52791D01*
X74110Y-52920D01*
X74109Y-53059D01*
X74163Y-53188D01*
X74261Y-53286D01*
X74390Y-53339D01*
X74529Y-53340D01*
X74658Y-53286D01*
X74756Y-53188D01*
X74809Y-53059D01*
X74810Y-52920D01*
X74810Y-53407D01*
X74772Y-53423D01*
X74673Y-53521D01*
X74620Y-53650D01*
X74619Y-53789D01*
X74673Y-53918D01*
X74771Y-54016D01*
X74900Y-54069D01*
X75039Y-54070D01*
X75168Y-54016D01*
X75266Y-53918D01*
X75319Y-53789D01*
X75320Y-53650D01*
X75320Y-56244D01*
X75266Y-56244D01*
X75073Y-56324D01*
X74925Y-56472D01*
X74869Y-56605D01*
X74815Y-56473D01*
X74667Y-56325D01*
X74474Y-56245D01*
X74266Y-56244D01*
X74073Y-56324D01*
X73925Y-56472D01*
X73869Y-56605D01*
X73815Y-56473D01*
X73667Y-56325D01*
X73474Y-56245D01*
X73266Y-56244D01*
X73073Y-56324D01*
X72925Y-56472D01*
X72895Y-56544D01*
X72895Y-56445D01*
X72857Y-56353D01*
X72786Y-56283D01*
X72694Y-56245D01*
X72595Y-56244D01*
X72045Y-56244D01*
X71953Y-56282D01*
X71883Y-56353D01*
X71845Y-56445D01*
X71844Y-56544D01*
X71844Y-57094D01*
X71882Y-57186D01*
X71953Y-57256D01*
X72045Y-57294D01*
X72144Y-57295D01*
X72694Y-57295D01*
X72786Y-57257D01*
X72856Y-57186D01*
X72894Y-57094D01*
X72895Y-56995D01*
X72895Y-56995D01*
X72924Y-57067D01*
X73072Y-57214D01*
X73265Y-57294D01*
X73473Y-57295D01*
X73667Y-57215D01*
X73814Y-57067D01*
X73870Y-56934D01*
X73924Y-57067D01*
X74072Y-57214D01*
X74265Y-57294D01*
X74473Y-57295D01*
X74667Y-57215D01*
X74814Y-57067D01*
X74870Y-56934D01*
X74924Y-57067D01*
X75072Y-57214D01*
X75265Y-57294D01*
X75473Y-57295D01*
X75667Y-57215D01*
X75814Y-57067D01*
X75870Y-56934D01*
X75924Y-57067D01*
X76072Y-57214D01*
X76265Y-57294D01*
X76473Y-57295D01*
X76667Y-57215D01*
X76814Y-57067D01*
X76894Y-56874D01*
X76895Y-56666D01*
X76895Y-58064D01*
X76845Y-58185D01*
X76844Y-58374D01*
X76917Y-58548D01*
X77050Y-58682D01*
X77225Y-58754D01*
X77414Y-58755D01*
X77588Y-58682D01*
X77722Y-58549D01*
X77794Y-58374D01*
X77795Y-58185D01*
X77795Y-65037D01*
X76750Y-65036D01*
X76750Y-59630D01*
X76696Y-59502D01*
X76598Y-59403D01*
X76469Y-59350D01*
X76330Y-59349D01*
X76295Y-59364D01*
X76295Y-58766D01*
X76215Y-58573D01*
X76067Y-58425D01*
X75874Y-58345D01*
X75666Y-58344D01*
X75473Y-58424D01*
X75325Y-58572D01*
X75269Y-58705D01*
X75215Y-58573D01*
X75067Y-58425D01*
X74874Y-58345D01*
X74740Y-58344D01*
X74740Y-57820D01*
X74686Y-57692D01*
X74588Y-57593D01*
X74459Y-57540D01*
X74320Y-57539D01*
X74192Y-57593D01*
X74093Y-57691D01*
X74040Y-57820D01*
X74039Y-57959D01*
X74093Y-58088D01*
X74191Y-58186D01*
X74320Y-58239D01*
X74459Y-58240D01*
X74588Y-58186D01*
X74686Y-58088D01*
X74739Y-57959D01*
X74740Y-57820D01*
X74740Y-58344D01*
X74666Y-58344D01*
X74473Y-58424D01*
X74325Y-58572D01*
X74295Y-58644D01*
X74295Y-58545D01*
X74257Y-58453D01*
X74186Y-58383D01*
X74094Y-58345D01*
X73995Y-58344D01*
X73445Y-58344D01*
X73353Y-58382D01*
X73283Y-58453D01*
X73245Y-58545D01*
X73244Y-58644D01*
X73244Y-59194D01*
X73282Y-59286D01*
X73353Y-59356D01*
X73445Y-59394D01*
X73544Y-59395D01*
X74094Y-59395D01*
X74186Y-59357D01*
X74256Y-59286D01*
X74294Y-59194D01*
X74295Y-59095D01*
X74295Y-59095D01*
X74324Y-59167D01*
X74472Y-59314D01*
X74665Y-59394D01*
X74873Y-59395D01*
X75067Y-59315D01*
X75214Y-59167D01*
X75270Y-59034D01*
X75324Y-59167D01*
X75472Y-59314D01*
X75665Y-59394D01*
X75873Y-59395D01*
X76067Y-59315D01*
X76214Y-59167D01*
X76294Y-58974D01*
X76295Y-58766D01*
X76295Y-59364D01*
X76202Y-59403D01*
X76103Y-59501D01*
X76050Y-59630D01*
X76049Y-59769D01*
X76103Y-59898D01*
X76201Y-59996D01*
X76330Y-60049D01*
X76469Y-60050D01*
X76598Y-59996D01*
X76696Y-59898D01*
X76749Y-59769D01*
X76750Y-59630D01*
X76750Y-65036D01*
X71925Y-65034D01*
X71925Y-59945D01*
X71852Y-59771D01*
X71720Y-59638D01*
X71720Y-55670D01*
X71666Y-55542D01*
X71568Y-55443D01*
X71445Y-55392D01*
X71445Y-50575D01*
X71372Y-50401D01*
X71239Y-50267D01*
X71064Y-50195D01*
X70875Y-50194D01*
X70845Y-50207D01*
X70845Y-44465D01*
X70772Y-44291D01*
X70639Y-44157D01*
X70464Y-44085D01*
X70275Y-44084D01*
X70101Y-44157D01*
X69967Y-44290D01*
X69895Y-44465D01*
X69894Y-44654D01*
X69967Y-44828D01*
X70100Y-44962D01*
X70275Y-45034D01*
X70464Y-45035D01*
X70638Y-44962D01*
X70772Y-44829D01*
X70844Y-44654D01*
X70845Y-44465D01*
X70845Y-50207D01*
X70701Y-50267D01*
X70567Y-50400D01*
X70495Y-50575D01*
X70494Y-50764D01*
X70567Y-50938D01*
X70700Y-51072D01*
X70875Y-51144D01*
X71064Y-51145D01*
X71238Y-51072D01*
X71372Y-50939D01*
X71444Y-50764D01*
X71445Y-50575D01*
X71445Y-55392D01*
X71439Y-55390D01*
X71300Y-55389D01*
X71172Y-55443D01*
X71140Y-55474D01*
X71140Y-53330D01*
X71086Y-53202D01*
X70988Y-53103D01*
X70859Y-53050D01*
X70840Y-53050D01*
X70840Y-52400D01*
X70786Y-52272D01*
X70688Y-52173D01*
X70559Y-52120D01*
X70420Y-52119D01*
X70292Y-52173D01*
X70193Y-52271D01*
X70140Y-52400D01*
X70139Y-52539D01*
X70193Y-52668D01*
X70291Y-52766D01*
X70420Y-52819D01*
X70559Y-52820D01*
X70688Y-52766D01*
X70786Y-52668D01*
X70839Y-52539D01*
X70840Y-52400D01*
X70840Y-53050D01*
X70720Y-53049D01*
X70592Y-53103D01*
X70493Y-53201D01*
X70440Y-53330D01*
X70439Y-53447D01*
X70402Y-53463D01*
X70303Y-53561D01*
X70250Y-53690D01*
X70249Y-53829D01*
X70303Y-53958D01*
X70361Y-54016D01*
X70360Y-54020D01*
X70359Y-54159D01*
X70413Y-54288D01*
X70511Y-54386D01*
X70640Y-54439D01*
X70779Y-54440D01*
X70908Y-54386D01*
X71006Y-54288D01*
X71059Y-54159D01*
X71060Y-54020D01*
X71006Y-53892D01*
X70948Y-53833D01*
X70949Y-53829D01*
X70950Y-53712D01*
X70988Y-53696D01*
X71086Y-53598D01*
X71139Y-53469D01*
X71140Y-53330D01*
X71140Y-55474D01*
X71073Y-55541D01*
X71020Y-55670D01*
X71019Y-55809D01*
X71073Y-55938D01*
X71171Y-56036D01*
X71300Y-56089D01*
X71439Y-56090D01*
X71568Y-56036D01*
X71666Y-55938D01*
X71719Y-55809D01*
X71720Y-55670D01*
X71720Y-59638D01*
X71719Y-59637D01*
X71544Y-59565D01*
X71355Y-59564D01*
X71181Y-59637D01*
X71047Y-59770D01*
X70975Y-59945D01*
X70974Y-60134D01*
X71047Y-60308D01*
X71180Y-60442D01*
X71355Y-60514D01*
X71544Y-60515D01*
X71718Y-60442D01*
X71852Y-60309D01*
X71924Y-60134D01*
X71925Y-59945D01*
X71925Y-65034D01*
X71250Y-65034D01*
X71250Y-61840D01*
X71196Y-61712D01*
X71098Y-61613D01*
X70969Y-61560D01*
X70845Y-61559D01*
X70845Y-57675D01*
X70772Y-57501D01*
X70639Y-57367D01*
X70480Y-57301D01*
X70480Y-54950D01*
X70426Y-54822D01*
X70328Y-54723D01*
X70199Y-54670D01*
X70060Y-54669D01*
X69932Y-54723D01*
X69833Y-54821D01*
X69780Y-54950D01*
X69779Y-55089D01*
X69833Y-55218D01*
X69931Y-55316D01*
X70060Y-55369D01*
X70199Y-55370D01*
X70328Y-55316D01*
X70426Y-55218D01*
X70479Y-55089D01*
X70480Y-54950D01*
X70480Y-57301D01*
X70464Y-57295D01*
X70420Y-57295D01*
X70420Y-57260D01*
X70366Y-57132D01*
X70268Y-57033D01*
X70139Y-56980D01*
X70000Y-56979D01*
X69872Y-57033D01*
X69773Y-57131D01*
X69720Y-57260D01*
X69719Y-57399D01*
X69773Y-57528D01*
X69871Y-57626D01*
X69908Y-57642D01*
X69895Y-57675D01*
X69894Y-57864D01*
X69967Y-58038D01*
X70100Y-58172D01*
X70275Y-58244D01*
X70464Y-58245D01*
X70638Y-58172D01*
X70772Y-58039D01*
X70844Y-57864D01*
X70845Y-57675D01*
X70845Y-61559D01*
X70830Y-61559D01*
X70702Y-61613D01*
X70603Y-61711D01*
X70550Y-61840D01*
X70549Y-61979D01*
X70603Y-62108D01*
X70701Y-62206D01*
X70830Y-62259D01*
X70969Y-62260D01*
X71098Y-62206D01*
X71196Y-62108D01*
X71249Y-61979D01*
X71250Y-61840D01*
X71250Y-65034D01*
X69370Y-65033D01*
X69370Y-52850D01*
X69316Y-52722D01*
X69218Y-52623D01*
X69089Y-52570D01*
X69030Y-52570D01*
X69030Y-45320D01*
X68976Y-45192D01*
X68878Y-45093D01*
X68749Y-45040D01*
X68610Y-45039D01*
X68482Y-45093D01*
X68383Y-45191D01*
X68330Y-45320D01*
X68329Y-45459D01*
X68383Y-45588D01*
X68481Y-45686D01*
X68610Y-45739D01*
X68749Y-45740D01*
X68878Y-45686D01*
X68976Y-45588D01*
X69029Y-45459D01*
X69030Y-45320D01*
X69030Y-52570D01*
X68950Y-52569D01*
X68822Y-52623D01*
X68723Y-52721D01*
X68670Y-52850D01*
X68669Y-52989D01*
X68723Y-53118D01*
X68821Y-53216D01*
X68950Y-53269D01*
X69089Y-53270D01*
X69218Y-53216D01*
X69316Y-53118D01*
X69369Y-52989D01*
X69370Y-52850D01*
X69370Y-65033D01*
X69230Y-65033D01*
X69230Y-60290D01*
X69176Y-60162D01*
X69078Y-60063D01*
X68949Y-60010D01*
X68810Y-60009D01*
X68682Y-60063D01*
X68660Y-60085D01*
X68660Y-52200D01*
X68606Y-52072D01*
X68508Y-51973D01*
X68379Y-51920D01*
X68240Y-51919D01*
X68112Y-51973D01*
X68013Y-52071D01*
X67960Y-52200D01*
X67959Y-52339D01*
X68013Y-52468D01*
X68111Y-52566D01*
X68240Y-52619D01*
X68379Y-52620D01*
X68508Y-52566D01*
X68606Y-52468D01*
X68659Y-52339D01*
X68660Y-52200D01*
X68660Y-60085D01*
X68583Y-60161D01*
X68530Y-60290D01*
X68529Y-60429D01*
X68583Y-60558D01*
X68681Y-60656D01*
X68810Y-60709D01*
X68949Y-60710D01*
X69078Y-60656D01*
X69176Y-60558D01*
X69229Y-60429D01*
X69230Y-60290D01*
X69230Y-65033D01*
X67690Y-65032D01*
X67690Y-46563D01*
X67547Y-46218D01*
X67283Y-45953D01*
X66937Y-45810D01*
X66563Y-45809D01*
X66218Y-45952D01*
X65953Y-46216D01*
X65810Y-46562D01*
X65809Y-46936D01*
X65952Y-47281D01*
X66216Y-47546D01*
X66562Y-47689D01*
X66936Y-47690D01*
X67281Y-47547D01*
X67546Y-47283D01*
X67689Y-46937D01*
X67690Y-46563D01*
X67690Y-65032D01*
X64975Y-65031D01*
X64975Y-43745D01*
X64902Y-43571D01*
X64769Y-43437D01*
X64594Y-43365D01*
X64405Y-43364D01*
X64231Y-43437D01*
X64097Y-43570D01*
X64025Y-43745D01*
X64024Y-43934D01*
X64097Y-44108D01*
X64230Y-44242D01*
X64405Y-44314D01*
X64594Y-44315D01*
X64768Y-44242D01*
X64902Y-44109D01*
X64974Y-43934D01*
X64975Y-43745D01*
X64975Y-65031D01*
X62850Y-65030D01*
X62850Y-45721D01*
X62766Y-45518D01*
X62611Y-45364D01*
X62530Y-45330D01*
X62611Y-45296D01*
X62765Y-45141D01*
X62849Y-44939D01*
X62850Y-44721D01*
X62766Y-44518D01*
X62611Y-44364D01*
X62530Y-44330D01*
X62611Y-44296D01*
X62765Y-44141D01*
X62849Y-43939D01*
X62850Y-43721D01*
X62766Y-43518D01*
X62611Y-43364D01*
X62530Y-43330D01*
X62611Y-43296D01*
X62765Y-43141D01*
X62849Y-42939D01*
X62850Y-42721D01*
X62766Y-42518D01*
X62611Y-42364D01*
X62409Y-42280D01*
X62191Y-42279D01*
X61988Y-42363D01*
X61834Y-42518D01*
X61750Y-42720D01*
X61749Y-42938D01*
X61833Y-43141D01*
X61988Y-43295D01*
X62069Y-43329D01*
X61988Y-43363D01*
X61834Y-43518D01*
X61750Y-43720D01*
X61749Y-43938D01*
X61833Y-44141D01*
X61988Y-44295D01*
X62069Y-44329D01*
X61988Y-44363D01*
X61834Y-44518D01*
X61750Y-44720D01*
X61749Y-44938D01*
X61833Y-45141D01*
X61988Y-45295D01*
X62069Y-45329D01*
X61988Y-45363D01*
X61834Y-45518D01*
X61750Y-45720D01*
X61749Y-45938D01*
X61833Y-46141D01*
X61988Y-46295D01*
X62190Y-46379D01*
X62408Y-46380D01*
X62611Y-46296D01*
X62765Y-46141D01*
X62849Y-45939D01*
X62850Y-45721D01*
X62850Y-65030D01*
X62745Y-65030D01*
X62745Y-58675D01*
X62745Y-55675D01*
X62745Y-52675D01*
X62745Y-49675D01*
X62672Y-49501D01*
X62539Y-49367D01*
X62364Y-49295D01*
X62175Y-49294D01*
X62001Y-49367D01*
X61867Y-49500D01*
X61795Y-49675D01*
X61794Y-49864D01*
X61867Y-50038D01*
X62000Y-50172D01*
X62175Y-50244D01*
X62364Y-50245D01*
X62538Y-50172D01*
X62672Y-50039D01*
X62744Y-49864D01*
X62745Y-49675D01*
X62745Y-52675D01*
X62672Y-52501D01*
X62539Y-52367D01*
X62364Y-52295D01*
X62175Y-52294D01*
X62001Y-52367D01*
X61867Y-52500D01*
X61795Y-52675D01*
X61794Y-52864D01*
X61867Y-53038D01*
X62000Y-53172D01*
X62175Y-53244D01*
X62364Y-53245D01*
X62538Y-53172D01*
X62672Y-53039D01*
X62744Y-52864D01*
X62745Y-52675D01*
X62745Y-55675D01*
X62672Y-55501D01*
X62539Y-55367D01*
X62364Y-55295D01*
X62175Y-55294D01*
X62001Y-55367D01*
X61867Y-55500D01*
X61795Y-55675D01*
X61794Y-55864D01*
X61867Y-56038D01*
X62000Y-56172D01*
X62175Y-56244D01*
X62364Y-56245D01*
X62538Y-56172D01*
X62672Y-56039D01*
X62744Y-55864D01*
X62745Y-55675D01*
X62745Y-58675D01*
X62672Y-58501D01*
X62539Y-58367D01*
X62364Y-58295D01*
X62175Y-58294D01*
X62001Y-58367D01*
X61867Y-58500D01*
X61795Y-58675D01*
X61794Y-58864D01*
X61867Y-59038D01*
X62000Y-59172D01*
X62175Y-59244D01*
X62364Y-59245D01*
X62538Y-59172D01*
X62672Y-59039D01*
X62744Y-58864D01*
X62745Y-58675D01*
X62745Y-65030D01*
X62690Y-65030D01*
X62690Y-63563D01*
X62547Y-63218D01*
X62283Y-62953D01*
X61937Y-62810D01*
X61563Y-62809D01*
X61218Y-62952D01*
X60953Y-63216D01*
X60810Y-63562D01*
X60809Y-63936D01*
X60952Y-64281D01*
X61216Y-64546D01*
X61562Y-64689D01*
X61936Y-64690D01*
X62281Y-64547D01*
X62546Y-64283D01*
X62689Y-63937D01*
X62690Y-63563D01*
X62690Y-65030D01*
X60580Y-65030D01*
X60580Y-56122D01*
X60672Y-56214D01*
X60865Y-56294D01*
X61073Y-56295D01*
X61267Y-56215D01*
X61414Y-56067D01*
X61494Y-55874D01*
X61495Y-55666D01*
X61415Y-55473D01*
X61267Y-55325D01*
X61134Y-55269D01*
X61267Y-55215D01*
X61414Y-55067D01*
X61494Y-54874D01*
X61495Y-54666D01*
X61415Y-54473D01*
X61267Y-54325D01*
X61134Y-54269D01*
X61267Y-54215D01*
X61414Y-54067D01*
X61494Y-53874D01*
X61495Y-53666D01*
X61415Y-53473D01*
X61267Y-53325D01*
X61195Y-53295D01*
X61294Y-53295D01*
X61386Y-53257D01*
X61456Y-53186D01*
X61494Y-53094D01*
X61495Y-52995D01*
X61495Y-52445D01*
X61457Y-52353D01*
X61386Y-52283D01*
X61294Y-52245D01*
X61195Y-52244D01*
X60645Y-52244D01*
X60580Y-52272D01*
X60580Y-41720D01*
X109400Y-41720D01*
X109400Y-65049D01*
M02*
