G04 (created by PCBNEW (2013-07-07 BZR 4022)-stable) date 9/7/2014 5:26:02 PM*
%MOIN*%
G04 Gerber Fmt 3.4, Leading zero omitted, Abs format*
%FSLAX34Y34*%
G01*
G70*
G90*
G04 APERTURE LIST*
%ADD10C,0.00590551*%
%ADD11R,0.055X0.055*%
%ADD12C,0.055*%
%ADD13C,0.045*%
%ADD14R,0.06X0.06*%
%ADD15C,0.06*%
%ADD16C,0.0314961*%
%ADD17C,0.07*%
%ADD18C,0.02*%
%ADD19C,0.006*%
%ADD20C,0.02*%
%ADD21C,0.01*%
G04 APERTURE END LIST*
G54D10*
G54D11*
X72370Y-56770D03*
G54D12*
X73370Y-56770D03*
X74370Y-56770D03*
X75370Y-56770D03*
X76370Y-56770D03*
X77370Y-56770D03*
X78370Y-56770D03*
X79370Y-56770D03*
G54D11*
X72370Y-51570D03*
G54D12*
X73370Y-51570D03*
X74370Y-51570D03*
X75370Y-51570D03*
X76370Y-51570D03*
X77370Y-51570D03*
X78370Y-51570D03*
X79370Y-51570D03*
G54D11*
X60970Y-52770D03*
G54D12*
X60970Y-53770D03*
X60970Y-54770D03*
X60970Y-55770D03*
G54D11*
X108210Y-52310D03*
G54D12*
X108210Y-53310D03*
X108210Y-54310D03*
X108210Y-55310D03*
G54D11*
X97800Y-46380D03*
G54D12*
X96800Y-46380D03*
X95800Y-46380D03*
G54D11*
X75770Y-49470D03*
G54D12*
X74770Y-49470D03*
X73770Y-49470D03*
G54D11*
X73770Y-58870D03*
G54D12*
X74770Y-58870D03*
X75770Y-58870D03*
G54D13*
X70970Y-50670D03*
X82570Y-54670D03*
X82570Y-53670D03*
X79070Y-47670D03*
X77320Y-58280D03*
X70370Y-57770D03*
X62270Y-55770D03*
X62270Y-58770D03*
X62270Y-49770D03*
X62270Y-52770D03*
X79370Y-49570D03*
X79470Y-58300D03*
X87690Y-50270D03*
X86580Y-44710D03*
X86580Y-63860D03*
X87690Y-58270D03*
X72870Y-45960D03*
X71450Y-60040D03*
G54D14*
X102630Y-54520D03*
G54D15*
X102630Y-53520D03*
X102630Y-52520D03*
X102630Y-51520D03*
G54D14*
X103030Y-46540D03*
G54D15*
X103030Y-47540D03*
G54D14*
X101250Y-51550D03*
G54D15*
X101250Y-50550D03*
G54D14*
X105490Y-56770D03*
G54D15*
X104490Y-56770D03*
X105490Y-55770D03*
X104490Y-55770D03*
X105490Y-54770D03*
X104490Y-54770D03*
X105490Y-53770D03*
X104490Y-53770D03*
X105490Y-52770D03*
X104490Y-52770D03*
X105490Y-51770D03*
X104490Y-51770D03*
X105490Y-50770D03*
X104490Y-50770D03*
X105490Y-49770D03*
X104490Y-49770D03*
X105490Y-48770D03*
X104490Y-48770D03*
X105490Y-47770D03*
X104490Y-47770D03*
X105490Y-46770D03*
X104490Y-46770D03*
X105490Y-45770D03*
X104490Y-45770D03*
G54D16*
X86230Y-54920D03*
X86230Y-52999D03*
G54D17*
X89220Y-45710D03*
X91220Y-45710D03*
X92220Y-45710D03*
X93220Y-45710D03*
X93220Y-43710D03*
X92220Y-43710D03*
X91220Y-43710D03*
X89220Y-43710D03*
X89220Y-63700D03*
X91220Y-63700D03*
X92220Y-63700D03*
X93220Y-63700D03*
X93220Y-61700D03*
X92220Y-61700D03*
X91220Y-61700D03*
X89220Y-61700D03*
G54D14*
X94990Y-45180D03*
G54D15*
X94990Y-44180D03*
G54D14*
X94930Y-63200D03*
G54D15*
X94930Y-62200D03*
G54D13*
X82180Y-63490D03*
X70370Y-44560D03*
X78940Y-60200D03*
X82670Y-46610D03*
X71900Y-44870D03*
X64500Y-43840D03*
X101110Y-45060D03*
X99470Y-46170D03*
X104040Y-59400D03*
X75520Y-54910D03*
X75030Y-63190D03*
X101640Y-57890D03*
G54D14*
X62300Y-46830D03*
G54D15*
X62300Y-45830D03*
X62300Y-44830D03*
X62300Y-43830D03*
X62300Y-42830D03*
G54D18*
X90720Y-57100D03*
X91290Y-56820D03*
X98530Y-56220D03*
X91990Y-50590D03*
X98410Y-51090D03*
X99620Y-48380D03*
X99630Y-47070D03*
X96580Y-57270D03*
X90550Y-47950D03*
X88840Y-59080D03*
X70600Y-53760D03*
X89240Y-42250D03*
X70070Y-57330D03*
X70710Y-54090D03*
X89250Y-65020D03*
X96670Y-56010D03*
X78880Y-51060D03*
X78310Y-57890D03*
X96870Y-56250D03*
X99580Y-47990D03*
X94110Y-47650D03*
X100020Y-49340D03*
X94110Y-48000D03*
X74970Y-53720D03*
X99720Y-57120D03*
X100330Y-57130D03*
X74390Y-57890D03*
X92100Y-54160D03*
X91240Y-51210D03*
X92070Y-51480D03*
X92100Y-53820D03*
X100230Y-50520D03*
X103350Y-55130D03*
X96100Y-54670D03*
X94470Y-56230D03*
X94700Y-56010D03*
X85500Y-52860D03*
X74460Y-52990D03*
X89090Y-48170D03*
X71970Y-49060D03*
X71320Y-49310D03*
X88400Y-49200D03*
X92930Y-47290D03*
X93210Y-46740D03*
X102730Y-61600D03*
X97070Y-60430D03*
X97990Y-61600D03*
X87380Y-57180D03*
X91990Y-48560D03*
X106960Y-48150D03*
X106960Y-49120D03*
X106960Y-52130D03*
X100330Y-58280D03*
X99720Y-58280D03*
X91600Y-46860D03*
X88290Y-60860D03*
X89430Y-47470D03*
X99230Y-47750D03*
X99230Y-49170D03*
X98210Y-51340D03*
X98700Y-50060D03*
X100110Y-53120D03*
X99390Y-55820D03*
X96080Y-56250D03*
X97810Y-59100D03*
X95690Y-60680D03*
X91980Y-60160D03*
X90260Y-58940D03*
X89910Y-59980D03*
X91190Y-55890D03*
X90410Y-56440D03*
X92530Y-50210D03*
X91120Y-50200D03*
X90290Y-49260D03*
X87136Y-51382D03*
X98300Y-50060D03*
X85130Y-53830D03*
X87110Y-56490D03*
X97370Y-57560D03*
X97190Y-58200D03*
X80170Y-50410D03*
X80830Y-50410D03*
X86580Y-47650D03*
X86580Y-48540D03*
X79990Y-62860D03*
X82320Y-56630D03*
X86580Y-59990D03*
X86580Y-60830D03*
X80820Y-58430D03*
X79620Y-60410D03*
X80820Y-45900D03*
X80820Y-54990D03*
X80820Y-52410D03*
X78770Y-53560D03*
X77390Y-52670D03*
X77370Y-55670D03*
X76660Y-58240D03*
X77320Y-63320D03*
X79440Y-62360D03*
X77820Y-59820D03*
X67260Y-59870D03*
X67250Y-62670D03*
X71470Y-62770D03*
X71580Y-58470D03*
X77800Y-49820D03*
X77420Y-44420D03*
X77320Y-47640D03*
X71970Y-45920D03*
X63070Y-56870D03*
X63070Y-57670D03*
X63070Y-50870D03*
X63070Y-51670D03*
X71370Y-56960D03*
X67530Y-53470D03*
X68590Y-51720D03*
X68670Y-47090D03*
X98350Y-53530D03*
X100000Y-55240D03*
X97310Y-55000D03*
X99990Y-54240D03*
X97310Y-54210D03*
X96520Y-59550D03*
X94770Y-57100D03*
X98110Y-53410D03*
X98180Y-53090D03*
X97330Y-53030D03*
X91290Y-54210D03*
X88990Y-51350D03*
X89030Y-55080D03*
X91110Y-55610D03*
X89030Y-54580D03*
X91300Y-55390D03*
X89020Y-52080D03*
X91110Y-54410D03*
X88990Y-52580D03*
X91290Y-54600D03*
X89030Y-53080D03*
X91120Y-54810D03*
X89030Y-53580D03*
X91300Y-55000D03*
X89030Y-54080D03*
X91110Y-55210D03*
X93520Y-59090D03*
X95100Y-57100D03*
X94020Y-59090D03*
X95290Y-57280D03*
X94520Y-59080D03*
X95490Y-57080D03*
X95020Y-59080D03*
X95690Y-57270D03*
X99990Y-54790D03*
X97070Y-54800D03*
X100000Y-53750D03*
X97130Y-54020D03*
X96410Y-54220D03*
X96660Y-53950D03*
X93310Y-51010D03*
X93910Y-51010D03*
X98030Y-48360D03*
X95490Y-50180D03*
X97530Y-48360D03*
X95270Y-50040D03*
X97030Y-48360D03*
X95090Y-50230D03*
X96530Y-48360D03*
X94880Y-49810D03*
X96030Y-48360D03*
X94700Y-50150D03*
X95530Y-48360D03*
X94430Y-49960D03*
X95030Y-48360D03*
X94310Y-50210D03*
X94530Y-48360D03*
X94030Y-50130D03*
X70130Y-55020D03*
X70790Y-53400D03*
X70490Y-52470D03*
X68310Y-52270D03*
X74880Y-47620D03*
X78350Y-45000D03*
X79850Y-61990D03*
X80830Y-49320D03*
X78520Y-49090D03*
X71370Y-55740D03*
X68880Y-60360D03*
X78570Y-63610D03*
X85010Y-63910D03*
X77780Y-53670D03*
X78370Y-55170D03*
X84060Y-55450D03*
X84930Y-51610D03*
X68680Y-45390D03*
X83300Y-43770D03*
X83470Y-59600D03*
X71500Y-48870D03*
X80020Y-52920D03*
X76400Y-59700D03*
X70900Y-61910D03*
X69020Y-52920D03*
X76820Y-44420D03*
X79970Y-48920D03*
X83470Y-47270D03*
X83470Y-47870D03*
G54D19*
X62300Y-42830D02*
X98390Y-42830D01*
X99470Y-43910D02*
X99470Y-46170D01*
X98390Y-42830D02*
X99470Y-43910D01*
X89220Y-45710D02*
X89220Y-45780D01*
X91590Y-50190D02*
X91990Y-50590D01*
X91590Y-48150D02*
X91590Y-50190D01*
X89220Y-45780D02*
X91590Y-48150D01*
X89220Y-63700D02*
X89480Y-63700D01*
X90720Y-59760D02*
X90720Y-57100D01*
X90300Y-60180D02*
X90720Y-59760D01*
X90300Y-62880D02*
X90300Y-60180D01*
X89480Y-63700D02*
X90300Y-62880D01*
X91000Y-56820D02*
X91290Y-56820D01*
X90720Y-57100D02*
X91000Y-56820D01*
X96040Y-56730D02*
X96580Y-57270D01*
X91380Y-56730D02*
X96040Y-56730D01*
X91290Y-56820D02*
X91380Y-56730D01*
X96580Y-57270D02*
X97630Y-56220D01*
X97630Y-56220D02*
X98530Y-56220D01*
X105490Y-56770D02*
X104490Y-56770D01*
X104490Y-56770D02*
X100960Y-56770D01*
X99080Y-56770D02*
X98530Y-56220D01*
X100960Y-56770D02*
X99080Y-56770D01*
X99180Y-51860D02*
X98410Y-51090D01*
X98530Y-56220D02*
X98710Y-56220D01*
X98710Y-56220D02*
X99180Y-55750D01*
X99180Y-55750D02*
X99180Y-51860D01*
X91990Y-50590D02*
X97910Y-50590D01*
X97910Y-50590D02*
X98410Y-51090D01*
X99620Y-49880D02*
X99620Y-48380D01*
X98410Y-51090D02*
X99620Y-49880D01*
X97800Y-46380D02*
X98940Y-46380D01*
X98940Y-46380D02*
X99630Y-47070D01*
X99990Y-48010D02*
X99620Y-48380D01*
X99630Y-47070D02*
X99990Y-47430D01*
X99990Y-47430D02*
X99990Y-48010D01*
X64500Y-43840D02*
X62310Y-43840D01*
X62310Y-43840D02*
X62300Y-43830D01*
X62300Y-43830D02*
X61730Y-43830D01*
X101110Y-44010D02*
X101110Y-45060D01*
X98870Y-41770D02*
X101110Y-44010D01*
X62000Y-41770D02*
X98870Y-41770D01*
X61380Y-42390D02*
X62000Y-41770D01*
X61380Y-43480D02*
X61380Y-42390D01*
X61730Y-43830D02*
X61380Y-43480D01*
G54D20*
X62300Y-45830D02*
X64160Y-45830D01*
X64600Y-45390D02*
X68680Y-45390D01*
X64160Y-45830D02*
X64600Y-45390D01*
X70370Y-44560D02*
X70230Y-44560D01*
X70230Y-44560D02*
X69870Y-44200D01*
X82180Y-63490D02*
X82180Y-63790D01*
X82180Y-63790D02*
X82300Y-63910D01*
X78570Y-63610D02*
X78870Y-63910D01*
X78870Y-63910D02*
X82300Y-63910D01*
X82300Y-63910D02*
X85010Y-63910D01*
X79660Y-61900D02*
X78800Y-61900D01*
X79750Y-61990D02*
X79660Y-61900D01*
X79850Y-61990D02*
X79750Y-61990D01*
X78800Y-61900D02*
X78570Y-62130D01*
X78570Y-62130D02*
X78570Y-63610D01*
X71370Y-55740D02*
X71370Y-51440D01*
X73340Y-49470D02*
X73770Y-49470D01*
X71370Y-51440D02*
X73340Y-49470D01*
X78370Y-50290D02*
X79570Y-50290D01*
X80390Y-49760D02*
X80830Y-49320D01*
X80100Y-49760D02*
X80390Y-49760D01*
X79570Y-50290D02*
X80100Y-49760D01*
X78370Y-49240D02*
X78370Y-50290D01*
X78370Y-50290D02*
X78370Y-51570D01*
X78520Y-49090D02*
X78370Y-49240D01*
X75770Y-58870D02*
X76220Y-58420D01*
X77610Y-57530D02*
X78370Y-56770D01*
X76450Y-57530D02*
X77610Y-57530D01*
X76220Y-57760D02*
X76450Y-57530D01*
X76220Y-58420D02*
X76220Y-57760D01*
X70960Y-59680D02*
X69580Y-61060D01*
X70960Y-56150D02*
X70960Y-59680D01*
X71370Y-55740D02*
X70960Y-56150D01*
X68880Y-60360D02*
X69580Y-61060D01*
X78300Y-63880D02*
X78570Y-63610D01*
X69580Y-61060D02*
X69580Y-62630D01*
X69580Y-62630D02*
X70830Y-63880D01*
X70830Y-63880D02*
X78300Y-63880D01*
X84060Y-55450D02*
X85340Y-56730D01*
X85340Y-56730D02*
X85340Y-63580D01*
X85340Y-63580D02*
X85010Y-63910D01*
X77790Y-54590D02*
X78370Y-55170D01*
X77790Y-53680D02*
X77790Y-54590D01*
X77780Y-53670D02*
X77790Y-53680D01*
X80420Y-55450D02*
X84060Y-55450D01*
X78370Y-55170D02*
X80140Y-55170D01*
X80140Y-55170D02*
X80420Y-55450D01*
X84060Y-52480D02*
X84930Y-51610D01*
X84060Y-55450D02*
X84060Y-52480D01*
X84930Y-45400D02*
X83300Y-43770D01*
X84930Y-51610D02*
X84930Y-45400D01*
X70300Y-43770D02*
X69870Y-44200D01*
X69870Y-44200D02*
X68680Y-45390D01*
X83300Y-43770D02*
X70300Y-43770D01*
X62300Y-44830D02*
X61790Y-44830D01*
X69730Y-48310D02*
X70290Y-48870D01*
X61830Y-48310D02*
X69730Y-48310D01*
X61200Y-47680D02*
X61830Y-48310D01*
X61200Y-45420D02*
X61200Y-47680D01*
X61790Y-44830D02*
X61200Y-45420D01*
X82670Y-46610D02*
X82810Y-46610D01*
X82810Y-46610D02*
X83470Y-47270D01*
X78940Y-60200D02*
X78940Y-59770D01*
X78940Y-59770D02*
X79110Y-59600D01*
X79840Y-59600D02*
X79110Y-59600D01*
X79110Y-59600D02*
X78980Y-59600D01*
X79840Y-59600D02*
X80930Y-59600D01*
X83470Y-59600D02*
X80930Y-59600D01*
X76830Y-59270D02*
X76400Y-59700D01*
X78650Y-59270D02*
X76830Y-59270D01*
X78980Y-59600D02*
X78650Y-59270D01*
X71500Y-48870D02*
X70290Y-48870D01*
X70290Y-48870D02*
X69530Y-49630D01*
X74840Y-48540D02*
X75770Y-49470D01*
X71830Y-48540D02*
X74840Y-48540D01*
X71500Y-48870D02*
X71830Y-48540D01*
X75770Y-49470D02*
X77170Y-49470D01*
X77170Y-49470D02*
X78040Y-48600D01*
X78040Y-48600D02*
X78040Y-46720D01*
X76370Y-51570D02*
X77050Y-52250D01*
X80020Y-52920D02*
X79370Y-52270D01*
X79350Y-52250D02*
X79370Y-52270D01*
X77050Y-52250D02*
X79350Y-52250D01*
X73770Y-58870D02*
X73770Y-57940D01*
X75750Y-57390D02*
X76370Y-56770D01*
X74320Y-57390D02*
X75750Y-57390D01*
X73770Y-57940D02*
X74320Y-57390D01*
X74600Y-59700D02*
X73770Y-58870D01*
X76400Y-59700D02*
X74600Y-59700D01*
X70900Y-61910D02*
X72230Y-61910D01*
X72230Y-61910D02*
X73770Y-60370D01*
X73770Y-60370D02*
X73770Y-58870D01*
X69020Y-52920D02*
X69530Y-52410D01*
X69530Y-52410D02*
X69530Y-49630D01*
X76370Y-51570D02*
X76370Y-56770D01*
X76820Y-44420D02*
X76820Y-45570D01*
X76820Y-45570D02*
X77970Y-46720D01*
X77970Y-46720D02*
X78040Y-46720D01*
X79970Y-47570D02*
X79970Y-48920D01*
X78040Y-46720D02*
X79120Y-46720D01*
X79120Y-46720D02*
X79970Y-47570D01*
X76370Y-51570D02*
X75770Y-50970D01*
X75770Y-50970D02*
X75770Y-49470D01*
X82420Y-48920D02*
X83470Y-47870D01*
X79970Y-48920D02*
X82420Y-48920D01*
X83470Y-47270D02*
X83470Y-47870D01*
G54D10*
G36*
X106120Y-62220D02*
X103700Y-62220D01*
X103700Y-55060D01*
X103646Y-54932D01*
X103580Y-54865D01*
X103580Y-47431D01*
X103496Y-47228D01*
X103357Y-47090D01*
X103379Y-47090D01*
X103471Y-47052D01*
X103541Y-46981D01*
X103579Y-46889D01*
X103580Y-46790D01*
X103580Y-46190D01*
X103542Y-46098D01*
X103471Y-46028D01*
X103379Y-45990D01*
X103280Y-45989D01*
X102680Y-45989D01*
X102588Y-46027D01*
X102518Y-46098D01*
X102480Y-46190D01*
X102479Y-46289D01*
X102479Y-46889D01*
X102517Y-46981D01*
X102588Y-47051D01*
X102680Y-47089D01*
X102702Y-47089D01*
X102564Y-47228D01*
X102480Y-47430D01*
X102479Y-47648D01*
X102563Y-47851D01*
X102718Y-48005D01*
X102920Y-48089D01*
X103138Y-48090D01*
X103341Y-48006D01*
X103495Y-47851D01*
X103579Y-47649D01*
X103580Y-47431D01*
X103580Y-54865D01*
X103548Y-54833D01*
X103419Y-54780D01*
X103280Y-54779D01*
X103179Y-54821D01*
X103180Y-54770D01*
X103180Y-54170D01*
X103142Y-54078D01*
X103071Y-54008D01*
X102979Y-53970D01*
X102957Y-53970D01*
X103095Y-53831D01*
X103179Y-53629D01*
X103180Y-53411D01*
X103096Y-53208D01*
X102941Y-53054D01*
X102860Y-53020D01*
X102941Y-52986D01*
X103095Y-52831D01*
X103179Y-52629D01*
X103180Y-52411D01*
X103096Y-52208D01*
X102941Y-52054D01*
X102860Y-52020D01*
X102941Y-51986D01*
X103095Y-51831D01*
X103179Y-51629D01*
X103180Y-51411D01*
X103096Y-51208D01*
X102941Y-51054D01*
X102739Y-50970D01*
X102521Y-50969D01*
X102318Y-51053D01*
X102164Y-51208D01*
X102080Y-51410D01*
X102079Y-51628D01*
X102163Y-51831D01*
X102318Y-51985D01*
X102399Y-52019D01*
X102318Y-52053D01*
X102164Y-52208D01*
X102080Y-52410D01*
X102079Y-52628D01*
X102163Y-52831D01*
X102318Y-52985D01*
X102399Y-53019D01*
X102318Y-53053D01*
X102164Y-53208D01*
X102080Y-53410D01*
X102079Y-53628D01*
X102163Y-53831D01*
X102302Y-53969D01*
X102280Y-53969D01*
X102188Y-54007D01*
X102118Y-54078D01*
X102080Y-54170D01*
X102079Y-54269D01*
X102079Y-54869D01*
X102117Y-54961D01*
X102188Y-55031D01*
X102280Y-55069D01*
X102379Y-55070D01*
X102979Y-55070D01*
X103000Y-55061D01*
X102999Y-55199D01*
X103053Y-55328D01*
X103151Y-55426D01*
X103280Y-55479D01*
X103419Y-55480D01*
X103548Y-55426D01*
X103646Y-55328D01*
X103699Y-55199D01*
X103700Y-55060D01*
X103700Y-62220D01*
X103080Y-62220D01*
X103080Y-61530D01*
X103026Y-61402D01*
X102928Y-61303D01*
X102799Y-61250D01*
X102660Y-61249D01*
X102532Y-61303D01*
X102433Y-61401D01*
X102380Y-61530D01*
X102379Y-61669D01*
X102433Y-61798D01*
X102531Y-61896D01*
X102660Y-61949D01*
X102799Y-61950D01*
X102928Y-61896D01*
X103026Y-61798D01*
X103079Y-61669D01*
X103080Y-61530D01*
X103080Y-62220D01*
X102115Y-62220D01*
X102115Y-57795D01*
X102042Y-57621D01*
X101909Y-57487D01*
X101800Y-57442D01*
X101800Y-50441D01*
X101716Y-50238D01*
X101561Y-50084D01*
X101359Y-50000D01*
X101141Y-49999D01*
X100938Y-50083D01*
X100784Y-50238D01*
X100700Y-50440D01*
X100699Y-50658D01*
X100783Y-50861D01*
X100922Y-50999D01*
X100900Y-50999D01*
X100808Y-51037D01*
X100738Y-51108D01*
X100700Y-51200D01*
X100699Y-51299D01*
X100699Y-51899D01*
X100737Y-51991D01*
X100808Y-52061D01*
X100900Y-52099D01*
X100999Y-52100D01*
X101599Y-52100D01*
X101691Y-52062D01*
X101761Y-51991D01*
X101799Y-51899D01*
X101800Y-51800D01*
X101800Y-51200D01*
X101762Y-51108D01*
X101691Y-51038D01*
X101599Y-51000D01*
X101577Y-51000D01*
X101715Y-50861D01*
X101799Y-50659D01*
X101800Y-50441D01*
X101800Y-57442D01*
X101734Y-57415D01*
X101545Y-57414D01*
X101371Y-57487D01*
X101237Y-57620D01*
X101165Y-57795D01*
X101164Y-57984D01*
X101237Y-58158D01*
X101370Y-58292D01*
X101545Y-58364D01*
X101734Y-58365D01*
X101908Y-58292D01*
X102042Y-58159D01*
X102114Y-57984D01*
X102115Y-57795D01*
X102115Y-62220D01*
X100680Y-62220D01*
X100680Y-58210D01*
X100680Y-57060D01*
X100626Y-56932D01*
X100580Y-56885D01*
X100580Y-50450D01*
X100526Y-50322D01*
X100428Y-50223D01*
X100370Y-50199D01*
X100370Y-49270D01*
X100316Y-49142D01*
X100218Y-49043D01*
X100089Y-48990D01*
X99950Y-48989D01*
X99930Y-48998D01*
X99930Y-47920D01*
X99876Y-47792D01*
X99778Y-47693D01*
X99649Y-47640D01*
X99563Y-47639D01*
X99526Y-47552D01*
X99428Y-47453D01*
X99299Y-47400D01*
X99160Y-47399D01*
X99032Y-47453D01*
X98933Y-47551D01*
X98880Y-47680D01*
X98879Y-47819D01*
X98933Y-47948D01*
X99031Y-48046D01*
X99160Y-48099D01*
X99246Y-48100D01*
X99283Y-48188D01*
X99381Y-48286D01*
X99510Y-48339D01*
X99649Y-48340D01*
X99778Y-48286D01*
X99876Y-48188D01*
X99929Y-48059D01*
X99930Y-47920D01*
X99930Y-48998D01*
X99822Y-49043D01*
X99723Y-49141D01*
X99670Y-49270D01*
X99669Y-49409D01*
X99723Y-49538D01*
X99821Y-49636D01*
X99950Y-49689D01*
X100089Y-49690D01*
X100218Y-49636D01*
X100316Y-49538D01*
X100369Y-49409D01*
X100370Y-49270D01*
X100370Y-50199D01*
X100299Y-50170D01*
X100160Y-50169D01*
X100032Y-50223D01*
X99933Y-50321D01*
X99880Y-50450D01*
X99879Y-50589D01*
X99933Y-50718D01*
X100031Y-50816D01*
X100160Y-50869D01*
X100299Y-50870D01*
X100428Y-50816D01*
X100526Y-50718D01*
X100579Y-50589D01*
X100580Y-50450D01*
X100580Y-56885D01*
X100528Y-56833D01*
X100460Y-56805D01*
X100460Y-53050D01*
X100406Y-52922D01*
X100308Y-52823D01*
X100179Y-52770D01*
X100040Y-52769D01*
X99912Y-52823D01*
X99813Y-52921D01*
X99760Y-53050D01*
X99759Y-53189D01*
X99813Y-53318D01*
X99905Y-53410D01*
X99802Y-53453D01*
X99703Y-53551D01*
X99650Y-53680D01*
X99649Y-53819D01*
X99703Y-53948D01*
X99745Y-53989D01*
X99693Y-54041D01*
X99640Y-54170D01*
X99639Y-54309D01*
X99693Y-54438D01*
X99770Y-54515D01*
X99693Y-54591D01*
X99640Y-54720D01*
X99639Y-54859D01*
X99693Y-54988D01*
X99725Y-55019D01*
X99703Y-55041D01*
X99650Y-55170D01*
X99649Y-55309D01*
X99703Y-55438D01*
X99801Y-55536D01*
X99930Y-55589D01*
X100069Y-55590D01*
X100198Y-55536D01*
X100296Y-55438D01*
X100349Y-55309D01*
X100350Y-55170D01*
X100296Y-55042D01*
X100264Y-55010D01*
X100286Y-54988D01*
X100339Y-54859D01*
X100340Y-54720D01*
X100286Y-54592D01*
X100209Y-54514D01*
X100286Y-54438D01*
X100339Y-54309D01*
X100340Y-54170D01*
X100286Y-54042D01*
X100244Y-54000D01*
X100296Y-53948D01*
X100349Y-53819D01*
X100350Y-53680D01*
X100296Y-53552D01*
X100204Y-53459D01*
X100308Y-53416D01*
X100406Y-53318D01*
X100459Y-53189D01*
X100460Y-53050D01*
X100460Y-56805D01*
X100399Y-56780D01*
X100260Y-56779D01*
X100132Y-56833D01*
X100033Y-56931D01*
X100027Y-56946D01*
X100016Y-56922D01*
X99918Y-56823D01*
X99789Y-56770D01*
X99740Y-56770D01*
X99740Y-55750D01*
X99686Y-55622D01*
X99588Y-55523D01*
X99580Y-55519D01*
X99580Y-49100D01*
X99526Y-48972D01*
X99428Y-48873D01*
X99299Y-48820D01*
X99160Y-48819D01*
X99032Y-48873D01*
X98933Y-48971D01*
X98880Y-49100D01*
X98879Y-49239D01*
X98933Y-49368D01*
X99031Y-49466D01*
X99160Y-49519D01*
X99299Y-49520D01*
X99428Y-49466D01*
X99526Y-49368D01*
X99579Y-49239D01*
X99580Y-49100D01*
X99580Y-55519D01*
X99459Y-55470D01*
X99320Y-55469D01*
X99192Y-55523D01*
X99093Y-55621D01*
X99050Y-55725D01*
X99050Y-49990D01*
X98996Y-49862D01*
X98898Y-49763D01*
X98769Y-49710D01*
X98630Y-49709D01*
X98502Y-49763D01*
X98500Y-49765D01*
X98498Y-49763D01*
X98380Y-49714D01*
X98380Y-48290D01*
X98326Y-48162D01*
X98228Y-48063D01*
X98099Y-48010D01*
X97960Y-48009D01*
X97832Y-48063D01*
X97779Y-48115D01*
X97728Y-48063D01*
X97599Y-48010D01*
X97460Y-48009D01*
X97332Y-48063D01*
X97279Y-48115D01*
X97228Y-48063D01*
X97099Y-48010D01*
X96960Y-48009D01*
X96832Y-48063D01*
X96779Y-48115D01*
X96728Y-48063D01*
X96599Y-48010D01*
X96460Y-48009D01*
X96332Y-48063D01*
X96279Y-48115D01*
X96228Y-48063D01*
X96099Y-48010D01*
X95960Y-48009D01*
X95832Y-48063D01*
X95779Y-48115D01*
X95728Y-48063D01*
X95599Y-48010D01*
X95460Y-48009D01*
X95332Y-48063D01*
X95279Y-48115D01*
X95228Y-48063D01*
X95099Y-48010D01*
X94960Y-48009D01*
X94832Y-48063D01*
X94779Y-48115D01*
X94728Y-48063D01*
X94599Y-48010D01*
X94460Y-48009D01*
X94459Y-48010D01*
X94460Y-47930D01*
X94416Y-47824D01*
X94459Y-47719D01*
X94460Y-47580D01*
X94406Y-47452D01*
X94308Y-47353D01*
X94179Y-47300D01*
X94040Y-47299D01*
X93912Y-47353D01*
X93813Y-47451D01*
X93760Y-47580D01*
X93759Y-47719D01*
X93803Y-47825D01*
X93760Y-47930D01*
X93759Y-48069D01*
X93813Y-48198D01*
X93911Y-48296D01*
X94040Y-48349D01*
X94179Y-48350D01*
X94180Y-48349D01*
X94179Y-48429D01*
X94233Y-48558D01*
X94331Y-48656D01*
X94460Y-48709D01*
X94599Y-48710D01*
X94728Y-48656D01*
X94780Y-48604D01*
X94831Y-48656D01*
X94960Y-48709D01*
X95099Y-48710D01*
X95228Y-48656D01*
X95280Y-48604D01*
X95331Y-48656D01*
X95460Y-48709D01*
X95599Y-48710D01*
X95728Y-48656D01*
X95780Y-48604D01*
X95831Y-48656D01*
X95960Y-48709D01*
X96099Y-48710D01*
X96228Y-48656D01*
X96280Y-48604D01*
X96331Y-48656D01*
X96460Y-48709D01*
X96599Y-48710D01*
X96728Y-48656D01*
X96780Y-48604D01*
X96831Y-48656D01*
X96960Y-48709D01*
X97099Y-48710D01*
X97228Y-48656D01*
X97280Y-48604D01*
X97331Y-48656D01*
X97460Y-48709D01*
X97599Y-48710D01*
X97728Y-48656D01*
X97780Y-48604D01*
X97831Y-48656D01*
X97960Y-48709D01*
X98099Y-48710D01*
X98228Y-48656D01*
X98326Y-48558D01*
X98379Y-48429D01*
X98380Y-48290D01*
X98380Y-49714D01*
X98369Y-49710D01*
X98230Y-49709D01*
X98102Y-49763D01*
X98003Y-49861D01*
X97950Y-49990D01*
X97949Y-50129D01*
X98003Y-50258D01*
X98101Y-50356D01*
X98230Y-50409D01*
X98369Y-50410D01*
X98498Y-50356D01*
X98499Y-50354D01*
X98501Y-50356D01*
X98630Y-50409D01*
X98769Y-50410D01*
X98898Y-50356D01*
X98996Y-50258D01*
X99049Y-50129D01*
X99050Y-49990D01*
X99050Y-55725D01*
X99040Y-55750D01*
X99039Y-55889D01*
X99093Y-56018D01*
X99191Y-56116D01*
X99320Y-56169D01*
X99459Y-56170D01*
X99588Y-56116D01*
X99686Y-56018D01*
X99739Y-55889D01*
X99740Y-55750D01*
X99740Y-56770D01*
X99650Y-56769D01*
X99522Y-56823D01*
X99423Y-56921D01*
X99370Y-57050D01*
X99369Y-57189D01*
X99423Y-57318D01*
X99521Y-57416D01*
X99650Y-57469D01*
X99789Y-57470D01*
X99918Y-57416D01*
X100016Y-57318D01*
X100022Y-57303D01*
X100033Y-57328D01*
X100131Y-57426D01*
X100260Y-57479D01*
X100399Y-57480D01*
X100528Y-57426D01*
X100626Y-57328D01*
X100679Y-57199D01*
X100680Y-57060D01*
X100680Y-58210D01*
X100626Y-58082D01*
X100528Y-57983D01*
X100399Y-57930D01*
X100260Y-57929D01*
X100132Y-57983D01*
X100033Y-58081D01*
X100025Y-58101D01*
X100016Y-58082D01*
X99918Y-57983D01*
X99789Y-57930D01*
X99650Y-57929D01*
X99522Y-57983D01*
X99423Y-58081D01*
X99370Y-58210D01*
X99369Y-58349D01*
X99423Y-58478D01*
X99521Y-58576D01*
X99650Y-58629D01*
X99789Y-58630D01*
X99918Y-58576D01*
X100016Y-58478D01*
X100024Y-58458D01*
X100033Y-58478D01*
X100131Y-58576D01*
X100260Y-58629D01*
X100399Y-58630D01*
X100528Y-58576D01*
X100626Y-58478D01*
X100679Y-58349D01*
X100680Y-58210D01*
X100680Y-62220D01*
X98700Y-62220D01*
X98700Y-53460D01*
X98646Y-53332D01*
X98560Y-53245D01*
X98560Y-51270D01*
X98506Y-51142D01*
X98408Y-51043D01*
X98279Y-50990D01*
X98140Y-50989D01*
X98012Y-51043D01*
X97913Y-51141D01*
X97860Y-51270D01*
X97859Y-51409D01*
X97913Y-51538D01*
X98011Y-51636D01*
X98140Y-51689D01*
X98279Y-51690D01*
X98408Y-51636D01*
X98506Y-51538D01*
X98559Y-51409D01*
X98560Y-51270D01*
X98560Y-53245D01*
X98548Y-53233D01*
X98506Y-53216D01*
X98529Y-53159D01*
X98530Y-53020D01*
X98476Y-52892D01*
X98378Y-52793D01*
X98249Y-52740D01*
X98110Y-52739D01*
X97982Y-52793D01*
X97883Y-52891D01*
X97830Y-53020D01*
X97829Y-53159D01*
X97840Y-53184D01*
X97813Y-53211D01*
X97760Y-53340D01*
X97759Y-53479D01*
X97813Y-53608D01*
X97911Y-53706D01*
X98040Y-53759D01*
X98085Y-53759D01*
X98151Y-53826D01*
X98280Y-53879D01*
X98419Y-53880D01*
X98548Y-53826D01*
X98646Y-53728D01*
X98699Y-53599D01*
X98700Y-53460D01*
X98700Y-62220D01*
X98340Y-62220D01*
X98340Y-61530D01*
X98286Y-61402D01*
X98188Y-61303D01*
X98160Y-61291D01*
X98160Y-59030D01*
X98106Y-58902D01*
X98008Y-58803D01*
X97879Y-58750D01*
X97740Y-58749D01*
X97720Y-58758D01*
X97720Y-57490D01*
X97680Y-57393D01*
X97680Y-52960D01*
X97626Y-52832D01*
X97528Y-52733D01*
X97399Y-52680D01*
X97260Y-52679D01*
X97132Y-52733D01*
X97033Y-52831D01*
X96980Y-52960D01*
X96979Y-53099D01*
X97033Y-53228D01*
X97131Y-53326D01*
X97260Y-53379D01*
X97399Y-53380D01*
X97528Y-53326D01*
X97626Y-53228D01*
X97679Y-53099D01*
X97680Y-52960D01*
X97680Y-57393D01*
X97666Y-57362D01*
X97660Y-57355D01*
X97660Y-54930D01*
X97606Y-54802D01*
X97508Y-54703D01*
X97388Y-54653D01*
X97366Y-54602D01*
X97324Y-54560D01*
X97379Y-54560D01*
X97508Y-54506D01*
X97606Y-54408D01*
X97659Y-54279D01*
X97660Y-54140D01*
X97606Y-54012D01*
X97508Y-53913D01*
X97455Y-53891D01*
X97426Y-53822D01*
X97328Y-53723D01*
X97199Y-53670D01*
X97060Y-53669D01*
X96932Y-53723D01*
X96930Y-53725D01*
X96858Y-53653D01*
X96729Y-53600D01*
X96590Y-53599D01*
X96462Y-53653D01*
X96363Y-53751D01*
X96310Y-53880D01*
X96310Y-53882D01*
X96212Y-53923D01*
X96113Y-54021D01*
X96060Y-54150D01*
X96059Y-54289D01*
X96072Y-54319D01*
X96030Y-54319D01*
X95902Y-54373D01*
X95840Y-54434D01*
X95840Y-50110D01*
X95786Y-49982D01*
X95688Y-49883D01*
X95559Y-49830D01*
X95554Y-49830D01*
X95468Y-49743D01*
X95339Y-49690D01*
X95209Y-49689D01*
X95176Y-49612D01*
X95078Y-49513D01*
X94949Y-49460D01*
X94810Y-49459D01*
X94682Y-49513D01*
X94583Y-49611D01*
X94571Y-49639D01*
X94499Y-49610D01*
X94360Y-49609D01*
X94232Y-49663D01*
X94133Y-49761D01*
X94121Y-49789D01*
X94099Y-49780D01*
X93960Y-49779D01*
X93832Y-49833D01*
X93733Y-49931D01*
X93680Y-50060D01*
X93679Y-50199D01*
X93733Y-50328D01*
X93831Y-50426D01*
X93960Y-50479D01*
X94085Y-50480D01*
X94111Y-50506D01*
X94240Y-50559D01*
X94379Y-50560D01*
X94508Y-50506D01*
X94548Y-50466D01*
X94630Y-50499D01*
X94769Y-50500D01*
X94837Y-50472D01*
X94891Y-50526D01*
X95020Y-50579D01*
X95159Y-50580D01*
X95288Y-50526D01*
X95324Y-50490D01*
X95420Y-50529D01*
X95559Y-50530D01*
X95688Y-50476D01*
X95786Y-50378D01*
X95839Y-50249D01*
X95840Y-50110D01*
X95840Y-54434D01*
X95803Y-54471D01*
X95750Y-54600D01*
X95749Y-54739D01*
X95803Y-54868D01*
X95901Y-54966D01*
X96030Y-55019D01*
X96169Y-55020D01*
X96298Y-54966D01*
X96396Y-54868D01*
X96449Y-54739D01*
X96450Y-54600D01*
X96437Y-54570D01*
X96479Y-54570D01*
X96608Y-54516D01*
X96706Y-54418D01*
X96759Y-54289D01*
X96759Y-54287D01*
X96858Y-54246D01*
X96859Y-54244D01*
X96931Y-54316D01*
X96984Y-54338D01*
X97013Y-54408D01*
X97055Y-54449D01*
X97000Y-54449D01*
X96872Y-54503D01*
X96773Y-54601D01*
X96720Y-54730D01*
X96719Y-54869D01*
X96773Y-54998D01*
X96871Y-55096D01*
X96991Y-55146D01*
X97013Y-55198D01*
X97111Y-55296D01*
X97240Y-55349D01*
X97379Y-55350D01*
X97508Y-55296D01*
X97606Y-55198D01*
X97659Y-55069D01*
X97660Y-54930D01*
X97660Y-57355D01*
X97568Y-57263D01*
X97439Y-57210D01*
X97300Y-57209D01*
X97220Y-57243D01*
X97220Y-56180D01*
X97166Y-56052D01*
X97068Y-55953D01*
X97016Y-55931D01*
X96966Y-55812D01*
X96868Y-55713D01*
X96739Y-55660D01*
X96600Y-55659D01*
X96472Y-55713D01*
X96373Y-55811D01*
X96320Y-55940D01*
X96320Y-55995D01*
X96278Y-55953D01*
X96149Y-55900D01*
X96010Y-55899D01*
X95882Y-55953D01*
X95783Y-56051D01*
X95730Y-56180D01*
X95729Y-56319D01*
X95783Y-56448D01*
X95881Y-56546D01*
X96010Y-56599D01*
X96149Y-56600D01*
X96278Y-56546D01*
X96376Y-56448D01*
X96429Y-56319D01*
X96429Y-56264D01*
X96471Y-56306D01*
X96523Y-56328D01*
X96573Y-56448D01*
X96671Y-56546D01*
X96800Y-56599D01*
X96939Y-56600D01*
X97068Y-56546D01*
X97166Y-56448D01*
X97219Y-56319D01*
X97220Y-56180D01*
X97220Y-57243D01*
X97172Y-57263D01*
X97073Y-57361D01*
X97020Y-57490D01*
X97019Y-57629D01*
X97073Y-57758D01*
X97164Y-57849D01*
X97120Y-57849D01*
X96992Y-57903D01*
X96893Y-58001D01*
X96840Y-58130D01*
X96839Y-58269D01*
X96893Y-58398D01*
X96991Y-58496D01*
X97120Y-58549D01*
X97259Y-58550D01*
X97388Y-58496D01*
X97486Y-58398D01*
X97539Y-58269D01*
X97540Y-58130D01*
X97486Y-58002D01*
X97395Y-57910D01*
X97439Y-57910D01*
X97568Y-57856D01*
X97666Y-57758D01*
X97719Y-57629D01*
X97720Y-57490D01*
X97720Y-58758D01*
X97612Y-58803D01*
X97513Y-58901D01*
X97460Y-59030D01*
X97459Y-59169D01*
X97513Y-59298D01*
X97611Y-59396D01*
X97740Y-59449D01*
X97879Y-59450D01*
X98008Y-59396D01*
X98106Y-59298D01*
X98159Y-59169D01*
X98160Y-59030D01*
X98160Y-61291D01*
X98059Y-61250D01*
X97920Y-61249D01*
X97792Y-61303D01*
X97693Y-61401D01*
X97640Y-61530D01*
X97639Y-61669D01*
X97693Y-61798D01*
X97791Y-61896D01*
X97920Y-61949D01*
X98059Y-61950D01*
X98188Y-61896D01*
X98286Y-61798D01*
X98339Y-61669D01*
X98340Y-61530D01*
X98340Y-62220D01*
X97420Y-62220D01*
X97420Y-60360D01*
X97366Y-60232D01*
X97268Y-60133D01*
X97139Y-60080D01*
X97000Y-60079D01*
X96872Y-60133D01*
X96870Y-60135D01*
X96870Y-59480D01*
X96816Y-59352D01*
X96718Y-59253D01*
X96589Y-59200D01*
X96450Y-59199D01*
X96322Y-59253D01*
X96223Y-59351D01*
X96170Y-59480D01*
X96169Y-59619D01*
X96223Y-59748D01*
X96321Y-59846D01*
X96450Y-59899D01*
X96589Y-59900D01*
X96718Y-59846D01*
X96816Y-59748D01*
X96869Y-59619D01*
X96870Y-59480D01*
X96870Y-60135D01*
X96773Y-60231D01*
X96720Y-60360D01*
X96719Y-60499D01*
X96773Y-60628D01*
X96871Y-60726D01*
X97000Y-60779D01*
X97139Y-60780D01*
X97268Y-60726D01*
X97366Y-60628D01*
X97419Y-60499D01*
X97420Y-60360D01*
X97420Y-62220D01*
X95620Y-62220D01*
X95620Y-61029D01*
X95620Y-61029D01*
X95759Y-61030D01*
X95888Y-60976D01*
X95986Y-60878D01*
X96039Y-60749D01*
X96040Y-60610D01*
X96040Y-57200D01*
X95986Y-57072D01*
X95888Y-56973D01*
X95811Y-56941D01*
X95786Y-56882D01*
X95688Y-56783D01*
X95559Y-56730D01*
X95420Y-56729D01*
X95292Y-56783D01*
X95279Y-56795D01*
X95169Y-56750D01*
X95050Y-56749D01*
X95050Y-55940D01*
X94996Y-55812D01*
X94898Y-55713D01*
X94769Y-55660D01*
X94630Y-55659D01*
X94502Y-55713D01*
X94403Y-55811D01*
X94369Y-55892D01*
X94272Y-55933D01*
X94260Y-55945D01*
X94260Y-50940D01*
X94206Y-50812D01*
X94108Y-50713D01*
X93979Y-50660D01*
X93840Y-50659D01*
X93712Y-50713D01*
X93613Y-50811D01*
X93610Y-50819D01*
X93606Y-50812D01*
X93508Y-50713D01*
X93379Y-50660D01*
X93240Y-50659D01*
X93112Y-50713D01*
X93013Y-50811D01*
X92960Y-50940D01*
X92959Y-51079D01*
X93013Y-51208D01*
X93111Y-51306D01*
X93240Y-51359D01*
X93379Y-51360D01*
X93508Y-51306D01*
X93606Y-51208D01*
X93609Y-51200D01*
X93613Y-51208D01*
X93711Y-51306D01*
X93840Y-51359D01*
X93979Y-51360D01*
X94108Y-51306D01*
X94206Y-51208D01*
X94259Y-51079D01*
X94260Y-50940D01*
X94260Y-55945D01*
X94173Y-56031D01*
X94120Y-56160D01*
X94119Y-56299D01*
X94173Y-56428D01*
X94271Y-56526D01*
X94400Y-56579D01*
X94539Y-56580D01*
X94668Y-56526D01*
X94766Y-56428D01*
X94800Y-56347D01*
X94898Y-56306D01*
X94996Y-56208D01*
X95049Y-56079D01*
X95050Y-55940D01*
X95050Y-56749D01*
X95030Y-56749D01*
X94934Y-56789D01*
X94839Y-56750D01*
X94700Y-56749D01*
X94572Y-56803D01*
X94473Y-56901D01*
X94420Y-57030D01*
X94419Y-57169D01*
X94473Y-57298D01*
X94571Y-57396D01*
X94700Y-57449D01*
X94839Y-57450D01*
X94935Y-57410D01*
X94971Y-57425D01*
X94993Y-57478D01*
X95091Y-57576D01*
X95220Y-57629D01*
X95359Y-57630D01*
X95488Y-57576D01*
X95496Y-57568D01*
X95620Y-57619D01*
X95759Y-57620D01*
X95888Y-57566D01*
X95986Y-57468D01*
X96039Y-57339D01*
X96040Y-57200D01*
X96040Y-60610D01*
X95986Y-60482D01*
X95888Y-60383D01*
X95759Y-60330D01*
X95620Y-60329D01*
X95492Y-60383D01*
X95393Y-60481D01*
X95370Y-60537D01*
X95370Y-59010D01*
X95316Y-58882D01*
X95218Y-58783D01*
X95089Y-58730D01*
X94950Y-58729D01*
X94822Y-58783D01*
X94769Y-58835D01*
X94718Y-58783D01*
X94589Y-58730D01*
X94450Y-58729D01*
X94322Y-58783D01*
X94264Y-58840D01*
X94218Y-58793D01*
X94089Y-58740D01*
X93950Y-58739D01*
X93822Y-58793D01*
X93769Y-58845D01*
X93718Y-58793D01*
X93589Y-58740D01*
X93450Y-58739D01*
X93322Y-58793D01*
X93223Y-58891D01*
X93170Y-59020D01*
X93169Y-59159D01*
X93223Y-59288D01*
X93321Y-59386D01*
X93450Y-59439D01*
X93589Y-59440D01*
X93718Y-59386D01*
X93770Y-59334D01*
X93821Y-59386D01*
X93950Y-59439D01*
X94089Y-59440D01*
X94218Y-59386D01*
X94275Y-59329D01*
X94321Y-59376D01*
X94450Y-59429D01*
X94589Y-59430D01*
X94718Y-59376D01*
X94770Y-59324D01*
X94821Y-59376D01*
X94950Y-59429D01*
X95089Y-59430D01*
X95218Y-59376D01*
X95316Y-59278D01*
X95369Y-59149D01*
X95370Y-59010D01*
X95370Y-60537D01*
X95340Y-60610D01*
X95339Y-60749D01*
X95393Y-60878D01*
X95491Y-60976D01*
X95596Y-61020D01*
X92880Y-61020D01*
X92880Y-50140D01*
X92826Y-50012D01*
X92728Y-49913D01*
X92599Y-49860D01*
X92460Y-49859D01*
X92340Y-49909D01*
X92340Y-48490D01*
X92286Y-48362D01*
X92188Y-48263D01*
X92059Y-48210D01*
X91920Y-48209D01*
X91792Y-48263D01*
X91693Y-48361D01*
X91640Y-48490D01*
X91639Y-48629D01*
X91693Y-48758D01*
X91791Y-48856D01*
X91920Y-48909D01*
X92059Y-48910D01*
X92188Y-48856D01*
X92286Y-48758D01*
X92339Y-48629D01*
X92340Y-48490D01*
X92340Y-49909D01*
X92332Y-49913D01*
X92233Y-50011D01*
X92180Y-50140D01*
X92179Y-50279D01*
X92233Y-50408D01*
X92331Y-50506D01*
X92460Y-50559D01*
X92599Y-50560D01*
X92728Y-50506D01*
X92826Y-50408D01*
X92879Y-50279D01*
X92880Y-50140D01*
X92880Y-61020D01*
X92450Y-61020D01*
X92450Y-54090D01*
X92408Y-53989D01*
X92449Y-53889D01*
X92450Y-53750D01*
X92420Y-53678D01*
X92420Y-51410D01*
X92366Y-51282D01*
X92268Y-51183D01*
X92139Y-51130D01*
X92000Y-51129D01*
X91872Y-51183D01*
X91773Y-51281D01*
X91720Y-51410D01*
X91719Y-51549D01*
X91773Y-51678D01*
X91871Y-51776D01*
X92000Y-51829D01*
X92139Y-51830D01*
X92268Y-51776D01*
X92366Y-51678D01*
X92419Y-51549D01*
X92420Y-51410D01*
X92420Y-53678D01*
X92396Y-53622D01*
X92298Y-53523D01*
X92169Y-53470D01*
X92030Y-53469D01*
X91902Y-53523D01*
X91803Y-53621D01*
X91750Y-53750D01*
X91749Y-53889D01*
X91791Y-53990D01*
X91750Y-54090D01*
X91749Y-54229D01*
X91803Y-54358D01*
X91901Y-54456D01*
X92030Y-54509D01*
X92169Y-54510D01*
X92298Y-54456D01*
X92396Y-54358D01*
X92449Y-54229D01*
X92450Y-54090D01*
X92450Y-61020D01*
X92330Y-61020D01*
X92330Y-60090D01*
X92276Y-59962D01*
X92178Y-59863D01*
X92049Y-59810D01*
X91910Y-59809D01*
X91782Y-59863D01*
X91683Y-59961D01*
X91650Y-60041D01*
X91650Y-55320D01*
X91598Y-55194D01*
X91649Y-55069D01*
X91650Y-54930D01*
X91596Y-54802D01*
X91588Y-54793D01*
X91639Y-54669D01*
X91640Y-54530D01*
X91588Y-54404D01*
X91639Y-54279D01*
X91640Y-54140D01*
X91590Y-54019D01*
X91590Y-51140D01*
X91536Y-51012D01*
X91470Y-50945D01*
X91470Y-50130D01*
X91416Y-50002D01*
X91318Y-49903D01*
X91189Y-49850D01*
X91050Y-49849D01*
X90922Y-49903D01*
X90900Y-49925D01*
X90900Y-47880D01*
X90846Y-47752D01*
X90748Y-47653D01*
X90619Y-47600D01*
X90480Y-47599D01*
X90352Y-47653D01*
X90253Y-47751D01*
X90200Y-47880D01*
X90199Y-48019D01*
X90253Y-48148D01*
X90351Y-48246D01*
X90480Y-48299D01*
X90619Y-48300D01*
X90748Y-48246D01*
X90846Y-48148D01*
X90899Y-48019D01*
X90900Y-47880D01*
X90900Y-49925D01*
X90823Y-50001D01*
X90770Y-50130D01*
X90769Y-50269D01*
X90823Y-50398D01*
X90921Y-50496D01*
X91050Y-50549D01*
X91189Y-50550D01*
X91318Y-50496D01*
X91416Y-50398D01*
X91469Y-50269D01*
X91470Y-50130D01*
X91470Y-50945D01*
X91438Y-50913D01*
X91309Y-50860D01*
X91170Y-50859D01*
X91042Y-50913D01*
X90943Y-51011D01*
X90890Y-51140D01*
X90889Y-51279D01*
X90943Y-51408D01*
X91041Y-51506D01*
X91170Y-51559D01*
X91309Y-51560D01*
X91438Y-51506D01*
X91536Y-51408D01*
X91589Y-51279D01*
X91590Y-51140D01*
X91590Y-54019D01*
X91586Y-54012D01*
X91488Y-53913D01*
X91359Y-53860D01*
X91220Y-53859D01*
X91092Y-53913D01*
X90993Y-54011D01*
X90959Y-54093D01*
X90912Y-54113D01*
X90813Y-54211D01*
X90760Y-54340D01*
X90759Y-54479D01*
X90813Y-54608D01*
X90821Y-54616D01*
X90770Y-54740D01*
X90769Y-54879D01*
X90821Y-55003D01*
X90813Y-55011D01*
X90760Y-55140D01*
X90759Y-55279D01*
X90813Y-55408D01*
X90815Y-55409D01*
X90813Y-55411D01*
X90760Y-55540D01*
X90759Y-55679D01*
X90813Y-55808D01*
X90840Y-55834D01*
X90839Y-55959D01*
X90893Y-56088D01*
X90991Y-56186D01*
X91120Y-56239D01*
X91259Y-56240D01*
X91388Y-56186D01*
X91486Y-56088D01*
X91539Y-55959D01*
X91540Y-55820D01*
X91486Y-55692D01*
X91486Y-55691D01*
X91498Y-55686D01*
X91596Y-55588D01*
X91649Y-55459D01*
X91650Y-55320D01*
X91650Y-60041D01*
X91630Y-60090D01*
X91629Y-60229D01*
X91683Y-60358D01*
X91781Y-60456D01*
X91910Y-60509D01*
X92049Y-60510D01*
X92178Y-60456D01*
X92276Y-60358D01*
X92329Y-60229D01*
X92330Y-60090D01*
X92330Y-61020D01*
X90760Y-61020D01*
X90760Y-56370D01*
X90706Y-56242D01*
X90640Y-56175D01*
X90640Y-49190D01*
X90586Y-49062D01*
X90488Y-48963D01*
X90359Y-48910D01*
X90220Y-48909D01*
X90092Y-48963D01*
X89993Y-49061D01*
X89940Y-49190D01*
X89939Y-49329D01*
X89993Y-49458D01*
X90091Y-49556D01*
X90220Y-49609D01*
X90359Y-49610D01*
X90488Y-49556D01*
X90586Y-49458D01*
X90639Y-49329D01*
X90640Y-49190D01*
X90640Y-56175D01*
X90608Y-56143D01*
X90479Y-56090D01*
X90340Y-56089D01*
X90212Y-56143D01*
X90113Y-56241D01*
X90060Y-56370D01*
X90059Y-56509D01*
X90113Y-56638D01*
X90211Y-56736D01*
X90340Y-56789D01*
X90479Y-56790D01*
X90608Y-56736D01*
X90706Y-56638D01*
X90759Y-56509D01*
X90760Y-56370D01*
X90760Y-61020D01*
X90610Y-61020D01*
X90610Y-58870D01*
X90556Y-58742D01*
X90458Y-58643D01*
X90329Y-58590D01*
X90190Y-58589D01*
X90062Y-58643D01*
X89963Y-58741D01*
X89910Y-58870D01*
X89909Y-59009D01*
X89963Y-59138D01*
X90061Y-59236D01*
X90190Y-59289D01*
X90329Y-59290D01*
X90458Y-59236D01*
X90556Y-59138D01*
X90609Y-59009D01*
X90610Y-58870D01*
X90610Y-61020D01*
X90260Y-61020D01*
X90260Y-59910D01*
X90206Y-59782D01*
X90108Y-59683D01*
X89979Y-59630D01*
X89840Y-59629D01*
X89780Y-59654D01*
X89780Y-47400D01*
X89726Y-47272D01*
X89628Y-47173D01*
X89499Y-47120D01*
X89360Y-47119D01*
X89232Y-47173D01*
X89133Y-47271D01*
X89080Y-47400D01*
X89079Y-47539D01*
X89133Y-47668D01*
X89231Y-47766D01*
X89360Y-47819D01*
X89499Y-47820D01*
X89628Y-47766D01*
X89726Y-47668D01*
X89779Y-47539D01*
X89780Y-47400D01*
X89780Y-59654D01*
X89712Y-59683D01*
X89613Y-59781D01*
X89560Y-59910D01*
X89559Y-60049D01*
X89613Y-60178D01*
X89711Y-60276D01*
X89840Y-60329D01*
X89979Y-60330D01*
X90108Y-60276D01*
X90206Y-60178D01*
X90259Y-60049D01*
X90260Y-59910D01*
X90260Y-61020D01*
X89020Y-61020D01*
X89020Y-59384D01*
X89038Y-59376D01*
X89136Y-59278D01*
X89189Y-59149D01*
X89190Y-59010D01*
X89136Y-58882D01*
X89038Y-58783D01*
X89020Y-58775D01*
X89020Y-55429D01*
X89099Y-55430D01*
X89228Y-55376D01*
X89326Y-55278D01*
X89379Y-55149D01*
X89380Y-55010D01*
X89326Y-54882D01*
X89274Y-54829D01*
X89326Y-54778D01*
X89379Y-54649D01*
X89380Y-54510D01*
X89326Y-54382D01*
X89274Y-54329D01*
X89326Y-54278D01*
X89379Y-54149D01*
X89380Y-54010D01*
X89326Y-53882D01*
X89274Y-53829D01*
X89326Y-53778D01*
X89379Y-53649D01*
X89380Y-53510D01*
X89326Y-53382D01*
X89274Y-53329D01*
X89326Y-53278D01*
X89379Y-53149D01*
X89380Y-53010D01*
X89326Y-52882D01*
X89255Y-52809D01*
X89286Y-52778D01*
X89339Y-52649D01*
X89340Y-52510D01*
X89286Y-52382D01*
X89249Y-52344D01*
X89316Y-52278D01*
X89369Y-52149D01*
X89370Y-52010D01*
X89316Y-51882D01*
X89218Y-51783D01*
X89089Y-51730D01*
X89020Y-51729D01*
X89020Y-51700D01*
X89059Y-51700D01*
X89188Y-51646D01*
X89286Y-51548D01*
X89339Y-51419D01*
X89340Y-51280D01*
X89286Y-51152D01*
X89188Y-51053D01*
X89059Y-51000D01*
X89020Y-51000D01*
X89020Y-48519D01*
X89020Y-48519D01*
X89159Y-48520D01*
X89288Y-48466D01*
X89386Y-48368D01*
X89439Y-48239D01*
X89440Y-48100D01*
X89386Y-47972D01*
X89288Y-47873D01*
X89159Y-47820D01*
X89020Y-47819D01*
X89020Y-47820D01*
X89020Y-47020D01*
X91287Y-47020D01*
X91303Y-47058D01*
X91401Y-47156D01*
X91530Y-47209D01*
X91669Y-47210D01*
X91798Y-47156D01*
X91896Y-47058D01*
X91912Y-47020D01*
X92705Y-47020D01*
X92633Y-47091D01*
X92580Y-47220D01*
X92579Y-47359D01*
X92633Y-47488D01*
X92731Y-47586D01*
X92860Y-47639D01*
X92999Y-47640D01*
X93128Y-47586D01*
X93226Y-47488D01*
X93279Y-47359D01*
X93280Y-47220D01*
X93226Y-47092D01*
X93224Y-47090D01*
X93279Y-47090D01*
X93408Y-47036D01*
X93424Y-47020D01*
X95320Y-47020D01*
X95320Y-46593D01*
X95354Y-46677D01*
X95502Y-46824D01*
X95695Y-46904D01*
X95903Y-46905D01*
X96097Y-46825D01*
X96244Y-46677D01*
X96300Y-46544D01*
X96354Y-46677D01*
X96502Y-46824D01*
X96695Y-46904D01*
X96903Y-46905D01*
X97097Y-46825D01*
X97244Y-46677D01*
X97324Y-46484D01*
X97325Y-46276D01*
X97245Y-46083D01*
X97097Y-45935D01*
X96904Y-45855D01*
X96696Y-45854D01*
X96503Y-45934D01*
X96355Y-46082D01*
X96299Y-46215D01*
X96245Y-46083D01*
X96097Y-45935D01*
X95904Y-45855D01*
X95696Y-45854D01*
X95503Y-45934D01*
X95355Y-46082D01*
X95320Y-46166D01*
X95320Y-45820D01*
X103939Y-45820D01*
X103939Y-45878D01*
X104023Y-46081D01*
X104178Y-46235D01*
X104259Y-46269D01*
X104178Y-46303D01*
X104024Y-46458D01*
X103940Y-46660D01*
X103939Y-46878D01*
X104023Y-47081D01*
X104178Y-47235D01*
X104259Y-47269D01*
X104178Y-47303D01*
X104024Y-47458D01*
X103940Y-47660D01*
X103939Y-47878D01*
X104023Y-48081D01*
X104178Y-48235D01*
X104259Y-48269D01*
X104178Y-48303D01*
X104024Y-48458D01*
X103940Y-48660D01*
X103939Y-48878D01*
X104023Y-49081D01*
X104178Y-49235D01*
X104259Y-49269D01*
X104178Y-49303D01*
X104024Y-49458D01*
X103940Y-49660D01*
X103939Y-49878D01*
X104023Y-50081D01*
X104178Y-50235D01*
X104259Y-50269D01*
X104178Y-50303D01*
X104024Y-50458D01*
X103940Y-50660D01*
X103939Y-50878D01*
X104023Y-51081D01*
X104178Y-51235D01*
X104259Y-51269D01*
X104178Y-51303D01*
X104024Y-51458D01*
X103940Y-51660D01*
X103939Y-51878D01*
X104023Y-52081D01*
X104178Y-52235D01*
X104259Y-52269D01*
X104178Y-52303D01*
X104024Y-52458D01*
X103940Y-52660D01*
X103939Y-52878D01*
X104023Y-53081D01*
X104178Y-53235D01*
X104259Y-53269D01*
X104178Y-53303D01*
X104024Y-53458D01*
X103940Y-53660D01*
X103939Y-53878D01*
X104023Y-54081D01*
X104178Y-54235D01*
X104259Y-54269D01*
X104178Y-54303D01*
X104024Y-54458D01*
X103940Y-54660D01*
X103939Y-54878D01*
X104023Y-55081D01*
X104178Y-55235D01*
X104259Y-55269D01*
X104178Y-55303D01*
X104024Y-55458D01*
X103940Y-55660D01*
X103939Y-55878D01*
X104023Y-56081D01*
X104178Y-56235D01*
X104380Y-56319D01*
X104598Y-56320D01*
X104801Y-56236D01*
X104955Y-56081D01*
X104989Y-56000D01*
X105023Y-56081D01*
X105178Y-56235D01*
X105380Y-56319D01*
X105598Y-56320D01*
X105801Y-56236D01*
X105955Y-56081D01*
X106039Y-55879D01*
X106040Y-55661D01*
X105956Y-55458D01*
X105801Y-55304D01*
X105720Y-55270D01*
X105801Y-55236D01*
X105955Y-55081D01*
X106039Y-54879D01*
X106040Y-54661D01*
X105956Y-54458D01*
X105801Y-54304D01*
X105720Y-54270D01*
X105801Y-54236D01*
X105955Y-54081D01*
X106039Y-53879D01*
X106040Y-53661D01*
X105956Y-53458D01*
X105801Y-53304D01*
X105720Y-53270D01*
X105801Y-53236D01*
X105955Y-53081D01*
X106039Y-52879D01*
X106040Y-52661D01*
X105956Y-52458D01*
X105801Y-52304D01*
X105720Y-52270D01*
X105801Y-52236D01*
X105955Y-52081D01*
X106039Y-51879D01*
X106040Y-51661D01*
X105956Y-51458D01*
X105801Y-51304D01*
X105720Y-51270D01*
X105801Y-51236D01*
X105955Y-51081D01*
X106039Y-50879D01*
X106040Y-50661D01*
X105956Y-50458D01*
X105801Y-50304D01*
X105720Y-50270D01*
X105801Y-50236D01*
X105955Y-50081D01*
X106039Y-49879D01*
X106040Y-49661D01*
X105956Y-49458D01*
X105801Y-49304D01*
X105720Y-49270D01*
X105801Y-49236D01*
X105955Y-49081D01*
X106039Y-48879D01*
X106040Y-48661D01*
X105956Y-48458D01*
X105801Y-48304D01*
X105720Y-48270D01*
X105801Y-48236D01*
X105955Y-48081D01*
X106039Y-47879D01*
X106040Y-47661D01*
X105956Y-47458D01*
X105801Y-47304D01*
X105720Y-47270D01*
X105801Y-47236D01*
X105955Y-47081D01*
X106039Y-46879D01*
X106040Y-46661D01*
X105956Y-46458D01*
X105801Y-46304D01*
X105720Y-46270D01*
X105801Y-46236D01*
X105955Y-46081D01*
X106039Y-45879D01*
X106039Y-45820D01*
X106120Y-45820D01*
X106120Y-62220D01*
X106120Y-62220D01*
G37*
G54D21*
X106120Y-62220D02*
X103700Y-62220D01*
X103700Y-55060D01*
X103646Y-54932D01*
X103580Y-54865D01*
X103580Y-47431D01*
X103496Y-47228D01*
X103357Y-47090D01*
X103379Y-47090D01*
X103471Y-47052D01*
X103541Y-46981D01*
X103579Y-46889D01*
X103580Y-46790D01*
X103580Y-46190D01*
X103542Y-46098D01*
X103471Y-46028D01*
X103379Y-45990D01*
X103280Y-45989D01*
X102680Y-45989D01*
X102588Y-46027D01*
X102518Y-46098D01*
X102480Y-46190D01*
X102479Y-46289D01*
X102479Y-46889D01*
X102517Y-46981D01*
X102588Y-47051D01*
X102680Y-47089D01*
X102702Y-47089D01*
X102564Y-47228D01*
X102480Y-47430D01*
X102479Y-47648D01*
X102563Y-47851D01*
X102718Y-48005D01*
X102920Y-48089D01*
X103138Y-48090D01*
X103341Y-48006D01*
X103495Y-47851D01*
X103579Y-47649D01*
X103580Y-47431D01*
X103580Y-54865D01*
X103548Y-54833D01*
X103419Y-54780D01*
X103280Y-54779D01*
X103179Y-54821D01*
X103180Y-54770D01*
X103180Y-54170D01*
X103142Y-54078D01*
X103071Y-54008D01*
X102979Y-53970D01*
X102957Y-53970D01*
X103095Y-53831D01*
X103179Y-53629D01*
X103180Y-53411D01*
X103096Y-53208D01*
X102941Y-53054D01*
X102860Y-53020D01*
X102941Y-52986D01*
X103095Y-52831D01*
X103179Y-52629D01*
X103180Y-52411D01*
X103096Y-52208D01*
X102941Y-52054D01*
X102860Y-52020D01*
X102941Y-51986D01*
X103095Y-51831D01*
X103179Y-51629D01*
X103180Y-51411D01*
X103096Y-51208D01*
X102941Y-51054D01*
X102739Y-50970D01*
X102521Y-50969D01*
X102318Y-51053D01*
X102164Y-51208D01*
X102080Y-51410D01*
X102079Y-51628D01*
X102163Y-51831D01*
X102318Y-51985D01*
X102399Y-52019D01*
X102318Y-52053D01*
X102164Y-52208D01*
X102080Y-52410D01*
X102079Y-52628D01*
X102163Y-52831D01*
X102318Y-52985D01*
X102399Y-53019D01*
X102318Y-53053D01*
X102164Y-53208D01*
X102080Y-53410D01*
X102079Y-53628D01*
X102163Y-53831D01*
X102302Y-53969D01*
X102280Y-53969D01*
X102188Y-54007D01*
X102118Y-54078D01*
X102080Y-54170D01*
X102079Y-54269D01*
X102079Y-54869D01*
X102117Y-54961D01*
X102188Y-55031D01*
X102280Y-55069D01*
X102379Y-55070D01*
X102979Y-55070D01*
X103000Y-55061D01*
X102999Y-55199D01*
X103053Y-55328D01*
X103151Y-55426D01*
X103280Y-55479D01*
X103419Y-55480D01*
X103548Y-55426D01*
X103646Y-55328D01*
X103699Y-55199D01*
X103700Y-55060D01*
X103700Y-62220D01*
X103080Y-62220D01*
X103080Y-61530D01*
X103026Y-61402D01*
X102928Y-61303D01*
X102799Y-61250D01*
X102660Y-61249D01*
X102532Y-61303D01*
X102433Y-61401D01*
X102380Y-61530D01*
X102379Y-61669D01*
X102433Y-61798D01*
X102531Y-61896D01*
X102660Y-61949D01*
X102799Y-61950D01*
X102928Y-61896D01*
X103026Y-61798D01*
X103079Y-61669D01*
X103080Y-61530D01*
X103080Y-62220D01*
X102115Y-62220D01*
X102115Y-57795D01*
X102042Y-57621D01*
X101909Y-57487D01*
X101800Y-57442D01*
X101800Y-50441D01*
X101716Y-50238D01*
X101561Y-50084D01*
X101359Y-50000D01*
X101141Y-49999D01*
X100938Y-50083D01*
X100784Y-50238D01*
X100700Y-50440D01*
X100699Y-50658D01*
X100783Y-50861D01*
X100922Y-50999D01*
X100900Y-50999D01*
X100808Y-51037D01*
X100738Y-51108D01*
X100700Y-51200D01*
X100699Y-51299D01*
X100699Y-51899D01*
X100737Y-51991D01*
X100808Y-52061D01*
X100900Y-52099D01*
X100999Y-52100D01*
X101599Y-52100D01*
X101691Y-52062D01*
X101761Y-51991D01*
X101799Y-51899D01*
X101800Y-51800D01*
X101800Y-51200D01*
X101762Y-51108D01*
X101691Y-51038D01*
X101599Y-51000D01*
X101577Y-51000D01*
X101715Y-50861D01*
X101799Y-50659D01*
X101800Y-50441D01*
X101800Y-57442D01*
X101734Y-57415D01*
X101545Y-57414D01*
X101371Y-57487D01*
X101237Y-57620D01*
X101165Y-57795D01*
X101164Y-57984D01*
X101237Y-58158D01*
X101370Y-58292D01*
X101545Y-58364D01*
X101734Y-58365D01*
X101908Y-58292D01*
X102042Y-58159D01*
X102114Y-57984D01*
X102115Y-57795D01*
X102115Y-62220D01*
X100680Y-62220D01*
X100680Y-58210D01*
X100680Y-57060D01*
X100626Y-56932D01*
X100580Y-56885D01*
X100580Y-50450D01*
X100526Y-50322D01*
X100428Y-50223D01*
X100370Y-50199D01*
X100370Y-49270D01*
X100316Y-49142D01*
X100218Y-49043D01*
X100089Y-48990D01*
X99950Y-48989D01*
X99930Y-48998D01*
X99930Y-47920D01*
X99876Y-47792D01*
X99778Y-47693D01*
X99649Y-47640D01*
X99563Y-47639D01*
X99526Y-47552D01*
X99428Y-47453D01*
X99299Y-47400D01*
X99160Y-47399D01*
X99032Y-47453D01*
X98933Y-47551D01*
X98880Y-47680D01*
X98879Y-47819D01*
X98933Y-47948D01*
X99031Y-48046D01*
X99160Y-48099D01*
X99246Y-48100D01*
X99283Y-48188D01*
X99381Y-48286D01*
X99510Y-48339D01*
X99649Y-48340D01*
X99778Y-48286D01*
X99876Y-48188D01*
X99929Y-48059D01*
X99930Y-47920D01*
X99930Y-48998D01*
X99822Y-49043D01*
X99723Y-49141D01*
X99670Y-49270D01*
X99669Y-49409D01*
X99723Y-49538D01*
X99821Y-49636D01*
X99950Y-49689D01*
X100089Y-49690D01*
X100218Y-49636D01*
X100316Y-49538D01*
X100369Y-49409D01*
X100370Y-49270D01*
X100370Y-50199D01*
X100299Y-50170D01*
X100160Y-50169D01*
X100032Y-50223D01*
X99933Y-50321D01*
X99880Y-50450D01*
X99879Y-50589D01*
X99933Y-50718D01*
X100031Y-50816D01*
X100160Y-50869D01*
X100299Y-50870D01*
X100428Y-50816D01*
X100526Y-50718D01*
X100579Y-50589D01*
X100580Y-50450D01*
X100580Y-56885D01*
X100528Y-56833D01*
X100460Y-56805D01*
X100460Y-53050D01*
X100406Y-52922D01*
X100308Y-52823D01*
X100179Y-52770D01*
X100040Y-52769D01*
X99912Y-52823D01*
X99813Y-52921D01*
X99760Y-53050D01*
X99759Y-53189D01*
X99813Y-53318D01*
X99905Y-53410D01*
X99802Y-53453D01*
X99703Y-53551D01*
X99650Y-53680D01*
X99649Y-53819D01*
X99703Y-53948D01*
X99745Y-53989D01*
X99693Y-54041D01*
X99640Y-54170D01*
X99639Y-54309D01*
X99693Y-54438D01*
X99770Y-54515D01*
X99693Y-54591D01*
X99640Y-54720D01*
X99639Y-54859D01*
X99693Y-54988D01*
X99725Y-55019D01*
X99703Y-55041D01*
X99650Y-55170D01*
X99649Y-55309D01*
X99703Y-55438D01*
X99801Y-55536D01*
X99930Y-55589D01*
X100069Y-55590D01*
X100198Y-55536D01*
X100296Y-55438D01*
X100349Y-55309D01*
X100350Y-55170D01*
X100296Y-55042D01*
X100264Y-55010D01*
X100286Y-54988D01*
X100339Y-54859D01*
X100340Y-54720D01*
X100286Y-54592D01*
X100209Y-54514D01*
X100286Y-54438D01*
X100339Y-54309D01*
X100340Y-54170D01*
X100286Y-54042D01*
X100244Y-54000D01*
X100296Y-53948D01*
X100349Y-53819D01*
X100350Y-53680D01*
X100296Y-53552D01*
X100204Y-53459D01*
X100308Y-53416D01*
X100406Y-53318D01*
X100459Y-53189D01*
X100460Y-53050D01*
X100460Y-56805D01*
X100399Y-56780D01*
X100260Y-56779D01*
X100132Y-56833D01*
X100033Y-56931D01*
X100027Y-56946D01*
X100016Y-56922D01*
X99918Y-56823D01*
X99789Y-56770D01*
X99740Y-56770D01*
X99740Y-55750D01*
X99686Y-55622D01*
X99588Y-55523D01*
X99580Y-55519D01*
X99580Y-49100D01*
X99526Y-48972D01*
X99428Y-48873D01*
X99299Y-48820D01*
X99160Y-48819D01*
X99032Y-48873D01*
X98933Y-48971D01*
X98880Y-49100D01*
X98879Y-49239D01*
X98933Y-49368D01*
X99031Y-49466D01*
X99160Y-49519D01*
X99299Y-49520D01*
X99428Y-49466D01*
X99526Y-49368D01*
X99579Y-49239D01*
X99580Y-49100D01*
X99580Y-55519D01*
X99459Y-55470D01*
X99320Y-55469D01*
X99192Y-55523D01*
X99093Y-55621D01*
X99050Y-55725D01*
X99050Y-49990D01*
X98996Y-49862D01*
X98898Y-49763D01*
X98769Y-49710D01*
X98630Y-49709D01*
X98502Y-49763D01*
X98500Y-49765D01*
X98498Y-49763D01*
X98380Y-49714D01*
X98380Y-48290D01*
X98326Y-48162D01*
X98228Y-48063D01*
X98099Y-48010D01*
X97960Y-48009D01*
X97832Y-48063D01*
X97779Y-48115D01*
X97728Y-48063D01*
X97599Y-48010D01*
X97460Y-48009D01*
X97332Y-48063D01*
X97279Y-48115D01*
X97228Y-48063D01*
X97099Y-48010D01*
X96960Y-48009D01*
X96832Y-48063D01*
X96779Y-48115D01*
X96728Y-48063D01*
X96599Y-48010D01*
X96460Y-48009D01*
X96332Y-48063D01*
X96279Y-48115D01*
X96228Y-48063D01*
X96099Y-48010D01*
X95960Y-48009D01*
X95832Y-48063D01*
X95779Y-48115D01*
X95728Y-48063D01*
X95599Y-48010D01*
X95460Y-48009D01*
X95332Y-48063D01*
X95279Y-48115D01*
X95228Y-48063D01*
X95099Y-48010D01*
X94960Y-48009D01*
X94832Y-48063D01*
X94779Y-48115D01*
X94728Y-48063D01*
X94599Y-48010D01*
X94460Y-48009D01*
X94459Y-48010D01*
X94460Y-47930D01*
X94416Y-47824D01*
X94459Y-47719D01*
X94460Y-47580D01*
X94406Y-47452D01*
X94308Y-47353D01*
X94179Y-47300D01*
X94040Y-47299D01*
X93912Y-47353D01*
X93813Y-47451D01*
X93760Y-47580D01*
X93759Y-47719D01*
X93803Y-47825D01*
X93760Y-47930D01*
X93759Y-48069D01*
X93813Y-48198D01*
X93911Y-48296D01*
X94040Y-48349D01*
X94179Y-48350D01*
X94180Y-48349D01*
X94179Y-48429D01*
X94233Y-48558D01*
X94331Y-48656D01*
X94460Y-48709D01*
X94599Y-48710D01*
X94728Y-48656D01*
X94780Y-48604D01*
X94831Y-48656D01*
X94960Y-48709D01*
X95099Y-48710D01*
X95228Y-48656D01*
X95280Y-48604D01*
X95331Y-48656D01*
X95460Y-48709D01*
X95599Y-48710D01*
X95728Y-48656D01*
X95780Y-48604D01*
X95831Y-48656D01*
X95960Y-48709D01*
X96099Y-48710D01*
X96228Y-48656D01*
X96280Y-48604D01*
X96331Y-48656D01*
X96460Y-48709D01*
X96599Y-48710D01*
X96728Y-48656D01*
X96780Y-48604D01*
X96831Y-48656D01*
X96960Y-48709D01*
X97099Y-48710D01*
X97228Y-48656D01*
X97280Y-48604D01*
X97331Y-48656D01*
X97460Y-48709D01*
X97599Y-48710D01*
X97728Y-48656D01*
X97780Y-48604D01*
X97831Y-48656D01*
X97960Y-48709D01*
X98099Y-48710D01*
X98228Y-48656D01*
X98326Y-48558D01*
X98379Y-48429D01*
X98380Y-48290D01*
X98380Y-49714D01*
X98369Y-49710D01*
X98230Y-49709D01*
X98102Y-49763D01*
X98003Y-49861D01*
X97950Y-49990D01*
X97949Y-50129D01*
X98003Y-50258D01*
X98101Y-50356D01*
X98230Y-50409D01*
X98369Y-50410D01*
X98498Y-50356D01*
X98499Y-50354D01*
X98501Y-50356D01*
X98630Y-50409D01*
X98769Y-50410D01*
X98898Y-50356D01*
X98996Y-50258D01*
X99049Y-50129D01*
X99050Y-49990D01*
X99050Y-55725D01*
X99040Y-55750D01*
X99039Y-55889D01*
X99093Y-56018D01*
X99191Y-56116D01*
X99320Y-56169D01*
X99459Y-56170D01*
X99588Y-56116D01*
X99686Y-56018D01*
X99739Y-55889D01*
X99740Y-55750D01*
X99740Y-56770D01*
X99650Y-56769D01*
X99522Y-56823D01*
X99423Y-56921D01*
X99370Y-57050D01*
X99369Y-57189D01*
X99423Y-57318D01*
X99521Y-57416D01*
X99650Y-57469D01*
X99789Y-57470D01*
X99918Y-57416D01*
X100016Y-57318D01*
X100022Y-57303D01*
X100033Y-57328D01*
X100131Y-57426D01*
X100260Y-57479D01*
X100399Y-57480D01*
X100528Y-57426D01*
X100626Y-57328D01*
X100679Y-57199D01*
X100680Y-57060D01*
X100680Y-58210D01*
X100626Y-58082D01*
X100528Y-57983D01*
X100399Y-57930D01*
X100260Y-57929D01*
X100132Y-57983D01*
X100033Y-58081D01*
X100025Y-58101D01*
X100016Y-58082D01*
X99918Y-57983D01*
X99789Y-57930D01*
X99650Y-57929D01*
X99522Y-57983D01*
X99423Y-58081D01*
X99370Y-58210D01*
X99369Y-58349D01*
X99423Y-58478D01*
X99521Y-58576D01*
X99650Y-58629D01*
X99789Y-58630D01*
X99918Y-58576D01*
X100016Y-58478D01*
X100024Y-58458D01*
X100033Y-58478D01*
X100131Y-58576D01*
X100260Y-58629D01*
X100399Y-58630D01*
X100528Y-58576D01*
X100626Y-58478D01*
X100679Y-58349D01*
X100680Y-58210D01*
X100680Y-62220D01*
X98700Y-62220D01*
X98700Y-53460D01*
X98646Y-53332D01*
X98560Y-53245D01*
X98560Y-51270D01*
X98506Y-51142D01*
X98408Y-51043D01*
X98279Y-50990D01*
X98140Y-50989D01*
X98012Y-51043D01*
X97913Y-51141D01*
X97860Y-51270D01*
X97859Y-51409D01*
X97913Y-51538D01*
X98011Y-51636D01*
X98140Y-51689D01*
X98279Y-51690D01*
X98408Y-51636D01*
X98506Y-51538D01*
X98559Y-51409D01*
X98560Y-51270D01*
X98560Y-53245D01*
X98548Y-53233D01*
X98506Y-53216D01*
X98529Y-53159D01*
X98530Y-53020D01*
X98476Y-52892D01*
X98378Y-52793D01*
X98249Y-52740D01*
X98110Y-52739D01*
X97982Y-52793D01*
X97883Y-52891D01*
X97830Y-53020D01*
X97829Y-53159D01*
X97840Y-53184D01*
X97813Y-53211D01*
X97760Y-53340D01*
X97759Y-53479D01*
X97813Y-53608D01*
X97911Y-53706D01*
X98040Y-53759D01*
X98085Y-53759D01*
X98151Y-53826D01*
X98280Y-53879D01*
X98419Y-53880D01*
X98548Y-53826D01*
X98646Y-53728D01*
X98699Y-53599D01*
X98700Y-53460D01*
X98700Y-62220D01*
X98340Y-62220D01*
X98340Y-61530D01*
X98286Y-61402D01*
X98188Y-61303D01*
X98160Y-61291D01*
X98160Y-59030D01*
X98106Y-58902D01*
X98008Y-58803D01*
X97879Y-58750D01*
X97740Y-58749D01*
X97720Y-58758D01*
X97720Y-57490D01*
X97680Y-57393D01*
X97680Y-52960D01*
X97626Y-52832D01*
X97528Y-52733D01*
X97399Y-52680D01*
X97260Y-52679D01*
X97132Y-52733D01*
X97033Y-52831D01*
X96980Y-52960D01*
X96979Y-53099D01*
X97033Y-53228D01*
X97131Y-53326D01*
X97260Y-53379D01*
X97399Y-53380D01*
X97528Y-53326D01*
X97626Y-53228D01*
X97679Y-53099D01*
X97680Y-52960D01*
X97680Y-57393D01*
X97666Y-57362D01*
X97660Y-57355D01*
X97660Y-54930D01*
X97606Y-54802D01*
X97508Y-54703D01*
X97388Y-54653D01*
X97366Y-54602D01*
X97324Y-54560D01*
X97379Y-54560D01*
X97508Y-54506D01*
X97606Y-54408D01*
X97659Y-54279D01*
X97660Y-54140D01*
X97606Y-54012D01*
X97508Y-53913D01*
X97455Y-53891D01*
X97426Y-53822D01*
X97328Y-53723D01*
X97199Y-53670D01*
X97060Y-53669D01*
X96932Y-53723D01*
X96930Y-53725D01*
X96858Y-53653D01*
X96729Y-53600D01*
X96590Y-53599D01*
X96462Y-53653D01*
X96363Y-53751D01*
X96310Y-53880D01*
X96310Y-53882D01*
X96212Y-53923D01*
X96113Y-54021D01*
X96060Y-54150D01*
X96059Y-54289D01*
X96072Y-54319D01*
X96030Y-54319D01*
X95902Y-54373D01*
X95840Y-54434D01*
X95840Y-50110D01*
X95786Y-49982D01*
X95688Y-49883D01*
X95559Y-49830D01*
X95554Y-49830D01*
X95468Y-49743D01*
X95339Y-49690D01*
X95209Y-49689D01*
X95176Y-49612D01*
X95078Y-49513D01*
X94949Y-49460D01*
X94810Y-49459D01*
X94682Y-49513D01*
X94583Y-49611D01*
X94571Y-49639D01*
X94499Y-49610D01*
X94360Y-49609D01*
X94232Y-49663D01*
X94133Y-49761D01*
X94121Y-49789D01*
X94099Y-49780D01*
X93960Y-49779D01*
X93832Y-49833D01*
X93733Y-49931D01*
X93680Y-50060D01*
X93679Y-50199D01*
X93733Y-50328D01*
X93831Y-50426D01*
X93960Y-50479D01*
X94085Y-50480D01*
X94111Y-50506D01*
X94240Y-50559D01*
X94379Y-50560D01*
X94508Y-50506D01*
X94548Y-50466D01*
X94630Y-50499D01*
X94769Y-50500D01*
X94837Y-50472D01*
X94891Y-50526D01*
X95020Y-50579D01*
X95159Y-50580D01*
X95288Y-50526D01*
X95324Y-50490D01*
X95420Y-50529D01*
X95559Y-50530D01*
X95688Y-50476D01*
X95786Y-50378D01*
X95839Y-50249D01*
X95840Y-50110D01*
X95840Y-54434D01*
X95803Y-54471D01*
X95750Y-54600D01*
X95749Y-54739D01*
X95803Y-54868D01*
X95901Y-54966D01*
X96030Y-55019D01*
X96169Y-55020D01*
X96298Y-54966D01*
X96396Y-54868D01*
X96449Y-54739D01*
X96450Y-54600D01*
X96437Y-54570D01*
X96479Y-54570D01*
X96608Y-54516D01*
X96706Y-54418D01*
X96759Y-54289D01*
X96759Y-54287D01*
X96858Y-54246D01*
X96859Y-54244D01*
X96931Y-54316D01*
X96984Y-54338D01*
X97013Y-54408D01*
X97055Y-54449D01*
X97000Y-54449D01*
X96872Y-54503D01*
X96773Y-54601D01*
X96720Y-54730D01*
X96719Y-54869D01*
X96773Y-54998D01*
X96871Y-55096D01*
X96991Y-55146D01*
X97013Y-55198D01*
X97111Y-55296D01*
X97240Y-55349D01*
X97379Y-55350D01*
X97508Y-55296D01*
X97606Y-55198D01*
X97659Y-55069D01*
X97660Y-54930D01*
X97660Y-57355D01*
X97568Y-57263D01*
X97439Y-57210D01*
X97300Y-57209D01*
X97220Y-57243D01*
X97220Y-56180D01*
X97166Y-56052D01*
X97068Y-55953D01*
X97016Y-55931D01*
X96966Y-55812D01*
X96868Y-55713D01*
X96739Y-55660D01*
X96600Y-55659D01*
X96472Y-55713D01*
X96373Y-55811D01*
X96320Y-55940D01*
X96320Y-55995D01*
X96278Y-55953D01*
X96149Y-55900D01*
X96010Y-55899D01*
X95882Y-55953D01*
X95783Y-56051D01*
X95730Y-56180D01*
X95729Y-56319D01*
X95783Y-56448D01*
X95881Y-56546D01*
X96010Y-56599D01*
X96149Y-56600D01*
X96278Y-56546D01*
X96376Y-56448D01*
X96429Y-56319D01*
X96429Y-56264D01*
X96471Y-56306D01*
X96523Y-56328D01*
X96573Y-56448D01*
X96671Y-56546D01*
X96800Y-56599D01*
X96939Y-56600D01*
X97068Y-56546D01*
X97166Y-56448D01*
X97219Y-56319D01*
X97220Y-56180D01*
X97220Y-57243D01*
X97172Y-57263D01*
X97073Y-57361D01*
X97020Y-57490D01*
X97019Y-57629D01*
X97073Y-57758D01*
X97164Y-57849D01*
X97120Y-57849D01*
X96992Y-57903D01*
X96893Y-58001D01*
X96840Y-58130D01*
X96839Y-58269D01*
X96893Y-58398D01*
X96991Y-58496D01*
X97120Y-58549D01*
X97259Y-58550D01*
X97388Y-58496D01*
X97486Y-58398D01*
X97539Y-58269D01*
X97540Y-58130D01*
X97486Y-58002D01*
X97395Y-57910D01*
X97439Y-57910D01*
X97568Y-57856D01*
X97666Y-57758D01*
X97719Y-57629D01*
X97720Y-57490D01*
X97720Y-58758D01*
X97612Y-58803D01*
X97513Y-58901D01*
X97460Y-59030D01*
X97459Y-59169D01*
X97513Y-59298D01*
X97611Y-59396D01*
X97740Y-59449D01*
X97879Y-59450D01*
X98008Y-59396D01*
X98106Y-59298D01*
X98159Y-59169D01*
X98160Y-59030D01*
X98160Y-61291D01*
X98059Y-61250D01*
X97920Y-61249D01*
X97792Y-61303D01*
X97693Y-61401D01*
X97640Y-61530D01*
X97639Y-61669D01*
X97693Y-61798D01*
X97791Y-61896D01*
X97920Y-61949D01*
X98059Y-61950D01*
X98188Y-61896D01*
X98286Y-61798D01*
X98339Y-61669D01*
X98340Y-61530D01*
X98340Y-62220D01*
X97420Y-62220D01*
X97420Y-60360D01*
X97366Y-60232D01*
X97268Y-60133D01*
X97139Y-60080D01*
X97000Y-60079D01*
X96872Y-60133D01*
X96870Y-60135D01*
X96870Y-59480D01*
X96816Y-59352D01*
X96718Y-59253D01*
X96589Y-59200D01*
X96450Y-59199D01*
X96322Y-59253D01*
X96223Y-59351D01*
X96170Y-59480D01*
X96169Y-59619D01*
X96223Y-59748D01*
X96321Y-59846D01*
X96450Y-59899D01*
X96589Y-59900D01*
X96718Y-59846D01*
X96816Y-59748D01*
X96869Y-59619D01*
X96870Y-59480D01*
X96870Y-60135D01*
X96773Y-60231D01*
X96720Y-60360D01*
X96719Y-60499D01*
X96773Y-60628D01*
X96871Y-60726D01*
X97000Y-60779D01*
X97139Y-60780D01*
X97268Y-60726D01*
X97366Y-60628D01*
X97419Y-60499D01*
X97420Y-60360D01*
X97420Y-62220D01*
X95620Y-62220D01*
X95620Y-61029D01*
X95620Y-61029D01*
X95759Y-61030D01*
X95888Y-60976D01*
X95986Y-60878D01*
X96039Y-60749D01*
X96040Y-60610D01*
X96040Y-57200D01*
X95986Y-57072D01*
X95888Y-56973D01*
X95811Y-56941D01*
X95786Y-56882D01*
X95688Y-56783D01*
X95559Y-56730D01*
X95420Y-56729D01*
X95292Y-56783D01*
X95279Y-56795D01*
X95169Y-56750D01*
X95050Y-56749D01*
X95050Y-55940D01*
X94996Y-55812D01*
X94898Y-55713D01*
X94769Y-55660D01*
X94630Y-55659D01*
X94502Y-55713D01*
X94403Y-55811D01*
X94369Y-55892D01*
X94272Y-55933D01*
X94260Y-55945D01*
X94260Y-50940D01*
X94206Y-50812D01*
X94108Y-50713D01*
X93979Y-50660D01*
X93840Y-50659D01*
X93712Y-50713D01*
X93613Y-50811D01*
X93610Y-50819D01*
X93606Y-50812D01*
X93508Y-50713D01*
X93379Y-50660D01*
X93240Y-50659D01*
X93112Y-50713D01*
X93013Y-50811D01*
X92960Y-50940D01*
X92959Y-51079D01*
X93013Y-51208D01*
X93111Y-51306D01*
X93240Y-51359D01*
X93379Y-51360D01*
X93508Y-51306D01*
X93606Y-51208D01*
X93609Y-51200D01*
X93613Y-51208D01*
X93711Y-51306D01*
X93840Y-51359D01*
X93979Y-51360D01*
X94108Y-51306D01*
X94206Y-51208D01*
X94259Y-51079D01*
X94260Y-50940D01*
X94260Y-55945D01*
X94173Y-56031D01*
X94120Y-56160D01*
X94119Y-56299D01*
X94173Y-56428D01*
X94271Y-56526D01*
X94400Y-56579D01*
X94539Y-56580D01*
X94668Y-56526D01*
X94766Y-56428D01*
X94800Y-56347D01*
X94898Y-56306D01*
X94996Y-56208D01*
X95049Y-56079D01*
X95050Y-55940D01*
X95050Y-56749D01*
X95030Y-56749D01*
X94934Y-56789D01*
X94839Y-56750D01*
X94700Y-56749D01*
X94572Y-56803D01*
X94473Y-56901D01*
X94420Y-57030D01*
X94419Y-57169D01*
X94473Y-57298D01*
X94571Y-57396D01*
X94700Y-57449D01*
X94839Y-57450D01*
X94935Y-57410D01*
X94971Y-57425D01*
X94993Y-57478D01*
X95091Y-57576D01*
X95220Y-57629D01*
X95359Y-57630D01*
X95488Y-57576D01*
X95496Y-57568D01*
X95620Y-57619D01*
X95759Y-57620D01*
X95888Y-57566D01*
X95986Y-57468D01*
X96039Y-57339D01*
X96040Y-57200D01*
X96040Y-60610D01*
X95986Y-60482D01*
X95888Y-60383D01*
X95759Y-60330D01*
X95620Y-60329D01*
X95492Y-60383D01*
X95393Y-60481D01*
X95370Y-60537D01*
X95370Y-59010D01*
X95316Y-58882D01*
X95218Y-58783D01*
X95089Y-58730D01*
X94950Y-58729D01*
X94822Y-58783D01*
X94769Y-58835D01*
X94718Y-58783D01*
X94589Y-58730D01*
X94450Y-58729D01*
X94322Y-58783D01*
X94264Y-58840D01*
X94218Y-58793D01*
X94089Y-58740D01*
X93950Y-58739D01*
X93822Y-58793D01*
X93769Y-58845D01*
X93718Y-58793D01*
X93589Y-58740D01*
X93450Y-58739D01*
X93322Y-58793D01*
X93223Y-58891D01*
X93170Y-59020D01*
X93169Y-59159D01*
X93223Y-59288D01*
X93321Y-59386D01*
X93450Y-59439D01*
X93589Y-59440D01*
X93718Y-59386D01*
X93770Y-59334D01*
X93821Y-59386D01*
X93950Y-59439D01*
X94089Y-59440D01*
X94218Y-59386D01*
X94275Y-59329D01*
X94321Y-59376D01*
X94450Y-59429D01*
X94589Y-59430D01*
X94718Y-59376D01*
X94770Y-59324D01*
X94821Y-59376D01*
X94950Y-59429D01*
X95089Y-59430D01*
X95218Y-59376D01*
X95316Y-59278D01*
X95369Y-59149D01*
X95370Y-59010D01*
X95370Y-60537D01*
X95340Y-60610D01*
X95339Y-60749D01*
X95393Y-60878D01*
X95491Y-60976D01*
X95596Y-61020D01*
X92880Y-61020D01*
X92880Y-50140D01*
X92826Y-50012D01*
X92728Y-49913D01*
X92599Y-49860D01*
X92460Y-49859D01*
X92340Y-49909D01*
X92340Y-48490D01*
X92286Y-48362D01*
X92188Y-48263D01*
X92059Y-48210D01*
X91920Y-48209D01*
X91792Y-48263D01*
X91693Y-48361D01*
X91640Y-48490D01*
X91639Y-48629D01*
X91693Y-48758D01*
X91791Y-48856D01*
X91920Y-48909D01*
X92059Y-48910D01*
X92188Y-48856D01*
X92286Y-48758D01*
X92339Y-48629D01*
X92340Y-48490D01*
X92340Y-49909D01*
X92332Y-49913D01*
X92233Y-50011D01*
X92180Y-50140D01*
X92179Y-50279D01*
X92233Y-50408D01*
X92331Y-50506D01*
X92460Y-50559D01*
X92599Y-50560D01*
X92728Y-50506D01*
X92826Y-50408D01*
X92879Y-50279D01*
X92880Y-50140D01*
X92880Y-61020D01*
X92450Y-61020D01*
X92450Y-54090D01*
X92408Y-53989D01*
X92449Y-53889D01*
X92450Y-53750D01*
X92420Y-53678D01*
X92420Y-51410D01*
X92366Y-51282D01*
X92268Y-51183D01*
X92139Y-51130D01*
X92000Y-51129D01*
X91872Y-51183D01*
X91773Y-51281D01*
X91720Y-51410D01*
X91719Y-51549D01*
X91773Y-51678D01*
X91871Y-51776D01*
X92000Y-51829D01*
X92139Y-51830D01*
X92268Y-51776D01*
X92366Y-51678D01*
X92419Y-51549D01*
X92420Y-51410D01*
X92420Y-53678D01*
X92396Y-53622D01*
X92298Y-53523D01*
X92169Y-53470D01*
X92030Y-53469D01*
X91902Y-53523D01*
X91803Y-53621D01*
X91750Y-53750D01*
X91749Y-53889D01*
X91791Y-53990D01*
X91750Y-54090D01*
X91749Y-54229D01*
X91803Y-54358D01*
X91901Y-54456D01*
X92030Y-54509D01*
X92169Y-54510D01*
X92298Y-54456D01*
X92396Y-54358D01*
X92449Y-54229D01*
X92450Y-54090D01*
X92450Y-61020D01*
X92330Y-61020D01*
X92330Y-60090D01*
X92276Y-59962D01*
X92178Y-59863D01*
X92049Y-59810D01*
X91910Y-59809D01*
X91782Y-59863D01*
X91683Y-59961D01*
X91650Y-60041D01*
X91650Y-55320D01*
X91598Y-55194D01*
X91649Y-55069D01*
X91650Y-54930D01*
X91596Y-54802D01*
X91588Y-54793D01*
X91639Y-54669D01*
X91640Y-54530D01*
X91588Y-54404D01*
X91639Y-54279D01*
X91640Y-54140D01*
X91590Y-54019D01*
X91590Y-51140D01*
X91536Y-51012D01*
X91470Y-50945D01*
X91470Y-50130D01*
X91416Y-50002D01*
X91318Y-49903D01*
X91189Y-49850D01*
X91050Y-49849D01*
X90922Y-49903D01*
X90900Y-49925D01*
X90900Y-47880D01*
X90846Y-47752D01*
X90748Y-47653D01*
X90619Y-47600D01*
X90480Y-47599D01*
X90352Y-47653D01*
X90253Y-47751D01*
X90200Y-47880D01*
X90199Y-48019D01*
X90253Y-48148D01*
X90351Y-48246D01*
X90480Y-48299D01*
X90619Y-48300D01*
X90748Y-48246D01*
X90846Y-48148D01*
X90899Y-48019D01*
X90900Y-47880D01*
X90900Y-49925D01*
X90823Y-50001D01*
X90770Y-50130D01*
X90769Y-50269D01*
X90823Y-50398D01*
X90921Y-50496D01*
X91050Y-50549D01*
X91189Y-50550D01*
X91318Y-50496D01*
X91416Y-50398D01*
X91469Y-50269D01*
X91470Y-50130D01*
X91470Y-50945D01*
X91438Y-50913D01*
X91309Y-50860D01*
X91170Y-50859D01*
X91042Y-50913D01*
X90943Y-51011D01*
X90890Y-51140D01*
X90889Y-51279D01*
X90943Y-51408D01*
X91041Y-51506D01*
X91170Y-51559D01*
X91309Y-51560D01*
X91438Y-51506D01*
X91536Y-51408D01*
X91589Y-51279D01*
X91590Y-51140D01*
X91590Y-54019D01*
X91586Y-54012D01*
X91488Y-53913D01*
X91359Y-53860D01*
X91220Y-53859D01*
X91092Y-53913D01*
X90993Y-54011D01*
X90959Y-54093D01*
X90912Y-54113D01*
X90813Y-54211D01*
X90760Y-54340D01*
X90759Y-54479D01*
X90813Y-54608D01*
X90821Y-54616D01*
X90770Y-54740D01*
X90769Y-54879D01*
X90821Y-55003D01*
X90813Y-55011D01*
X90760Y-55140D01*
X90759Y-55279D01*
X90813Y-55408D01*
X90815Y-55409D01*
X90813Y-55411D01*
X90760Y-55540D01*
X90759Y-55679D01*
X90813Y-55808D01*
X90840Y-55834D01*
X90839Y-55959D01*
X90893Y-56088D01*
X90991Y-56186D01*
X91120Y-56239D01*
X91259Y-56240D01*
X91388Y-56186D01*
X91486Y-56088D01*
X91539Y-55959D01*
X91540Y-55820D01*
X91486Y-55692D01*
X91486Y-55691D01*
X91498Y-55686D01*
X91596Y-55588D01*
X91649Y-55459D01*
X91650Y-55320D01*
X91650Y-60041D01*
X91630Y-60090D01*
X91629Y-60229D01*
X91683Y-60358D01*
X91781Y-60456D01*
X91910Y-60509D01*
X92049Y-60510D01*
X92178Y-60456D01*
X92276Y-60358D01*
X92329Y-60229D01*
X92330Y-60090D01*
X92330Y-61020D01*
X90760Y-61020D01*
X90760Y-56370D01*
X90706Y-56242D01*
X90640Y-56175D01*
X90640Y-49190D01*
X90586Y-49062D01*
X90488Y-48963D01*
X90359Y-48910D01*
X90220Y-48909D01*
X90092Y-48963D01*
X89993Y-49061D01*
X89940Y-49190D01*
X89939Y-49329D01*
X89993Y-49458D01*
X90091Y-49556D01*
X90220Y-49609D01*
X90359Y-49610D01*
X90488Y-49556D01*
X90586Y-49458D01*
X90639Y-49329D01*
X90640Y-49190D01*
X90640Y-56175D01*
X90608Y-56143D01*
X90479Y-56090D01*
X90340Y-56089D01*
X90212Y-56143D01*
X90113Y-56241D01*
X90060Y-56370D01*
X90059Y-56509D01*
X90113Y-56638D01*
X90211Y-56736D01*
X90340Y-56789D01*
X90479Y-56790D01*
X90608Y-56736D01*
X90706Y-56638D01*
X90759Y-56509D01*
X90760Y-56370D01*
X90760Y-61020D01*
X90610Y-61020D01*
X90610Y-58870D01*
X90556Y-58742D01*
X90458Y-58643D01*
X90329Y-58590D01*
X90190Y-58589D01*
X90062Y-58643D01*
X89963Y-58741D01*
X89910Y-58870D01*
X89909Y-59009D01*
X89963Y-59138D01*
X90061Y-59236D01*
X90190Y-59289D01*
X90329Y-59290D01*
X90458Y-59236D01*
X90556Y-59138D01*
X90609Y-59009D01*
X90610Y-58870D01*
X90610Y-61020D01*
X90260Y-61020D01*
X90260Y-59910D01*
X90206Y-59782D01*
X90108Y-59683D01*
X89979Y-59630D01*
X89840Y-59629D01*
X89780Y-59654D01*
X89780Y-47400D01*
X89726Y-47272D01*
X89628Y-47173D01*
X89499Y-47120D01*
X89360Y-47119D01*
X89232Y-47173D01*
X89133Y-47271D01*
X89080Y-47400D01*
X89079Y-47539D01*
X89133Y-47668D01*
X89231Y-47766D01*
X89360Y-47819D01*
X89499Y-47820D01*
X89628Y-47766D01*
X89726Y-47668D01*
X89779Y-47539D01*
X89780Y-47400D01*
X89780Y-59654D01*
X89712Y-59683D01*
X89613Y-59781D01*
X89560Y-59910D01*
X89559Y-60049D01*
X89613Y-60178D01*
X89711Y-60276D01*
X89840Y-60329D01*
X89979Y-60330D01*
X90108Y-60276D01*
X90206Y-60178D01*
X90259Y-60049D01*
X90260Y-59910D01*
X90260Y-61020D01*
X89020Y-61020D01*
X89020Y-59384D01*
X89038Y-59376D01*
X89136Y-59278D01*
X89189Y-59149D01*
X89190Y-59010D01*
X89136Y-58882D01*
X89038Y-58783D01*
X89020Y-58775D01*
X89020Y-55429D01*
X89099Y-55430D01*
X89228Y-55376D01*
X89326Y-55278D01*
X89379Y-55149D01*
X89380Y-55010D01*
X89326Y-54882D01*
X89274Y-54829D01*
X89326Y-54778D01*
X89379Y-54649D01*
X89380Y-54510D01*
X89326Y-54382D01*
X89274Y-54329D01*
X89326Y-54278D01*
X89379Y-54149D01*
X89380Y-54010D01*
X89326Y-53882D01*
X89274Y-53829D01*
X89326Y-53778D01*
X89379Y-53649D01*
X89380Y-53510D01*
X89326Y-53382D01*
X89274Y-53329D01*
X89326Y-53278D01*
X89379Y-53149D01*
X89380Y-53010D01*
X89326Y-52882D01*
X89255Y-52809D01*
X89286Y-52778D01*
X89339Y-52649D01*
X89340Y-52510D01*
X89286Y-52382D01*
X89249Y-52344D01*
X89316Y-52278D01*
X89369Y-52149D01*
X89370Y-52010D01*
X89316Y-51882D01*
X89218Y-51783D01*
X89089Y-51730D01*
X89020Y-51729D01*
X89020Y-51700D01*
X89059Y-51700D01*
X89188Y-51646D01*
X89286Y-51548D01*
X89339Y-51419D01*
X89340Y-51280D01*
X89286Y-51152D01*
X89188Y-51053D01*
X89059Y-51000D01*
X89020Y-51000D01*
X89020Y-48519D01*
X89020Y-48519D01*
X89159Y-48520D01*
X89288Y-48466D01*
X89386Y-48368D01*
X89439Y-48239D01*
X89440Y-48100D01*
X89386Y-47972D01*
X89288Y-47873D01*
X89159Y-47820D01*
X89020Y-47819D01*
X89020Y-47820D01*
X89020Y-47020D01*
X91287Y-47020D01*
X91303Y-47058D01*
X91401Y-47156D01*
X91530Y-47209D01*
X91669Y-47210D01*
X91798Y-47156D01*
X91896Y-47058D01*
X91912Y-47020D01*
X92705Y-47020D01*
X92633Y-47091D01*
X92580Y-47220D01*
X92579Y-47359D01*
X92633Y-47488D01*
X92731Y-47586D01*
X92860Y-47639D01*
X92999Y-47640D01*
X93128Y-47586D01*
X93226Y-47488D01*
X93279Y-47359D01*
X93280Y-47220D01*
X93226Y-47092D01*
X93224Y-47090D01*
X93279Y-47090D01*
X93408Y-47036D01*
X93424Y-47020D01*
X95320Y-47020D01*
X95320Y-46593D01*
X95354Y-46677D01*
X95502Y-46824D01*
X95695Y-46904D01*
X95903Y-46905D01*
X96097Y-46825D01*
X96244Y-46677D01*
X96300Y-46544D01*
X96354Y-46677D01*
X96502Y-46824D01*
X96695Y-46904D01*
X96903Y-46905D01*
X97097Y-46825D01*
X97244Y-46677D01*
X97324Y-46484D01*
X97325Y-46276D01*
X97245Y-46083D01*
X97097Y-45935D01*
X96904Y-45855D01*
X96696Y-45854D01*
X96503Y-45934D01*
X96355Y-46082D01*
X96299Y-46215D01*
X96245Y-46083D01*
X96097Y-45935D01*
X95904Y-45855D01*
X95696Y-45854D01*
X95503Y-45934D01*
X95355Y-46082D01*
X95320Y-46166D01*
X95320Y-45820D01*
X103939Y-45820D01*
X103939Y-45878D01*
X104023Y-46081D01*
X104178Y-46235D01*
X104259Y-46269D01*
X104178Y-46303D01*
X104024Y-46458D01*
X103940Y-46660D01*
X103939Y-46878D01*
X104023Y-47081D01*
X104178Y-47235D01*
X104259Y-47269D01*
X104178Y-47303D01*
X104024Y-47458D01*
X103940Y-47660D01*
X103939Y-47878D01*
X104023Y-48081D01*
X104178Y-48235D01*
X104259Y-48269D01*
X104178Y-48303D01*
X104024Y-48458D01*
X103940Y-48660D01*
X103939Y-48878D01*
X104023Y-49081D01*
X104178Y-49235D01*
X104259Y-49269D01*
X104178Y-49303D01*
X104024Y-49458D01*
X103940Y-49660D01*
X103939Y-49878D01*
X104023Y-50081D01*
X104178Y-50235D01*
X104259Y-50269D01*
X104178Y-50303D01*
X104024Y-50458D01*
X103940Y-50660D01*
X103939Y-50878D01*
X104023Y-51081D01*
X104178Y-51235D01*
X104259Y-51269D01*
X104178Y-51303D01*
X104024Y-51458D01*
X103940Y-51660D01*
X103939Y-51878D01*
X104023Y-52081D01*
X104178Y-52235D01*
X104259Y-52269D01*
X104178Y-52303D01*
X104024Y-52458D01*
X103940Y-52660D01*
X103939Y-52878D01*
X104023Y-53081D01*
X104178Y-53235D01*
X104259Y-53269D01*
X104178Y-53303D01*
X104024Y-53458D01*
X103940Y-53660D01*
X103939Y-53878D01*
X104023Y-54081D01*
X104178Y-54235D01*
X104259Y-54269D01*
X104178Y-54303D01*
X104024Y-54458D01*
X103940Y-54660D01*
X103939Y-54878D01*
X104023Y-55081D01*
X104178Y-55235D01*
X104259Y-55269D01*
X104178Y-55303D01*
X104024Y-55458D01*
X103940Y-55660D01*
X103939Y-55878D01*
X104023Y-56081D01*
X104178Y-56235D01*
X104380Y-56319D01*
X104598Y-56320D01*
X104801Y-56236D01*
X104955Y-56081D01*
X104989Y-56000D01*
X105023Y-56081D01*
X105178Y-56235D01*
X105380Y-56319D01*
X105598Y-56320D01*
X105801Y-56236D01*
X105955Y-56081D01*
X106039Y-55879D01*
X106040Y-55661D01*
X105956Y-55458D01*
X105801Y-55304D01*
X105720Y-55270D01*
X105801Y-55236D01*
X105955Y-55081D01*
X106039Y-54879D01*
X106040Y-54661D01*
X105956Y-54458D01*
X105801Y-54304D01*
X105720Y-54270D01*
X105801Y-54236D01*
X105955Y-54081D01*
X106039Y-53879D01*
X106040Y-53661D01*
X105956Y-53458D01*
X105801Y-53304D01*
X105720Y-53270D01*
X105801Y-53236D01*
X105955Y-53081D01*
X106039Y-52879D01*
X106040Y-52661D01*
X105956Y-52458D01*
X105801Y-52304D01*
X105720Y-52270D01*
X105801Y-52236D01*
X105955Y-52081D01*
X106039Y-51879D01*
X106040Y-51661D01*
X105956Y-51458D01*
X105801Y-51304D01*
X105720Y-51270D01*
X105801Y-51236D01*
X105955Y-51081D01*
X106039Y-50879D01*
X106040Y-50661D01*
X105956Y-50458D01*
X105801Y-50304D01*
X105720Y-50270D01*
X105801Y-50236D01*
X105955Y-50081D01*
X106039Y-49879D01*
X106040Y-49661D01*
X105956Y-49458D01*
X105801Y-49304D01*
X105720Y-49270D01*
X105801Y-49236D01*
X105955Y-49081D01*
X106039Y-48879D01*
X106040Y-48661D01*
X105956Y-48458D01*
X105801Y-48304D01*
X105720Y-48270D01*
X105801Y-48236D01*
X105955Y-48081D01*
X106039Y-47879D01*
X106040Y-47661D01*
X105956Y-47458D01*
X105801Y-47304D01*
X105720Y-47270D01*
X105801Y-47236D01*
X105955Y-47081D01*
X106039Y-46879D01*
X106040Y-46661D01*
X105956Y-46458D01*
X105801Y-46304D01*
X105720Y-46270D01*
X105801Y-46236D01*
X105955Y-46081D01*
X106039Y-45879D01*
X106039Y-45820D01*
X106120Y-45820D01*
X106120Y-62220D01*
M02*
