G04 (created by PCBNEW (2013-07-07 BZR 4022)-stable) date 9/7/2014 5:26:02 PM*
%MOIN*%
G04 Gerber Fmt 3.4, Leading zero omitted, Abs format*
%FSLAX34Y34*%
G01*
G70*
G90*
G04 APERTURE LIST*
%ADD10C,0.00590551*%
%ADD11R,0.0315X0.0394*%
%ADD12R,0.035X0.055*%
%ADD13R,0.045X0.025*%
%ADD14R,0.025X0.045*%
%ADD15R,0.055X0.055*%
%ADD16C,0.055*%
%ADD17C,0.045*%
%ADD18R,0.06X0.06*%
%ADD19C,0.06*%
%ADD20R,0.07X0.06*%
%ADD21C,0.0314961*%
%ADD22C,0.07*%
%ADD23C,0.138*%
%ADD24C,0.02*%
%ADD25C,0.006*%
G04 APERTURE END LIST*
G54D10*
G54D11*
X90170Y-46597D03*
X89795Y-47463D03*
X90545Y-47463D03*
X89220Y-60843D03*
X89595Y-59977D03*
X88845Y-59977D03*
G54D12*
X96295Y-57380D03*
X97045Y-57380D03*
G54D13*
X88290Y-59980D03*
X88290Y-60580D03*
X91220Y-47460D03*
X91220Y-46860D03*
G54D14*
X96290Y-58070D03*
X96890Y-58070D03*
G54D15*
X72370Y-56770D03*
G54D16*
X73370Y-56770D03*
X74370Y-56770D03*
X75370Y-56770D03*
X76370Y-56770D03*
X77370Y-56770D03*
X78370Y-56770D03*
X79370Y-56770D03*
G54D15*
X72370Y-51570D03*
G54D16*
X73370Y-51570D03*
X74370Y-51570D03*
X75370Y-51570D03*
X76370Y-51570D03*
X77370Y-51570D03*
X78370Y-51570D03*
X79370Y-51570D03*
G54D15*
X60970Y-52770D03*
G54D16*
X60970Y-53770D03*
X60970Y-54770D03*
X60970Y-55770D03*
G54D15*
X108210Y-52310D03*
G54D16*
X108210Y-53310D03*
X108210Y-54310D03*
X108210Y-55310D03*
G54D15*
X97800Y-46380D03*
G54D16*
X96800Y-46380D03*
X95800Y-46380D03*
G54D15*
X75770Y-49470D03*
G54D16*
X74770Y-49470D03*
X73770Y-49470D03*
G54D15*
X73770Y-58870D03*
G54D16*
X74770Y-58870D03*
X75770Y-58870D03*
G54D17*
X70970Y-50670D03*
X82570Y-54670D03*
X82570Y-53670D03*
X79070Y-47670D03*
X77320Y-58280D03*
X70370Y-57770D03*
X62270Y-55770D03*
X62270Y-58770D03*
X62270Y-49770D03*
X62270Y-52770D03*
X79370Y-49570D03*
X79470Y-58300D03*
X87690Y-50270D03*
X86580Y-44710D03*
X86580Y-63860D03*
X87690Y-58270D03*
X72870Y-45960D03*
X71450Y-60040D03*
G54D18*
X102630Y-54520D03*
G54D19*
X102630Y-53520D03*
X102630Y-52520D03*
X102630Y-51520D03*
G54D18*
X103030Y-46540D03*
G54D19*
X103030Y-47540D03*
G54D18*
X101250Y-51550D03*
G54D19*
X101250Y-50550D03*
G54D18*
X105490Y-56770D03*
G54D19*
X104490Y-56770D03*
X105490Y-55770D03*
X104490Y-55770D03*
X105490Y-54770D03*
X104490Y-54770D03*
X105490Y-53770D03*
X104490Y-53770D03*
X105490Y-52770D03*
X104490Y-52770D03*
X105490Y-51770D03*
X104490Y-51770D03*
X105490Y-50770D03*
X104490Y-50770D03*
X105490Y-49770D03*
X104490Y-49770D03*
X105490Y-48770D03*
X104490Y-48770D03*
X105490Y-47770D03*
X104490Y-47770D03*
X105490Y-46770D03*
X104490Y-46770D03*
X105490Y-45770D03*
X104490Y-45770D03*
G54D20*
X87790Y-61950D03*
X87790Y-63290D03*
X87790Y-44010D03*
X87790Y-45350D03*
G54D21*
X86230Y-54920D03*
X86230Y-52999D03*
G54D22*
X89220Y-45710D03*
X91220Y-45710D03*
X92220Y-45710D03*
X93220Y-45710D03*
X93220Y-43710D03*
X92220Y-43710D03*
X91220Y-43710D03*
X89220Y-43710D03*
X89220Y-63700D03*
X91220Y-63700D03*
X92220Y-63700D03*
X93220Y-63700D03*
X93220Y-61700D03*
X92220Y-61700D03*
X91220Y-61700D03*
X89220Y-61700D03*
G54D18*
X94990Y-45180D03*
G54D19*
X94990Y-44180D03*
G54D18*
X94930Y-63200D03*
G54D19*
X94930Y-62200D03*
G54D14*
X70020Y-54580D03*
X70620Y-54580D03*
X69710Y-53880D03*
X70310Y-53880D03*
G54D17*
X82180Y-63490D03*
X70370Y-44560D03*
X78940Y-60200D03*
X82670Y-46610D03*
X71900Y-44870D03*
X64500Y-43840D03*
X101110Y-45060D03*
X99470Y-46170D03*
X104040Y-59400D03*
X75520Y-54910D03*
X75030Y-63190D03*
X101640Y-57890D03*
G54D18*
X62300Y-46830D03*
G54D19*
X62300Y-45830D03*
X62300Y-44830D03*
X62300Y-43830D03*
X62300Y-42830D03*
G54D23*
X61750Y-63750D03*
X108000Y-43000D03*
X108000Y-63750D03*
X66750Y-46750D03*
G54D24*
X90720Y-57100D03*
X91290Y-56820D03*
X98530Y-56220D03*
X91990Y-50590D03*
X98410Y-51090D03*
X99620Y-48380D03*
X99630Y-47070D03*
X96580Y-57270D03*
X90550Y-47950D03*
X88840Y-59080D03*
X70600Y-53760D03*
X89240Y-42250D03*
X70070Y-57330D03*
X70710Y-54090D03*
X89250Y-65020D03*
X96670Y-56010D03*
X78880Y-51060D03*
X78310Y-57890D03*
X96870Y-56250D03*
X99580Y-47990D03*
X94110Y-47650D03*
X100020Y-49340D03*
X94110Y-48000D03*
X74970Y-53720D03*
X99720Y-57120D03*
X100330Y-57130D03*
X74390Y-57890D03*
X92100Y-54160D03*
X91240Y-51210D03*
X92070Y-51480D03*
X92100Y-53820D03*
X100230Y-50520D03*
X103350Y-55130D03*
X96100Y-54670D03*
X94470Y-56230D03*
X94700Y-56010D03*
X85500Y-52860D03*
X74460Y-52990D03*
X89090Y-48170D03*
X71970Y-49060D03*
X71320Y-49310D03*
X88400Y-49200D03*
X92930Y-47290D03*
X93210Y-46740D03*
X102730Y-61600D03*
X97070Y-60430D03*
X97990Y-61600D03*
X87380Y-57180D03*
X91990Y-48560D03*
X106960Y-48150D03*
X106960Y-49120D03*
X106960Y-52130D03*
X100330Y-58280D03*
X99720Y-58280D03*
X91600Y-46860D03*
X88290Y-60860D03*
X89430Y-47470D03*
X99230Y-47750D03*
X99230Y-49170D03*
X98210Y-51340D03*
X98700Y-50060D03*
X100110Y-53120D03*
X99390Y-55820D03*
X96080Y-56250D03*
X97810Y-59100D03*
X95690Y-60680D03*
X91980Y-60160D03*
X90260Y-58940D03*
X89910Y-59980D03*
X91190Y-55890D03*
X90410Y-56440D03*
X92530Y-50210D03*
X91120Y-50200D03*
X90290Y-49260D03*
X87136Y-51382D03*
X98300Y-50060D03*
X85130Y-53830D03*
X87110Y-56490D03*
X97370Y-57560D03*
X97190Y-58200D03*
X80170Y-50410D03*
X80830Y-50410D03*
X86580Y-47650D03*
X86580Y-48540D03*
X79990Y-62860D03*
X82320Y-56630D03*
X86580Y-59990D03*
X86580Y-60830D03*
X80820Y-58430D03*
X79620Y-60410D03*
X80820Y-45900D03*
X80820Y-54990D03*
X80820Y-52410D03*
X78770Y-53560D03*
X77390Y-52670D03*
X77370Y-55670D03*
X76660Y-58240D03*
X77320Y-63320D03*
X79440Y-62360D03*
X77820Y-59820D03*
X67260Y-59870D03*
X67250Y-62670D03*
X71470Y-62770D03*
X71580Y-58470D03*
X77800Y-49820D03*
X77420Y-44420D03*
X77320Y-47640D03*
X71970Y-45920D03*
X63070Y-56870D03*
X63070Y-57670D03*
X63070Y-50870D03*
X63070Y-51670D03*
X71370Y-56960D03*
X67530Y-53470D03*
X68590Y-51720D03*
X68670Y-47090D03*
X98350Y-53530D03*
X100000Y-55240D03*
X97310Y-55000D03*
X99990Y-54240D03*
X97310Y-54210D03*
X96520Y-59550D03*
X94770Y-57100D03*
X98110Y-53410D03*
X98180Y-53090D03*
X97330Y-53030D03*
X91290Y-54210D03*
X88990Y-51350D03*
X89030Y-55080D03*
X91110Y-55610D03*
X89030Y-54580D03*
X91300Y-55390D03*
X89020Y-52080D03*
X91110Y-54410D03*
X88990Y-52580D03*
X91290Y-54600D03*
X89030Y-53080D03*
X91120Y-54810D03*
X89030Y-53580D03*
X91300Y-55000D03*
X89030Y-54080D03*
X91110Y-55210D03*
X93520Y-59090D03*
X95100Y-57100D03*
X94020Y-59090D03*
X95290Y-57280D03*
X94520Y-59080D03*
X95490Y-57080D03*
X95020Y-59080D03*
X95690Y-57270D03*
X99990Y-54790D03*
X97070Y-54800D03*
X100000Y-53750D03*
X97130Y-54020D03*
X96410Y-54220D03*
X96660Y-53950D03*
X93310Y-51010D03*
X93910Y-51010D03*
X98030Y-48360D03*
X95490Y-50180D03*
X97530Y-48360D03*
X95270Y-50040D03*
X97030Y-48360D03*
X95090Y-50230D03*
X96530Y-48360D03*
X94880Y-49810D03*
X96030Y-48360D03*
X94700Y-50150D03*
X95530Y-48360D03*
X94430Y-49960D03*
X95030Y-48360D03*
X94310Y-50210D03*
X94530Y-48360D03*
X94030Y-50130D03*
X70130Y-55020D03*
X70790Y-53400D03*
X70490Y-52470D03*
X68310Y-52270D03*
X74880Y-47620D03*
X78350Y-45000D03*
X79850Y-61990D03*
X80830Y-49320D03*
X78520Y-49090D03*
X71370Y-55740D03*
X68880Y-60360D03*
X78570Y-63610D03*
X85010Y-63910D03*
X77780Y-53670D03*
X78370Y-55170D03*
X84060Y-55450D03*
X84930Y-51610D03*
X68680Y-45390D03*
X83300Y-43770D03*
X83470Y-59600D03*
X71500Y-48870D03*
X80020Y-52920D03*
X76400Y-59700D03*
X70900Y-61910D03*
X69020Y-52920D03*
X76820Y-44420D03*
X79970Y-48920D03*
X83470Y-47270D03*
X83470Y-47870D03*
G54D25*
X96470Y-57380D02*
X96295Y-57380D01*
X96580Y-57270D02*
X96470Y-57380D01*
X96295Y-57380D02*
X96290Y-57385D01*
X96290Y-57385D02*
X96290Y-58070D01*
X87790Y-63290D02*
X88320Y-63290D01*
X88730Y-63700D02*
X89220Y-63700D01*
X88320Y-63290D02*
X88730Y-63700D01*
X87790Y-45350D02*
X88020Y-45350D01*
X88380Y-45710D02*
X89220Y-45710D01*
X88020Y-45350D02*
X88380Y-45710D01*
X91220Y-47460D02*
X90548Y-47460D01*
X90548Y-47460D02*
X90545Y-47463D01*
X90545Y-47945D02*
X90545Y-47463D01*
X90550Y-47950D02*
X90545Y-47945D01*
X88290Y-59980D02*
X88842Y-59980D01*
X88842Y-59980D02*
X88845Y-59977D01*
X88845Y-59085D02*
X88845Y-59977D01*
X88840Y-59080D02*
X88845Y-59085D01*
X70310Y-53880D02*
X70480Y-53880D01*
X70480Y-53880D02*
X70600Y-53760D01*
X92260Y-44750D02*
X93220Y-45710D01*
X90890Y-44750D02*
X92260Y-44750D01*
X90220Y-44080D02*
X90890Y-44750D01*
X90220Y-43230D02*
X90220Y-44080D01*
X89240Y-42250D02*
X90220Y-43230D01*
X70620Y-54580D02*
X70620Y-56780D01*
X70620Y-56780D02*
X70070Y-57330D01*
X70620Y-54580D02*
X70620Y-54180D01*
X70620Y-54180D02*
X70710Y-54090D01*
X93220Y-61700D02*
X92170Y-62750D01*
X90790Y-62750D02*
X92170Y-62750D01*
X90060Y-63480D02*
X90790Y-62750D01*
X90060Y-64210D02*
X90060Y-63480D01*
X90060Y-64210D02*
X89250Y-65020D01*
X78890Y-52990D02*
X78890Y-51930D01*
X78890Y-52990D02*
X79120Y-53220D01*
X79120Y-53220D02*
X79120Y-55700D01*
X79120Y-55700D02*
X79970Y-56550D01*
X79970Y-56550D02*
X79970Y-57069D01*
X79970Y-57069D02*
X80300Y-57399D01*
X80300Y-57399D02*
X93880Y-57399D01*
X93880Y-57399D02*
X95280Y-56000D01*
X95280Y-56000D02*
X96660Y-56000D01*
X96660Y-56000D02*
X96670Y-56010D01*
X78940Y-51120D02*
X78880Y-51060D01*
X78940Y-51880D02*
X78940Y-51120D01*
X78890Y-51930D02*
X78940Y-51880D01*
X78310Y-57890D02*
X78580Y-57890D01*
X78580Y-57890D02*
X79100Y-57890D01*
X79100Y-57890D02*
X79200Y-57890D01*
X79200Y-57890D02*
X79570Y-57520D01*
X79570Y-57520D02*
X93930Y-57520D01*
X93930Y-57520D02*
X94800Y-56650D01*
X94800Y-56650D02*
X96470Y-56650D01*
X96470Y-56650D02*
X96870Y-56250D01*
X99510Y-48060D02*
X99580Y-47990D01*
X99080Y-48060D02*
X99510Y-48060D01*
X98670Y-47650D02*
X99080Y-48060D01*
X94110Y-47650D02*
X98670Y-47650D01*
X98670Y-47990D02*
X100020Y-49340D01*
X94120Y-47990D02*
X98670Y-47990D01*
X94110Y-48000D02*
X94120Y-47990D01*
X74820Y-53870D02*
X74820Y-57390D01*
X74970Y-53720D02*
X74820Y-53870D01*
X74820Y-57390D02*
X74880Y-57450D01*
X99360Y-57480D02*
X99720Y-57120D01*
X99360Y-59430D02*
X99360Y-57480D01*
X98990Y-59799D02*
X99360Y-59430D01*
X90169Y-59799D02*
X98990Y-59799D01*
X89039Y-58669D02*
X90169Y-59799D01*
X88510Y-58669D02*
X89039Y-58669D01*
X88400Y-58779D02*
X88510Y-58669D01*
X88230Y-58779D02*
X88400Y-58779D01*
X84770Y-58779D02*
X88230Y-58779D01*
X78849Y-58779D02*
X84770Y-58779D01*
X77749Y-57679D02*
X78849Y-58779D01*
X75109Y-57679D02*
X77749Y-57679D01*
X74820Y-57390D02*
X74880Y-57450D01*
X74880Y-57450D02*
X75109Y-57679D01*
X74760Y-57800D02*
X74480Y-57800D01*
X74760Y-57800D02*
X77700Y-57800D01*
X77700Y-57800D02*
X78800Y-58900D01*
X78800Y-58900D02*
X79340Y-58900D01*
X79340Y-58900D02*
X81500Y-58900D01*
X81500Y-58900D02*
X88450Y-58900D01*
X88450Y-58900D02*
X88560Y-58790D01*
X88560Y-58790D02*
X88990Y-58790D01*
X88990Y-58790D02*
X90120Y-59920D01*
X90120Y-59920D02*
X99680Y-59920D01*
X99680Y-59920D02*
X100070Y-59530D01*
X100070Y-59530D02*
X100070Y-57390D01*
X100070Y-57390D02*
X100330Y-57130D01*
X74480Y-57800D02*
X74390Y-57890D01*
X103800Y-55460D02*
X103940Y-55460D01*
X105050Y-55330D02*
X105490Y-55770D01*
X104069Y-55330D02*
X105050Y-55330D01*
X103940Y-55460D02*
X104069Y-55330D01*
X99750Y-55460D02*
X103800Y-55460D01*
X103800Y-55460D02*
X103810Y-55460D01*
X99560Y-55270D02*
X99750Y-55460D01*
X93210Y-55270D02*
X99560Y-55270D01*
X92100Y-54160D02*
X93210Y-55270D01*
X100710Y-49840D02*
X102690Y-49840D01*
X102760Y-49910D02*
X103770Y-50920D01*
X103770Y-50920D02*
X103770Y-51920D01*
X103770Y-51920D02*
X104120Y-52270D01*
X104120Y-52270D02*
X104990Y-52270D01*
X105490Y-52770D02*
X104990Y-52270D01*
X97960Y-49840D02*
X100710Y-49840D01*
X96415Y-51385D02*
X97520Y-50279D01*
X92475Y-51385D02*
X96415Y-51385D01*
X92300Y-51210D02*
X92475Y-51385D01*
X91240Y-51210D02*
X92300Y-51210D01*
X97520Y-50279D02*
X97960Y-49840D01*
X102690Y-49840D02*
X102760Y-49910D01*
X97570Y-50400D02*
X97710Y-50260D01*
X100859Y-50030D02*
X102710Y-50030D01*
X102710Y-50030D02*
X103649Y-50969D01*
X103649Y-50969D02*
X103649Y-54819D01*
X103649Y-54819D02*
X104040Y-55210D01*
X104040Y-55210D02*
X105050Y-55210D01*
X105490Y-54770D02*
X105050Y-55210D01*
X96350Y-51505D02*
X96464Y-51505D01*
X92070Y-51480D02*
X92095Y-51505D01*
X92095Y-51505D02*
X96350Y-51505D01*
X96464Y-51505D02*
X97570Y-50400D01*
X99579Y-50030D02*
X100859Y-50030D01*
X99350Y-50260D02*
X99579Y-50030D01*
X97710Y-50260D02*
X99350Y-50260D01*
X95960Y-51850D02*
X96490Y-51850D01*
X94070Y-51850D02*
X94610Y-51850D01*
X92100Y-53820D02*
X94070Y-51850D01*
X95960Y-51850D02*
X94610Y-51850D01*
X97820Y-50520D02*
X100230Y-50520D01*
X96490Y-51850D02*
X97820Y-50520D01*
X102060Y-55130D02*
X103350Y-55130D01*
X101440Y-54510D02*
X102060Y-55130D01*
X96260Y-54510D02*
X101440Y-54510D01*
X96100Y-54670D02*
X96260Y-54510D01*
X86230Y-54920D02*
X86230Y-54920D01*
X87350Y-54920D02*
X86230Y-54920D01*
X87830Y-55400D02*
X87350Y-54920D01*
X88460Y-56030D02*
X87830Y-55400D01*
X88660Y-56230D02*
X88460Y-56030D01*
X88770Y-56230D02*
X88660Y-56230D01*
X90020Y-56230D02*
X88770Y-56230D01*
X90620Y-56230D02*
X90020Y-56230D01*
X91980Y-56230D02*
X90620Y-56230D01*
X92820Y-56230D02*
X91980Y-56230D01*
X94010Y-56230D02*
X92820Y-56230D01*
X94470Y-56230D02*
X94010Y-56230D01*
X94040Y-56010D02*
X94700Y-56010D01*
X93960Y-56090D02*
X94040Y-56010D01*
X88730Y-56090D02*
X93960Y-56090D01*
X85500Y-52860D02*
X88730Y-56090D01*
X74300Y-50630D02*
X73870Y-51060D01*
X73870Y-52400D02*
X74460Y-52990D01*
X73870Y-51060D02*
X73870Y-52400D01*
X89090Y-48170D02*
X89080Y-48170D01*
X89080Y-48170D02*
X88920Y-48330D01*
X88920Y-48330D02*
X74870Y-48330D01*
X74870Y-48330D02*
X74300Y-48900D01*
X74300Y-48900D02*
X74300Y-50630D01*
X74300Y-50630D02*
X74300Y-50640D01*
X91220Y-46860D02*
X91600Y-46860D01*
X88290Y-60580D02*
X88290Y-60860D01*
X89795Y-47463D02*
X89437Y-47463D01*
X89437Y-47463D02*
X89430Y-47470D01*
X89595Y-59977D02*
X89907Y-59977D01*
X89907Y-59977D02*
X89910Y-59980D01*
X96890Y-58070D02*
X97060Y-58070D01*
X97060Y-58070D02*
X97190Y-58200D01*
X97045Y-57380D02*
X97190Y-57380D01*
X97190Y-57380D02*
X97370Y-57560D01*
X71350Y-56980D02*
X71350Y-57040D01*
X71370Y-56960D02*
X71350Y-56980D01*
X101960Y-54520D02*
X102630Y-54520D01*
X100920Y-53480D02*
X101960Y-54520D01*
X98400Y-53480D02*
X100920Y-53480D01*
X98350Y-53530D02*
X98400Y-53480D01*
X99760Y-55000D02*
X100000Y-55240D01*
X98460Y-55000D02*
X99760Y-55000D01*
X97310Y-55000D02*
X98460Y-55000D01*
X99660Y-53910D02*
X99990Y-54240D01*
X97610Y-53910D02*
X99660Y-53910D01*
X97310Y-54210D02*
X97610Y-53910D01*
X96520Y-59550D02*
X93570Y-59550D01*
X93570Y-59550D02*
X93320Y-59300D01*
X93320Y-59300D02*
X93320Y-58710D01*
X93320Y-58710D02*
X94770Y-57260D01*
X94770Y-57260D02*
X94770Y-57100D01*
X102620Y-53510D02*
X102630Y-53520D01*
X101430Y-53510D02*
X102620Y-53510D01*
X101240Y-53320D02*
X101430Y-53510D01*
X100350Y-53320D02*
X101240Y-53320D01*
X98200Y-53320D02*
X100350Y-53320D01*
X98110Y-53410D02*
X98200Y-53320D01*
X102270Y-52880D02*
X102630Y-52520D01*
X98390Y-52880D02*
X102270Y-52880D01*
X98180Y-53090D02*
X98390Y-52880D01*
X101510Y-52640D02*
X102630Y-51520D01*
X97720Y-52640D02*
X101510Y-52640D01*
X97330Y-53030D02*
X97720Y-52640D01*
X89720Y-51590D02*
X89720Y-51500D01*
X91290Y-54210D02*
X89720Y-52640D01*
X89720Y-52640D02*
X89720Y-51590D01*
X89570Y-51350D02*
X88990Y-51350D01*
X89720Y-51500D02*
X89570Y-51350D01*
X90530Y-55080D02*
X89030Y-55080D01*
X91050Y-55600D02*
X90530Y-55080D01*
X91100Y-55600D02*
X91050Y-55600D01*
X91110Y-55610D02*
X91100Y-55600D01*
X90200Y-54580D02*
X89030Y-54580D01*
X91030Y-55410D02*
X90200Y-54580D01*
X91280Y-55410D02*
X91030Y-55410D01*
X91300Y-55390D02*
X91280Y-55410D01*
X89270Y-52080D02*
X89020Y-52080D01*
X89440Y-52250D02*
X89270Y-52080D01*
X89440Y-52740D02*
X89440Y-52250D01*
X91110Y-54410D02*
X89440Y-52740D01*
X89010Y-52580D02*
X88990Y-52580D01*
X91040Y-54610D02*
X89010Y-52580D01*
X91280Y-54610D02*
X91040Y-54610D01*
X91290Y-54600D02*
X91280Y-54610D01*
X89340Y-53080D02*
X89030Y-53080D01*
X91060Y-54800D02*
X89340Y-53080D01*
X91110Y-54800D02*
X91060Y-54800D01*
X91120Y-54810D02*
X91110Y-54800D01*
X89610Y-53580D02*
X89030Y-53580D01*
X91040Y-55010D02*
X89610Y-53580D01*
X91290Y-55010D02*
X91040Y-55010D01*
X91300Y-55000D02*
X91290Y-55010D01*
X89940Y-54080D02*
X89030Y-54080D01*
X91060Y-55200D02*
X89940Y-54080D01*
X91100Y-55200D02*
X91060Y-55200D01*
X91110Y-55210D02*
X91100Y-55200D01*
X93520Y-58680D02*
X93520Y-59090D01*
X95100Y-57100D02*
X93520Y-58680D01*
X94020Y-58550D02*
X94020Y-59090D01*
X95290Y-57280D02*
X94020Y-58550D01*
X94520Y-58360D02*
X94520Y-59080D01*
X95490Y-57390D02*
X94520Y-58360D01*
X95490Y-57080D02*
X95490Y-57390D01*
X95020Y-58140D02*
X95020Y-59080D01*
X95680Y-57480D02*
X95020Y-58140D01*
X95680Y-57280D02*
X95680Y-57480D01*
X95690Y-57270D02*
X95680Y-57280D01*
X98820Y-54790D02*
X99990Y-54790D01*
X98810Y-54800D02*
X98820Y-54790D01*
X98240Y-54800D02*
X98810Y-54800D01*
X97070Y-54800D02*
X98240Y-54800D01*
X99990Y-53740D02*
X100000Y-53750D01*
X97410Y-53740D02*
X99990Y-53740D01*
X97130Y-54020D02*
X97410Y-53740D01*
X100270Y-50860D02*
X100940Y-50860D01*
X100940Y-50860D02*
X101250Y-50550D01*
X96410Y-54220D02*
X96400Y-54210D01*
X96400Y-54210D02*
X96400Y-52390D01*
X96400Y-52390D02*
X97930Y-50860D01*
X97930Y-50860D02*
X100270Y-50860D01*
X100270Y-50860D02*
X100290Y-50860D01*
X98200Y-51550D02*
X101250Y-51550D01*
X96660Y-53090D02*
X98200Y-51550D01*
X96660Y-53950D02*
X96660Y-53090D01*
X93910Y-51010D02*
X93310Y-51010D01*
X98030Y-49550D02*
X98030Y-48360D01*
X97400Y-50180D02*
X98030Y-49550D01*
X96050Y-50180D02*
X97400Y-50180D01*
X95490Y-50180D02*
X96050Y-50180D01*
X97530Y-49490D02*
X97530Y-48360D01*
X97120Y-49900D02*
X97530Y-49490D01*
X95410Y-49900D02*
X97120Y-49900D01*
X95270Y-50040D02*
X95410Y-49900D01*
X97030Y-49320D02*
X97030Y-48360D01*
X96640Y-49710D02*
X97030Y-49320D01*
X95270Y-49710D02*
X96640Y-49710D01*
X95040Y-49940D02*
X95270Y-49710D01*
X95040Y-50180D02*
X95040Y-49940D01*
X95090Y-50230D02*
X95040Y-50180D01*
X96530Y-48970D02*
X96530Y-48360D01*
X95940Y-49560D02*
X96530Y-48970D01*
X95130Y-49560D02*
X95940Y-49560D01*
X94880Y-49810D02*
X95130Y-49560D01*
X96030Y-49030D02*
X96030Y-48360D01*
X95660Y-49400D02*
X96030Y-49030D01*
X94990Y-49400D02*
X95660Y-49400D01*
X94630Y-49760D02*
X94990Y-49400D01*
X94630Y-50080D02*
X94630Y-49760D01*
X94700Y-50150D02*
X94630Y-50080D01*
X95530Y-48960D02*
X95530Y-48360D01*
X95310Y-49180D02*
X95530Y-48960D01*
X94870Y-49180D02*
X95310Y-49180D01*
X94430Y-49620D02*
X94870Y-49180D01*
X94430Y-49960D02*
X94430Y-49620D01*
X95030Y-48690D02*
X95030Y-48360D01*
X94220Y-49500D02*
X95030Y-48690D01*
X94220Y-50120D02*
X94220Y-49500D01*
X94310Y-50210D02*
X94220Y-50120D01*
X94530Y-48850D02*
X94530Y-48360D01*
X94030Y-49350D02*
X94530Y-48850D01*
X94030Y-50130D02*
X94030Y-49350D01*
X90170Y-46597D02*
X90170Y-44660D01*
X90170Y-44660D02*
X89220Y-43710D01*
X87790Y-44010D02*
X88260Y-44010D01*
X88560Y-43710D02*
X89220Y-43710D01*
X88260Y-44010D02*
X88560Y-43710D01*
X89220Y-60843D02*
X89220Y-61700D01*
X89230Y-61690D02*
X89220Y-61700D01*
X87790Y-61950D02*
X88340Y-61950D01*
X88590Y-61700D02*
X89220Y-61700D01*
X88340Y-61950D02*
X88590Y-61700D01*
X70020Y-54910D02*
X70020Y-54580D01*
X70130Y-55020D02*
X70020Y-54910D01*
X69710Y-53590D02*
X69710Y-53880D01*
X69900Y-53400D02*
X69710Y-53590D01*
X70790Y-53400D02*
X69900Y-53400D01*
X68510Y-52470D02*
X70490Y-52470D01*
X68310Y-52270D02*
X68510Y-52470D01*
X75730Y-47620D02*
X74880Y-47620D01*
X78350Y-45000D02*
X75730Y-47620D01*
M02*
