G04 (created by PCBNEW (2013-07-07 BZR 4022)-stable) date 9/7/2014 5:26:02 PM*
%MOIN*%
G04 Gerber Fmt 3.4, Leading zero omitted, Abs format*
%FSLAX34Y34*%
G01*
G70*
G90*
G04 APERTURE LIST*
%ADD10C,0.00590551*%
%ADD11C,0.0031*%
%ADD12C,0.0039*%
%ADD13C,0.005*%
%ADD14C,0.0047*%
%ADD15C,0.0043*%
%ADD16C,0.0045*%
G04 APERTURE END LIST*
G54D10*
G54D11*
X90695Y-47168D02*
G75*
G03X90695Y-47168I-62J0D01*
G74*
G01*
X89670Y-46830D02*
X89670Y-47230D01*
X90695Y-46830D02*
X90695Y-47230D01*
X89670Y-47230D02*
X90695Y-47230D01*
X90695Y-46830D02*
X89670Y-46830D01*
X88819Y-60272D02*
G75*
G03X88819Y-60272I-62J0D01*
G74*
G01*
X89720Y-60610D02*
X89720Y-60210D01*
X88695Y-60610D02*
X88695Y-60210D01*
X89720Y-60210D02*
X88695Y-60210D01*
X88695Y-60610D02*
X89720Y-60610D01*
G54D12*
X96070Y-57080D02*
G75*
G03X96070Y-57080I-50J0D01*
G74*
G01*
X96470Y-57080D02*
X96070Y-57080D01*
X96070Y-57080D02*
X96070Y-57680D01*
X96070Y-57680D02*
X96470Y-57680D01*
X96870Y-57680D02*
X97270Y-57680D01*
X97270Y-57680D02*
X97270Y-57080D01*
X97270Y-57080D02*
X96870Y-57080D01*
G54D13*
X88015Y-60083D02*
X88015Y-59805D01*
X88015Y-59805D02*
X88565Y-59805D01*
X88565Y-59805D02*
X88565Y-60083D01*
X88015Y-60755D02*
X88015Y-60477D01*
X88015Y-60755D02*
X88565Y-60755D01*
X88565Y-60755D02*
X88565Y-60477D01*
X91495Y-47357D02*
X91495Y-47635D01*
X91495Y-47635D02*
X90945Y-47635D01*
X90945Y-47635D02*
X90945Y-47357D01*
X91495Y-46685D02*
X91495Y-46963D01*
X91495Y-46685D02*
X90945Y-46685D01*
X90945Y-46685D02*
X90945Y-46963D01*
G54D14*
X96787Y-57814D02*
X97062Y-57814D01*
X96393Y-57814D02*
X96118Y-57814D01*
X96787Y-58326D02*
X97062Y-58326D01*
X96118Y-58326D02*
X96393Y-58326D01*
X97062Y-58320D02*
X97062Y-57820D01*
X96118Y-57820D02*
X96118Y-58320D01*
G54D10*
X88540Y-63670D02*
G75*
G03X88540Y-63670I-50J0D01*
G74*
G01*
X88390Y-62870D02*
X87190Y-62870D01*
X88390Y-63220D02*
X88240Y-63220D01*
X87340Y-62020D02*
X87190Y-62020D01*
X87190Y-62020D02*
X87190Y-63220D01*
X87190Y-63220D02*
X87340Y-63220D01*
X88390Y-63220D02*
X88390Y-62020D01*
X88390Y-62020D02*
X88240Y-62020D01*
X88540Y-45730D02*
G75*
G03X88540Y-45730I-50J0D01*
G74*
G01*
X88390Y-44930D02*
X87190Y-44930D01*
X88390Y-45280D02*
X88240Y-45280D01*
X87340Y-44080D02*
X87190Y-44080D01*
X87190Y-44080D02*
X87190Y-45280D01*
X87190Y-45280D02*
X87340Y-45280D01*
X88390Y-45280D02*
X88390Y-44080D01*
X88390Y-44080D02*
X88240Y-44080D01*
G54D13*
X70123Y-54855D02*
X69845Y-54855D01*
X69845Y-54855D02*
X69845Y-54305D01*
X69845Y-54305D02*
X70123Y-54305D01*
X70795Y-54855D02*
X70517Y-54855D01*
X70795Y-54855D02*
X70795Y-54305D01*
X70795Y-54305D02*
X70517Y-54305D01*
X69813Y-54155D02*
X69535Y-54155D01*
X69535Y-54155D02*
X69535Y-53605D01*
X69535Y-53605D02*
X69813Y-53605D01*
X70485Y-54155D02*
X70207Y-54155D01*
X70485Y-54155D02*
X70485Y-53605D01*
X70485Y-53605D02*
X70207Y-53605D01*
G54D14*
X89411Y-47141D02*
X89440Y-47126D01*
X89468Y-47098D01*
X89511Y-47055D01*
X89540Y-47041D01*
X89568Y-47041D01*
X89554Y-47112D02*
X89583Y-47098D01*
X89611Y-47069D01*
X89625Y-47012D01*
X89625Y-46912D01*
X89611Y-46855D01*
X89583Y-46826D01*
X89554Y-46812D01*
X89497Y-46812D01*
X89468Y-46826D01*
X89440Y-46855D01*
X89425Y-46912D01*
X89425Y-47012D01*
X89440Y-47069D01*
X89468Y-47098D01*
X89497Y-47112D01*
X89554Y-47112D01*
X89154Y-46812D02*
X89297Y-46812D01*
X89311Y-46955D01*
X89297Y-46941D01*
X89268Y-46926D01*
X89197Y-46926D01*
X89168Y-46941D01*
X89154Y-46955D01*
X89140Y-46983D01*
X89140Y-47055D01*
X89154Y-47083D01*
X89168Y-47098D01*
X89197Y-47112D01*
X89268Y-47112D01*
X89297Y-47098D01*
X89311Y-47083D01*
X90157Y-60420D02*
X90142Y-60391D01*
X90114Y-60363D01*
X90071Y-60320D01*
X90057Y-60291D01*
X90057Y-60263D01*
X90128Y-60277D02*
X90114Y-60249D01*
X90085Y-60220D01*
X90028Y-60206D01*
X89928Y-60206D01*
X89871Y-60220D01*
X89842Y-60249D01*
X89828Y-60277D01*
X89828Y-60334D01*
X89842Y-60363D01*
X89871Y-60391D01*
X89928Y-60406D01*
X90028Y-60406D01*
X90085Y-60391D01*
X90114Y-60363D01*
X90128Y-60334D01*
X90128Y-60277D01*
X89828Y-60663D02*
X89828Y-60606D01*
X89842Y-60577D01*
X89857Y-60563D01*
X89899Y-60534D01*
X89957Y-60520D01*
X90071Y-60520D01*
X90099Y-60534D01*
X90114Y-60549D01*
X90128Y-60577D01*
X90128Y-60634D01*
X90114Y-60663D01*
X90099Y-60677D01*
X90071Y-60691D01*
X89999Y-60691D01*
X89971Y-60677D01*
X89957Y-60663D01*
X89942Y-60634D01*
X89942Y-60577D01*
X89957Y-60549D01*
X89971Y-60534D01*
X89999Y-60520D01*
G54D15*
X97716Y-57460D02*
X97726Y-57470D01*
X97754Y-57479D01*
X97772Y-57479D01*
X97801Y-57470D01*
X97819Y-57451D01*
X97829Y-57432D01*
X97838Y-57395D01*
X97838Y-57367D01*
X97829Y-57329D01*
X97819Y-57310D01*
X97801Y-57292D01*
X97772Y-57282D01*
X97754Y-57282D01*
X97726Y-57292D01*
X97716Y-57301D01*
X97538Y-57282D02*
X97632Y-57282D01*
X97641Y-57376D01*
X97632Y-57367D01*
X97613Y-57357D01*
X97566Y-57357D01*
X97547Y-57367D01*
X97538Y-57376D01*
X97529Y-57395D01*
X97529Y-57442D01*
X97538Y-57460D01*
X97547Y-57470D01*
X97566Y-57479D01*
X97613Y-57479D01*
X97632Y-57470D01*
X97641Y-57460D01*
X97453Y-57301D02*
X97444Y-57292D01*
X97425Y-57282D01*
X97378Y-57282D01*
X97360Y-57292D01*
X97350Y-57301D01*
X97341Y-57320D01*
X97341Y-57339D01*
X97350Y-57367D01*
X97463Y-57479D01*
X97341Y-57479D01*
G54D16*
X88405Y-61129D02*
X88465Y-61035D01*
X88508Y-61129D02*
X88508Y-60932D01*
X88440Y-60932D01*
X88422Y-60942D01*
X88414Y-60951D01*
X88405Y-60970D01*
X88405Y-60998D01*
X88414Y-61017D01*
X88422Y-61026D01*
X88440Y-61035D01*
X88508Y-61035D01*
X88345Y-60932D02*
X88225Y-60932D01*
X88302Y-61129D01*
X88165Y-60951D02*
X88157Y-60942D01*
X88140Y-60932D01*
X88097Y-60932D01*
X88080Y-60942D01*
X88071Y-60951D01*
X88062Y-60970D01*
X88062Y-60989D01*
X88071Y-61017D01*
X88174Y-61129D01*
X88062Y-61129D01*
X91360Y-47214D02*
X91420Y-47120D01*
X91463Y-47214D02*
X91463Y-47017D01*
X91395Y-47017D01*
X91377Y-47027D01*
X91369Y-47036D01*
X91360Y-47055D01*
X91360Y-47083D01*
X91369Y-47102D01*
X91377Y-47111D01*
X91395Y-47120D01*
X91463Y-47120D01*
X91300Y-47017D02*
X91180Y-47017D01*
X91257Y-47214D01*
X91017Y-47214D02*
X91120Y-47214D01*
X91069Y-47214D02*
X91069Y-47017D01*
X91086Y-47045D01*
X91103Y-47064D01*
X91120Y-47074D01*
X97475Y-58131D02*
X97484Y-58141D01*
X97510Y-58150D01*
X97527Y-58150D01*
X97552Y-58141D01*
X97570Y-58122D01*
X97578Y-58103D01*
X97587Y-58065D01*
X97587Y-58036D01*
X97578Y-57998D01*
X97570Y-57979D01*
X97552Y-57960D01*
X97527Y-57950D01*
X97510Y-57950D01*
X97484Y-57960D01*
X97475Y-57970D01*
X97312Y-57950D02*
X97398Y-57950D01*
X97407Y-58046D01*
X97398Y-58036D01*
X97381Y-58027D01*
X97338Y-58027D01*
X97321Y-58036D01*
X97312Y-58046D01*
X97304Y-58065D01*
X97304Y-58112D01*
X97312Y-58131D01*
X97321Y-58141D01*
X97338Y-58150D01*
X97381Y-58150D01*
X97398Y-58141D01*
X97407Y-58131D01*
X97150Y-57950D02*
X97184Y-57950D01*
X97201Y-57960D01*
X97210Y-57970D01*
X97227Y-57998D01*
X97235Y-58036D01*
X97235Y-58112D01*
X97227Y-58131D01*
X97218Y-58141D01*
X97201Y-58150D01*
X97167Y-58150D01*
X97150Y-58141D01*
X97141Y-58131D01*
X97132Y-58112D01*
X97132Y-58065D01*
X97141Y-58046D01*
X97150Y-58036D01*
X97167Y-58027D01*
X97201Y-58027D01*
X97218Y-58036D01*
X97227Y-58046D01*
X97235Y-58065D01*
G54D10*
X87039Y-62141D02*
X86645Y-62141D01*
X86645Y-62235D01*
X86664Y-62291D01*
X86701Y-62329D01*
X86739Y-62348D01*
X86814Y-62366D01*
X86870Y-62366D01*
X86945Y-62348D01*
X86983Y-62329D01*
X87020Y-62291D01*
X87039Y-62235D01*
X87039Y-62141D01*
X87039Y-62741D02*
X87039Y-62516D01*
X87039Y-62629D02*
X86645Y-62629D01*
X86701Y-62591D01*
X86739Y-62554D01*
X86758Y-62516D01*
X86776Y-63079D02*
X87039Y-63079D01*
X86626Y-62985D02*
X86908Y-62891D01*
X86908Y-63135D01*
X86049Y-43851D02*
X85655Y-43851D01*
X85655Y-43945D01*
X85674Y-44001D01*
X85711Y-44039D01*
X85749Y-44058D01*
X85824Y-44076D01*
X85880Y-44076D01*
X85955Y-44058D01*
X85993Y-44039D01*
X86030Y-44001D01*
X86049Y-43945D01*
X86049Y-43851D01*
X86049Y-44451D02*
X86049Y-44226D01*
X86049Y-44339D02*
X85655Y-44339D01*
X85711Y-44301D01*
X85749Y-44264D01*
X85768Y-44226D01*
X85655Y-44583D02*
X85655Y-44826D01*
X85805Y-44695D01*
X85805Y-44751D01*
X85824Y-44789D01*
X85843Y-44808D01*
X85880Y-44826D01*
X85974Y-44826D01*
X86011Y-44808D01*
X86030Y-44789D01*
X86049Y-44751D01*
X86049Y-44639D01*
X86030Y-44601D01*
X86011Y-44583D01*
G54D16*
X69611Y-54679D02*
X69671Y-54585D01*
X69714Y-54679D02*
X69714Y-54482D01*
X69645Y-54482D01*
X69628Y-54492D01*
X69620Y-54501D01*
X69611Y-54520D01*
X69611Y-54548D01*
X69620Y-54567D01*
X69628Y-54576D01*
X69645Y-54585D01*
X69714Y-54585D01*
X69440Y-54679D02*
X69542Y-54679D01*
X69491Y-54679D02*
X69491Y-54482D01*
X69508Y-54510D01*
X69525Y-54529D01*
X69542Y-54539D01*
X69328Y-54482D02*
X69311Y-54482D01*
X69294Y-54492D01*
X69285Y-54501D01*
X69277Y-54520D01*
X69268Y-54557D01*
X69268Y-54604D01*
X69277Y-54642D01*
X69285Y-54660D01*
X69294Y-54670D01*
X69311Y-54679D01*
X69328Y-54679D01*
X69345Y-54670D01*
X69354Y-54660D01*
X69362Y-54642D01*
X69371Y-54604D01*
X69371Y-54557D01*
X69362Y-54520D01*
X69354Y-54501D01*
X69345Y-54492D01*
X69328Y-54482D01*
X69097Y-54679D02*
X69199Y-54679D01*
X69148Y-54679D02*
X69148Y-54482D01*
X69165Y-54510D01*
X69182Y-54529D01*
X69199Y-54539D01*
X69321Y-53949D02*
X69381Y-53855D01*
X69424Y-53949D02*
X69424Y-53752D01*
X69355Y-53752D01*
X69338Y-53762D01*
X69330Y-53771D01*
X69321Y-53790D01*
X69321Y-53818D01*
X69330Y-53837D01*
X69338Y-53846D01*
X69355Y-53855D01*
X69424Y-53855D01*
X69150Y-53949D02*
X69252Y-53949D01*
X69201Y-53949D02*
X69201Y-53752D01*
X69218Y-53780D01*
X69235Y-53799D01*
X69252Y-53809D01*
X69038Y-53752D02*
X69021Y-53752D01*
X69004Y-53762D01*
X68995Y-53771D01*
X68987Y-53790D01*
X68978Y-53827D01*
X68978Y-53874D01*
X68987Y-53912D01*
X68995Y-53930D01*
X69004Y-53940D01*
X69021Y-53949D01*
X69038Y-53949D01*
X69055Y-53940D01*
X69064Y-53930D01*
X69072Y-53912D01*
X69081Y-53874D01*
X69081Y-53827D01*
X69072Y-53790D01*
X69064Y-53771D01*
X69055Y-53762D01*
X69038Y-53752D01*
X68867Y-53752D02*
X68849Y-53752D01*
X68832Y-53762D01*
X68824Y-53771D01*
X68815Y-53790D01*
X68807Y-53827D01*
X68807Y-53874D01*
X68815Y-53912D01*
X68824Y-53930D01*
X68832Y-53940D01*
X68849Y-53949D01*
X68867Y-53949D01*
X68884Y-53940D01*
X68892Y-53930D01*
X68901Y-53912D01*
X68909Y-53874D01*
X68909Y-53827D01*
X68901Y-53790D01*
X68892Y-53771D01*
X68884Y-53762D01*
X68867Y-53752D01*
M02*
