M48
;DRILL file {Pcbnew (2013-07-07 BZR 4022)-stable} date 9/7/2014 5:30:03 PM
;FORMAT={2:4/ absolute / inch / keep zeros}
FMAT,2
INCH,TZ
T1C0.013
T2C0.018
T3C0.025
T4C0.032
T5C0.039
T6C0.040
T7C0.138
%
G90
G05
M72
T1
X063070Y-050870
X063070Y-051670
X063070Y-056870
X063070Y-057670
X067250Y-062670
X067260Y-059870
X067530Y-053470
X068310Y-052270
X068590Y-051720
X068670Y-047090
X068680Y-045390
X068880Y-060360
X069020Y-052920
X070070Y-057330
X070130Y-055020
X070490Y-052470
X070600Y-053760
X070710Y-054090
X070790Y-053400
X070900Y-061910
X071320Y-049310
X071370Y-055740
X071370Y-056960
X071470Y-062770
X071500Y-048870
X071580Y-058470
X071970Y-045920
X071970Y-049060
X074390Y-057890
X074460Y-052990
X074880Y-047620
X074970Y-053720
X076400Y-059700
X076660Y-058240
X076820Y-044420
X077320Y-047640
X077320Y-063320
X077370Y-055670
X077390Y-052670
X077420Y-044420
X077780Y-053670
X077800Y-049820
X077820Y-059820
X078310Y-057890
X078350Y-045000
X078370Y-055170
X078520Y-049090
X078570Y-063610
X078770Y-053560
X078880Y-051060
X079440Y-062360
X079620Y-060410
X079850Y-061990
X079970Y-048920
X079990Y-062860
X080020Y-052920
X080170Y-050410
X080820Y-045900
X080820Y-052410
X080820Y-054990
X080820Y-058430
X080830Y-049320
X080830Y-050410
X082320Y-056630
X083300Y-043770
X083470Y-047270
X083470Y-047870
X083470Y-059600
X084060Y-055450
X084930Y-051610
X085010Y-063910
X085130Y-053830
X085500Y-052860
X086580Y-047650
X086580Y-048540
X086580Y-059990
X086580Y-060830
X087110Y-056490
X087136Y-051382
X087380Y-057180
X088290Y-060860
X088400Y-049200
X088840Y-059080
X088990Y-051350
X088990Y-052580
X089020Y-052080
X089030Y-053080
X089030Y-053580
X089030Y-054080
X089030Y-054580
X089030Y-055080
X089090Y-048170
X089240Y-042250
X089250Y-065020
X089430Y-047470
X089910Y-059980
X090260Y-058940
X090290Y-049260
X090410Y-056440
X090550Y-047950
X090720Y-057100
X091110Y-054410
X091110Y-055210
X091110Y-055610
X091120Y-050200
X091120Y-054810
X091190Y-055890
X091240Y-051210
X091290Y-054210
X091290Y-054600
X091290Y-056820
X091300Y-055000
X091300Y-055390
X091600Y-046860
X091980Y-060160
X091990Y-048560
X091990Y-050590
X092070Y-051480
X092100Y-053820
X092100Y-054160
X092530Y-050210
X092930Y-047290
X093210Y-046740
X093310Y-051010
X093520Y-059090
X093910Y-051010
X094020Y-059090
X094030Y-050130
X094110Y-047650
X094110Y-048000
X094310Y-050210
X094430Y-049960
X094470Y-056230
X094520Y-059080
X094530Y-048360
X094700Y-050150
X094700Y-056010
X094770Y-057100
X094880Y-049810
X095020Y-059080
X095030Y-048360
X095090Y-050230
X095100Y-057100
X095270Y-050040
X095290Y-057280
X095490Y-050180
X095490Y-057080
X095530Y-048360
X095690Y-057270
X095690Y-060680
X096030Y-048360
X096080Y-056250
X096100Y-054670
X096410Y-054220
X096520Y-059550
X096530Y-048360
X096580Y-057270
X096660Y-053950
X096670Y-056010
X096870Y-056250
X097030Y-048360
X097070Y-054800
X097070Y-060430
X097130Y-054020
X097190Y-058200
X097310Y-054210
X097310Y-055000
X097330Y-053030
X097370Y-057560
X097530Y-048360
X097810Y-059100
X097990Y-061600
X098030Y-048360
X098110Y-053410
X098180Y-053090
X098210Y-051340
X098300Y-050060
X098350Y-053530
X098410Y-051090
X098530Y-056220
X098700Y-050060
X099230Y-047750
X099230Y-049170
X099390Y-055820
X099580Y-047990
X099620Y-048380
X099630Y-047070
X099720Y-057120
X099720Y-058280
X099990Y-054240
X099990Y-054790
X100000Y-053750
X100000Y-055240
X100020Y-049340
X100110Y-053120
X100230Y-050520
X100330Y-057130
X100330Y-058280
X102730Y-061600
X103350Y-055130
X106960Y-048150
X106960Y-049120
X106960Y-052130
T2
X086230Y-052999
X086230Y-054921
T3
X062270Y-049770
X062270Y-052770
X062270Y-055770
X062270Y-058770
X064500Y-043840
X070370Y-044560
X070370Y-057770
X070970Y-050670
X071450Y-060040
X071900Y-044870
X072870Y-045960
X075030Y-063190
X075520Y-054910
X077320Y-058280
X078940Y-060200
X079070Y-047670
X079370Y-049570
X079470Y-058300
X082180Y-063490
X082570Y-053670
X082570Y-054670
X082670Y-046610
X086580Y-044710
X086580Y-063860
X087690Y-050270
X087690Y-058270
X099470Y-046170
X101110Y-045060
X101640Y-057890
X104040Y-059400
T4
X060970Y-052770
X060970Y-053770
X060970Y-054770
X060970Y-055770
X072370Y-051570
X072370Y-056770
X073370Y-051570
X073370Y-056770
X073770Y-049470
X073770Y-058870
X074370Y-051570
X074370Y-056770
X074770Y-049470
X074770Y-058870
X075370Y-051570
X075370Y-056770
X075770Y-049470
X075770Y-058870
X076370Y-051570
X076370Y-056770
X077370Y-051570
X077370Y-056770
X078370Y-051570
X078370Y-056770
X079370Y-051570
X079370Y-056770
X095800Y-046380
X096800Y-046380
X097800Y-046380
X108210Y-052310
X108210Y-053310
X108210Y-054310
X108210Y-055310
T5
X089220Y-043710
X089220Y-045710
X089220Y-061700
X089220Y-063700
X091220Y-043710
X091220Y-045710
X091220Y-061700
X091220Y-063700
X092220Y-043710
X092220Y-045710
X092220Y-061700
X092220Y-063700
X093220Y-043710
X093220Y-045710
X093220Y-061700
X093220Y-063700
T6
X062300Y-042830
X062300Y-043830
X062300Y-044830
X062300Y-045830
X062300Y-046830
X094930Y-062200
X094930Y-063200
X094990Y-044180
X094990Y-045180
X101250Y-050550
X101250Y-051550
X102630Y-051520
X102630Y-052520
X102630Y-053520
X102630Y-054520
X103030Y-046540
X103030Y-047540
X104490Y-045770
X104490Y-046770
X104490Y-047770
X104490Y-048770
X104490Y-049770
X104490Y-050770
X104490Y-051770
X104490Y-052770
X104490Y-053770
X104490Y-054770
X104490Y-055770
X104490Y-056770
X105490Y-045770
X105490Y-046770
X105490Y-047770
X105490Y-048770
X105490Y-049770
X105490Y-050770
X105490Y-051770
X105490Y-052770
X105490Y-053770
X105490Y-054770
X105490Y-055770
X105490Y-056770
T7
X061750Y-063750
X066750Y-046750
X108000Y-043000
X108000Y-063750
T0
M30
