M48
;DRILL file {Pcbnew (2013-07-07 BZR 4022)-stable} date 4/14/2014 10:20:27 AM
;FORMAT={2:4/ absolute / inch / suppress leading zeros}
FMAT,2
INCH,TZ
T1C0.024
T2C0.025
T3C0.028
T4C0.031
T5C0.040
T6C0.050
T7C0.051
T8C0.125
%
G90
G05
M72
T1
X85750Y-50606
X85750Y-51394
X85750Y-68356
X85750Y-69144
X88000Y-68356
X88000Y-69144
X88250Y-50606
X88250Y-51394
X92811Y-61500
X92811Y-65000
X94189Y-61500
X94189Y-65000
T2
X87130Y-59950
X89080Y-59210
T3
X98750Y-54516
X98750Y-56484
X102750Y-54516
X102750Y-56484
T4
X85500Y-58000
X85500Y-59535
X85500Y-61071
X85500Y-62606
T5
X90500Y-51500
X90500Y-67750
X91500Y-51500
X91500Y-67750
X92500Y-51500
X92500Y-67750
T6
X72000Y-49250
X72000Y-70250
X76000Y-49250
X76000Y-70250
X80000Y-49250
X80000Y-70250
T7
X64000Y-58281
X64000Y-60250
X66000Y-58250
X66000Y-60250
X108281Y-55750
X108281Y-57750
X108281Y-59750
X108281Y-61750
X108281Y-63750
X110250Y-55750
X110250Y-57750
X110250Y-59750
X110250Y-61750
X110250Y-63750
T8
X63750Y-48750
X63750Y-70750
X111250Y-48750
X111250Y-70750
T0
M30
