G04 (created by PCBNEW (2013-07-07 BZR 4022)-stable) date 4/14/2014 9:30:58 PM*
%MOIN*%
G04 Gerber Fmt 3.4, Leading zero omitted, Abs format*
%FSLAX34Y34*%
G01*
G70*
G90*
G04 APERTURE LIST*
%ADD10C,0.00590551*%
%ADD11R,0.09X0.045*%
%ADD12R,0.3937X0.4252*%
%ADD13R,0.12X0.12*%
%ADD14C,0.0590551*%
%ADD15R,0.0866X0.063*%
%ADD16R,0.063X0.0866*%
%ADD17R,0.07X0.125*%
%ADD18R,0.059X0.0512*%
%ADD19R,0.0393701X0.0393701*%
%ADD20C,0.0393701*%
%ADD21R,0.0472441X0.0472441*%
%ADD22C,0.0472441*%
%ADD23C,0.0984252*%
%ADD24C,0.1*%
%ADD25C,0.07*%
%ADD26R,0.07X0.07*%
%ADD27R,0.06X0.06*%
%ADD28C,0.125*%
G04 APERTURE END LIST*
G54D10*
G54D11*
X91000Y-56831D03*
G54D12*
X95250Y-57500D03*
G54D11*
X91000Y-58169D03*
X91000Y-57500D03*
X91000Y-56161D03*
X91000Y-58839D03*
X91000Y-62081D03*
G54D12*
X95250Y-62750D03*
G54D11*
X91000Y-63419D03*
X91000Y-62750D03*
X91000Y-61411D03*
X91000Y-64089D03*
G54D13*
X100500Y-56250D03*
X100500Y-50250D03*
X100500Y-64000D03*
X100500Y-70000D03*
G54D14*
X85500Y-62606D03*
X85500Y-61070D03*
X85500Y-59535D03*
X85500Y-58000D03*
G54D15*
X95750Y-52498D03*
X95750Y-51002D03*
G54D16*
X91252Y-70000D03*
X92748Y-70000D03*
X92248Y-49500D03*
X90752Y-49500D03*
G54D15*
X94500Y-68752D03*
X94500Y-70248D03*
G54D17*
X103200Y-58500D03*
X101300Y-58500D03*
X103200Y-61750D03*
X101300Y-61750D03*
G54D18*
X94250Y-51125D03*
X94250Y-51875D03*
X94250Y-67125D03*
X94250Y-67875D03*
G54D19*
X88500Y-56561D03*
G54D20*
X88500Y-57938D03*
G54D19*
X88500Y-61311D03*
G54D20*
X88500Y-62688D03*
G54D19*
X88000Y-69143D03*
G54D20*
X88000Y-68356D03*
G54D19*
X85750Y-69143D03*
G54D20*
X85750Y-68356D03*
G54D19*
X88250Y-51393D03*
G54D20*
X88250Y-50606D03*
G54D19*
X85750Y-51393D03*
G54D20*
X85750Y-50606D03*
G54D21*
X106500Y-66265D03*
G54D22*
X106500Y-68234D03*
G54D21*
X106500Y-53234D03*
G54D22*
X106500Y-51265D03*
G54D23*
X110250Y-63750D03*
X110250Y-61750D03*
X110250Y-59750D03*
X110250Y-57750D03*
X110250Y-55750D03*
X108281Y-63750D03*
X108281Y-61750D03*
X108281Y-59750D03*
X108281Y-57750D03*
X108281Y-55750D03*
X64000Y-60250D03*
X64000Y-58281D03*
X66000Y-60250D03*
X66000Y-58250D03*
G54D24*
X76000Y-70250D03*
X72000Y-70250D03*
X80000Y-70250D03*
X72000Y-49250D03*
X76000Y-49250D03*
X80000Y-49250D03*
G54D25*
X91500Y-67750D03*
X92500Y-67750D03*
G54D26*
X90500Y-67750D03*
G54D25*
X91500Y-51500D03*
X92500Y-51500D03*
G54D27*
X90500Y-51500D03*
G54D28*
X63750Y-70750D03*
X63750Y-48750D03*
X111250Y-48750D03*
X111250Y-70750D03*
M02*
