G04 (created by PCBNEW (2013-07-07 BZR 4022)-stable) date 4/14/2014 9:30:58 PM*
%MOIN*%
G04 Gerber Fmt 3.4, Leading zero omitted, Abs format*
%FSLAX34Y34*%
G01*
G70*
G90*
G04 APERTURE LIST*
%ADD10C,0.00590551*%
%ADD11C,0.0590551*%
%ADD12R,0.0393701X0.0393701*%
%ADD13C,0.0393701*%
%ADD14R,0.0472441X0.0472441*%
%ADD15C,0.0472441*%
%ADD16C,0.0984252*%
%ADD17C,0.1*%
%ADD18C,0.07*%
%ADD19R,0.07X0.07*%
%ADD20R,0.06X0.06*%
%ADD21C,0.035*%
%ADD22C,0.01*%
G04 APERTURE END LIST*
G54D10*
G54D11*
X85500Y-62606D03*
X85500Y-61070D03*
X85500Y-59535D03*
X85500Y-58000D03*
G54D12*
X88500Y-56561D03*
G54D13*
X88500Y-57938D03*
G54D12*
X88500Y-61311D03*
G54D13*
X88500Y-62688D03*
G54D12*
X88000Y-69143D03*
G54D13*
X88000Y-68356D03*
G54D12*
X85750Y-69143D03*
G54D13*
X85750Y-68356D03*
G54D12*
X88250Y-51393D03*
G54D13*
X88250Y-50606D03*
G54D12*
X85750Y-51393D03*
G54D13*
X85750Y-50606D03*
G54D14*
X106500Y-66265D03*
G54D15*
X106500Y-68234D03*
G54D14*
X106500Y-53234D03*
G54D15*
X106500Y-51265D03*
G54D16*
X110250Y-63750D03*
X110250Y-61750D03*
X110250Y-59750D03*
X110250Y-57750D03*
X110250Y-55750D03*
X108281Y-63750D03*
X108281Y-61750D03*
X108281Y-59750D03*
X108281Y-57750D03*
X108281Y-55750D03*
X64000Y-60250D03*
X64000Y-58281D03*
X66000Y-60250D03*
X66000Y-58250D03*
G54D17*
X76000Y-70250D03*
X72000Y-70250D03*
X80000Y-70250D03*
X72000Y-49250D03*
X76000Y-49250D03*
X80000Y-49250D03*
G54D18*
X91500Y-67750D03*
X92500Y-67750D03*
G54D19*
X90500Y-67750D03*
G54D18*
X91500Y-51500D03*
X92500Y-51500D03*
G54D20*
X90500Y-51500D03*
G54D21*
X98540Y-56860D03*
X91830Y-56850D03*
X105920Y-59740D03*
X97170Y-51320D03*
X99070Y-62080D03*
X91980Y-62080D03*
G54D22*
X91840Y-56860D02*
X98540Y-56860D01*
X91830Y-56850D02*
X91840Y-56860D01*
X106500Y-53234D02*
X106500Y-61968D01*
X106500Y-61968D02*
X108281Y-63750D01*
X105590Y-59740D02*
X105920Y-59740D01*
X97170Y-51320D02*
X105590Y-59740D01*
X91980Y-62080D02*
X99070Y-62080D01*
G54D10*
G36*
X111950Y-70212D02*
X111746Y-70008D01*
X111424Y-69875D01*
X111076Y-69874D01*
X110995Y-69908D01*
X110995Y-55877D01*
X110987Y-55582D01*
X110890Y-55346D01*
X110774Y-55295D01*
X110704Y-55366D01*
X110704Y-55225D01*
X110653Y-55109D01*
X110377Y-55004D01*
X110082Y-55012D01*
X109846Y-55109D01*
X109795Y-55225D01*
X110250Y-55679D01*
X110704Y-55225D01*
X110704Y-55366D01*
X110320Y-55750D01*
X110774Y-56204D01*
X110890Y-56153D01*
X110995Y-55877D01*
X110995Y-69908D01*
X110992Y-69909D01*
X110992Y-63603D01*
X110992Y-61603D01*
X110992Y-59603D01*
X110992Y-57603D01*
X110879Y-57330D01*
X110704Y-57154D01*
X110704Y-56274D01*
X110250Y-55820D01*
X110179Y-55891D01*
X110179Y-55750D01*
X109725Y-55295D01*
X109609Y-55346D01*
X109504Y-55622D01*
X109512Y-55917D01*
X109609Y-56153D01*
X109725Y-56204D01*
X110179Y-55750D01*
X110179Y-55891D01*
X109795Y-56274D01*
X109846Y-56390D01*
X110122Y-56495D01*
X110417Y-56487D01*
X110653Y-56390D01*
X110704Y-56274D01*
X110704Y-57154D01*
X110670Y-57121D01*
X110398Y-57008D01*
X110103Y-57007D01*
X109830Y-57120D01*
X109621Y-57329D01*
X109508Y-57601D01*
X109507Y-57896D01*
X109620Y-58169D01*
X109829Y-58378D01*
X110101Y-58491D01*
X110396Y-58492D01*
X110669Y-58379D01*
X110878Y-58170D01*
X110991Y-57898D01*
X110992Y-57603D01*
X110992Y-59603D01*
X110879Y-59330D01*
X110670Y-59121D01*
X110398Y-59008D01*
X110103Y-59007D01*
X109830Y-59120D01*
X109621Y-59329D01*
X109508Y-59601D01*
X109507Y-59896D01*
X109620Y-60169D01*
X109829Y-60378D01*
X110101Y-60491D01*
X110396Y-60492D01*
X110669Y-60379D01*
X110878Y-60170D01*
X110991Y-59898D01*
X110992Y-59603D01*
X110992Y-61603D01*
X110879Y-61330D01*
X110670Y-61121D01*
X110398Y-61008D01*
X110103Y-61007D01*
X109830Y-61120D01*
X109621Y-61329D01*
X109508Y-61601D01*
X109507Y-61896D01*
X109620Y-62169D01*
X109829Y-62378D01*
X110101Y-62491D01*
X110396Y-62492D01*
X110669Y-62379D01*
X110878Y-62170D01*
X110991Y-61898D01*
X110992Y-61603D01*
X110992Y-63603D01*
X110879Y-63330D01*
X110670Y-63121D01*
X110398Y-63008D01*
X110103Y-63007D01*
X109830Y-63120D01*
X109621Y-63329D01*
X109508Y-63601D01*
X109507Y-63896D01*
X109620Y-64169D01*
X109829Y-64378D01*
X110101Y-64491D01*
X110396Y-64492D01*
X110669Y-64379D01*
X110878Y-64170D01*
X110991Y-63898D01*
X110992Y-63603D01*
X110992Y-69909D01*
X110755Y-70007D01*
X110508Y-70253D01*
X110375Y-70575D01*
X110374Y-70923D01*
X110507Y-71245D01*
X110712Y-71450D01*
X109027Y-71450D01*
X109027Y-55877D01*
X109019Y-55582D01*
X108921Y-55346D01*
X108806Y-55295D01*
X108735Y-55366D01*
X108735Y-55225D01*
X108684Y-55109D01*
X108409Y-55004D01*
X108114Y-55012D01*
X107878Y-55109D01*
X107827Y-55225D01*
X108281Y-55679D01*
X108735Y-55225D01*
X108735Y-55366D01*
X108352Y-55750D01*
X108806Y-56204D01*
X108921Y-56153D01*
X109027Y-55877D01*
X109027Y-71450D01*
X109023Y-71450D01*
X109023Y-63603D01*
X109023Y-61603D01*
X109023Y-59603D01*
X109023Y-57603D01*
X108911Y-57330D01*
X108735Y-57154D01*
X108735Y-56274D01*
X108281Y-55820D01*
X108210Y-55891D01*
X108210Y-55750D01*
X107756Y-55295D01*
X107641Y-55346D01*
X107535Y-55622D01*
X107543Y-55917D01*
X107641Y-56153D01*
X107756Y-56204D01*
X108210Y-55750D01*
X108210Y-55891D01*
X107827Y-56274D01*
X107878Y-56390D01*
X108153Y-56495D01*
X108448Y-56487D01*
X108684Y-56390D01*
X108735Y-56274D01*
X108735Y-57154D01*
X108702Y-57121D01*
X108429Y-57008D01*
X108134Y-57007D01*
X107861Y-57120D01*
X107652Y-57329D01*
X107539Y-57601D01*
X107539Y-57896D01*
X107651Y-58169D01*
X107860Y-58378D01*
X108133Y-58491D01*
X108428Y-58492D01*
X108701Y-58379D01*
X108910Y-58170D01*
X109023Y-57898D01*
X109023Y-57603D01*
X109023Y-59603D01*
X108911Y-59330D01*
X108702Y-59121D01*
X108429Y-59008D01*
X108134Y-59007D01*
X107861Y-59120D01*
X107652Y-59329D01*
X107539Y-59601D01*
X107539Y-59896D01*
X107651Y-60169D01*
X107860Y-60378D01*
X108133Y-60491D01*
X108428Y-60492D01*
X108701Y-60379D01*
X108910Y-60170D01*
X109023Y-59898D01*
X109023Y-59603D01*
X109023Y-61603D01*
X108911Y-61330D01*
X108702Y-61121D01*
X108429Y-61008D01*
X108134Y-61007D01*
X107861Y-61120D01*
X107652Y-61329D01*
X107539Y-61601D01*
X107539Y-61896D01*
X107651Y-62169D01*
X107860Y-62378D01*
X108133Y-62491D01*
X108428Y-62492D01*
X108701Y-62379D01*
X108910Y-62170D01*
X109023Y-61898D01*
X109023Y-61603D01*
X109023Y-63603D01*
X108911Y-63330D01*
X108702Y-63121D01*
X108429Y-63008D01*
X108134Y-63007D01*
X108013Y-63057D01*
X106991Y-62035D01*
X106991Y-51332D01*
X106979Y-51139D01*
X106928Y-51016D01*
X106839Y-50996D01*
X106768Y-51067D01*
X106768Y-50926D01*
X106749Y-50837D01*
X106566Y-50774D01*
X106373Y-50786D01*
X106250Y-50837D01*
X106231Y-50926D01*
X106500Y-51195D01*
X106768Y-50926D01*
X106768Y-51067D01*
X106570Y-51265D01*
X106839Y-51534D01*
X106928Y-51515D01*
X106991Y-51332D01*
X106991Y-62035D01*
X106800Y-61844D01*
X106800Y-53714D01*
X106877Y-53682D01*
X106948Y-53612D01*
X106986Y-53520D01*
X106986Y-53420D01*
X106986Y-52948D01*
X106948Y-52856D01*
X106878Y-52786D01*
X106786Y-52748D01*
X106768Y-52748D01*
X106768Y-51605D01*
X106500Y-51336D01*
X106429Y-51407D01*
X106429Y-51265D01*
X106160Y-50996D01*
X106071Y-51016D01*
X106008Y-51199D01*
X106020Y-51392D01*
X106071Y-51515D01*
X106160Y-51534D01*
X106429Y-51265D01*
X106429Y-51407D01*
X106231Y-51605D01*
X106250Y-51694D01*
X106433Y-51757D01*
X106626Y-51745D01*
X106749Y-51694D01*
X106768Y-51605D01*
X106768Y-52748D01*
X106686Y-52747D01*
X106214Y-52747D01*
X106122Y-52785D01*
X106051Y-52856D01*
X106013Y-52948D01*
X106013Y-53047D01*
X106013Y-53519D01*
X106051Y-53611D01*
X106121Y-53682D01*
X106200Y-53714D01*
X106200Y-59418D01*
X106161Y-59379D01*
X106004Y-59315D01*
X105835Y-59314D01*
X105679Y-59379D01*
X105666Y-59392D01*
X97594Y-51320D01*
X97595Y-51235D01*
X97530Y-51079D01*
X97411Y-50959D01*
X97254Y-50895D01*
X97085Y-50894D01*
X96929Y-50959D01*
X96809Y-51078D01*
X96745Y-51235D01*
X96744Y-51404D01*
X96809Y-51560D01*
X96928Y-51680D01*
X97085Y-51744D01*
X97170Y-51745D01*
X105377Y-59952D01*
X105377Y-59952D01*
X105475Y-60017D01*
X105590Y-60040D01*
X105618Y-60040D01*
X105678Y-60100D01*
X105835Y-60164D01*
X106004Y-60165D01*
X106160Y-60100D01*
X106200Y-60061D01*
X106200Y-61968D01*
X106222Y-62083D01*
X106287Y-62180D01*
X107589Y-63481D01*
X107539Y-63601D01*
X107539Y-63896D01*
X107651Y-64169D01*
X107860Y-64378D01*
X108133Y-64491D01*
X108428Y-64492D01*
X108701Y-64379D01*
X108910Y-64170D01*
X109023Y-63898D01*
X109023Y-63603D01*
X109023Y-71450D01*
X106991Y-71450D01*
X106991Y-68300D01*
X106986Y-68219D01*
X106986Y-66452D01*
X106986Y-65980D01*
X106948Y-65888D01*
X106878Y-65817D01*
X106786Y-65779D01*
X106686Y-65779D01*
X106214Y-65779D01*
X106122Y-65817D01*
X106051Y-65887D01*
X106013Y-65979D01*
X106013Y-66079D01*
X106013Y-66551D01*
X106051Y-66643D01*
X106121Y-66713D01*
X106213Y-66751D01*
X106313Y-66752D01*
X106785Y-66752D01*
X106877Y-66714D01*
X106948Y-66643D01*
X106986Y-66551D01*
X106986Y-66452D01*
X106986Y-68219D01*
X106979Y-68107D01*
X106928Y-67984D01*
X106839Y-67965D01*
X106768Y-68036D01*
X106768Y-67894D01*
X106749Y-67805D01*
X106566Y-67742D01*
X106373Y-67754D01*
X106250Y-67805D01*
X106231Y-67894D01*
X106500Y-68163D01*
X106768Y-67894D01*
X106768Y-68036D01*
X106570Y-68234D01*
X106839Y-68503D01*
X106928Y-68483D01*
X106991Y-68300D01*
X106991Y-71450D01*
X106768Y-71450D01*
X106768Y-68573D01*
X106500Y-68304D01*
X106429Y-68375D01*
X106429Y-68234D01*
X106160Y-67965D01*
X106071Y-67984D01*
X106008Y-68167D01*
X106020Y-68360D01*
X106071Y-68483D01*
X106160Y-68503D01*
X106429Y-68234D01*
X106429Y-68375D01*
X106231Y-68573D01*
X106250Y-68662D01*
X106433Y-68725D01*
X106626Y-68713D01*
X106749Y-68662D01*
X106768Y-68573D01*
X106768Y-71450D01*
X99495Y-71450D01*
X99495Y-61995D01*
X99430Y-61839D01*
X99311Y-61719D01*
X99154Y-61655D01*
X98985Y-61654D01*
X98965Y-61663D01*
X98965Y-56775D01*
X98900Y-56619D01*
X98781Y-56499D01*
X98624Y-56435D01*
X98455Y-56434D01*
X98299Y-56499D01*
X98238Y-56560D01*
X93100Y-56560D01*
X93100Y-51381D01*
X93008Y-51160D01*
X92840Y-50991D01*
X92619Y-50900D01*
X92381Y-50899D01*
X92160Y-50991D01*
X91991Y-51159D01*
X91987Y-51170D01*
X91922Y-51148D01*
X91851Y-51219D01*
X91851Y-51077D01*
X91817Y-50977D01*
X91593Y-50895D01*
X91355Y-50905D01*
X91182Y-50977D01*
X91148Y-51077D01*
X91500Y-51429D01*
X91851Y-51077D01*
X91851Y-51219D01*
X91570Y-51500D01*
X91922Y-51851D01*
X91987Y-51829D01*
X91991Y-51839D01*
X92159Y-52008D01*
X92380Y-52099D01*
X92618Y-52100D01*
X92839Y-52008D01*
X93008Y-51840D01*
X93099Y-51619D01*
X93100Y-51381D01*
X93100Y-56560D01*
X92141Y-56560D01*
X92071Y-56489D01*
X91914Y-56425D01*
X91851Y-56425D01*
X91851Y-51922D01*
X91500Y-51570D01*
X91429Y-51641D01*
X91429Y-51500D01*
X91077Y-51148D01*
X91050Y-51157D01*
X91050Y-51150D01*
X91012Y-51058D01*
X90941Y-50988D01*
X90849Y-50950D01*
X90750Y-50949D01*
X90150Y-50949D01*
X90058Y-50987D01*
X89988Y-51058D01*
X89950Y-51150D01*
X89949Y-51249D01*
X89949Y-51849D01*
X89987Y-51941D01*
X90058Y-52011D01*
X90150Y-52049D01*
X90249Y-52050D01*
X90849Y-52050D01*
X90941Y-52012D01*
X91011Y-51941D01*
X91049Y-51849D01*
X91049Y-51842D01*
X91077Y-51851D01*
X91429Y-51500D01*
X91429Y-51641D01*
X91148Y-51922D01*
X91182Y-52022D01*
X91406Y-52104D01*
X91644Y-52094D01*
X91817Y-52022D01*
X91851Y-51922D01*
X91851Y-56425D01*
X91745Y-56424D01*
X91589Y-56489D01*
X91469Y-56608D01*
X91405Y-56765D01*
X91404Y-56934D01*
X91469Y-57090D01*
X91588Y-57210D01*
X91745Y-57274D01*
X91914Y-57275D01*
X92070Y-57210D01*
X92121Y-57160D01*
X98238Y-57160D01*
X98298Y-57220D01*
X98455Y-57284D01*
X98624Y-57285D01*
X98780Y-57220D01*
X98900Y-57101D01*
X98964Y-56944D01*
X98965Y-56775D01*
X98965Y-61663D01*
X98829Y-61719D01*
X98768Y-61780D01*
X92281Y-61780D01*
X92221Y-61719D01*
X92064Y-61655D01*
X91895Y-61654D01*
X91739Y-61719D01*
X91619Y-61838D01*
X91555Y-61995D01*
X91554Y-62164D01*
X91619Y-62320D01*
X91738Y-62440D01*
X91895Y-62504D01*
X92064Y-62505D01*
X92220Y-62440D01*
X92281Y-62380D01*
X98768Y-62380D01*
X98828Y-62440D01*
X98985Y-62504D01*
X99154Y-62505D01*
X99310Y-62440D01*
X99430Y-62321D01*
X99494Y-62164D01*
X99495Y-61995D01*
X99495Y-71450D01*
X93100Y-71450D01*
X93100Y-67631D01*
X93008Y-67410D01*
X92840Y-67241D01*
X92619Y-67150D01*
X92381Y-67149D01*
X92160Y-67241D01*
X91999Y-67401D01*
X91840Y-67241D01*
X91619Y-67150D01*
X91381Y-67149D01*
X91160Y-67241D01*
X91085Y-67315D01*
X91062Y-67258D01*
X90991Y-67188D01*
X90899Y-67150D01*
X90800Y-67149D01*
X90612Y-67150D01*
X90550Y-67212D01*
X90550Y-67700D01*
X90557Y-67700D01*
X90557Y-67800D01*
X90550Y-67800D01*
X90550Y-68287D01*
X90612Y-68350D01*
X90800Y-68350D01*
X90899Y-68349D01*
X90991Y-68311D01*
X91062Y-68241D01*
X91085Y-68184D01*
X91159Y-68258D01*
X91380Y-68349D01*
X91618Y-68350D01*
X91839Y-68258D01*
X92000Y-68098D01*
X92159Y-68258D01*
X92380Y-68349D01*
X92618Y-68350D01*
X92839Y-68258D01*
X93008Y-68090D01*
X93099Y-67869D01*
X93100Y-67631D01*
X93100Y-71450D01*
X90450Y-71450D01*
X90450Y-68287D01*
X90450Y-67800D01*
X90450Y-67700D01*
X90450Y-67212D01*
X90387Y-67150D01*
X90199Y-67149D01*
X90100Y-67150D01*
X90008Y-67188D01*
X89937Y-67258D01*
X89899Y-67350D01*
X89900Y-67637D01*
X89962Y-67700D01*
X90450Y-67700D01*
X90450Y-67800D01*
X89962Y-67800D01*
X89900Y-67862D01*
X89899Y-68149D01*
X89937Y-68241D01*
X90008Y-68311D01*
X90100Y-68349D01*
X90199Y-68350D01*
X90387Y-68350D01*
X90450Y-68287D01*
X90450Y-71450D01*
X88952Y-71450D01*
X88952Y-62746D01*
X88952Y-57996D01*
X88946Y-57923D01*
X88946Y-56708D01*
X88946Y-56314D01*
X88908Y-56222D01*
X88838Y-56152D01*
X88746Y-56114D01*
X88702Y-56114D01*
X88702Y-50663D01*
X88689Y-50486D01*
X88645Y-50380D01*
X88561Y-50365D01*
X88490Y-50436D01*
X88490Y-50295D01*
X88475Y-50210D01*
X88307Y-50154D01*
X88129Y-50166D01*
X88024Y-50210D01*
X88009Y-50295D01*
X88250Y-50535D01*
X88490Y-50295D01*
X88490Y-50436D01*
X88320Y-50606D01*
X88561Y-50846D01*
X88645Y-50832D01*
X88702Y-50663D01*
X88702Y-56114D01*
X88696Y-56114D01*
X88696Y-51541D01*
X88696Y-51147D01*
X88658Y-51055D01*
X88588Y-50985D01*
X88496Y-50946D01*
X88485Y-50946D01*
X88490Y-50917D01*
X88250Y-50677D01*
X88179Y-50747D01*
X88179Y-50606D01*
X87938Y-50365D01*
X87854Y-50380D01*
X87797Y-50549D01*
X87810Y-50726D01*
X87854Y-50832D01*
X87938Y-50846D01*
X88179Y-50606D01*
X88179Y-50747D01*
X88009Y-50917D01*
X88014Y-50946D01*
X88003Y-50946D01*
X87911Y-50984D01*
X87841Y-51055D01*
X87803Y-51146D01*
X87803Y-51246D01*
X87803Y-51640D01*
X87841Y-51731D01*
X87911Y-51802D01*
X88003Y-51840D01*
X88102Y-51840D01*
X88496Y-51840D01*
X88588Y-51802D01*
X88658Y-51732D01*
X88696Y-51640D01*
X88696Y-51541D01*
X88696Y-56114D01*
X88647Y-56114D01*
X88253Y-56114D01*
X88161Y-56152D01*
X88091Y-56222D01*
X88053Y-56314D01*
X88053Y-56413D01*
X88053Y-56807D01*
X88091Y-56899D01*
X88161Y-56969D01*
X88253Y-57007D01*
X88352Y-57007D01*
X88746Y-57007D01*
X88838Y-56969D01*
X88908Y-56899D01*
X88946Y-56807D01*
X88946Y-56708D01*
X88946Y-57923D01*
X88939Y-57818D01*
X88895Y-57713D01*
X88811Y-57698D01*
X88740Y-57769D01*
X88740Y-57627D01*
X88725Y-57543D01*
X88557Y-57486D01*
X88379Y-57499D01*
X88274Y-57543D01*
X88259Y-57627D01*
X88500Y-57868D01*
X88740Y-57627D01*
X88740Y-57769D01*
X88570Y-57938D01*
X88811Y-58179D01*
X88895Y-58164D01*
X88952Y-57996D01*
X88952Y-62746D01*
X88946Y-62673D01*
X88946Y-61458D01*
X88946Y-61064D01*
X88908Y-60972D01*
X88838Y-60902D01*
X88746Y-60864D01*
X88740Y-60864D01*
X88740Y-58250D01*
X88500Y-58009D01*
X88429Y-58080D01*
X88429Y-57938D01*
X88188Y-57698D01*
X88104Y-57713D01*
X88047Y-57881D01*
X88060Y-58059D01*
X88104Y-58164D01*
X88188Y-58179D01*
X88429Y-57938D01*
X88429Y-58080D01*
X88259Y-58250D01*
X88274Y-58334D01*
X88442Y-58390D01*
X88620Y-58378D01*
X88725Y-58334D01*
X88740Y-58250D01*
X88740Y-60864D01*
X88647Y-60864D01*
X88253Y-60864D01*
X88161Y-60902D01*
X88091Y-60972D01*
X88053Y-61064D01*
X88053Y-61163D01*
X88053Y-61557D01*
X88091Y-61649D01*
X88161Y-61719D01*
X88253Y-61757D01*
X88352Y-61757D01*
X88746Y-61757D01*
X88838Y-61719D01*
X88908Y-61649D01*
X88946Y-61557D01*
X88946Y-61458D01*
X88946Y-62673D01*
X88939Y-62568D01*
X88895Y-62463D01*
X88811Y-62448D01*
X88740Y-62519D01*
X88740Y-62377D01*
X88725Y-62293D01*
X88557Y-62236D01*
X88379Y-62249D01*
X88274Y-62293D01*
X88259Y-62377D01*
X88500Y-62618D01*
X88740Y-62377D01*
X88740Y-62519D01*
X88570Y-62688D01*
X88811Y-62929D01*
X88895Y-62914D01*
X88952Y-62746D01*
X88952Y-71450D01*
X88740Y-71450D01*
X88740Y-63000D01*
X88500Y-62759D01*
X88429Y-62830D01*
X88429Y-62688D01*
X88188Y-62448D01*
X88104Y-62463D01*
X88047Y-62631D01*
X88060Y-62809D01*
X88104Y-62914D01*
X88188Y-62929D01*
X88429Y-62688D01*
X88429Y-62830D01*
X88259Y-63000D01*
X88274Y-63084D01*
X88442Y-63140D01*
X88620Y-63128D01*
X88725Y-63084D01*
X88740Y-63000D01*
X88740Y-71450D01*
X88446Y-71450D01*
X88446Y-68267D01*
X88379Y-68103D01*
X88253Y-67977D01*
X88089Y-67909D01*
X87911Y-67909D01*
X87747Y-67977D01*
X87621Y-68102D01*
X87553Y-68267D01*
X87553Y-68444D01*
X87620Y-68609D01*
X87721Y-68709D01*
X87661Y-68735D01*
X87591Y-68805D01*
X87553Y-68897D01*
X87553Y-69031D01*
X87615Y-69093D01*
X87950Y-69093D01*
X87950Y-69085D01*
X88050Y-69085D01*
X88050Y-69093D01*
X88384Y-69093D01*
X88446Y-69031D01*
X88446Y-68897D01*
X88408Y-68805D01*
X88338Y-68735D01*
X88278Y-68709D01*
X88378Y-68609D01*
X88446Y-68445D01*
X88446Y-68267D01*
X88446Y-71450D01*
X88446Y-71450D01*
X88446Y-69390D01*
X88446Y-69256D01*
X88384Y-69193D01*
X88050Y-69193D01*
X88050Y-69528D01*
X88112Y-69590D01*
X88147Y-69590D01*
X88246Y-69590D01*
X88338Y-69552D01*
X88408Y-69481D01*
X88446Y-69390D01*
X88446Y-71450D01*
X87950Y-71450D01*
X87950Y-69528D01*
X87950Y-69193D01*
X87615Y-69193D01*
X87553Y-69256D01*
X87553Y-69390D01*
X87591Y-69481D01*
X87661Y-69552D01*
X87753Y-69590D01*
X87852Y-69590D01*
X87887Y-69590D01*
X87950Y-69528D01*
X87950Y-71450D01*
X86245Y-71450D01*
X86245Y-60923D01*
X86245Y-59387D01*
X86202Y-59282D01*
X86202Y-50663D01*
X86189Y-50486D01*
X86145Y-50380D01*
X86061Y-50365D01*
X85990Y-50436D01*
X85990Y-50295D01*
X85975Y-50210D01*
X85807Y-50154D01*
X85629Y-50166D01*
X85524Y-50210D01*
X85509Y-50295D01*
X85750Y-50535D01*
X85990Y-50295D01*
X85990Y-50436D01*
X85820Y-50606D01*
X86061Y-50846D01*
X86145Y-50832D01*
X86202Y-50663D01*
X86202Y-59282D01*
X86196Y-59270D01*
X86196Y-51541D01*
X86196Y-51147D01*
X86158Y-51055D01*
X86088Y-50985D01*
X85996Y-50946D01*
X85985Y-50946D01*
X85990Y-50917D01*
X85750Y-50677D01*
X85679Y-50747D01*
X85679Y-50606D01*
X85438Y-50365D01*
X85354Y-50380D01*
X85297Y-50549D01*
X85310Y-50726D01*
X85354Y-50832D01*
X85438Y-50846D01*
X85679Y-50606D01*
X85679Y-50747D01*
X85509Y-50917D01*
X85514Y-50946D01*
X85503Y-50946D01*
X85411Y-50984D01*
X85341Y-51055D01*
X85303Y-51146D01*
X85303Y-51246D01*
X85303Y-51640D01*
X85341Y-51731D01*
X85411Y-51802D01*
X85503Y-51840D01*
X85602Y-51840D01*
X85996Y-51840D01*
X86088Y-51802D01*
X86158Y-51732D01*
X86196Y-51640D01*
X86196Y-51541D01*
X86196Y-59270D01*
X86132Y-59113D01*
X86045Y-59026D01*
X86045Y-57892D01*
X85962Y-57691D01*
X85809Y-57538D01*
X85608Y-57454D01*
X85392Y-57454D01*
X85191Y-57537D01*
X85038Y-57690D01*
X84954Y-57891D01*
X84954Y-58107D01*
X85037Y-58308D01*
X85190Y-58461D01*
X85391Y-58545D01*
X85607Y-58545D01*
X85808Y-58462D01*
X85961Y-58309D01*
X86045Y-58108D01*
X86045Y-57892D01*
X86045Y-59026D01*
X85922Y-58903D01*
X85648Y-58790D01*
X85352Y-58790D01*
X85078Y-58903D01*
X84868Y-59112D01*
X84754Y-59386D01*
X84754Y-59683D01*
X84867Y-59957D01*
X85077Y-60166D01*
X85351Y-60280D01*
X85647Y-60280D01*
X85921Y-60167D01*
X86131Y-59958D01*
X86245Y-59684D01*
X86245Y-59387D01*
X86245Y-60923D01*
X86132Y-60649D01*
X85922Y-60439D01*
X85648Y-60325D01*
X85352Y-60325D01*
X85078Y-60438D01*
X84868Y-60648D01*
X84754Y-60921D01*
X84754Y-61218D01*
X84867Y-61492D01*
X85077Y-61702D01*
X85351Y-61816D01*
X85647Y-61816D01*
X85921Y-61703D01*
X86131Y-61493D01*
X86245Y-61219D01*
X86245Y-60923D01*
X86245Y-71450D01*
X86196Y-71450D01*
X86196Y-68267D01*
X86129Y-68103D01*
X86045Y-68019D01*
X86045Y-62498D01*
X85962Y-62297D01*
X85809Y-62144D01*
X85608Y-62061D01*
X85392Y-62060D01*
X85191Y-62143D01*
X85038Y-62297D01*
X84954Y-62497D01*
X84954Y-62714D01*
X85037Y-62914D01*
X85190Y-63068D01*
X85391Y-63151D01*
X85607Y-63151D01*
X85808Y-63068D01*
X85961Y-62915D01*
X86045Y-62715D01*
X86045Y-62498D01*
X86045Y-68019D01*
X86003Y-67977D01*
X85839Y-67909D01*
X85661Y-67909D01*
X85497Y-67977D01*
X85371Y-68102D01*
X85303Y-68267D01*
X85303Y-68444D01*
X85370Y-68609D01*
X85471Y-68709D01*
X85411Y-68735D01*
X85341Y-68805D01*
X85303Y-68897D01*
X85303Y-69031D01*
X85365Y-69093D01*
X85700Y-69093D01*
X85700Y-69085D01*
X85800Y-69085D01*
X85800Y-69093D01*
X86134Y-69093D01*
X86196Y-69031D01*
X86196Y-68897D01*
X86158Y-68805D01*
X86088Y-68735D01*
X86028Y-68709D01*
X86128Y-68609D01*
X86196Y-68445D01*
X86196Y-68267D01*
X86196Y-71450D01*
X86196Y-71450D01*
X86196Y-69390D01*
X86196Y-69256D01*
X86134Y-69193D01*
X85800Y-69193D01*
X85800Y-69528D01*
X85862Y-69590D01*
X85897Y-69590D01*
X85996Y-69590D01*
X86088Y-69552D01*
X86158Y-69481D01*
X86196Y-69390D01*
X86196Y-71450D01*
X85700Y-71450D01*
X85700Y-69528D01*
X85700Y-69193D01*
X85365Y-69193D01*
X85303Y-69256D01*
X85303Y-69390D01*
X85341Y-69481D01*
X85411Y-69552D01*
X85503Y-69590D01*
X85602Y-69590D01*
X85637Y-69590D01*
X85700Y-69528D01*
X85700Y-71450D01*
X80950Y-71450D01*
X80950Y-49061D01*
X80805Y-48712D01*
X80538Y-48445D01*
X80189Y-48300D01*
X79811Y-48299D01*
X79462Y-48444D01*
X79195Y-48711D01*
X79050Y-49060D01*
X79049Y-49438D01*
X79194Y-49787D01*
X79461Y-50054D01*
X79810Y-50199D01*
X80188Y-50200D01*
X80537Y-50055D01*
X80804Y-49788D01*
X80949Y-49439D01*
X80950Y-49061D01*
X80950Y-71450D01*
X80753Y-71450D01*
X80753Y-70379D01*
X80745Y-70081D01*
X80646Y-69841D01*
X80530Y-69790D01*
X80459Y-69860D01*
X80459Y-69719D01*
X80408Y-69603D01*
X80129Y-69496D01*
X79831Y-69504D01*
X79591Y-69603D01*
X79540Y-69719D01*
X80000Y-70179D01*
X80459Y-69719D01*
X80459Y-69860D01*
X80070Y-70250D01*
X80530Y-70709D01*
X80646Y-70658D01*
X80753Y-70379D01*
X80753Y-71450D01*
X80459Y-71450D01*
X80459Y-70780D01*
X80000Y-70320D01*
X79929Y-70391D01*
X79929Y-70250D01*
X79469Y-69790D01*
X79353Y-69841D01*
X79246Y-70120D01*
X79254Y-70418D01*
X79353Y-70658D01*
X79469Y-70709D01*
X79929Y-70250D01*
X79929Y-70391D01*
X79540Y-70780D01*
X79591Y-70896D01*
X79870Y-71003D01*
X80168Y-70995D01*
X80408Y-70896D01*
X80459Y-70780D01*
X80459Y-71450D01*
X76950Y-71450D01*
X76950Y-70061D01*
X76805Y-69712D01*
X76753Y-69660D01*
X76753Y-49379D01*
X76745Y-49081D01*
X76646Y-48841D01*
X76530Y-48790D01*
X76459Y-48860D01*
X76459Y-48719D01*
X76408Y-48603D01*
X76129Y-48496D01*
X75831Y-48504D01*
X75591Y-48603D01*
X75540Y-48719D01*
X76000Y-49179D01*
X76459Y-48719D01*
X76459Y-48860D01*
X76070Y-49250D01*
X76530Y-49709D01*
X76646Y-49658D01*
X76753Y-49379D01*
X76753Y-69660D01*
X76538Y-69445D01*
X76459Y-69412D01*
X76459Y-49780D01*
X76000Y-49320D01*
X75929Y-49391D01*
X75929Y-49250D01*
X75469Y-48790D01*
X75353Y-48841D01*
X75246Y-49120D01*
X75254Y-49418D01*
X75353Y-49658D01*
X75469Y-49709D01*
X75929Y-49250D01*
X75929Y-49391D01*
X75540Y-49780D01*
X75591Y-49896D01*
X75870Y-50003D01*
X76168Y-49995D01*
X76408Y-49896D01*
X76459Y-49780D01*
X76459Y-69412D01*
X76189Y-69300D01*
X75811Y-69299D01*
X75462Y-69444D01*
X75195Y-69711D01*
X75050Y-70060D01*
X75049Y-70438D01*
X75194Y-70787D01*
X75461Y-71054D01*
X75810Y-71199D01*
X76188Y-71200D01*
X76537Y-71055D01*
X76804Y-70788D01*
X76949Y-70439D01*
X76950Y-70061D01*
X76950Y-71450D01*
X72950Y-71450D01*
X72950Y-70061D01*
X72950Y-49061D01*
X72805Y-48712D01*
X72538Y-48445D01*
X72189Y-48300D01*
X71811Y-48299D01*
X71462Y-48444D01*
X71195Y-48711D01*
X71050Y-49060D01*
X71049Y-49438D01*
X71194Y-49787D01*
X71461Y-50054D01*
X71810Y-50199D01*
X72188Y-50200D01*
X72537Y-50055D01*
X72804Y-49788D01*
X72949Y-49439D01*
X72950Y-49061D01*
X72950Y-70061D01*
X72805Y-69712D01*
X72538Y-69445D01*
X72189Y-69300D01*
X71811Y-69299D01*
X71462Y-69444D01*
X71195Y-69711D01*
X71050Y-70060D01*
X71049Y-70438D01*
X71194Y-70787D01*
X71461Y-71054D01*
X71810Y-71199D01*
X72188Y-71200D01*
X72537Y-71055D01*
X72804Y-70788D01*
X72949Y-70439D01*
X72950Y-70061D01*
X72950Y-71450D01*
X66942Y-71450D01*
X66942Y-60063D01*
X66942Y-58063D01*
X66799Y-57717D01*
X66534Y-57451D01*
X66188Y-57308D01*
X65813Y-57307D01*
X65467Y-57450D01*
X65201Y-57715D01*
X65058Y-58061D01*
X65057Y-58436D01*
X65200Y-58782D01*
X65465Y-59048D01*
X65811Y-59191D01*
X66186Y-59192D01*
X66532Y-59049D01*
X66798Y-58784D01*
X66941Y-58438D01*
X66942Y-58063D01*
X66942Y-60063D01*
X66799Y-59717D01*
X66534Y-59451D01*
X66188Y-59308D01*
X65813Y-59307D01*
X65467Y-59450D01*
X65201Y-59715D01*
X65058Y-60061D01*
X65057Y-60436D01*
X65200Y-60782D01*
X65465Y-61048D01*
X65811Y-61191D01*
X66186Y-61192D01*
X66532Y-61049D01*
X66798Y-60784D01*
X66941Y-60438D01*
X66942Y-60063D01*
X66942Y-71450D01*
X64942Y-71450D01*
X64942Y-60063D01*
X64942Y-58094D01*
X64799Y-57748D01*
X64534Y-57483D01*
X64188Y-57339D01*
X63813Y-57339D01*
X63467Y-57482D01*
X63201Y-57747D01*
X63058Y-58093D01*
X63057Y-58468D01*
X63200Y-58814D01*
X63465Y-59079D01*
X63811Y-59223D01*
X64186Y-59223D01*
X64532Y-59080D01*
X64798Y-58815D01*
X64941Y-58469D01*
X64942Y-58094D01*
X64942Y-60063D01*
X64799Y-59717D01*
X64534Y-59451D01*
X64188Y-59308D01*
X63813Y-59307D01*
X63467Y-59450D01*
X63201Y-59715D01*
X63058Y-60061D01*
X63057Y-60436D01*
X63200Y-60782D01*
X63465Y-61048D01*
X63811Y-61191D01*
X64186Y-61192D01*
X64532Y-61049D01*
X64798Y-60784D01*
X64941Y-60438D01*
X64942Y-60063D01*
X64942Y-71450D01*
X64287Y-71450D01*
X64491Y-71246D01*
X64624Y-70924D01*
X64625Y-70576D01*
X64492Y-70255D01*
X64246Y-70008D01*
X63924Y-69875D01*
X63576Y-69874D01*
X63255Y-70007D01*
X63050Y-70212D01*
X63050Y-49287D01*
X63253Y-49491D01*
X63575Y-49624D01*
X63923Y-49625D01*
X64245Y-49492D01*
X64491Y-49246D01*
X64624Y-48924D01*
X64625Y-48576D01*
X64492Y-48255D01*
X64287Y-48050D01*
X110712Y-48050D01*
X110508Y-48253D01*
X110375Y-48575D01*
X110374Y-48923D01*
X110507Y-49245D01*
X110753Y-49491D01*
X111075Y-49624D01*
X111423Y-49625D01*
X111745Y-49492D01*
X111950Y-49287D01*
X111950Y-70212D01*
X111950Y-70212D01*
G37*
G54D22*
X111950Y-70212D02*
X111746Y-70008D01*
X111424Y-69875D01*
X111076Y-69874D01*
X110995Y-69908D01*
X110995Y-55877D01*
X110987Y-55582D01*
X110890Y-55346D01*
X110774Y-55295D01*
X110704Y-55366D01*
X110704Y-55225D01*
X110653Y-55109D01*
X110377Y-55004D01*
X110082Y-55012D01*
X109846Y-55109D01*
X109795Y-55225D01*
X110250Y-55679D01*
X110704Y-55225D01*
X110704Y-55366D01*
X110320Y-55750D01*
X110774Y-56204D01*
X110890Y-56153D01*
X110995Y-55877D01*
X110995Y-69908D01*
X110992Y-69909D01*
X110992Y-63603D01*
X110992Y-61603D01*
X110992Y-59603D01*
X110992Y-57603D01*
X110879Y-57330D01*
X110704Y-57154D01*
X110704Y-56274D01*
X110250Y-55820D01*
X110179Y-55891D01*
X110179Y-55750D01*
X109725Y-55295D01*
X109609Y-55346D01*
X109504Y-55622D01*
X109512Y-55917D01*
X109609Y-56153D01*
X109725Y-56204D01*
X110179Y-55750D01*
X110179Y-55891D01*
X109795Y-56274D01*
X109846Y-56390D01*
X110122Y-56495D01*
X110417Y-56487D01*
X110653Y-56390D01*
X110704Y-56274D01*
X110704Y-57154D01*
X110670Y-57121D01*
X110398Y-57008D01*
X110103Y-57007D01*
X109830Y-57120D01*
X109621Y-57329D01*
X109508Y-57601D01*
X109507Y-57896D01*
X109620Y-58169D01*
X109829Y-58378D01*
X110101Y-58491D01*
X110396Y-58492D01*
X110669Y-58379D01*
X110878Y-58170D01*
X110991Y-57898D01*
X110992Y-57603D01*
X110992Y-59603D01*
X110879Y-59330D01*
X110670Y-59121D01*
X110398Y-59008D01*
X110103Y-59007D01*
X109830Y-59120D01*
X109621Y-59329D01*
X109508Y-59601D01*
X109507Y-59896D01*
X109620Y-60169D01*
X109829Y-60378D01*
X110101Y-60491D01*
X110396Y-60492D01*
X110669Y-60379D01*
X110878Y-60170D01*
X110991Y-59898D01*
X110992Y-59603D01*
X110992Y-61603D01*
X110879Y-61330D01*
X110670Y-61121D01*
X110398Y-61008D01*
X110103Y-61007D01*
X109830Y-61120D01*
X109621Y-61329D01*
X109508Y-61601D01*
X109507Y-61896D01*
X109620Y-62169D01*
X109829Y-62378D01*
X110101Y-62491D01*
X110396Y-62492D01*
X110669Y-62379D01*
X110878Y-62170D01*
X110991Y-61898D01*
X110992Y-61603D01*
X110992Y-63603D01*
X110879Y-63330D01*
X110670Y-63121D01*
X110398Y-63008D01*
X110103Y-63007D01*
X109830Y-63120D01*
X109621Y-63329D01*
X109508Y-63601D01*
X109507Y-63896D01*
X109620Y-64169D01*
X109829Y-64378D01*
X110101Y-64491D01*
X110396Y-64492D01*
X110669Y-64379D01*
X110878Y-64170D01*
X110991Y-63898D01*
X110992Y-63603D01*
X110992Y-69909D01*
X110755Y-70007D01*
X110508Y-70253D01*
X110375Y-70575D01*
X110374Y-70923D01*
X110507Y-71245D01*
X110712Y-71450D01*
X109027Y-71450D01*
X109027Y-55877D01*
X109019Y-55582D01*
X108921Y-55346D01*
X108806Y-55295D01*
X108735Y-55366D01*
X108735Y-55225D01*
X108684Y-55109D01*
X108409Y-55004D01*
X108114Y-55012D01*
X107878Y-55109D01*
X107827Y-55225D01*
X108281Y-55679D01*
X108735Y-55225D01*
X108735Y-55366D01*
X108352Y-55750D01*
X108806Y-56204D01*
X108921Y-56153D01*
X109027Y-55877D01*
X109027Y-71450D01*
X109023Y-71450D01*
X109023Y-63603D01*
X109023Y-61603D01*
X109023Y-59603D01*
X109023Y-57603D01*
X108911Y-57330D01*
X108735Y-57154D01*
X108735Y-56274D01*
X108281Y-55820D01*
X108210Y-55891D01*
X108210Y-55750D01*
X107756Y-55295D01*
X107641Y-55346D01*
X107535Y-55622D01*
X107543Y-55917D01*
X107641Y-56153D01*
X107756Y-56204D01*
X108210Y-55750D01*
X108210Y-55891D01*
X107827Y-56274D01*
X107878Y-56390D01*
X108153Y-56495D01*
X108448Y-56487D01*
X108684Y-56390D01*
X108735Y-56274D01*
X108735Y-57154D01*
X108702Y-57121D01*
X108429Y-57008D01*
X108134Y-57007D01*
X107861Y-57120D01*
X107652Y-57329D01*
X107539Y-57601D01*
X107539Y-57896D01*
X107651Y-58169D01*
X107860Y-58378D01*
X108133Y-58491D01*
X108428Y-58492D01*
X108701Y-58379D01*
X108910Y-58170D01*
X109023Y-57898D01*
X109023Y-57603D01*
X109023Y-59603D01*
X108911Y-59330D01*
X108702Y-59121D01*
X108429Y-59008D01*
X108134Y-59007D01*
X107861Y-59120D01*
X107652Y-59329D01*
X107539Y-59601D01*
X107539Y-59896D01*
X107651Y-60169D01*
X107860Y-60378D01*
X108133Y-60491D01*
X108428Y-60492D01*
X108701Y-60379D01*
X108910Y-60170D01*
X109023Y-59898D01*
X109023Y-59603D01*
X109023Y-61603D01*
X108911Y-61330D01*
X108702Y-61121D01*
X108429Y-61008D01*
X108134Y-61007D01*
X107861Y-61120D01*
X107652Y-61329D01*
X107539Y-61601D01*
X107539Y-61896D01*
X107651Y-62169D01*
X107860Y-62378D01*
X108133Y-62491D01*
X108428Y-62492D01*
X108701Y-62379D01*
X108910Y-62170D01*
X109023Y-61898D01*
X109023Y-61603D01*
X109023Y-63603D01*
X108911Y-63330D01*
X108702Y-63121D01*
X108429Y-63008D01*
X108134Y-63007D01*
X108013Y-63057D01*
X106991Y-62035D01*
X106991Y-51332D01*
X106979Y-51139D01*
X106928Y-51016D01*
X106839Y-50996D01*
X106768Y-51067D01*
X106768Y-50926D01*
X106749Y-50837D01*
X106566Y-50774D01*
X106373Y-50786D01*
X106250Y-50837D01*
X106231Y-50926D01*
X106500Y-51195D01*
X106768Y-50926D01*
X106768Y-51067D01*
X106570Y-51265D01*
X106839Y-51534D01*
X106928Y-51515D01*
X106991Y-51332D01*
X106991Y-62035D01*
X106800Y-61844D01*
X106800Y-53714D01*
X106877Y-53682D01*
X106948Y-53612D01*
X106986Y-53520D01*
X106986Y-53420D01*
X106986Y-52948D01*
X106948Y-52856D01*
X106878Y-52786D01*
X106786Y-52748D01*
X106768Y-52748D01*
X106768Y-51605D01*
X106500Y-51336D01*
X106429Y-51407D01*
X106429Y-51265D01*
X106160Y-50996D01*
X106071Y-51016D01*
X106008Y-51199D01*
X106020Y-51392D01*
X106071Y-51515D01*
X106160Y-51534D01*
X106429Y-51265D01*
X106429Y-51407D01*
X106231Y-51605D01*
X106250Y-51694D01*
X106433Y-51757D01*
X106626Y-51745D01*
X106749Y-51694D01*
X106768Y-51605D01*
X106768Y-52748D01*
X106686Y-52747D01*
X106214Y-52747D01*
X106122Y-52785D01*
X106051Y-52856D01*
X106013Y-52948D01*
X106013Y-53047D01*
X106013Y-53519D01*
X106051Y-53611D01*
X106121Y-53682D01*
X106200Y-53714D01*
X106200Y-59418D01*
X106161Y-59379D01*
X106004Y-59315D01*
X105835Y-59314D01*
X105679Y-59379D01*
X105666Y-59392D01*
X97594Y-51320D01*
X97595Y-51235D01*
X97530Y-51079D01*
X97411Y-50959D01*
X97254Y-50895D01*
X97085Y-50894D01*
X96929Y-50959D01*
X96809Y-51078D01*
X96745Y-51235D01*
X96744Y-51404D01*
X96809Y-51560D01*
X96928Y-51680D01*
X97085Y-51744D01*
X97170Y-51745D01*
X105377Y-59952D01*
X105377Y-59952D01*
X105475Y-60017D01*
X105590Y-60040D01*
X105618Y-60040D01*
X105678Y-60100D01*
X105835Y-60164D01*
X106004Y-60165D01*
X106160Y-60100D01*
X106200Y-60061D01*
X106200Y-61968D01*
X106222Y-62083D01*
X106287Y-62180D01*
X107589Y-63481D01*
X107539Y-63601D01*
X107539Y-63896D01*
X107651Y-64169D01*
X107860Y-64378D01*
X108133Y-64491D01*
X108428Y-64492D01*
X108701Y-64379D01*
X108910Y-64170D01*
X109023Y-63898D01*
X109023Y-63603D01*
X109023Y-71450D01*
X106991Y-71450D01*
X106991Y-68300D01*
X106986Y-68219D01*
X106986Y-66452D01*
X106986Y-65980D01*
X106948Y-65888D01*
X106878Y-65817D01*
X106786Y-65779D01*
X106686Y-65779D01*
X106214Y-65779D01*
X106122Y-65817D01*
X106051Y-65887D01*
X106013Y-65979D01*
X106013Y-66079D01*
X106013Y-66551D01*
X106051Y-66643D01*
X106121Y-66713D01*
X106213Y-66751D01*
X106313Y-66752D01*
X106785Y-66752D01*
X106877Y-66714D01*
X106948Y-66643D01*
X106986Y-66551D01*
X106986Y-66452D01*
X106986Y-68219D01*
X106979Y-68107D01*
X106928Y-67984D01*
X106839Y-67965D01*
X106768Y-68036D01*
X106768Y-67894D01*
X106749Y-67805D01*
X106566Y-67742D01*
X106373Y-67754D01*
X106250Y-67805D01*
X106231Y-67894D01*
X106500Y-68163D01*
X106768Y-67894D01*
X106768Y-68036D01*
X106570Y-68234D01*
X106839Y-68503D01*
X106928Y-68483D01*
X106991Y-68300D01*
X106991Y-71450D01*
X106768Y-71450D01*
X106768Y-68573D01*
X106500Y-68304D01*
X106429Y-68375D01*
X106429Y-68234D01*
X106160Y-67965D01*
X106071Y-67984D01*
X106008Y-68167D01*
X106020Y-68360D01*
X106071Y-68483D01*
X106160Y-68503D01*
X106429Y-68234D01*
X106429Y-68375D01*
X106231Y-68573D01*
X106250Y-68662D01*
X106433Y-68725D01*
X106626Y-68713D01*
X106749Y-68662D01*
X106768Y-68573D01*
X106768Y-71450D01*
X99495Y-71450D01*
X99495Y-61995D01*
X99430Y-61839D01*
X99311Y-61719D01*
X99154Y-61655D01*
X98985Y-61654D01*
X98965Y-61663D01*
X98965Y-56775D01*
X98900Y-56619D01*
X98781Y-56499D01*
X98624Y-56435D01*
X98455Y-56434D01*
X98299Y-56499D01*
X98238Y-56560D01*
X93100Y-56560D01*
X93100Y-51381D01*
X93008Y-51160D01*
X92840Y-50991D01*
X92619Y-50900D01*
X92381Y-50899D01*
X92160Y-50991D01*
X91991Y-51159D01*
X91987Y-51170D01*
X91922Y-51148D01*
X91851Y-51219D01*
X91851Y-51077D01*
X91817Y-50977D01*
X91593Y-50895D01*
X91355Y-50905D01*
X91182Y-50977D01*
X91148Y-51077D01*
X91500Y-51429D01*
X91851Y-51077D01*
X91851Y-51219D01*
X91570Y-51500D01*
X91922Y-51851D01*
X91987Y-51829D01*
X91991Y-51839D01*
X92159Y-52008D01*
X92380Y-52099D01*
X92618Y-52100D01*
X92839Y-52008D01*
X93008Y-51840D01*
X93099Y-51619D01*
X93100Y-51381D01*
X93100Y-56560D01*
X92141Y-56560D01*
X92071Y-56489D01*
X91914Y-56425D01*
X91851Y-56425D01*
X91851Y-51922D01*
X91500Y-51570D01*
X91429Y-51641D01*
X91429Y-51500D01*
X91077Y-51148D01*
X91050Y-51157D01*
X91050Y-51150D01*
X91012Y-51058D01*
X90941Y-50988D01*
X90849Y-50950D01*
X90750Y-50949D01*
X90150Y-50949D01*
X90058Y-50987D01*
X89988Y-51058D01*
X89950Y-51150D01*
X89949Y-51249D01*
X89949Y-51849D01*
X89987Y-51941D01*
X90058Y-52011D01*
X90150Y-52049D01*
X90249Y-52050D01*
X90849Y-52050D01*
X90941Y-52012D01*
X91011Y-51941D01*
X91049Y-51849D01*
X91049Y-51842D01*
X91077Y-51851D01*
X91429Y-51500D01*
X91429Y-51641D01*
X91148Y-51922D01*
X91182Y-52022D01*
X91406Y-52104D01*
X91644Y-52094D01*
X91817Y-52022D01*
X91851Y-51922D01*
X91851Y-56425D01*
X91745Y-56424D01*
X91589Y-56489D01*
X91469Y-56608D01*
X91405Y-56765D01*
X91404Y-56934D01*
X91469Y-57090D01*
X91588Y-57210D01*
X91745Y-57274D01*
X91914Y-57275D01*
X92070Y-57210D01*
X92121Y-57160D01*
X98238Y-57160D01*
X98298Y-57220D01*
X98455Y-57284D01*
X98624Y-57285D01*
X98780Y-57220D01*
X98900Y-57101D01*
X98964Y-56944D01*
X98965Y-56775D01*
X98965Y-61663D01*
X98829Y-61719D01*
X98768Y-61780D01*
X92281Y-61780D01*
X92221Y-61719D01*
X92064Y-61655D01*
X91895Y-61654D01*
X91739Y-61719D01*
X91619Y-61838D01*
X91555Y-61995D01*
X91554Y-62164D01*
X91619Y-62320D01*
X91738Y-62440D01*
X91895Y-62504D01*
X92064Y-62505D01*
X92220Y-62440D01*
X92281Y-62380D01*
X98768Y-62380D01*
X98828Y-62440D01*
X98985Y-62504D01*
X99154Y-62505D01*
X99310Y-62440D01*
X99430Y-62321D01*
X99494Y-62164D01*
X99495Y-61995D01*
X99495Y-71450D01*
X93100Y-71450D01*
X93100Y-67631D01*
X93008Y-67410D01*
X92840Y-67241D01*
X92619Y-67150D01*
X92381Y-67149D01*
X92160Y-67241D01*
X91999Y-67401D01*
X91840Y-67241D01*
X91619Y-67150D01*
X91381Y-67149D01*
X91160Y-67241D01*
X91085Y-67315D01*
X91062Y-67258D01*
X90991Y-67188D01*
X90899Y-67150D01*
X90800Y-67149D01*
X90612Y-67150D01*
X90550Y-67212D01*
X90550Y-67700D01*
X90557Y-67700D01*
X90557Y-67800D01*
X90550Y-67800D01*
X90550Y-68287D01*
X90612Y-68350D01*
X90800Y-68350D01*
X90899Y-68349D01*
X90991Y-68311D01*
X91062Y-68241D01*
X91085Y-68184D01*
X91159Y-68258D01*
X91380Y-68349D01*
X91618Y-68350D01*
X91839Y-68258D01*
X92000Y-68098D01*
X92159Y-68258D01*
X92380Y-68349D01*
X92618Y-68350D01*
X92839Y-68258D01*
X93008Y-68090D01*
X93099Y-67869D01*
X93100Y-67631D01*
X93100Y-71450D01*
X90450Y-71450D01*
X90450Y-68287D01*
X90450Y-67800D01*
X90450Y-67700D01*
X90450Y-67212D01*
X90387Y-67150D01*
X90199Y-67149D01*
X90100Y-67150D01*
X90008Y-67188D01*
X89937Y-67258D01*
X89899Y-67350D01*
X89900Y-67637D01*
X89962Y-67700D01*
X90450Y-67700D01*
X90450Y-67800D01*
X89962Y-67800D01*
X89900Y-67862D01*
X89899Y-68149D01*
X89937Y-68241D01*
X90008Y-68311D01*
X90100Y-68349D01*
X90199Y-68350D01*
X90387Y-68350D01*
X90450Y-68287D01*
X90450Y-71450D01*
X88952Y-71450D01*
X88952Y-62746D01*
X88952Y-57996D01*
X88946Y-57923D01*
X88946Y-56708D01*
X88946Y-56314D01*
X88908Y-56222D01*
X88838Y-56152D01*
X88746Y-56114D01*
X88702Y-56114D01*
X88702Y-50663D01*
X88689Y-50486D01*
X88645Y-50380D01*
X88561Y-50365D01*
X88490Y-50436D01*
X88490Y-50295D01*
X88475Y-50210D01*
X88307Y-50154D01*
X88129Y-50166D01*
X88024Y-50210D01*
X88009Y-50295D01*
X88250Y-50535D01*
X88490Y-50295D01*
X88490Y-50436D01*
X88320Y-50606D01*
X88561Y-50846D01*
X88645Y-50832D01*
X88702Y-50663D01*
X88702Y-56114D01*
X88696Y-56114D01*
X88696Y-51541D01*
X88696Y-51147D01*
X88658Y-51055D01*
X88588Y-50985D01*
X88496Y-50946D01*
X88485Y-50946D01*
X88490Y-50917D01*
X88250Y-50677D01*
X88179Y-50747D01*
X88179Y-50606D01*
X87938Y-50365D01*
X87854Y-50380D01*
X87797Y-50549D01*
X87810Y-50726D01*
X87854Y-50832D01*
X87938Y-50846D01*
X88179Y-50606D01*
X88179Y-50747D01*
X88009Y-50917D01*
X88014Y-50946D01*
X88003Y-50946D01*
X87911Y-50984D01*
X87841Y-51055D01*
X87803Y-51146D01*
X87803Y-51246D01*
X87803Y-51640D01*
X87841Y-51731D01*
X87911Y-51802D01*
X88003Y-51840D01*
X88102Y-51840D01*
X88496Y-51840D01*
X88588Y-51802D01*
X88658Y-51732D01*
X88696Y-51640D01*
X88696Y-51541D01*
X88696Y-56114D01*
X88647Y-56114D01*
X88253Y-56114D01*
X88161Y-56152D01*
X88091Y-56222D01*
X88053Y-56314D01*
X88053Y-56413D01*
X88053Y-56807D01*
X88091Y-56899D01*
X88161Y-56969D01*
X88253Y-57007D01*
X88352Y-57007D01*
X88746Y-57007D01*
X88838Y-56969D01*
X88908Y-56899D01*
X88946Y-56807D01*
X88946Y-56708D01*
X88946Y-57923D01*
X88939Y-57818D01*
X88895Y-57713D01*
X88811Y-57698D01*
X88740Y-57769D01*
X88740Y-57627D01*
X88725Y-57543D01*
X88557Y-57486D01*
X88379Y-57499D01*
X88274Y-57543D01*
X88259Y-57627D01*
X88500Y-57868D01*
X88740Y-57627D01*
X88740Y-57769D01*
X88570Y-57938D01*
X88811Y-58179D01*
X88895Y-58164D01*
X88952Y-57996D01*
X88952Y-62746D01*
X88946Y-62673D01*
X88946Y-61458D01*
X88946Y-61064D01*
X88908Y-60972D01*
X88838Y-60902D01*
X88746Y-60864D01*
X88740Y-60864D01*
X88740Y-58250D01*
X88500Y-58009D01*
X88429Y-58080D01*
X88429Y-57938D01*
X88188Y-57698D01*
X88104Y-57713D01*
X88047Y-57881D01*
X88060Y-58059D01*
X88104Y-58164D01*
X88188Y-58179D01*
X88429Y-57938D01*
X88429Y-58080D01*
X88259Y-58250D01*
X88274Y-58334D01*
X88442Y-58390D01*
X88620Y-58378D01*
X88725Y-58334D01*
X88740Y-58250D01*
X88740Y-60864D01*
X88647Y-60864D01*
X88253Y-60864D01*
X88161Y-60902D01*
X88091Y-60972D01*
X88053Y-61064D01*
X88053Y-61163D01*
X88053Y-61557D01*
X88091Y-61649D01*
X88161Y-61719D01*
X88253Y-61757D01*
X88352Y-61757D01*
X88746Y-61757D01*
X88838Y-61719D01*
X88908Y-61649D01*
X88946Y-61557D01*
X88946Y-61458D01*
X88946Y-62673D01*
X88939Y-62568D01*
X88895Y-62463D01*
X88811Y-62448D01*
X88740Y-62519D01*
X88740Y-62377D01*
X88725Y-62293D01*
X88557Y-62236D01*
X88379Y-62249D01*
X88274Y-62293D01*
X88259Y-62377D01*
X88500Y-62618D01*
X88740Y-62377D01*
X88740Y-62519D01*
X88570Y-62688D01*
X88811Y-62929D01*
X88895Y-62914D01*
X88952Y-62746D01*
X88952Y-71450D01*
X88740Y-71450D01*
X88740Y-63000D01*
X88500Y-62759D01*
X88429Y-62830D01*
X88429Y-62688D01*
X88188Y-62448D01*
X88104Y-62463D01*
X88047Y-62631D01*
X88060Y-62809D01*
X88104Y-62914D01*
X88188Y-62929D01*
X88429Y-62688D01*
X88429Y-62830D01*
X88259Y-63000D01*
X88274Y-63084D01*
X88442Y-63140D01*
X88620Y-63128D01*
X88725Y-63084D01*
X88740Y-63000D01*
X88740Y-71450D01*
X88446Y-71450D01*
X88446Y-68267D01*
X88379Y-68103D01*
X88253Y-67977D01*
X88089Y-67909D01*
X87911Y-67909D01*
X87747Y-67977D01*
X87621Y-68102D01*
X87553Y-68267D01*
X87553Y-68444D01*
X87620Y-68609D01*
X87721Y-68709D01*
X87661Y-68735D01*
X87591Y-68805D01*
X87553Y-68897D01*
X87553Y-69031D01*
X87615Y-69093D01*
X87950Y-69093D01*
X87950Y-69085D01*
X88050Y-69085D01*
X88050Y-69093D01*
X88384Y-69093D01*
X88446Y-69031D01*
X88446Y-68897D01*
X88408Y-68805D01*
X88338Y-68735D01*
X88278Y-68709D01*
X88378Y-68609D01*
X88446Y-68445D01*
X88446Y-68267D01*
X88446Y-71450D01*
X88446Y-71450D01*
X88446Y-69390D01*
X88446Y-69256D01*
X88384Y-69193D01*
X88050Y-69193D01*
X88050Y-69528D01*
X88112Y-69590D01*
X88147Y-69590D01*
X88246Y-69590D01*
X88338Y-69552D01*
X88408Y-69481D01*
X88446Y-69390D01*
X88446Y-71450D01*
X87950Y-71450D01*
X87950Y-69528D01*
X87950Y-69193D01*
X87615Y-69193D01*
X87553Y-69256D01*
X87553Y-69390D01*
X87591Y-69481D01*
X87661Y-69552D01*
X87753Y-69590D01*
X87852Y-69590D01*
X87887Y-69590D01*
X87950Y-69528D01*
X87950Y-71450D01*
X86245Y-71450D01*
X86245Y-60923D01*
X86245Y-59387D01*
X86202Y-59282D01*
X86202Y-50663D01*
X86189Y-50486D01*
X86145Y-50380D01*
X86061Y-50365D01*
X85990Y-50436D01*
X85990Y-50295D01*
X85975Y-50210D01*
X85807Y-50154D01*
X85629Y-50166D01*
X85524Y-50210D01*
X85509Y-50295D01*
X85750Y-50535D01*
X85990Y-50295D01*
X85990Y-50436D01*
X85820Y-50606D01*
X86061Y-50846D01*
X86145Y-50832D01*
X86202Y-50663D01*
X86202Y-59282D01*
X86196Y-59270D01*
X86196Y-51541D01*
X86196Y-51147D01*
X86158Y-51055D01*
X86088Y-50985D01*
X85996Y-50946D01*
X85985Y-50946D01*
X85990Y-50917D01*
X85750Y-50677D01*
X85679Y-50747D01*
X85679Y-50606D01*
X85438Y-50365D01*
X85354Y-50380D01*
X85297Y-50549D01*
X85310Y-50726D01*
X85354Y-50832D01*
X85438Y-50846D01*
X85679Y-50606D01*
X85679Y-50747D01*
X85509Y-50917D01*
X85514Y-50946D01*
X85503Y-50946D01*
X85411Y-50984D01*
X85341Y-51055D01*
X85303Y-51146D01*
X85303Y-51246D01*
X85303Y-51640D01*
X85341Y-51731D01*
X85411Y-51802D01*
X85503Y-51840D01*
X85602Y-51840D01*
X85996Y-51840D01*
X86088Y-51802D01*
X86158Y-51732D01*
X86196Y-51640D01*
X86196Y-51541D01*
X86196Y-59270D01*
X86132Y-59113D01*
X86045Y-59026D01*
X86045Y-57892D01*
X85962Y-57691D01*
X85809Y-57538D01*
X85608Y-57454D01*
X85392Y-57454D01*
X85191Y-57537D01*
X85038Y-57690D01*
X84954Y-57891D01*
X84954Y-58107D01*
X85037Y-58308D01*
X85190Y-58461D01*
X85391Y-58545D01*
X85607Y-58545D01*
X85808Y-58462D01*
X85961Y-58309D01*
X86045Y-58108D01*
X86045Y-57892D01*
X86045Y-59026D01*
X85922Y-58903D01*
X85648Y-58790D01*
X85352Y-58790D01*
X85078Y-58903D01*
X84868Y-59112D01*
X84754Y-59386D01*
X84754Y-59683D01*
X84867Y-59957D01*
X85077Y-60166D01*
X85351Y-60280D01*
X85647Y-60280D01*
X85921Y-60167D01*
X86131Y-59958D01*
X86245Y-59684D01*
X86245Y-59387D01*
X86245Y-60923D01*
X86132Y-60649D01*
X85922Y-60439D01*
X85648Y-60325D01*
X85352Y-60325D01*
X85078Y-60438D01*
X84868Y-60648D01*
X84754Y-60921D01*
X84754Y-61218D01*
X84867Y-61492D01*
X85077Y-61702D01*
X85351Y-61816D01*
X85647Y-61816D01*
X85921Y-61703D01*
X86131Y-61493D01*
X86245Y-61219D01*
X86245Y-60923D01*
X86245Y-71450D01*
X86196Y-71450D01*
X86196Y-68267D01*
X86129Y-68103D01*
X86045Y-68019D01*
X86045Y-62498D01*
X85962Y-62297D01*
X85809Y-62144D01*
X85608Y-62061D01*
X85392Y-62060D01*
X85191Y-62143D01*
X85038Y-62297D01*
X84954Y-62497D01*
X84954Y-62714D01*
X85037Y-62914D01*
X85190Y-63068D01*
X85391Y-63151D01*
X85607Y-63151D01*
X85808Y-63068D01*
X85961Y-62915D01*
X86045Y-62715D01*
X86045Y-62498D01*
X86045Y-68019D01*
X86003Y-67977D01*
X85839Y-67909D01*
X85661Y-67909D01*
X85497Y-67977D01*
X85371Y-68102D01*
X85303Y-68267D01*
X85303Y-68444D01*
X85370Y-68609D01*
X85471Y-68709D01*
X85411Y-68735D01*
X85341Y-68805D01*
X85303Y-68897D01*
X85303Y-69031D01*
X85365Y-69093D01*
X85700Y-69093D01*
X85700Y-69085D01*
X85800Y-69085D01*
X85800Y-69093D01*
X86134Y-69093D01*
X86196Y-69031D01*
X86196Y-68897D01*
X86158Y-68805D01*
X86088Y-68735D01*
X86028Y-68709D01*
X86128Y-68609D01*
X86196Y-68445D01*
X86196Y-68267D01*
X86196Y-71450D01*
X86196Y-71450D01*
X86196Y-69390D01*
X86196Y-69256D01*
X86134Y-69193D01*
X85800Y-69193D01*
X85800Y-69528D01*
X85862Y-69590D01*
X85897Y-69590D01*
X85996Y-69590D01*
X86088Y-69552D01*
X86158Y-69481D01*
X86196Y-69390D01*
X86196Y-71450D01*
X85700Y-71450D01*
X85700Y-69528D01*
X85700Y-69193D01*
X85365Y-69193D01*
X85303Y-69256D01*
X85303Y-69390D01*
X85341Y-69481D01*
X85411Y-69552D01*
X85503Y-69590D01*
X85602Y-69590D01*
X85637Y-69590D01*
X85700Y-69528D01*
X85700Y-71450D01*
X80950Y-71450D01*
X80950Y-49061D01*
X80805Y-48712D01*
X80538Y-48445D01*
X80189Y-48300D01*
X79811Y-48299D01*
X79462Y-48444D01*
X79195Y-48711D01*
X79050Y-49060D01*
X79049Y-49438D01*
X79194Y-49787D01*
X79461Y-50054D01*
X79810Y-50199D01*
X80188Y-50200D01*
X80537Y-50055D01*
X80804Y-49788D01*
X80949Y-49439D01*
X80950Y-49061D01*
X80950Y-71450D01*
X80753Y-71450D01*
X80753Y-70379D01*
X80745Y-70081D01*
X80646Y-69841D01*
X80530Y-69790D01*
X80459Y-69860D01*
X80459Y-69719D01*
X80408Y-69603D01*
X80129Y-69496D01*
X79831Y-69504D01*
X79591Y-69603D01*
X79540Y-69719D01*
X80000Y-70179D01*
X80459Y-69719D01*
X80459Y-69860D01*
X80070Y-70250D01*
X80530Y-70709D01*
X80646Y-70658D01*
X80753Y-70379D01*
X80753Y-71450D01*
X80459Y-71450D01*
X80459Y-70780D01*
X80000Y-70320D01*
X79929Y-70391D01*
X79929Y-70250D01*
X79469Y-69790D01*
X79353Y-69841D01*
X79246Y-70120D01*
X79254Y-70418D01*
X79353Y-70658D01*
X79469Y-70709D01*
X79929Y-70250D01*
X79929Y-70391D01*
X79540Y-70780D01*
X79591Y-70896D01*
X79870Y-71003D01*
X80168Y-70995D01*
X80408Y-70896D01*
X80459Y-70780D01*
X80459Y-71450D01*
X76950Y-71450D01*
X76950Y-70061D01*
X76805Y-69712D01*
X76753Y-69660D01*
X76753Y-49379D01*
X76745Y-49081D01*
X76646Y-48841D01*
X76530Y-48790D01*
X76459Y-48860D01*
X76459Y-48719D01*
X76408Y-48603D01*
X76129Y-48496D01*
X75831Y-48504D01*
X75591Y-48603D01*
X75540Y-48719D01*
X76000Y-49179D01*
X76459Y-48719D01*
X76459Y-48860D01*
X76070Y-49250D01*
X76530Y-49709D01*
X76646Y-49658D01*
X76753Y-49379D01*
X76753Y-69660D01*
X76538Y-69445D01*
X76459Y-69412D01*
X76459Y-49780D01*
X76000Y-49320D01*
X75929Y-49391D01*
X75929Y-49250D01*
X75469Y-48790D01*
X75353Y-48841D01*
X75246Y-49120D01*
X75254Y-49418D01*
X75353Y-49658D01*
X75469Y-49709D01*
X75929Y-49250D01*
X75929Y-49391D01*
X75540Y-49780D01*
X75591Y-49896D01*
X75870Y-50003D01*
X76168Y-49995D01*
X76408Y-49896D01*
X76459Y-49780D01*
X76459Y-69412D01*
X76189Y-69300D01*
X75811Y-69299D01*
X75462Y-69444D01*
X75195Y-69711D01*
X75050Y-70060D01*
X75049Y-70438D01*
X75194Y-70787D01*
X75461Y-71054D01*
X75810Y-71199D01*
X76188Y-71200D01*
X76537Y-71055D01*
X76804Y-70788D01*
X76949Y-70439D01*
X76950Y-70061D01*
X76950Y-71450D01*
X72950Y-71450D01*
X72950Y-70061D01*
X72950Y-49061D01*
X72805Y-48712D01*
X72538Y-48445D01*
X72189Y-48300D01*
X71811Y-48299D01*
X71462Y-48444D01*
X71195Y-48711D01*
X71050Y-49060D01*
X71049Y-49438D01*
X71194Y-49787D01*
X71461Y-50054D01*
X71810Y-50199D01*
X72188Y-50200D01*
X72537Y-50055D01*
X72804Y-49788D01*
X72949Y-49439D01*
X72950Y-49061D01*
X72950Y-70061D01*
X72805Y-69712D01*
X72538Y-69445D01*
X72189Y-69300D01*
X71811Y-69299D01*
X71462Y-69444D01*
X71195Y-69711D01*
X71050Y-70060D01*
X71049Y-70438D01*
X71194Y-70787D01*
X71461Y-71054D01*
X71810Y-71199D01*
X72188Y-71200D01*
X72537Y-71055D01*
X72804Y-70788D01*
X72949Y-70439D01*
X72950Y-70061D01*
X72950Y-71450D01*
X66942Y-71450D01*
X66942Y-60063D01*
X66942Y-58063D01*
X66799Y-57717D01*
X66534Y-57451D01*
X66188Y-57308D01*
X65813Y-57307D01*
X65467Y-57450D01*
X65201Y-57715D01*
X65058Y-58061D01*
X65057Y-58436D01*
X65200Y-58782D01*
X65465Y-59048D01*
X65811Y-59191D01*
X66186Y-59192D01*
X66532Y-59049D01*
X66798Y-58784D01*
X66941Y-58438D01*
X66942Y-58063D01*
X66942Y-60063D01*
X66799Y-59717D01*
X66534Y-59451D01*
X66188Y-59308D01*
X65813Y-59307D01*
X65467Y-59450D01*
X65201Y-59715D01*
X65058Y-60061D01*
X65057Y-60436D01*
X65200Y-60782D01*
X65465Y-61048D01*
X65811Y-61191D01*
X66186Y-61192D01*
X66532Y-61049D01*
X66798Y-60784D01*
X66941Y-60438D01*
X66942Y-60063D01*
X66942Y-71450D01*
X64942Y-71450D01*
X64942Y-60063D01*
X64942Y-58094D01*
X64799Y-57748D01*
X64534Y-57483D01*
X64188Y-57339D01*
X63813Y-57339D01*
X63467Y-57482D01*
X63201Y-57747D01*
X63058Y-58093D01*
X63057Y-58468D01*
X63200Y-58814D01*
X63465Y-59079D01*
X63811Y-59223D01*
X64186Y-59223D01*
X64532Y-59080D01*
X64798Y-58815D01*
X64941Y-58469D01*
X64942Y-58094D01*
X64942Y-60063D01*
X64799Y-59717D01*
X64534Y-59451D01*
X64188Y-59308D01*
X63813Y-59307D01*
X63467Y-59450D01*
X63201Y-59715D01*
X63058Y-60061D01*
X63057Y-60436D01*
X63200Y-60782D01*
X63465Y-61048D01*
X63811Y-61191D01*
X64186Y-61192D01*
X64532Y-61049D01*
X64798Y-60784D01*
X64941Y-60438D01*
X64942Y-60063D01*
X64942Y-71450D01*
X64287Y-71450D01*
X64491Y-71246D01*
X64624Y-70924D01*
X64625Y-70576D01*
X64492Y-70255D01*
X64246Y-70008D01*
X63924Y-69875D01*
X63576Y-69874D01*
X63255Y-70007D01*
X63050Y-70212D01*
X63050Y-49287D01*
X63253Y-49491D01*
X63575Y-49624D01*
X63923Y-49625D01*
X64245Y-49492D01*
X64491Y-49246D01*
X64624Y-48924D01*
X64625Y-48576D01*
X64492Y-48255D01*
X64287Y-48050D01*
X110712Y-48050D01*
X110508Y-48253D01*
X110375Y-48575D01*
X110374Y-48923D01*
X110507Y-49245D01*
X110753Y-49491D01*
X111075Y-49624D01*
X111423Y-49625D01*
X111745Y-49492D01*
X111950Y-49287D01*
X111950Y-70212D01*
M02*
