G04 (created by PCBNEW (2013-07-07 BZR 4022)-stable) date 4/14/2014 10:19:51 AM*
%MOIN*%
G04 Gerber Fmt 3.4, Leading zero omitted, Abs format*
%FSLAX34Y34*%
G01*
G70*
G90*
G04 APERTURE LIST*
%ADD10C,0.00590551*%
%ADD11R,0.025X0.045*%
%ADD12C,0.0590551*%
%ADD13R,0.0354X0.0394*%
%ADD14R,0.0393701X0.0393701*%
%ADD15C,0.0393701*%
%ADD16R,0.0472441X0.0472441*%
%ADD17C,0.0472441*%
%ADD18C,0.0984252*%
%ADD19C,0.1*%
%ADD20C,0.07*%
%ADD21R,0.07X0.07*%
%ADD22C,0.035*%
%ADD23C,0.01*%
G04 APERTURE END LIST*
G54D10*
G54D11*
X89950Y-58250D03*
X90550Y-58250D03*
G54D12*
X85500Y-62606D03*
X85500Y-61070D03*
X85500Y-59535D03*
X85500Y-58000D03*
G54D13*
X89954Y-59000D03*
X90546Y-59000D03*
G54D14*
X92811Y-61500D03*
G54D15*
X94188Y-61500D03*
G54D14*
X94188Y-65000D03*
G54D15*
X92811Y-65000D03*
G54D14*
X88000Y-69143D03*
G54D15*
X88000Y-68356D03*
G54D14*
X85750Y-69143D03*
G54D15*
X85750Y-68356D03*
G54D14*
X88250Y-51393D03*
G54D15*
X88250Y-50606D03*
G54D14*
X85750Y-51393D03*
G54D15*
X85750Y-50606D03*
G54D16*
X98750Y-56484D03*
G54D17*
X98750Y-54515D03*
G54D16*
X102750Y-56484D03*
G54D17*
X102750Y-54515D03*
G54D18*
X110250Y-63750D03*
X110250Y-61750D03*
X110250Y-59750D03*
X110250Y-57750D03*
X110250Y-55750D03*
X108281Y-63750D03*
X108281Y-61750D03*
X108281Y-59750D03*
X108281Y-57750D03*
X108281Y-55750D03*
X64000Y-60250D03*
X64000Y-58281D03*
X66000Y-60250D03*
X66000Y-58250D03*
G54D19*
X76000Y-70250D03*
X72000Y-70250D03*
X80000Y-70250D03*
X72000Y-49250D03*
X76000Y-49250D03*
X80000Y-49250D03*
G54D20*
X91500Y-67750D03*
X92500Y-67750D03*
G54D21*
X90500Y-67750D03*
G54D20*
X91500Y-51500D03*
X92500Y-51500D03*
G54D21*
X90500Y-51500D03*
G54D22*
X87130Y-59950D03*
X89080Y-59210D03*
G54D23*
X87160Y-59920D02*
X87160Y-59750D01*
X87130Y-59950D02*
X87160Y-59920D01*
X89950Y-58250D02*
X89950Y-58996D01*
X89950Y-58996D02*
X89954Y-59000D01*
X89570Y-59000D02*
X89954Y-59000D01*
X89370Y-59200D02*
X89570Y-59000D01*
X89090Y-59200D02*
X89370Y-59200D01*
X89080Y-59210D02*
X89090Y-59200D01*
X90550Y-58250D02*
X96984Y-58250D01*
X96984Y-58250D02*
X98750Y-56484D01*
X90550Y-58250D02*
X90550Y-58996D01*
X90550Y-58996D02*
X90546Y-59000D01*
G54D10*
G36*
X111950Y-70212D02*
X111746Y-70008D01*
X111424Y-69875D01*
X111076Y-69874D01*
X110995Y-69908D01*
X110995Y-55877D01*
X110987Y-55582D01*
X110890Y-55346D01*
X110774Y-55295D01*
X110704Y-55366D01*
X110704Y-55225D01*
X110653Y-55109D01*
X110377Y-55004D01*
X110082Y-55012D01*
X109846Y-55109D01*
X109795Y-55225D01*
X110250Y-55679D01*
X110704Y-55225D01*
X110704Y-55366D01*
X110320Y-55750D01*
X110774Y-56204D01*
X110890Y-56153D01*
X110995Y-55877D01*
X110995Y-69908D01*
X110992Y-69909D01*
X110992Y-63603D01*
X110992Y-61603D01*
X110992Y-59603D01*
X110992Y-57603D01*
X110879Y-57330D01*
X110704Y-57154D01*
X110704Y-56274D01*
X110250Y-55820D01*
X110179Y-55891D01*
X110179Y-55750D01*
X109725Y-55295D01*
X109609Y-55346D01*
X109504Y-55622D01*
X109512Y-55917D01*
X109609Y-56153D01*
X109725Y-56204D01*
X110179Y-55750D01*
X110179Y-55891D01*
X109795Y-56274D01*
X109846Y-56390D01*
X110122Y-56495D01*
X110417Y-56487D01*
X110653Y-56390D01*
X110704Y-56274D01*
X110704Y-57154D01*
X110670Y-57121D01*
X110398Y-57008D01*
X110103Y-57007D01*
X109830Y-57120D01*
X109621Y-57329D01*
X109508Y-57601D01*
X109507Y-57896D01*
X109620Y-58169D01*
X109829Y-58378D01*
X110101Y-58491D01*
X110396Y-58492D01*
X110669Y-58379D01*
X110878Y-58170D01*
X110991Y-57898D01*
X110992Y-57603D01*
X110992Y-59603D01*
X110879Y-59330D01*
X110670Y-59121D01*
X110398Y-59008D01*
X110103Y-59007D01*
X109830Y-59120D01*
X109621Y-59329D01*
X109508Y-59601D01*
X109507Y-59896D01*
X109620Y-60169D01*
X109829Y-60378D01*
X110101Y-60491D01*
X110396Y-60492D01*
X110669Y-60379D01*
X110878Y-60170D01*
X110991Y-59898D01*
X110992Y-59603D01*
X110992Y-61603D01*
X110879Y-61330D01*
X110670Y-61121D01*
X110398Y-61008D01*
X110103Y-61007D01*
X109830Y-61120D01*
X109621Y-61329D01*
X109508Y-61601D01*
X109507Y-61896D01*
X109620Y-62169D01*
X109829Y-62378D01*
X110101Y-62491D01*
X110396Y-62492D01*
X110669Y-62379D01*
X110878Y-62170D01*
X110991Y-61898D01*
X110992Y-61603D01*
X110992Y-63603D01*
X110879Y-63330D01*
X110670Y-63121D01*
X110398Y-63008D01*
X110103Y-63007D01*
X109830Y-63120D01*
X109621Y-63329D01*
X109508Y-63601D01*
X109507Y-63896D01*
X109620Y-64169D01*
X109829Y-64378D01*
X110101Y-64491D01*
X110396Y-64492D01*
X110669Y-64379D01*
X110878Y-64170D01*
X110991Y-63898D01*
X110992Y-63603D01*
X110992Y-69909D01*
X110755Y-70007D01*
X110508Y-70253D01*
X110375Y-70575D01*
X110374Y-70923D01*
X110507Y-71245D01*
X110712Y-71450D01*
X109027Y-71450D01*
X109027Y-55877D01*
X109019Y-55582D01*
X108921Y-55346D01*
X108806Y-55295D01*
X108735Y-55366D01*
X108735Y-55225D01*
X108684Y-55109D01*
X108409Y-55004D01*
X108114Y-55012D01*
X107878Y-55109D01*
X107827Y-55225D01*
X108281Y-55679D01*
X108735Y-55225D01*
X108735Y-55366D01*
X108352Y-55750D01*
X108806Y-56204D01*
X108921Y-56153D01*
X109027Y-55877D01*
X109027Y-71450D01*
X109023Y-71450D01*
X109023Y-63603D01*
X109023Y-61603D01*
X109023Y-59603D01*
X109023Y-57603D01*
X108911Y-57330D01*
X108735Y-57154D01*
X108735Y-56274D01*
X108281Y-55820D01*
X108210Y-55891D01*
X108210Y-55750D01*
X107756Y-55295D01*
X107641Y-55346D01*
X107535Y-55622D01*
X107543Y-55917D01*
X107641Y-56153D01*
X107756Y-56204D01*
X108210Y-55750D01*
X108210Y-55891D01*
X107827Y-56274D01*
X107878Y-56390D01*
X108153Y-56495D01*
X108448Y-56487D01*
X108684Y-56390D01*
X108735Y-56274D01*
X108735Y-57154D01*
X108702Y-57121D01*
X108429Y-57008D01*
X108134Y-57007D01*
X107861Y-57120D01*
X107652Y-57329D01*
X107539Y-57601D01*
X107539Y-57896D01*
X107651Y-58169D01*
X107860Y-58378D01*
X108133Y-58491D01*
X108428Y-58492D01*
X108701Y-58379D01*
X108910Y-58170D01*
X109023Y-57898D01*
X109023Y-57603D01*
X109023Y-59603D01*
X108911Y-59330D01*
X108702Y-59121D01*
X108429Y-59008D01*
X108134Y-59007D01*
X107861Y-59120D01*
X107652Y-59329D01*
X107539Y-59601D01*
X107539Y-59896D01*
X107651Y-60169D01*
X107860Y-60378D01*
X108133Y-60491D01*
X108428Y-60492D01*
X108701Y-60379D01*
X108910Y-60170D01*
X109023Y-59898D01*
X109023Y-59603D01*
X109023Y-61603D01*
X108911Y-61330D01*
X108702Y-61121D01*
X108429Y-61008D01*
X108134Y-61007D01*
X107861Y-61120D01*
X107652Y-61329D01*
X107539Y-61601D01*
X107539Y-61896D01*
X107651Y-62169D01*
X107860Y-62378D01*
X108133Y-62491D01*
X108428Y-62492D01*
X108701Y-62379D01*
X108910Y-62170D01*
X109023Y-61898D01*
X109023Y-61603D01*
X109023Y-63603D01*
X108911Y-63330D01*
X108702Y-63121D01*
X108429Y-63008D01*
X108134Y-63007D01*
X107861Y-63120D01*
X107652Y-63329D01*
X107539Y-63601D01*
X107539Y-63896D01*
X107651Y-64169D01*
X107860Y-64378D01*
X108133Y-64491D01*
X108428Y-64492D01*
X108701Y-64379D01*
X108910Y-64170D01*
X109023Y-63898D01*
X109023Y-63603D01*
X109023Y-71450D01*
X103241Y-71450D01*
X103241Y-54582D01*
X103229Y-54389D01*
X103178Y-54266D01*
X103089Y-54246D01*
X103018Y-54317D01*
X103018Y-54176D01*
X102999Y-54087D01*
X102816Y-54024D01*
X102623Y-54036D01*
X102500Y-54087D01*
X102481Y-54176D01*
X102750Y-54445D01*
X103018Y-54176D01*
X103018Y-54317D01*
X102820Y-54515D01*
X103089Y-54784D01*
X103178Y-54765D01*
X103241Y-54582D01*
X103241Y-71450D01*
X103236Y-71450D01*
X103236Y-56670D01*
X103236Y-56198D01*
X103198Y-56106D01*
X103128Y-56036D01*
X103036Y-55998D01*
X103018Y-55998D01*
X103018Y-54855D01*
X102750Y-54586D01*
X102679Y-54657D01*
X102679Y-54515D01*
X102410Y-54246D01*
X102321Y-54266D01*
X102258Y-54449D01*
X102270Y-54642D01*
X102321Y-54765D01*
X102410Y-54784D01*
X102679Y-54515D01*
X102679Y-54657D01*
X102481Y-54855D01*
X102500Y-54944D01*
X102683Y-55007D01*
X102876Y-54995D01*
X102999Y-54944D01*
X103018Y-54855D01*
X103018Y-55998D01*
X102936Y-55997D01*
X102464Y-55997D01*
X102372Y-56035D01*
X102301Y-56106D01*
X102263Y-56198D01*
X102263Y-56297D01*
X102263Y-56769D01*
X102301Y-56861D01*
X102371Y-56932D01*
X102463Y-56970D01*
X102563Y-56970D01*
X103035Y-56970D01*
X103127Y-56932D01*
X103198Y-56862D01*
X103236Y-56770D01*
X103236Y-56670D01*
X103236Y-71450D01*
X99241Y-71450D01*
X99241Y-54582D01*
X99229Y-54389D01*
X99178Y-54266D01*
X99089Y-54246D01*
X99018Y-54317D01*
X99018Y-54176D01*
X98999Y-54087D01*
X98816Y-54024D01*
X98623Y-54036D01*
X98500Y-54087D01*
X98481Y-54176D01*
X98750Y-54445D01*
X99018Y-54176D01*
X99018Y-54317D01*
X98820Y-54515D01*
X99089Y-54784D01*
X99178Y-54765D01*
X99241Y-54582D01*
X99241Y-71450D01*
X99236Y-71450D01*
X99236Y-56670D01*
X99236Y-56198D01*
X99198Y-56106D01*
X99128Y-56036D01*
X99036Y-55998D01*
X99018Y-55998D01*
X99018Y-54855D01*
X98750Y-54586D01*
X98679Y-54657D01*
X98679Y-54515D01*
X98410Y-54246D01*
X98321Y-54266D01*
X98258Y-54449D01*
X98270Y-54642D01*
X98321Y-54765D01*
X98410Y-54784D01*
X98679Y-54515D01*
X98679Y-54657D01*
X98481Y-54855D01*
X98500Y-54944D01*
X98683Y-55007D01*
X98876Y-54995D01*
X98999Y-54944D01*
X99018Y-54855D01*
X99018Y-55998D01*
X98936Y-55997D01*
X98464Y-55997D01*
X98372Y-56035D01*
X98301Y-56106D01*
X98263Y-56198D01*
X98263Y-56297D01*
X98263Y-56546D01*
X96859Y-57950D01*
X93100Y-57950D01*
X93100Y-51381D01*
X93008Y-51160D01*
X92840Y-50991D01*
X92619Y-50900D01*
X92381Y-50899D01*
X92160Y-50991D01*
X91991Y-51159D01*
X91987Y-51170D01*
X91922Y-51148D01*
X91851Y-51219D01*
X91570Y-51500D01*
X91922Y-51851D01*
X91987Y-51829D01*
X91991Y-51839D01*
X92159Y-52008D01*
X92380Y-52099D01*
X92618Y-52100D01*
X92839Y-52008D01*
X93008Y-51840D01*
X93099Y-51619D01*
X93100Y-51381D01*
X93100Y-57950D01*
X91851Y-57950D01*
X91851Y-51922D01*
X91500Y-51570D01*
X91494Y-51576D01*
X91429Y-51511D01*
X91423Y-51505D01*
X91429Y-51500D01*
X91423Y-51494D01*
X91494Y-51423D01*
X91500Y-51429D01*
X91851Y-51077D01*
X91817Y-50977D01*
X91593Y-50895D01*
X91355Y-50905D01*
X91182Y-50977D01*
X91148Y-51077D01*
X91103Y-51032D01*
X91081Y-51054D01*
X91062Y-51008D01*
X90991Y-50938D01*
X90899Y-50900D01*
X90800Y-50899D01*
X90100Y-50899D01*
X90008Y-50937D01*
X89938Y-51008D01*
X89900Y-51100D01*
X89899Y-51199D01*
X89899Y-51899D01*
X89937Y-51991D01*
X90008Y-52061D01*
X90100Y-52099D01*
X90199Y-52100D01*
X90899Y-52100D01*
X90991Y-52062D01*
X91061Y-51991D01*
X91081Y-51945D01*
X91103Y-51967D01*
X91148Y-51922D01*
X91182Y-52022D01*
X91406Y-52104D01*
X91644Y-52094D01*
X91817Y-52022D01*
X91851Y-51922D01*
X91851Y-57950D01*
X90914Y-57950D01*
X90887Y-57883D01*
X90816Y-57813D01*
X90724Y-57775D01*
X90625Y-57774D01*
X90375Y-57774D01*
X90283Y-57812D01*
X90250Y-57846D01*
X90216Y-57813D01*
X90124Y-57775D01*
X90025Y-57774D01*
X89775Y-57774D01*
X89683Y-57812D01*
X89613Y-57883D01*
X89575Y-57975D01*
X89574Y-58074D01*
X89574Y-58524D01*
X89612Y-58614D01*
X89565Y-58661D01*
X89547Y-58704D01*
X89547Y-58704D01*
X89455Y-58722D01*
X89357Y-58787D01*
X89303Y-58842D01*
X89164Y-58785D01*
X88995Y-58784D01*
X88839Y-58849D01*
X88719Y-58968D01*
X88702Y-59012D01*
X88702Y-50663D01*
X88689Y-50486D01*
X88645Y-50380D01*
X88561Y-50365D01*
X88490Y-50436D01*
X88490Y-50295D01*
X88475Y-50210D01*
X88307Y-50154D01*
X88129Y-50166D01*
X88024Y-50210D01*
X88009Y-50295D01*
X88250Y-50535D01*
X88490Y-50295D01*
X88490Y-50436D01*
X88320Y-50606D01*
X88561Y-50846D01*
X88645Y-50832D01*
X88702Y-50663D01*
X88702Y-59012D01*
X88696Y-59024D01*
X88696Y-51541D01*
X88696Y-51147D01*
X88658Y-51055D01*
X88588Y-50985D01*
X88496Y-50946D01*
X88485Y-50946D01*
X88490Y-50917D01*
X88250Y-50677D01*
X88179Y-50747D01*
X88179Y-50606D01*
X87938Y-50365D01*
X87854Y-50380D01*
X87797Y-50549D01*
X87810Y-50726D01*
X87854Y-50832D01*
X87938Y-50846D01*
X88179Y-50606D01*
X88179Y-50747D01*
X88009Y-50917D01*
X88014Y-50946D01*
X88003Y-50946D01*
X87911Y-50984D01*
X87841Y-51055D01*
X87803Y-51146D01*
X87803Y-51246D01*
X87803Y-51640D01*
X87841Y-51731D01*
X87911Y-51802D01*
X88003Y-51840D01*
X88102Y-51840D01*
X88496Y-51840D01*
X88588Y-51802D01*
X88658Y-51732D01*
X88696Y-51640D01*
X88696Y-51541D01*
X88696Y-59024D01*
X88655Y-59125D01*
X88654Y-59294D01*
X88719Y-59450D01*
X88838Y-59570D01*
X88995Y-59634D01*
X89164Y-59635D01*
X89320Y-59570D01*
X89396Y-59494D01*
X89484Y-59477D01*
X89484Y-59477D01*
X89582Y-59412D01*
X89610Y-59383D01*
X89635Y-59408D01*
X89727Y-59446D01*
X89826Y-59447D01*
X90180Y-59447D01*
X90250Y-59418D01*
X90319Y-59446D01*
X90418Y-59447D01*
X90772Y-59447D01*
X90864Y-59409D01*
X90934Y-59338D01*
X90972Y-59246D01*
X90973Y-59147D01*
X90973Y-58753D01*
X90935Y-58661D01*
X90887Y-58614D01*
X90914Y-58550D01*
X96984Y-58550D01*
X96984Y-58549D01*
X97099Y-58527D01*
X97099Y-58527D01*
X97196Y-58462D01*
X98688Y-56970D01*
X99035Y-56970D01*
X99127Y-56932D01*
X99198Y-56862D01*
X99236Y-56770D01*
X99236Y-56670D01*
X99236Y-71450D01*
X94640Y-71450D01*
X94640Y-61557D01*
X94628Y-61379D01*
X94584Y-61274D01*
X94500Y-61259D01*
X94429Y-61330D01*
X94429Y-61188D01*
X94414Y-61104D01*
X94246Y-61047D01*
X94068Y-61060D01*
X93963Y-61104D01*
X93948Y-61188D01*
X94188Y-61429D01*
X94429Y-61188D01*
X94429Y-61330D01*
X94259Y-61500D01*
X94500Y-61740D01*
X94584Y-61725D01*
X94640Y-61557D01*
X94640Y-71450D01*
X94635Y-71450D01*
X94635Y-65147D01*
X94635Y-64753D01*
X94597Y-64661D01*
X94527Y-64591D01*
X94435Y-64553D01*
X94429Y-64553D01*
X94429Y-61811D01*
X94188Y-61570D01*
X94118Y-61641D01*
X94118Y-61500D01*
X93877Y-61259D01*
X93793Y-61274D01*
X93736Y-61442D01*
X93749Y-61620D01*
X93793Y-61725D01*
X93877Y-61740D01*
X94118Y-61500D01*
X94118Y-61641D01*
X93948Y-61811D01*
X93963Y-61895D01*
X94131Y-61952D01*
X94309Y-61939D01*
X94414Y-61895D01*
X94429Y-61811D01*
X94429Y-64553D01*
X94336Y-64553D01*
X93942Y-64553D01*
X93850Y-64591D01*
X93780Y-64661D01*
X93742Y-64753D01*
X93742Y-64852D01*
X93742Y-65246D01*
X93780Y-65338D01*
X93850Y-65408D01*
X93942Y-65446D01*
X94041Y-65446D01*
X94435Y-65446D01*
X94527Y-65408D01*
X94597Y-65338D01*
X94635Y-65246D01*
X94635Y-65147D01*
X94635Y-71450D01*
X93263Y-71450D01*
X93263Y-65057D01*
X93257Y-64984D01*
X93257Y-61647D01*
X93257Y-61253D01*
X93219Y-61161D01*
X93149Y-61091D01*
X93057Y-61053D01*
X92958Y-61053D01*
X92564Y-61053D01*
X92472Y-61091D01*
X92402Y-61161D01*
X92364Y-61253D01*
X92364Y-61352D01*
X92364Y-61746D01*
X92402Y-61838D01*
X92472Y-61908D01*
X92564Y-61946D01*
X92663Y-61946D01*
X93057Y-61946D01*
X93149Y-61908D01*
X93219Y-61838D01*
X93257Y-61746D01*
X93257Y-61647D01*
X93257Y-64984D01*
X93250Y-64879D01*
X93206Y-64774D01*
X93122Y-64759D01*
X93051Y-64830D01*
X93051Y-64688D01*
X93036Y-64604D01*
X92868Y-64547D01*
X92690Y-64560D01*
X92585Y-64604D01*
X92570Y-64688D01*
X92811Y-64929D01*
X93051Y-64688D01*
X93051Y-64830D01*
X92881Y-65000D01*
X93122Y-65240D01*
X93206Y-65225D01*
X93263Y-65057D01*
X93263Y-71450D01*
X93100Y-71450D01*
X93100Y-67631D01*
X93051Y-67513D01*
X93051Y-65311D01*
X92811Y-65070D01*
X92740Y-65141D01*
X92740Y-65000D01*
X92499Y-64759D01*
X92415Y-64774D01*
X92359Y-64942D01*
X92371Y-65120D01*
X92415Y-65225D01*
X92499Y-65240D01*
X92740Y-65000D01*
X92740Y-65141D01*
X92570Y-65311D01*
X92585Y-65395D01*
X92753Y-65452D01*
X92931Y-65439D01*
X93036Y-65395D01*
X93051Y-65311D01*
X93051Y-67513D01*
X93008Y-67410D01*
X92840Y-67241D01*
X92619Y-67150D01*
X92381Y-67149D01*
X92160Y-67241D01*
X91999Y-67401D01*
X91840Y-67241D01*
X91619Y-67150D01*
X91381Y-67149D01*
X91160Y-67241D01*
X91085Y-67315D01*
X91062Y-67258D01*
X90991Y-67188D01*
X90899Y-67150D01*
X90800Y-67149D01*
X90612Y-67150D01*
X90550Y-67212D01*
X90550Y-67700D01*
X90557Y-67700D01*
X90557Y-67800D01*
X90550Y-67800D01*
X90550Y-68287D01*
X90612Y-68350D01*
X90800Y-68350D01*
X90899Y-68349D01*
X90991Y-68311D01*
X91062Y-68241D01*
X91085Y-68184D01*
X91159Y-68258D01*
X91380Y-68349D01*
X91618Y-68350D01*
X91839Y-68258D01*
X92000Y-68098D01*
X92159Y-68258D01*
X92380Y-68349D01*
X92618Y-68350D01*
X92839Y-68258D01*
X93008Y-68090D01*
X93099Y-67869D01*
X93100Y-67631D01*
X93100Y-71450D01*
X90450Y-71450D01*
X90450Y-68287D01*
X90450Y-67800D01*
X90450Y-67700D01*
X90450Y-67212D01*
X90387Y-67150D01*
X90199Y-67149D01*
X90100Y-67150D01*
X90008Y-67188D01*
X89937Y-67258D01*
X89899Y-67350D01*
X89900Y-67637D01*
X89962Y-67700D01*
X90450Y-67700D01*
X90450Y-67800D01*
X89962Y-67800D01*
X89900Y-67862D01*
X89899Y-68149D01*
X89937Y-68241D01*
X90008Y-68311D01*
X90100Y-68349D01*
X90199Y-68350D01*
X90387Y-68350D01*
X90450Y-68287D01*
X90450Y-71450D01*
X88446Y-71450D01*
X88446Y-68267D01*
X88379Y-68103D01*
X88253Y-67977D01*
X88089Y-67909D01*
X87911Y-67909D01*
X87747Y-67977D01*
X87621Y-68102D01*
X87553Y-68267D01*
X87553Y-68444D01*
X87620Y-68609D01*
X87721Y-68709D01*
X87661Y-68735D01*
X87591Y-68805D01*
X87553Y-68897D01*
X87553Y-69031D01*
X87615Y-69093D01*
X87950Y-69093D01*
X87950Y-69085D01*
X88050Y-69085D01*
X88050Y-69093D01*
X88384Y-69093D01*
X88446Y-69031D01*
X88446Y-68897D01*
X88408Y-68805D01*
X88338Y-68735D01*
X88278Y-68709D01*
X88378Y-68609D01*
X88446Y-68445D01*
X88446Y-68267D01*
X88446Y-71450D01*
X88446Y-71450D01*
X88446Y-69390D01*
X88446Y-69256D01*
X88384Y-69193D01*
X88050Y-69193D01*
X88050Y-69528D01*
X88112Y-69590D01*
X88147Y-69590D01*
X88246Y-69590D01*
X88338Y-69552D01*
X88408Y-69481D01*
X88446Y-69390D01*
X88446Y-71450D01*
X87950Y-71450D01*
X87950Y-69528D01*
X87950Y-69193D01*
X87615Y-69193D01*
X87553Y-69256D01*
X87553Y-69390D01*
X87591Y-69481D01*
X87661Y-69552D01*
X87753Y-69590D01*
X87852Y-69590D01*
X87887Y-69590D01*
X87950Y-69528D01*
X87950Y-71450D01*
X86245Y-71450D01*
X86245Y-60923D01*
X86245Y-59387D01*
X86202Y-59282D01*
X86202Y-50663D01*
X86189Y-50486D01*
X86145Y-50380D01*
X86061Y-50365D01*
X85990Y-50436D01*
X85990Y-50295D01*
X85975Y-50210D01*
X85807Y-50154D01*
X85629Y-50166D01*
X85524Y-50210D01*
X85509Y-50295D01*
X85750Y-50535D01*
X85990Y-50295D01*
X85990Y-50436D01*
X85820Y-50606D01*
X86061Y-50846D01*
X86145Y-50832D01*
X86202Y-50663D01*
X86202Y-59282D01*
X86196Y-59270D01*
X86196Y-51541D01*
X86196Y-51147D01*
X86158Y-51055D01*
X86088Y-50985D01*
X85996Y-50946D01*
X85985Y-50946D01*
X85990Y-50917D01*
X85750Y-50677D01*
X85679Y-50747D01*
X85679Y-50606D01*
X85438Y-50365D01*
X85354Y-50380D01*
X85297Y-50549D01*
X85310Y-50726D01*
X85354Y-50832D01*
X85438Y-50846D01*
X85679Y-50606D01*
X85679Y-50747D01*
X85509Y-50917D01*
X85514Y-50946D01*
X85503Y-50946D01*
X85411Y-50984D01*
X85341Y-51055D01*
X85303Y-51146D01*
X85303Y-51246D01*
X85303Y-51640D01*
X85341Y-51731D01*
X85411Y-51802D01*
X85503Y-51840D01*
X85602Y-51840D01*
X85996Y-51840D01*
X86088Y-51802D01*
X86158Y-51732D01*
X86196Y-51640D01*
X86196Y-51541D01*
X86196Y-59270D01*
X86132Y-59113D01*
X86045Y-59026D01*
X86045Y-57892D01*
X85962Y-57691D01*
X85809Y-57538D01*
X85608Y-57454D01*
X85392Y-57454D01*
X85191Y-57537D01*
X85038Y-57690D01*
X84954Y-57891D01*
X84954Y-58107D01*
X85037Y-58308D01*
X85190Y-58461D01*
X85391Y-58545D01*
X85607Y-58545D01*
X85808Y-58462D01*
X85961Y-58309D01*
X86045Y-58108D01*
X86045Y-57892D01*
X86045Y-59026D01*
X85922Y-58903D01*
X85648Y-58790D01*
X85352Y-58790D01*
X85078Y-58903D01*
X84868Y-59112D01*
X84754Y-59386D01*
X84754Y-59683D01*
X84867Y-59957D01*
X85077Y-60166D01*
X85351Y-60280D01*
X85647Y-60280D01*
X85921Y-60167D01*
X86131Y-59958D01*
X86245Y-59684D01*
X86245Y-59387D01*
X86245Y-60923D01*
X86132Y-60649D01*
X85922Y-60439D01*
X85648Y-60325D01*
X85352Y-60325D01*
X85078Y-60438D01*
X84868Y-60648D01*
X84754Y-60921D01*
X84754Y-61218D01*
X84867Y-61492D01*
X85077Y-61702D01*
X85351Y-61816D01*
X85647Y-61816D01*
X85921Y-61703D01*
X86131Y-61493D01*
X86245Y-61219D01*
X86245Y-60923D01*
X86245Y-71450D01*
X86196Y-71450D01*
X86196Y-68267D01*
X86129Y-68103D01*
X86045Y-68019D01*
X86045Y-62498D01*
X85962Y-62297D01*
X85809Y-62144D01*
X85608Y-62061D01*
X85392Y-62060D01*
X85191Y-62143D01*
X85038Y-62297D01*
X84954Y-62497D01*
X84954Y-62714D01*
X85037Y-62914D01*
X85190Y-63068D01*
X85391Y-63151D01*
X85607Y-63151D01*
X85808Y-63068D01*
X85961Y-62915D01*
X86045Y-62715D01*
X86045Y-62498D01*
X86045Y-68019D01*
X86003Y-67977D01*
X85839Y-67909D01*
X85661Y-67909D01*
X85497Y-67977D01*
X85371Y-68102D01*
X85303Y-68267D01*
X85303Y-68444D01*
X85370Y-68609D01*
X85471Y-68709D01*
X85411Y-68735D01*
X85341Y-68805D01*
X85303Y-68897D01*
X85303Y-69031D01*
X85365Y-69093D01*
X85700Y-69093D01*
X85700Y-69085D01*
X85800Y-69085D01*
X85800Y-69093D01*
X86134Y-69093D01*
X86196Y-69031D01*
X86196Y-68897D01*
X86158Y-68805D01*
X86088Y-68735D01*
X86028Y-68709D01*
X86128Y-68609D01*
X86196Y-68445D01*
X86196Y-68267D01*
X86196Y-71450D01*
X86196Y-71450D01*
X86196Y-69390D01*
X86196Y-69256D01*
X86134Y-69193D01*
X85800Y-69193D01*
X85800Y-69528D01*
X85862Y-69590D01*
X85897Y-69590D01*
X85996Y-69590D01*
X86088Y-69552D01*
X86158Y-69481D01*
X86196Y-69390D01*
X86196Y-71450D01*
X85700Y-71450D01*
X85700Y-69528D01*
X85700Y-69193D01*
X85365Y-69193D01*
X85303Y-69256D01*
X85303Y-69390D01*
X85341Y-69481D01*
X85411Y-69552D01*
X85503Y-69590D01*
X85602Y-69590D01*
X85637Y-69590D01*
X85700Y-69528D01*
X85700Y-71450D01*
X80950Y-71450D01*
X80950Y-49061D01*
X80805Y-48712D01*
X80538Y-48445D01*
X80189Y-48300D01*
X79811Y-48299D01*
X79462Y-48444D01*
X79195Y-48711D01*
X79050Y-49060D01*
X79049Y-49438D01*
X79194Y-49787D01*
X79461Y-50054D01*
X79810Y-50199D01*
X80188Y-50200D01*
X80537Y-50055D01*
X80804Y-49788D01*
X80949Y-49439D01*
X80950Y-49061D01*
X80950Y-71450D01*
X80753Y-71450D01*
X80753Y-70379D01*
X80745Y-70081D01*
X80646Y-69841D01*
X80530Y-69790D01*
X80459Y-69860D01*
X80459Y-69719D01*
X80408Y-69603D01*
X80129Y-69496D01*
X79831Y-69504D01*
X79591Y-69603D01*
X79540Y-69719D01*
X80000Y-70179D01*
X80459Y-69719D01*
X80459Y-69860D01*
X80070Y-70250D01*
X80530Y-70709D01*
X80646Y-70658D01*
X80753Y-70379D01*
X80753Y-71450D01*
X80459Y-71450D01*
X80459Y-70780D01*
X80000Y-70320D01*
X79929Y-70391D01*
X79929Y-70250D01*
X79469Y-69790D01*
X79353Y-69841D01*
X79246Y-70120D01*
X79254Y-70418D01*
X79353Y-70658D01*
X79469Y-70709D01*
X79929Y-70250D01*
X79929Y-70391D01*
X79540Y-70780D01*
X79591Y-70896D01*
X79870Y-71003D01*
X80168Y-70995D01*
X80408Y-70896D01*
X80459Y-70780D01*
X80459Y-71450D01*
X76950Y-71450D01*
X76950Y-70061D01*
X76805Y-69712D01*
X76753Y-69660D01*
X76753Y-49379D01*
X76745Y-49081D01*
X76646Y-48841D01*
X76530Y-48790D01*
X76459Y-48860D01*
X76459Y-48719D01*
X76408Y-48603D01*
X76129Y-48496D01*
X75831Y-48504D01*
X75591Y-48603D01*
X75540Y-48719D01*
X76000Y-49179D01*
X76459Y-48719D01*
X76459Y-48860D01*
X76070Y-49250D01*
X76530Y-49709D01*
X76646Y-49658D01*
X76753Y-49379D01*
X76753Y-69660D01*
X76538Y-69445D01*
X76459Y-69412D01*
X76459Y-49780D01*
X76000Y-49320D01*
X75929Y-49391D01*
X75929Y-49250D01*
X75469Y-48790D01*
X75353Y-48841D01*
X75246Y-49120D01*
X75254Y-49418D01*
X75353Y-49658D01*
X75469Y-49709D01*
X75929Y-49250D01*
X75929Y-49391D01*
X75540Y-49780D01*
X75591Y-49896D01*
X75870Y-50003D01*
X76168Y-49995D01*
X76408Y-49896D01*
X76459Y-49780D01*
X76459Y-69412D01*
X76189Y-69300D01*
X75811Y-69299D01*
X75462Y-69444D01*
X75195Y-69711D01*
X75050Y-70060D01*
X75049Y-70438D01*
X75194Y-70787D01*
X75461Y-71054D01*
X75810Y-71199D01*
X76188Y-71200D01*
X76537Y-71055D01*
X76804Y-70788D01*
X76949Y-70439D01*
X76950Y-70061D01*
X76950Y-71450D01*
X72950Y-71450D01*
X72950Y-70061D01*
X72950Y-49061D01*
X72805Y-48712D01*
X72538Y-48445D01*
X72189Y-48300D01*
X71811Y-48299D01*
X71462Y-48444D01*
X71195Y-48711D01*
X71050Y-49060D01*
X71049Y-49438D01*
X71194Y-49787D01*
X71461Y-50054D01*
X71810Y-50199D01*
X72188Y-50200D01*
X72537Y-50055D01*
X72804Y-49788D01*
X72949Y-49439D01*
X72950Y-49061D01*
X72950Y-70061D01*
X72805Y-69712D01*
X72538Y-69445D01*
X72189Y-69300D01*
X71811Y-69299D01*
X71462Y-69444D01*
X71195Y-69711D01*
X71050Y-70060D01*
X71049Y-70438D01*
X71194Y-70787D01*
X71461Y-71054D01*
X71810Y-71199D01*
X72188Y-71200D01*
X72537Y-71055D01*
X72804Y-70788D01*
X72949Y-70439D01*
X72950Y-70061D01*
X72950Y-71450D01*
X66942Y-71450D01*
X66942Y-60063D01*
X66942Y-58063D01*
X66799Y-57717D01*
X66534Y-57451D01*
X66188Y-57308D01*
X65813Y-57307D01*
X65467Y-57450D01*
X65201Y-57715D01*
X65058Y-58061D01*
X65057Y-58436D01*
X65200Y-58782D01*
X65465Y-59048D01*
X65811Y-59191D01*
X66186Y-59192D01*
X66532Y-59049D01*
X66798Y-58784D01*
X66941Y-58438D01*
X66942Y-58063D01*
X66942Y-60063D01*
X66799Y-59717D01*
X66534Y-59451D01*
X66188Y-59308D01*
X65813Y-59307D01*
X65467Y-59450D01*
X65201Y-59715D01*
X65058Y-60061D01*
X65057Y-60436D01*
X65200Y-60782D01*
X65465Y-61048D01*
X65811Y-61191D01*
X66186Y-61192D01*
X66532Y-61049D01*
X66798Y-60784D01*
X66941Y-60438D01*
X66942Y-60063D01*
X66942Y-71450D01*
X64942Y-71450D01*
X64942Y-60063D01*
X64942Y-58094D01*
X64799Y-57748D01*
X64534Y-57483D01*
X64188Y-57339D01*
X63813Y-57339D01*
X63467Y-57482D01*
X63201Y-57747D01*
X63058Y-58093D01*
X63057Y-58468D01*
X63200Y-58814D01*
X63465Y-59079D01*
X63811Y-59223D01*
X64186Y-59223D01*
X64532Y-59080D01*
X64798Y-58815D01*
X64941Y-58469D01*
X64942Y-58094D01*
X64942Y-60063D01*
X64799Y-59717D01*
X64534Y-59451D01*
X64188Y-59308D01*
X63813Y-59307D01*
X63467Y-59450D01*
X63201Y-59715D01*
X63058Y-60061D01*
X63057Y-60436D01*
X63200Y-60782D01*
X63465Y-61048D01*
X63811Y-61191D01*
X64186Y-61192D01*
X64532Y-61049D01*
X64798Y-60784D01*
X64941Y-60438D01*
X64942Y-60063D01*
X64942Y-71450D01*
X64287Y-71450D01*
X64491Y-71246D01*
X64624Y-70924D01*
X64625Y-70576D01*
X64492Y-70255D01*
X64246Y-70008D01*
X63924Y-69875D01*
X63576Y-69874D01*
X63255Y-70007D01*
X63050Y-70212D01*
X63050Y-49287D01*
X63253Y-49491D01*
X63575Y-49624D01*
X63923Y-49625D01*
X64245Y-49492D01*
X64491Y-49246D01*
X64624Y-48924D01*
X64625Y-48576D01*
X64492Y-48255D01*
X64287Y-48050D01*
X110712Y-48050D01*
X110508Y-48253D01*
X110375Y-48575D01*
X110374Y-48923D01*
X110507Y-49245D01*
X110753Y-49491D01*
X111075Y-49624D01*
X111423Y-49625D01*
X111745Y-49492D01*
X111950Y-49287D01*
X111950Y-70212D01*
X111950Y-70212D01*
G37*
G54D23*
X111950Y-70212D02*
X111746Y-70008D01*
X111424Y-69875D01*
X111076Y-69874D01*
X110995Y-69908D01*
X110995Y-55877D01*
X110987Y-55582D01*
X110890Y-55346D01*
X110774Y-55295D01*
X110704Y-55366D01*
X110704Y-55225D01*
X110653Y-55109D01*
X110377Y-55004D01*
X110082Y-55012D01*
X109846Y-55109D01*
X109795Y-55225D01*
X110250Y-55679D01*
X110704Y-55225D01*
X110704Y-55366D01*
X110320Y-55750D01*
X110774Y-56204D01*
X110890Y-56153D01*
X110995Y-55877D01*
X110995Y-69908D01*
X110992Y-69909D01*
X110992Y-63603D01*
X110992Y-61603D01*
X110992Y-59603D01*
X110992Y-57603D01*
X110879Y-57330D01*
X110704Y-57154D01*
X110704Y-56274D01*
X110250Y-55820D01*
X110179Y-55891D01*
X110179Y-55750D01*
X109725Y-55295D01*
X109609Y-55346D01*
X109504Y-55622D01*
X109512Y-55917D01*
X109609Y-56153D01*
X109725Y-56204D01*
X110179Y-55750D01*
X110179Y-55891D01*
X109795Y-56274D01*
X109846Y-56390D01*
X110122Y-56495D01*
X110417Y-56487D01*
X110653Y-56390D01*
X110704Y-56274D01*
X110704Y-57154D01*
X110670Y-57121D01*
X110398Y-57008D01*
X110103Y-57007D01*
X109830Y-57120D01*
X109621Y-57329D01*
X109508Y-57601D01*
X109507Y-57896D01*
X109620Y-58169D01*
X109829Y-58378D01*
X110101Y-58491D01*
X110396Y-58492D01*
X110669Y-58379D01*
X110878Y-58170D01*
X110991Y-57898D01*
X110992Y-57603D01*
X110992Y-59603D01*
X110879Y-59330D01*
X110670Y-59121D01*
X110398Y-59008D01*
X110103Y-59007D01*
X109830Y-59120D01*
X109621Y-59329D01*
X109508Y-59601D01*
X109507Y-59896D01*
X109620Y-60169D01*
X109829Y-60378D01*
X110101Y-60491D01*
X110396Y-60492D01*
X110669Y-60379D01*
X110878Y-60170D01*
X110991Y-59898D01*
X110992Y-59603D01*
X110992Y-61603D01*
X110879Y-61330D01*
X110670Y-61121D01*
X110398Y-61008D01*
X110103Y-61007D01*
X109830Y-61120D01*
X109621Y-61329D01*
X109508Y-61601D01*
X109507Y-61896D01*
X109620Y-62169D01*
X109829Y-62378D01*
X110101Y-62491D01*
X110396Y-62492D01*
X110669Y-62379D01*
X110878Y-62170D01*
X110991Y-61898D01*
X110992Y-61603D01*
X110992Y-63603D01*
X110879Y-63330D01*
X110670Y-63121D01*
X110398Y-63008D01*
X110103Y-63007D01*
X109830Y-63120D01*
X109621Y-63329D01*
X109508Y-63601D01*
X109507Y-63896D01*
X109620Y-64169D01*
X109829Y-64378D01*
X110101Y-64491D01*
X110396Y-64492D01*
X110669Y-64379D01*
X110878Y-64170D01*
X110991Y-63898D01*
X110992Y-63603D01*
X110992Y-69909D01*
X110755Y-70007D01*
X110508Y-70253D01*
X110375Y-70575D01*
X110374Y-70923D01*
X110507Y-71245D01*
X110712Y-71450D01*
X109027Y-71450D01*
X109027Y-55877D01*
X109019Y-55582D01*
X108921Y-55346D01*
X108806Y-55295D01*
X108735Y-55366D01*
X108735Y-55225D01*
X108684Y-55109D01*
X108409Y-55004D01*
X108114Y-55012D01*
X107878Y-55109D01*
X107827Y-55225D01*
X108281Y-55679D01*
X108735Y-55225D01*
X108735Y-55366D01*
X108352Y-55750D01*
X108806Y-56204D01*
X108921Y-56153D01*
X109027Y-55877D01*
X109027Y-71450D01*
X109023Y-71450D01*
X109023Y-63603D01*
X109023Y-61603D01*
X109023Y-59603D01*
X109023Y-57603D01*
X108911Y-57330D01*
X108735Y-57154D01*
X108735Y-56274D01*
X108281Y-55820D01*
X108210Y-55891D01*
X108210Y-55750D01*
X107756Y-55295D01*
X107641Y-55346D01*
X107535Y-55622D01*
X107543Y-55917D01*
X107641Y-56153D01*
X107756Y-56204D01*
X108210Y-55750D01*
X108210Y-55891D01*
X107827Y-56274D01*
X107878Y-56390D01*
X108153Y-56495D01*
X108448Y-56487D01*
X108684Y-56390D01*
X108735Y-56274D01*
X108735Y-57154D01*
X108702Y-57121D01*
X108429Y-57008D01*
X108134Y-57007D01*
X107861Y-57120D01*
X107652Y-57329D01*
X107539Y-57601D01*
X107539Y-57896D01*
X107651Y-58169D01*
X107860Y-58378D01*
X108133Y-58491D01*
X108428Y-58492D01*
X108701Y-58379D01*
X108910Y-58170D01*
X109023Y-57898D01*
X109023Y-57603D01*
X109023Y-59603D01*
X108911Y-59330D01*
X108702Y-59121D01*
X108429Y-59008D01*
X108134Y-59007D01*
X107861Y-59120D01*
X107652Y-59329D01*
X107539Y-59601D01*
X107539Y-59896D01*
X107651Y-60169D01*
X107860Y-60378D01*
X108133Y-60491D01*
X108428Y-60492D01*
X108701Y-60379D01*
X108910Y-60170D01*
X109023Y-59898D01*
X109023Y-59603D01*
X109023Y-61603D01*
X108911Y-61330D01*
X108702Y-61121D01*
X108429Y-61008D01*
X108134Y-61007D01*
X107861Y-61120D01*
X107652Y-61329D01*
X107539Y-61601D01*
X107539Y-61896D01*
X107651Y-62169D01*
X107860Y-62378D01*
X108133Y-62491D01*
X108428Y-62492D01*
X108701Y-62379D01*
X108910Y-62170D01*
X109023Y-61898D01*
X109023Y-61603D01*
X109023Y-63603D01*
X108911Y-63330D01*
X108702Y-63121D01*
X108429Y-63008D01*
X108134Y-63007D01*
X107861Y-63120D01*
X107652Y-63329D01*
X107539Y-63601D01*
X107539Y-63896D01*
X107651Y-64169D01*
X107860Y-64378D01*
X108133Y-64491D01*
X108428Y-64492D01*
X108701Y-64379D01*
X108910Y-64170D01*
X109023Y-63898D01*
X109023Y-63603D01*
X109023Y-71450D01*
X103241Y-71450D01*
X103241Y-54582D01*
X103229Y-54389D01*
X103178Y-54266D01*
X103089Y-54246D01*
X103018Y-54317D01*
X103018Y-54176D01*
X102999Y-54087D01*
X102816Y-54024D01*
X102623Y-54036D01*
X102500Y-54087D01*
X102481Y-54176D01*
X102750Y-54445D01*
X103018Y-54176D01*
X103018Y-54317D01*
X102820Y-54515D01*
X103089Y-54784D01*
X103178Y-54765D01*
X103241Y-54582D01*
X103241Y-71450D01*
X103236Y-71450D01*
X103236Y-56670D01*
X103236Y-56198D01*
X103198Y-56106D01*
X103128Y-56036D01*
X103036Y-55998D01*
X103018Y-55998D01*
X103018Y-54855D01*
X102750Y-54586D01*
X102679Y-54657D01*
X102679Y-54515D01*
X102410Y-54246D01*
X102321Y-54266D01*
X102258Y-54449D01*
X102270Y-54642D01*
X102321Y-54765D01*
X102410Y-54784D01*
X102679Y-54515D01*
X102679Y-54657D01*
X102481Y-54855D01*
X102500Y-54944D01*
X102683Y-55007D01*
X102876Y-54995D01*
X102999Y-54944D01*
X103018Y-54855D01*
X103018Y-55998D01*
X102936Y-55997D01*
X102464Y-55997D01*
X102372Y-56035D01*
X102301Y-56106D01*
X102263Y-56198D01*
X102263Y-56297D01*
X102263Y-56769D01*
X102301Y-56861D01*
X102371Y-56932D01*
X102463Y-56970D01*
X102563Y-56970D01*
X103035Y-56970D01*
X103127Y-56932D01*
X103198Y-56862D01*
X103236Y-56770D01*
X103236Y-56670D01*
X103236Y-71450D01*
X99241Y-71450D01*
X99241Y-54582D01*
X99229Y-54389D01*
X99178Y-54266D01*
X99089Y-54246D01*
X99018Y-54317D01*
X99018Y-54176D01*
X98999Y-54087D01*
X98816Y-54024D01*
X98623Y-54036D01*
X98500Y-54087D01*
X98481Y-54176D01*
X98750Y-54445D01*
X99018Y-54176D01*
X99018Y-54317D01*
X98820Y-54515D01*
X99089Y-54784D01*
X99178Y-54765D01*
X99241Y-54582D01*
X99241Y-71450D01*
X99236Y-71450D01*
X99236Y-56670D01*
X99236Y-56198D01*
X99198Y-56106D01*
X99128Y-56036D01*
X99036Y-55998D01*
X99018Y-55998D01*
X99018Y-54855D01*
X98750Y-54586D01*
X98679Y-54657D01*
X98679Y-54515D01*
X98410Y-54246D01*
X98321Y-54266D01*
X98258Y-54449D01*
X98270Y-54642D01*
X98321Y-54765D01*
X98410Y-54784D01*
X98679Y-54515D01*
X98679Y-54657D01*
X98481Y-54855D01*
X98500Y-54944D01*
X98683Y-55007D01*
X98876Y-54995D01*
X98999Y-54944D01*
X99018Y-54855D01*
X99018Y-55998D01*
X98936Y-55997D01*
X98464Y-55997D01*
X98372Y-56035D01*
X98301Y-56106D01*
X98263Y-56198D01*
X98263Y-56297D01*
X98263Y-56546D01*
X96859Y-57950D01*
X93100Y-57950D01*
X93100Y-51381D01*
X93008Y-51160D01*
X92840Y-50991D01*
X92619Y-50900D01*
X92381Y-50899D01*
X92160Y-50991D01*
X91991Y-51159D01*
X91987Y-51170D01*
X91922Y-51148D01*
X91851Y-51219D01*
X91570Y-51500D01*
X91922Y-51851D01*
X91987Y-51829D01*
X91991Y-51839D01*
X92159Y-52008D01*
X92380Y-52099D01*
X92618Y-52100D01*
X92839Y-52008D01*
X93008Y-51840D01*
X93099Y-51619D01*
X93100Y-51381D01*
X93100Y-57950D01*
X91851Y-57950D01*
X91851Y-51922D01*
X91500Y-51570D01*
X91494Y-51576D01*
X91429Y-51511D01*
X91423Y-51505D01*
X91429Y-51500D01*
X91423Y-51494D01*
X91494Y-51423D01*
X91500Y-51429D01*
X91851Y-51077D01*
X91817Y-50977D01*
X91593Y-50895D01*
X91355Y-50905D01*
X91182Y-50977D01*
X91148Y-51077D01*
X91103Y-51032D01*
X91081Y-51054D01*
X91062Y-51008D01*
X90991Y-50938D01*
X90899Y-50900D01*
X90800Y-50899D01*
X90100Y-50899D01*
X90008Y-50937D01*
X89938Y-51008D01*
X89900Y-51100D01*
X89899Y-51199D01*
X89899Y-51899D01*
X89937Y-51991D01*
X90008Y-52061D01*
X90100Y-52099D01*
X90199Y-52100D01*
X90899Y-52100D01*
X90991Y-52062D01*
X91061Y-51991D01*
X91081Y-51945D01*
X91103Y-51967D01*
X91148Y-51922D01*
X91182Y-52022D01*
X91406Y-52104D01*
X91644Y-52094D01*
X91817Y-52022D01*
X91851Y-51922D01*
X91851Y-57950D01*
X90914Y-57950D01*
X90887Y-57883D01*
X90816Y-57813D01*
X90724Y-57775D01*
X90625Y-57774D01*
X90375Y-57774D01*
X90283Y-57812D01*
X90250Y-57846D01*
X90216Y-57813D01*
X90124Y-57775D01*
X90025Y-57774D01*
X89775Y-57774D01*
X89683Y-57812D01*
X89613Y-57883D01*
X89575Y-57975D01*
X89574Y-58074D01*
X89574Y-58524D01*
X89612Y-58614D01*
X89565Y-58661D01*
X89547Y-58704D01*
X89547Y-58704D01*
X89455Y-58722D01*
X89357Y-58787D01*
X89303Y-58842D01*
X89164Y-58785D01*
X88995Y-58784D01*
X88839Y-58849D01*
X88719Y-58968D01*
X88702Y-59012D01*
X88702Y-50663D01*
X88689Y-50486D01*
X88645Y-50380D01*
X88561Y-50365D01*
X88490Y-50436D01*
X88490Y-50295D01*
X88475Y-50210D01*
X88307Y-50154D01*
X88129Y-50166D01*
X88024Y-50210D01*
X88009Y-50295D01*
X88250Y-50535D01*
X88490Y-50295D01*
X88490Y-50436D01*
X88320Y-50606D01*
X88561Y-50846D01*
X88645Y-50832D01*
X88702Y-50663D01*
X88702Y-59012D01*
X88696Y-59024D01*
X88696Y-51541D01*
X88696Y-51147D01*
X88658Y-51055D01*
X88588Y-50985D01*
X88496Y-50946D01*
X88485Y-50946D01*
X88490Y-50917D01*
X88250Y-50677D01*
X88179Y-50747D01*
X88179Y-50606D01*
X87938Y-50365D01*
X87854Y-50380D01*
X87797Y-50549D01*
X87810Y-50726D01*
X87854Y-50832D01*
X87938Y-50846D01*
X88179Y-50606D01*
X88179Y-50747D01*
X88009Y-50917D01*
X88014Y-50946D01*
X88003Y-50946D01*
X87911Y-50984D01*
X87841Y-51055D01*
X87803Y-51146D01*
X87803Y-51246D01*
X87803Y-51640D01*
X87841Y-51731D01*
X87911Y-51802D01*
X88003Y-51840D01*
X88102Y-51840D01*
X88496Y-51840D01*
X88588Y-51802D01*
X88658Y-51732D01*
X88696Y-51640D01*
X88696Y-51541D01*
X88696Y-59024D01*
X88655Y-59125D01*
X88654Y-59294D01*
X88719Y-59450D01*
X88838Y-59570D01*
X88995Y-59634D01*
X89164Y-59635D01*
X89320Y-59570D01*
X89396Y-59494D01*
X89484Y-59477D01*
X89484Y-59477D01*
X89582Y-59412D01*
X89610Y-59383D01*
X89635Y-59408D01*
X89727Y-59446D01*
X89826Y-59447D01*
X90180Y-59447D01*
X90250Y-59418D01*
X90319Y-59446D01*
X90418Y-59447D01*
X90772Y-59447D01*
X90864Y-59409D01*
X90934Y-59338D01*
X90972Y-59246D01*
X90973Y-59147D01*
X90973Y-58753D01*
X90935Y-58661D01*
X90887Y-58614D01*
X90914Y-58550D01*
X96984Y-58550D01*
X96984Y-58549D01*
X97099Y-58527D01*
X97099Y-58527D01*
X97196Y-58462D01*
X98688Y-56970D01*
X99035Y-56970D01*
X99127Y-56932D01*
X99198Y-56862D01*
X99236Y-56770D01*
X99236Y-56670D01*
X99236Y-71450D01*
X94640Y-71450D01*
X94640Y-61557D01*
X94628Y-61379D01*
X94584Y-61274D01*
X94500Y-61259D01*
X94429Y-61330D01*
X94429Y-61188D01*
X94414Y-61104D01*
X94246Y-61047D01*
X94068Y-61060D01*
X93963Y-61104D01*
X93948Y-61188D01*
X94188Y-61429D01*
X94429Y-61188D01*
X94429Y-61330D01*
X94259Y-61500D01*
X94500Y-61740D01*
X94584Y-61725D01*
X94640Y-61557D01*
X94640Y-71450D01*
X94635Y-71450D01*
X94635Y-65147D01*
X94635Y-64753D01*
X94597Y-64661D01*
X94527Y-64591D01*
X94435Y-64553D01*
X94429Y-64553D01*
X94429Y-61811D01*
X94188Y-61570D01*
X94118Y-61641D01*
X94118Y-61500D01*
X93877Y-61259D01*
X93793Y-61274D01*
X93736Y-61442D01*
X93749Y-61620D01*
X93793Y-61725D01*
X93877Y-61740D01*
X94118Y-61500D01*
X94118Y-61641D01*
X93948Y-61811D01*
X93963Y-61895D01*
X94131Y-61952D01*
X94309Y-61939D01*
X94414Y-61895D01*
X94429Y-61811D01*
X94429Y-64553D01*
X94336Y-64553D01*
X93942Y-64553D01*
X93850Y-64591D01*
X93780Y-64661D01*
X93742Y-64753D01*
X93742Y-64852D01*
X93742Y-65246D01*
X93780Y-65338D01*
X93850Y-65408D01*
X93942Y-65446D01*
X94041Y-65446D01*
X94435Y-65446D01*
X94527Y-65408D01*
X94597Y-65338D01*
X94635Y-65246D01*
X94635Y-65147D01*
X94635Y-71450D01*
X93263Y-71450D01*
X93263Y-65057D01*
X93257Y-64984D01*
X93257Y-61647D01*
X93257Y-61253D01*
X93219Y-61161D01*
X93149Y-61091D01*
X93057Y-61053D01*
X92958Y-61053D01*
X92564Y-61053D01*
X92472Y-61091D01*
X92402Y-61161D01*
X92364Y-61253D01*
X92364Y-61352D01*
X92364Y-61746D01*
X92402Y-61838D01*
X92472Y-61908D01*
X92564Y-61946D01*
X92663Y-61946D01*
X93057Y-61946D01*
X93149Y-61908D01*
X93219Y-61838D01*
X93257Y-61746D01*
X93257Y-61647D01*
X93257Y-64984D01*
X93250Y-64879D01*
X93206Y-64774D01*
X93122Y-64759D01*
X93051Y-64830D01*
X93051Y-64688D01*
X93036Y-64604D01*
X92868Y-64547D01*
X92690Y-64560D01*
X92585Y-64604D01*
X92570Y-64688D01*
X92811Y-64929D01*
X93051Y-64688D01*
X93051Y-64830D01*
X92881Y-65000D01*
X93122Y-65240D01*
X93206Y-65225D01*
X93263Y-65057D01*
X93263Y-71450D01*
X93100Y-71450D01*
X93100Y-67631D01*
X93051Y-67513D01*
X93051Y-65311D01*
X92811Y-65070D01*
X92740Y-65141D01*
X92740Y-65000D01*
X92499Y-64759D01*
X92415Y-64774D01*
X92359Y-64942D01*
X92371Y-65120D01*
X92415Y-65225D01*
X92499Y-65240D01*
X92740Y-65000D01*
X92740Y-65141D01*
X92570Y-65311D01*
X92585Y-65395D01*
X92753Y-65452D01*
X92931Y-65439D01*
X93036Y-65395D01*
X93051Y-65311D01*
X93051Y-67513D01*
X93008Y-67410D01*
X92840Y-67241D01*
X92619Y-67150D01*
X92381Y-67149D01*
X92160Y-67241D01*
X91999Y-67401D01*
X91840Y-67241D01*
X91619Y-67150D01*
X91381Y-67149D01*
X91160Y-67241D01*
X91085Y-67315D01*
X91062Y-67258D01*
X90991Y-67188D01*
X90899Y-67150D01*
X90800Y-67149D01*
X90612Y-67150D01*
X90550Y-67212D01*
X90550Y-67700D01*
X90557Y-67700D01*
X90557Y-67800D01*
X90550Y-67800D01*
X90550Y-68287D01*
X90612Y-68350D01*
X90800Y-68350D01*
X90899Y-68349D01*
X90991Y-68311D01*
X91062Y-68241D01*
X91085Y-68184D01*
X91159Y-68258D01*
X91380Y-68349D01*
X91618Y-68350D01*
X91839Y-68258D01*
X92000Y-68098D01*
X92159Y-68258D01*
X92380Y-68349D01*
X92618Y-68350D01*
X92839Y-68258D01*
X93008Y-68090D01*
X93099Y-67869D01*
X93100Y-67631D01*
X93100Y-71450D01*
X90450Y-71450D01*
X90450Y-68287D01*
X90450Y-67800D01*
X90450Y-67700D01*
X90450Y-67212D01*
X90387Y-67150D01*
X90199Y-67149D01*
X90100Y-67150D01*
X90008Y-67188D01*
X89937Y-67258D01*
X89899Y-67350D01*
X89900Y-67637D01*
X89962Y-67700D01*
X90450Y-67700D01*
X90450Y-67800D01*
X89962Y-67800D01*
X89900Y-67862D01*
X89899Y-68149D01*
X89937Y-68241D01*
X90008Y-68311D01*
X90100Y-68349D01*
X90199Y-68350D01*
X90387Y-68350D01*
X90450Y-68287D01*
X90450Y-71450D01*
X88446Y-71450D01*
X88446Y-68267D01*
X88379Y-68103D01*
X88253Y-67977D01*
X88089Y-67909D01*
X87911Y-67909D01*
X87747Y-67977D01*
X87621Y-68102D01*
X87553Y-68267D01*
X87553Y-68444D01*
X87620Y-68609D01*
X87721Y-68709D01*
X87661Y-68735D01*
X87591Y-68805D01*
X87553Y-68897D01*
X87553Y-69031D01*
X87615Y-69093D01*
X87950Y-69093D01*
X87950Y-69085D01*
X88050Y-69085D01*
X88050Y-69093D01*
X88384Y-69093D01*
X88446Y-69031D01*
X88446Y-68897D01*
X88408Y-68805D01*
X88338Y-68735D01*
X88278Y-68709D01*
X88378Y-68609D01*
X88446Y-68445D01*
X88446Y-68267D01*
X88446Y-71450D01*
X88446Y-71450D01*
X88446Y-69390D01*
X88446Y-69256D01*
X88384Y-69193D01*
X88050Y-69193D01*
X88050Y-69528D01*
X88112Y-69590D01*
X88147Y-69590D01*
X88246Y-69590D01*
X88338Y-69552D01*
X88408Y-69481D01*
X88446Y-69390D01*
X88446Y-71450D01*
X87950Y-71450D01*
X87950Y-69528D01*
X87950Y-69193D01*
X87615Y-69193D01*
X87553Y-69256D01*
X87553Y-69390D01*
X87591Y-69481D01*
X87661Y-69552D01*
X87753Y-69590D01*
X87852Y-69590D01*
X87887Y-69590D01*
X87950Y-69528D01*
X87950Y-71450D01*
X86245Y-71450D01*
X86245Y-60923D01*
X86245Y-59387D01*
X86202Y-59282D01*
X86202Y-50663D01*
X86189Y-50486D01*
X86145Y-50380D01*
X86061Y-50365D01*
X85990Y-50436D01*
X85990Y-50295D01*
X85975Y-50210D01*
X85807Y-50154D01*
X85629Y-50166D01*
X85524Y-50210D01*
X85509Y-50295D01*
X85750Y-50535D01*
X85990Y-50295D01*
X85990Y-50436D01*
X85820Y-50606D01*
X86061Y-50846D01*
X86145Y-50832D01*
X86202Y-50663D01*
X86202Y-59282D01*
X86196Y-59270D01*
X86196Y-51541D01*
X86196Y-51147D01*
X86158Y-51055D01*
X86088Y-50985D01*
X85996Y-50946D01*
X85985Y-50946D01*
X85990Y-50917D01*
X85750Y-50677D01*
X85679Y-50747D01*
X85679Y-50606D01*
X85438Y-50365D01*
X85354Y-50380D01*
X85297Y-50549D01*
X85310Y-50726D01*
X85354Y-50832D01*
X85438Y-50846D01*
X85679Y-50606D01*
X85679Y-50747D01*
X85509Y-50917D01*
X85514Y-50946D01*
X85503Y-50946D01*
X85411Y-50984D01*
X85341Y-51055D01*
X85303Y-51146D01*
X85303Y-51246D01*
X85303Y-51640D01*
X85341Y-51731D01*
X85411Y-51802D01*
X85503Y-51840D01*
X85602Y-51840D01*
X85996Y-51840D01*
X86088Y-51802D01*
X86158Y-51732D01*
X86196Y-51640D01*
X86196Y-51541D01*
X86196Y-59270D01*
X86132Y-59113D01*
X86045Y-59026D01*
X86045Y-57892D01*
X85962Y-57691D01*
X85809Y-57538D01*
X85608Y-57454D01*
X85392Y-57454D01*
X85191Y-57537D01*
X85038Y-57690D01*
X84954Y-57891D01*
X84954Y-58107D01*
X85037Y-58308D01*
X85190Y-58461D01*
X85391Y-58545D01*
X85607Y-58545D01*
X85808Y-58462D01*
X85961Y-58309D01*
X86045Y-58108D01*
X86045Y-57892D01*
X86045Y-59026D01*
X85922Y-58903D01*
X85648Y-58790D01*
X85352Y-58790D01*
X85078Y-58903D01*
X84868Y-59112D01*
X84754Y-59386D01*
X84754Y-59683D01*
X84867Y-59957D01*
X85077Y-60166D01*
X85351Y-60280D01*
X85647Y-60280D01*
X85921Y-60167D01*
X86131Y-59958D01*
X86245Y-59684D01*
X86245Y-59387D01*
X86245Y-60923D01*
X86132Y-60649D01*
X85922Y-60439D01*
X85648Y-60325D01*
X85352Y-60325D01*
X85078Y-60438D01*
X84868Y-60648D01*
X84754Y-60921D01*
X84754Y-61218D01*
X84867Y-61492D01*
X85077Y-61702D01*
X85351Y-61816D01*
X85647Y-61816D01*
X85921Y-61703D01*
X86131Y-61493D01*
X86245Y-61219D01*
X86245Y-60923D01*
X86245Y-71450D01*
X86196Y-71450D01*
X86196Y-68267D01*
X86129Y-68103D01*
X86045Y-68019D01*
X86045Y-62498D01*
X85962Y-62297D01*
X85809Y-62144D01*
X85608Y-62061D01*
X85392Y-62060D01*
X85191Y-62143D01*
X85038Y-62297D01*
X84954Y-62497D01*
X84954Y-62714D01*
X85037Y-62914D01*
X85190Y-63068D01*
X85391Y-63151D01*
X85607Y-63151D01*
X85808Y-63068D01*
X85961Y-62915D01*
X86045Y-62715D01*
X86045Y-62498D01*
X86045Y-68019D01*
X86003Y-67977D01*
X85839Y-67909D01*
X85661Y-67909D01*
X85497Y-67977D01*
X85371Y-68102D01*
X85303Y-68267D01*
X85303Y-68444D01*
X85370Y-68609D01*
X85471Y-68709D01*
X85411Y-68735D01*
X85341Y-68805D01*
X85303Y-68897D01*
X85303Y-69031D01*
X85365Y-69093D01*
X85700Y-69093D01*
X85700Y-69085D01*
X85800Y-69085D01*
X85800Y-69093D01*
X86134Y-69093D01*
X86196Y-69031D01*
X86196Y-68897D01*
X86158Y-68805D01*
X86088Y-68735D01*
X86028Y-68709D01*
X86128Y-68609D01*
X86196Y-68445D01*
X86196Y-68267D01*
X86196Y-71450D01*
X86196Y-71450D01*
X86196Y-69390D01*
X86196Y-69256D01*
X86134Y-69193D01*
X85800Y-69193D01*
X85800Y-69528D01*
X85862Y-69590D01*
X85897Y-69590D01*
X85996Y-69590D01*
X86088Y-69552D01*
X86158Y-69481D01*
X86196Y-69390D01*
X86196Y-71450D01*
X85700Y-71450D01*
X85700Y-69528D01*
X85700Y-69193D01*
X85365Y-69193D01*
X85303Y-69256D01*
X85303Y-69390D01*
X85341Y-69481D01*
X85411Y-69552D01*
X85503Y-69590D01*
X85602Y-69590D01*
X85637Y-69590D01*
X85700Y-69528D01*
X85700Y-71450D01*
X80950Y-71450D01*
X80950Y-49061D01*
X80805Y-48712D01*
X80538Y-48445D01*
X80189Y-48300D01*
X79811Y-48299D01*
X79462Y-48444D01*
X79195Y-48711D01*
X79050Y-49060D01*
X79049Y-49438D01*
X79194Y-49787D01*
X79461Y-50054D01*
X79810Y-50199D01*
X80188Y-50200D01*
X80537Y-50055D01*
X80804Y-49788D01*
X80949Y-49439D01*
X80950Y-49061D01*
X80950Y-71450D01*
X80753Y-71450D01*
X80753Y-70379D01*
X80745Y-70081D01*
X80646Y-69841D01*
X80530Y-69790D01*
X80459Y-69860D01*
X80459Y-69719D01*
X80408Y-69603D01*
X80129Y-69496D01*
X79831Y-69504D01*
X79591Y-69603D01*
X79540Y-69719D01*
X80000Y-70179D01*
X80459Y-69719D01*
X80459Y-69860D01*
X80070Y-70250D01*
X80530Y-70709D01*
X80646Y-70658D01*
X80753Y-70379D01*
X80753Y-71450D01*
X80459Y-71450D01*
X80459Y-70780D01*
X80000Y-70320D01*
X79929Y-70391D01*
X79929Y-70250D01*
X79469Y-69790D01*
X79353Y-69841D01*
X79246Y-70120D01*
X79254Y-70418D01*
X79353Y-70658D01*
X79469Y-70709D01*
X79929Y-70250D01*
X79929Y-70391D01*
X79540Y-70780D01*
X79591Y-70896D01*
X79870Y-71003D01*
X80168Y-70995D01*
X80408Y-70896D01*
X80459Y-70780D01*
X80459Y-71450D01*
X76950Y-71450D01*
X76950Y-70061D01*
X76805Y-69712D01*
X76753Y-69660D01*
X76753Y-49379D01*
X76745Y-49081D01*
X76646Y-48841D01*
X76530Y-48790D01*
X76459Y-48860D01*
X76459Y-48719D01*
X76408Y-48603D01*
X76129Y-48496D01*
X75831Y-48504D01*
X75591Y-48603D01*
X75540Y-48719D01*
X76000Y-49179D01*
X76459Y-48719D01*
X76459Y-48860D01*
X76070Y-49250D01*
X76530Y-49709D01*
X76646Y-49658D01*
X76753Y-49379D01*
X76753Y-69660D01*
X76538Y-69445D01*
X76459Y-69412D01*
X76459Y-49780D01*
X76000Y-49320D01*
X75929Y-49391D01*
X75929Y-49250D01*
X75469Y-48790D01*
X75353Y-48841D01*
X75246Y-49120D01*
X75254Y-49418D01*
X75353Y-49658D01*
X75469Y-49709D01*
X75929Y-49250D01*
X75929Y-49391D01*
X75540Y-49780D01*
X75591Y-49896D01*
X75870Y-50003D01*
X76168Y-49995D01*
X76408Y-49896D01*
X76459Y-49780D01*
X76459Y-69412D01*
X76189Y-69300D01*
X75811Y-69299D01*
X75462Y-69444D01*
X75195Y-69711D01*
X75050Y-70060D01*
X75049Y-70438D01*
X75194Y-70787D01*
X75461Y-71054D01*
X75810Y-71199D01*
X76188Y-71200D01*
X76537Y-71055D01*
X76804Y-70788D01*
X76949Y-70439D01*
X76950Y-70061D01*
X76950Y-71450D01*
X72950Y-71450D01*
X72950Y-70061D01*
X72950Y-49061D01*
X72805Y-48712D01*
X72538Y-48445D01*
X72189Y-48300D01*
X71811Y-48299D01*
X71462Y-48444D01*
X71195Y-48711D01*
X71050Y-49060D01*
X71049Y-49438D01*
X71194Y-49787D01*
X71461Y-50054D01*
X71810Y-50199D01*
X72188Y-50200D01*
X72537Y-50055D01*
X72804Y-49788D01*
X72949Y-49439D01*
X72950Y-49061D01*
X72950Y-70061D01*
X72805Y-69712D01*
X72538Y-69445D01*
X72189Y-69300D01*
X71811Y-69299D01*
X71462Y-69444D01*
X71195Y-69711D01*
X71050Y-70060D01*
X71049Y-70438D01*
X71194Y-70787D01*
X71461Y-71054D01*
X71810Y-71199D01*
X72188Y-71200D01*
X72537Y-71055D01*
X72804Y-70788D01*
X72949Y-70439D01*
X72950Y-70061D01*
X72950Y-71450D01*
X66942Y-71450D01*
X66942Y-60063D01*
X66942Y-58063D01*
X66799Y-57717D01*
X66534Y-57451D01*
X66188Y-57308D01*
X65813Y-57307D01*
X65467Y-57450D01*
X65201Y-57715D01*
X65058Y-58061D01*
X65057Y-58436D01*
X65200Y-58782D01*
X65465Y-59048D01*
X65811Y-59191D01*
X66186Y-59192D01*
X66532Y-59049D01*
X66798Y-58784D01*
X66941Y-58438D01*
X66942Y-58063D01*
X66942Y-60063D01*
X66799Y-59717D01*
X66534Y-59451D01*
X66188Y-59308D01*
X65813Y-59307D01*
X65467Y-59450D01*
X65201Y-59715D01*
X65058Y-60061D01*
X65057Y-60436D01*
X65200Y-60782D01*
X65465Y-61048D01*
X65811Y-61191D01*
X66186Y-61192D01*
X66532Y-61049D01*
X66798Y-60784D01*
X66941Y-60438D01*
X66942Y-60063D01*
X66942Y-71450D01*
X64942Y-71450D01*
X64942Y-60063D01*
X64942Y-58094D01*
X64799Y-57748D01*
X64534Y-57483D01*
X64188Y-57339D01*
X63813Y-57339D01*
X63467Y-57482D01*
X63201Y-57747D01*
X63058Y-58093D01*
X63057Y-58468D01*
X63200Y-58814D01*
X63465Y-59079D01*
X63811Y-59223D01*
X64186Y-59223D01*
X64532Y-59080D01*
X64798Y-58815D01*
X64941Y-58469D01*
X64942Y-58094D01*
X64942Y-60063D01*
X64799Y-59717D01*
X64534Y-59451D01*
X64188Y-59308D01*
X63813Y-59307D01*
X63467Y-59450D01*
X63201Y-59715D01*
X63058Y-60061D01*
X63057Y-60436D01*
X63200Y-60782D01*
X63465Y-61048D01*
X63811Y-61191D01*
X64186Y-61192D01*
X64532Y-61049D01*
X64798Y-60784D01*
X64941Y-60438D01*
X64942Y-60063D01*
X64942Y-71450D01*
X64287Y-71450D01*
X64491Y-71246D01*
X64624Y-70924D01*
X64625Y-70576D01*
X64492Y-70255D01*
X64246Y-70008D01*
X63924Y-69875D01*
X63576Y-69874D01*
X63255Y-70007D01*
X63050Y-70212D01*
X63050Y-49287D01*
X63253Y-49491D01*
X63575Y-49624D01*
X63923Y-49625D01*
X64245Y-49492D01*
X64491Y-49246D01*
X64624Y-48924D01*
X64625Y-48576D01*
X64492Y-48255D01*
X64287Y-48050D01*
X110712Y-48050D01*
X110508Y-48253D01*
X110375Y-48575D01*
X110374Y-48923D01*
X110507Y-49245D01*
X110753Y-49491D01*
X111075Y-49624D01*
X111423Y-49625D01*
X111745Y-49492D01*
X111950Y-49287D01*
X111950Y-70212D01*
M02*
