G04 (created by PCBNEW (2013-07-07 BZR 4022)-stable) date 4/14/2014 10:19:51 AM*
%MOIN*%
G04 Gerber Fmt 3.4, Leading zero omitted, Abs format*
%FSLAX34Y34*%
G01*
G70*
G90*
G04 APERTURE LIST*
%ADD10C,0.00590551*%
%ADD11R,0.09X0.045*%
%ADD12R,0.3937X0.4252*%
%ADD13R,0.045X0.09*%
%ADD14R,0.4252X0.3937*%
%ADD15R,0.025X0.045*%
%ADD16R,0.12X0.12*%
%ADD17C,0.0590551*%
%ADD18R,0.0866X0.063*%
%ADD19R,0.063X0.0866*%
%ADD20R,0.07X0.125*%
%ADD21R,0.125X0.07*%
%ADD22R,0.059X0.0512*%
%ADD23R,0.0393701X0.0393701*%
%ADD24C,0.0393701*%
%ADD25R,0.0472441X0.0472441*%
%ADD26C,0.0472441*%
%ADD27C,0.0984252*%
%ADD28C,0.1*%
%ADD29C,0.07*%
%ADD30R,0.07X0.07*%
%ADD31C,0.125*%
%ADD32C,0.035*%
%ADD33C,0.01*%
%ADD34C,0.02*%
%ADD35C,0.04*%
G04 APERTURE END LIST*
G54D10*
G54D11*
X96000Y-65581D03*
G54D12*
X100250Y-66250D03*
G54D11*
X96000Y-66919D03*
X96000Y-66250D03*
X96000Y-64911D03*
X96000Y-67589D03*
G54D13*
X89919Y-60500D03*
G54D14*
X89250Y-64750D03*
G54D13*
X88581Y-60500D03*
X89250Y-60500D03*
X90589Y-60500D03*
X87911Y-60500D03*
G54D15*
X87980Y-59220D03*
X88580Y-59220D03*
G54D16*
X97250Y-61000D03*
X103250Y-61000D03*
X90000Y-56500D03*
X96000Y-56500D03*
G54D17*
X85500Y-62606D03*
X85500Y-61070D03*
X85500Y-59535D03*
X85500Y-58000D03*
G54D18*
X95750Y-52498D03*
X95750Y-51002D03*
G54D19*
X91252Y-70000D03*
X92748Y-70000D03*
X92248Y-49500D03*
X90752Y-49500D03*
G54D18*
X94500Y-68752D03*
X94500Y-70248D03*
G54D20*
X98200Y-69750D03*
X96300Y-69750D03*
G54D21*
X88000Y-54800D03*
X88000Y-56700D03*
G54D22*
X94250Y-51125D03*
X94250Y-51875D03*
X94250Y-67125D03*
X94250Y-67875D03*
G54D23*
X92811Y-61500D03*
G54D24*
X94188Y-61500D03*
G54D23*
X94188Y-65000D03*
G54D24*
X92811Y-65000D03*
G54D23*
X88000Y-69143D03*
G54D24*
X88000Y-68356D03*
G54D23*
X85750Y-69143D03*
G54D24*
X85750Y-68356D03*
G54D23*
X88250Y-51393D03*
G54D24*
X88250Y-50606D03*
G54D23*
X85750Y-51393D03*
G54D24*
X85750Y-50606D03*
G54D25*
X98750Y-56484D03*
G54D26*
X98750Y-54515D03*
G54D25*
X102750Y-56484D03*
G54D26*
X102750Y-54515D03*
G54D27*
X110250Y-63750D03*
X110250Y-61750D03*
X110250Y-59750D03*
X110250Y-57750D03*
X110250Y-55750D03*
X108281Y-63750D03*
X108281Y-61750D03*
X108281Y-59750D03*
X108281Y-57750D03*
X108281Y-55750D03*
X64000Y-60250D03*
X64000Y-58281D03*
X66000Y-60250D03*
X66000Y-58250D03*
G54D28*
X76000Y-70250D03*
X72000Y-70250D03*
X80000Y-70250D03*
X72000Y-49250D03*
X76000Y-49250D03*
X80000Y-49250D03*
G54D29*
X91500Y-67750D03*
X92500Y-67750D03*
G54D30*
X90500Y-67750D03*
G54D29*
X91500Y-51500D03*
X92500Y-51500D03*
G54D30*
X90500Y-51500D03*
G54D31*
X63750Y-70750D03*
X63750Y-48750D03*
X111250Y-48750D03*
X111250Y-70750D03*
G54D32*
X87130Y-59950D03*
X89080Y-59210D03*
G54D33*
X87911Y-60500D02*
X87340Y-60500D01*
X87140Y-59960D02*
X87130Y-59950D01*
X87140Y-60300D02*
X87140Y-59960D01*
X87340Y-60500D02*
X87140Y-60300D01*
X94188Y-65000D02*
X95070Y-65000D01*
X95159Y-64911D02*
X96000Y-64911D01*
X95070Y-65000D02*
X95159Y-64911D01*
X92811Y-61500D02*
X92811Y-62051D01*
X94188Y-63428D02*
X94188Y-65000D01*
X92811Y-62051D02*
X94188Y-63428D01*
X87980Y-59220D02*
X86590Y-59220D01*
X86590Y-59220D02*
X86620Y-59220D01*
X86620Y-59220D02*
X86590Y-59220D01*
X90589Y-60500D02*
X90589Y-61500D01*
X90589Y-61500D02*
X90590Y-61500D01*
X85500Y-58000D02*
X86590Y-59090D01*
X87270Y-61500D02*
X90590Y-61500D01*
X90590Y-61500D02*
X92811Y-61500D01*
X86590Y-60820D02*
X87270Y-61500D01*
X86590Y-59090D02*
X86590Y-59220D01*
X86590Y-59220D02*
X86590Y-60820D01*
X90752Y-49500D02*
X90752Y-50198D01*
X90500Y-50450D02*
X90500Y-51500D01*
X90752Y-50198D02*
X90500Y-50450D01*
X88250Y-51393D02*
X89333Y-51393D01*
X89440Y-51500D02*
X90500Y-51500D01*
X89333Y-51393D02*
X89440Y-51500D01*
X85750Y-51393D02*
X88250Y-51393D01*
X85500Y-58000D02*
X85500Y-54710D01*
X85750Y-54460D02*
X85750Y-51393D01*
X85500Y-54710D02*
X85750Y-54460D01*
X88580Y-59220D02*
X89070Y-59220D01*
X89070Y-59220D02*
X89080Y-59210D01*
X88580Y-59220D02*
X88580Y-60499D01*
X88580Y-60499D02*
X88581Y-60500D01*
X91252Y-70000D02*
X91252Y-69032D01*
X91252Y-69032D02*
X90990Y-68770D01*
X88000Y-68356D02*
X88946Y-68356D01*
X91500Y-68260D02*
X91500Y-67750D01*
X90990Y-68770D02*
X91500Y-68260D01*
X89360Y-68770D02*
X90990Y-68770D01*
X88946Y-68356D02*
X89360Y-68770D01*
X85750Y-68356D02*
X88000Y-68356D01*
X85500Y-62606D02*
X85500Y-66220D01*
X85750Y-66470D02*
X85750Y-68356D01*
X85500Y-66220D02*
X85750Y-66470D01*
X98750Y-56484D02*
X100765Y-56484D01*
X106750Y-61750D02*
X108281Y-61750D01*
X105250Y-60250D02*
X106750Y-61750D01*
X105250Y-57000D02*
X105250Y-60250D01*
X103750Y-55500D02*
X105250Y-57000D01*
X101750Y-55500D02*
X103750Y-55500D01*
X100765Y-56484D02*
X101750Y-55500D01*
X108281Y-61750D02*
X110250Y-61750D01*
X98750Y-56484D02*
X96015Y-56484D01*
X96015Y-56484D02*
X96000Y-56500D01*
X96000Y-65581D02*
X96729Y-65581D01*
X97250Y-65060D02*
X97250Y-61000D01*
X96729Y-65581D02*
X97250Y-65060D01*
X96300Y-69750D02*
X96300Y-69550D01*
X95499Y-65581D02*
X96000Y-65581D01*
X95240Y-65840D02*
X95499Y-65581D01*
X95240Y-68490D02*
X95240Y-65840D01*
X96300Y-69550D02*
X95240Y-68490D01*
X94500Y-68752D02*
X94500Y-69250D01*
X111250Y-57750D02*
X110250Y-57750D01*
X111500Y-58000D02*
X111250Y-57750D01*
X111500Y-67750D02*
X111500Y-58000D01*
X108250Y-71000D02*
X111500Y-67750D01*
X95750Y-71000D02*
X108250Y-71000D01*
X95250Y-70500D02*
X95750Y-71000D01*
X95250Y-69750D02*
X95250Y-70500D01*
X95000Y-69500D02*
X95250Y-69750D01*
X94750Y-69500D02*
X95000Y-69500D01*
X94500Y-69250D02*
X94750Y-69500D01*
X110250Y-57750D02*
X108281Y-57750D01*
X94250Y-67875D02*
X94250Y-68180D01*
X94500Y-68430D02*
X94500Y-68752D01*
X94250Y-68180D02*
X94500Y-68430D01*
X92500Y-67750D02*
X93420Y-67750D01*
X93545Y-67875D02*
X94250Y-67875D01*
X93420Y-67750D02*
X93545Y-67875D01*
X92748Y-70000D02*
X92748Y-69058D01*
X92500Y-68810D02*
X92500Y-67750D01*
X92748Y-69058D02*
X92500Y-68810D01*
G54D34*
X80000Y-49250D02*
X80000Y-57000D01*
X82535Y-59535D02*
X85500Y-59535D01*
X80000Y-57000D02*
X82535Y-59535D01*
G54D35*
X64000Y-58281D02*
X64000Y-60250D01*
X64000Y-60250D02*
X64000Y-64250D01*
X64000Y-64250D02*
X70000Y-70250D01*
X70000Y-70250D02*
X72000Y-70250D01*
X66000Y-60250D02*
X66000Y-58250D01*
X66000Y-58250D02*
X72000Y-52250D01*
X72000Y-52250D02*
X72000Y-49250D01*
G54D33*
X103250Y-61000D02*
X104000Y-61000D01*
X106750Y-63750D02*
X108281Y-63750D01*
X104000Y-61000D02*
X106750Y-63750D01*
X108281Y-63750D02*
X110250Y-63750D01*
X103250Y-61000D02*
X103250Y-59160D01*
X102750Y-58660D02*
X102750Y-56484D01*
X96000Y-66919D02*
X96781Y-66919D01*
X103250Y-61890D02*
X103250Y-61000D01*
X102500Y-62640D02*
X103250Y-61890D01*
X99060Y-62640D02*
X102500Y-62640D01*
X97920Y-63780D02*
X99060Y-62640D01*
X97920Y-65780D02*
X97920Y-63780D01*
X96781Y-66919D02*
X97920Y-65780D01*
X103250Y-59160D02*
X102750Y-58660D01*
X108281Y-59750D02*
X110250Y-59750D01*
X95750Y-51002D02*
X101502Y-51002D01*
X107250Y-59750D02*
X108281Y-59750D01*
X106500Y-59000D02*
X107250Y-59750D01*
X106500Y-55750D02*
X106500Y-59000D01*
X101752Y-51002D02*
X106500Y-55750D01*
X101502Y-51002D02*
X101752Y-51002D01*
X94250Y-51125D02*
X94915Y-51125D01*
X95038Y-51002D02*
X95750Y-51002D01*
X94915Y-51125D02*
X95038Y-51002D01*
X92500Y-51500D02*
X92860Y-51500D01*
X93235Y-51125D02*
X94250Y-51125D01*
X92860Y-51500D02*
X93235Y-51125D01*
X92248Y-49500D02*
X92248Y-50208D01*
X92500Y-50460D02*
X92500Y-51500D01*
X92248Y-50208D02*
X92500Y-50460D01*
G54D34*
X76000Y-70250D02*
X76000Y-66000D01*
X80929Y-61070D02*
X85500Y-61070D01*
X76000Y-66000D02*
X80929Y-61070D01*
G54D33*
X90000Y-56500D02*
X89150Y-56500D01*
X88950Y-56700D02*
X88000Y-56700D01*
X89150Y-56500D02*
X88950Y-56700D01*
X89919Y-60500D02*
X89919Y-56581D01*
X89919Y-56581D02*
X90000Y-56500D01*
G54D10*
G36*
X88280Y-59810D02*
X88246Y-59824D01*
X88185Y-59799D01*
X88023Y-59800D01*
X87961Y-59862D01*
X87961Y-60450D01*
X87968Y-60450D01*
X87968Y-60550D01*
X87961Y-60550D01*
X87961Y-60557D01*
X87861Y-60557D01*
X87861Y-60550D01*
X87861Y-60450D01*
X87861Y-59862D01*
X87798Y-59800D01*
X87636Y-59799D01*
X87544Y-59837D01*
X87474Y-59908D01*
X87436Y-60000D01*
X87435Y-60099D01*
X87436Y-60387D01*
X87498Y-60450D01*
X87861Y-60450D01*
X87861Y-60550D01*
X87498Y-60550D01*
X87436Y-60612D01*
X87435Y-60900D01*
X87436Y-60999D01*
X87474Y-61091D01*
X87544Y-61162D01*
X87636Y-61200D01*
X87394Y-61200D01*
X86890Y-60695D01*
X86890Y-59520D01*
X87615Y-59520D01*
X87642Y-59586D01*
X87713Y-59656D01*
X87805Y-59694D01*
X87904Y-59695D01*
X88154Y-59695D01*
X88246Y-59657D01*
X88279Y-59623D01*
X88280Y-59623D01*
X88280Y-59810D01*
X88280Y-59810D01*
G37*
G54D33*
X88280Y-59810D02*
X88246Y-59824D01*
X88185Y-59799D01*
X88023Y-59800D01*
X87961Y-59862D01*
X87961Y-60450D01*
X87968Y-60450D01*
X87968Y-60550D01*
X87961Y-60550D01*
X87961Y-60557D01*
X87861Y-60557D01*
X87861Y-60550D01*
X87861Y-60450D01*
X87861Y-59862D01*
X87798Y-59800D01*
X87636Y-59799D01*
X87544Y-59837D01*
X87474Y-59908D01*
X87436Y-60000D01*
X87435Y-60099D01*
X87436Y-60387D01*
X87498Y-60450D01*
X87861Y-60450D01*
X87861Y-60550D01*
X87498Y-60550D01*
X87436Y-60612D01*
X87435Y-60900D01*
X87436Y-60999D01*
X87474Y-61091D01*
X87544Y-61162D01*
X87636Y-61200D01*
X87394Y-61200D01*
X86890Y-60695D01*
X86890Y-59520D01*
X87615Y-59520D01*
X87642Y-59586D01*
X87713Y-59656D01*
X87805Y-59694D01*
X87904Y-59695D01*
X88154Y-59695D01*
X88246Y-59657D01*
X88279Y-59623D01*
X88280Y-59623D01*
X88280Y-59810D01*
G54D10*
G36*
X111950Y-69788D02*
X111916Y-69754D01*
X111800Y-69706D01*
X111800Y-67750D01*
X111800Y-58000D01*
X111777Y-57885D01*
X111712Y-57787D01*
X111712Y-57787D01*
X111462Y-57537D01*
X111364Y-57472D01*
X111250Y-57450D01*
X110995Y-57450D01*
X110995Y-55877D01*
X110987Y-55582D01*
X110890Y-55346D01*
X110774Y-55295D01*
X110704Y-55366D01*
X110704Y-55225D01*
X110653Y-55109D01*
X110377Y-55004D01*
X110082Y-55012D01*
X109846Y-55109D01*
X109795Y-55225D01*
X110250Y-55679D01*
X110704Y-55225D01*
X110704Y-55366D01*
X110320Y-55750D01*
X110774Y-56204D01*
X110890Y-56153D01*
X110995Y-55877D01*
X110995Y-57450D01*
X110929Y-57450D01*
X110879Y-57330D01*
X110704Y-57154D01*
X110704Y-56274D01*
X110250Y-55820D01*
X110179Y-55891D01*
X110179Y-55750D01*
X109725Y-55295D01*
X109609Y-55346D01*
X109504Y-55622D01*
X109512Y-55917D01*
X109609Y-56153D01*
X109725Y-56204D01*
X110179Y-55750D01*
X110179Y-55891D01*
X109795Y-56274D01*
X109846Y-56390D01*
X110122Y-56495D01*
X110417Y-56487D01*
X110653Y-56390D01*
X110704Y-56274D01*
X110704Y-57154D01*
X110670Y-57121D01*
X110398Y-57008D01*
X110103Y-57007D01*
X109830Y-57120D01*
X109621Y-57329D01*
X109571Y-57450D01*
X109027Y-57450D01*
X109027Y-55877D01*
X109019Y-55582D01*
X108921Y-55346D01*
X108806Y-55295D01*
X108735Y-55366D01*
X108735Y-55225D01*
X108684Y-55109D01*
X108409Y-55004D01*
X108114Y-55012D01*
X107878Y-55109D01*
X107827Y-55225D01*
X108281Y-55679D01*
X108735Y-55225D01*
X108735Y-55366D01*
X108352Y-55750D01*
X108806Y-56204D01*
X108921Y-56153D01*
X109027Y-55877D01*
X109027Y-57450D01*
X108960Y-57450D01*
X108911Y-57330D01*
X108735Y-57154D01*
X108735Y-56274D01*
X108281Y-55820D01*
X108210Y-55891D01*
X108210Y-55750D01*
X107756Y-55295D01*
X107641Y-55346D01*
X107535Y-55622D01*
X107543Y-55917D01*
X107641Y-56153D01*
X107756Y-56204D01*
X108210Y-55750D01*
X108210Y-55891D01*
X107827Y-56274D01*
X107878Y-56390D01*
X108153Y-56495D01*
X108448Y-56487D01*
X108684Y-56390D01*
X108735Y-56274D01*
X108735Y-57154D01*
X108702Y-57121D01*
X108429Y-57008D01*
X108134Y-57007D01*
X107861Y-57120D01*
X107652Y-57329D01*
X107539Y-57601D01*
X107539Y-57896D01*
X107651Y-58169D01*
X107860Y-58378D01*
X108133Y-58491D01*
X108428Y-58492D01*
X108701Y-58379D01*
X108910Y-58170D01*
X108960Y-58050D01*
X109570Y-58050D01*
X109620Y-58169D01*
X109829Y-58378D01*
X110101Y-58491D01*
X110396Y-58492D01*
X110669Y-58379D01*
X110878Y-58170D01*
X110928Y-58050D01*
X111125Y-58050D01*
X111200Y-58124D01*
X111200Y-67625D01*
X108125Y-70700D01*
X102468Y-70700D01*
X102468Y-68425D01*
X102468Y-64074D01*
X102430Y-63982D01*
X102360Y-63912D01*
X102268Y-63874D01*
X102168Y-63873D01*
X100362Y-63874D01*
X100300Y-63936D01*
X100300Y-66200D01*
X102406Y-66200D01*
X102468Y-66137D01*
X102468Y-64074D01*
X102468Y-68425D01*
X102468Y-66362D01*
X102406Y-66300D01*
X100300Y-66300D01*
X100300Y-68563D01*
X100362Y-68626D01*
X102168Y-68626D01*
X102268Y-68625D01*
X102360Y-68587D01*
X102430Y-68517D01*
X102468Y-68425D01*
X102468Y-70700D01*
X100200Y-70700D01*
X100200Y-68563D01*
X100200Y-66300D01*
X98094Y-66300D01*
X98031Y-66362D01*
X98031Y-68425D01*
X98069Y-68517D01*
X98139Y-68587D01*
X98231Y-68625D01*
X98331Y-68626D01*
X100137Y-68626D01*
X100200Y-68563D01*
X100200Y-70700D01*
X98800Y-70700D01*
X98800Y-70325D01*
X98800Y-69174D01*
X98799Y-69075D01*
X98761Y-68983D01*
X98691Y-68912D01*
X98599Y-68874D01*
X98312Y-68875D01*
X98250Y-68937D01*
X98250Y-69700D01*
X98737Y-69700D01*
X98800Y-69637D01*
X98800Y-69174D01*
X98800Y-70325D01*
X98800Y-69862D01*
X98737Y-69800D01*
X98250Y-69800D01*
X98250Y-70562D01*
X98312Y-70625D01*
X98599Y-70625D01*
X98691Y-70587D01*
X98761Y-70516D01*
X98799Y-70424D01*
X98800Y-70325D01*
X98800Y-70700D01*
X98150Y-70700D01*
X98150Y-70562D01*
X98150Y-69800D01*
X98150Y-69700D01*
X98150Y-68937D01*
X98087Y-68875D01*
X97800Y-68874D01*
X97708Y-68912D01*
X97638Y-68983D01*
X97600Y-69075D01*
X97599Y-69174D01*
X97600Y-69637D01*
X97662Y-69700D01*
X98150Y-69700D01*
X98150Y-69800D01*
X97662Y-69800D01*
X97600Y-69862D01*
X97599Y-70325D01*
X97600Y-70424D01*
X97638Y-70516D01*
X97708Y-70587D01*
X97800Y-70625D01*
X98087Y-70625D01*
X98150Y-70562D01*
X98150Y-70700D01*
X95874Y-70700D01*
X95550Y-70375D01*
X95550Y-69750D01*
X95527Y-69635D01*
X95462Y-69537D01*
X95462Y-69537D01*
X95212Y-69287D01*
X95124Y-69229D01*
X95144Y-69208D01*
X95182Y-69116D01*
X95183Y-69017D01*
X95183Y-68857D01*
X95699Y-69374D01*
X95699Y-70424D01*
X95737Y-70516D01*
X95808Y-70586D01*
X95900Y-70624D01*
X95999Y-70625D01*
X96699Y-70625D01*
X96791Y-70587D01*
X96861Y-70516D01*
X96899Y-70424D01*
X96900Y-70325D01*
X96900Y-69075D01*
X96862Y-68983D01*
X96791Y-68913D01*
X96700Y-68875D01*
X96700Y-67863D01*
X96700Y-67701D01*
X96637Y-67639D01*
X96050Y-67639D01*
X96050Y-68001D01*
X96112Y-68064D01*
X96400Y-68064D01*
X96499Y-68063D01*
X96591Y-68025D01*
X96662Y-67955D01*
X96700Y-67863D01*
X96700Y-68875D01*
X96699Y-68875D01*
X96600Y-68874D01*
X96049Y-68874D01*
X95540Y-68365D01*
X95540Y-68063D01*
X95599Y-68064D01*
X95887Y-68064D01*
X95950Y-68001D01*
X95950Y-67639D01*
X95942Y-67639D01*
X95942Y-67539D01*
X95950Y-67539D01*
X95950Y-67531D01*
X96050Y-67531D01*
X96050Y-67539D01*
X96637Y-67539D01*
X96700Y-67476D01*
X96700Y-67314D01*
X96675Y-67253D01*
X96689Y-67219D01*
X96781Y-67219D01*
X96781Y-67218D01*
X96895Y-67196D01*
X96895Y-67196D01*
X96993Y-67131D01*
X98031Y-66092D01*
X98031Y-66137D01*
X98094Y-66200D01*
X100200Y-66200D01*
X100200Y-63936D01*
X100137Y-63874D01*
X98331Y-63873D01*
X98250Y-63874D01*
X99184Y-62940D01*
X102500Y-62940D01*
X102500Y-62939D01*
X102614Y-62917D01*
X102614Y-62917D01*
X102712Y-62852D01*
X103462Y-62102D01*
X103462Y-62102D01*
X103527Y-62004D01*
X103549Y-61890D01*
X103550Y-61890D01*
X103550Y-61850D01*
X103899Y-61850D01*
X103991Y-61812D01*
X104061Y-61741D01*
X104099Y-61649D01*
X104100Y-61550D01*
X104100Y-61524D01*
X106537Y-63962D01*
X106537Y-63962D01*
X106635Y-64027D01*
X106749Y-64049D01*
X106750Y-64050D01*
X107602Y-64050D01*
X107651Y-64169D01*
X107860Y-64378D01*
X108133Y-64491D01*
X108428Y-64492D01*
X108701Y-64379D01*
X108910Y-64170D01*
X108960Y-64050D01*
X109570Y-64050D01*
X109620Y-64169D01*
X109829Y-64378D01*
X110101Y-64491D01*
X110396Y-64492D01*
X110669Y-64379D01*
X110878Y-64170D01*
X110991Y-63898D01*
X110992Y-63603D01*
X110992Y-61603D01*
X110992Y-59603D01*
X110879Y-59330D01*
X110670Y-59121D01*
X110398Y-59008D01*
X110103Y-59007D01*
X109830Y-59120D01*
X109621Y-59329D01*
X109571Y-59450D01*
X108960Y-59450D01*
X108911Y-59330D01*
X108702Y-59121D01*
X108429Y-59008D01*
X108134Y-59007D01*
X107861Y-59120D01*
X107652Y-59329D01*
X107602Y-59450D01*
X107374Y-59450D01*
X106800Y-58875D01*
X106800Y-55750D01*
X106777Y-55635D01*
X106712Y-55537D01*
X106712Y-55537D01*
X101964Y-50789D01*
X101866Y-50724D01*
X101752Y-50702D01*
X101502Y-50702D01*
X96433Y-50702D01*
X96433Y-50637D01*
X96395Y-50545D01*
X96324Y-50475D01*
X96232Y-50437D01*
X96133Y-50436D01*
X95267Y-50436D01*
X95175Y-50474D01*
X95105Y-50545D01*
X95067Y-50637D01*
X95066Y-50702D01*
X95038Y-50702D01*
X94923Y-50724D01*
X94825Y-50789D01*
X94795Y-50820D01*
X94795Y-50819D01*
X94757Y-50727D01*
X94686Y-50657D01*
X94594Y-50619D01*
X94495Y-50618D01*
X93905Y-50618D01*
X93813Y-50656D01*
X93743Y-50727D01*
X93705Y-50819D01*
X93705Y-50825D01*
X93235Y-50825D01*
X93120Y-50847D01*
X93022Y-50912D01*
X92892Y-51043D01*
X92840Y-50991D01*
X92800Y-50974D01*
X92800Y-50460D01*
X92799Y-50459D01*
X92777Y-50345D01*
X92712Y-50247D01*
X92712Y-50247D01*
X92637Y-50172D01*
X92704Y-50145D01*
X92774Y-50074D01*
X92812Y-49982D01*
X92813Y-49883D01*
X92813Y-49017D01*
X92775Y-48925D01*
X92704Y-48855D01*
X92612Y-48817D01*
X92513Y-48816D01*
X91883Y-48816D01*
X91791Y-48854D01*
X91721Y-48925D01*
X91683Y-49017D01*
X91682Y-49116D01*
X91682Y-49982D01*
X91720Y-50074D01*
X91791Y-50144D01*
X91883Y-50182D01*
X91948Y-50183D01*
X91948Y-50208D01*
X91970Y-50322D01*
X92035Y-50420D01*
X92200Y-50584D01*
X92200Y-50974D01*
X92160Y-50991D01*
X91991Y-51159D01*
X91987Y-51170D01*
X91922Y-51148D01*
X91851Y-51219D01*
X91570Y-51500D01*
X91922Y-51851D01*
X91987Y-51829D01*
X91991Y-51839D01*
X92159Y-52008D01*
X92380Y-52099D01*
X92618Y-52100D01*
X92839Y-52008D01*
X93008Y-51840D01*
X93057Y-51721D01*
X93072Y-51712D01*
X93359Y-51425D01*
X93704Y-51425D01*
X93704Y-51430D01*
X93733Y-51500D01*
X93704Y-51569D01*
X93705Y-51762D01*
X93767Y-51825D01*
X94200Y-51825D01*
X94200Y-51817D01*
X94300Y-51817D01*
X94300Y-51825D01*
X94732Y-51825D01*
X94795Y-51762D01*
X94795Y-51569D01*
X94766Y-51499D01*
X94794Y-51430D01*
X94794Y-51425D01*
X94915Y-51425D01*
X94915Y-51424D01*
X95029Y-51402D01*
X95029Y-51402D01*
X95070Y-51374D01*
X95104Y-51458D01*
X95175Y-51528D01*
X95267Y-51566D01*
X95366Y-51567D01*
X96232Y-51567D01*
X96324Y-51529D01*
X96394Y-51458D01*
X96432Y-51366D01*
X96433Y-51302D01*
X101502Y-51302D01*
X101627Y-51302D01*
X106200Y-55874D01*
X106200Y-59000D01*
X106222Y-59114D01*
X106287Y-59212D01*
X107037Y-59962D01*
X107037Y-59962D01*
X107135Y-60027D01*
X107249Y-60049D01*
X107250Y-60050D01*
X107602Y-60050D01*
X107651Y-60169D01*
X107860Y-60378D01*
X108133Y-60491D01*
X108428Y-60492D01*
X108701Y-60379D01*
X108910Y-60170D01*
X108960Y-60050D01*
X109570Y-60050D01*
X109620Y-60169D01*
X109829Y-60378D01*
X110101Y-60491D01*
X110396Y-60492D01*
X110669Y-60379D01*
X110878Y-60170D01*
X110991Y-59898D01*
X110992Y-59603D01*
X110992Y-61603D01*
X110879Y-61330D01*
X110670Y-61121D01*
X110398Y-61008D01*
X110103Y-61007D01*
X109830Y-61120D01*
X109621Y-61329D01*
X109571Y-61450D01*
X108960Y-61450D01*
X108911Y-61330D01*
X108702Y-61121D01*
X108429Y-61008D01*
X108134Y-61007D01*
X107861Y-61120D01*
X107652Y-61329D01*
X107602Y-61450D01*
X106874Y-61450D01*
X105550Y-60125D01*
X105550Y-57000D01*
X105527Y-56885D01*
X105462Y-56787D01*
X105462Y-56787D01*
X103962Y-55287D01*
X103864Y-55222D01*
X103750Y-55200D01*
X103241Y-55200D01*
X103241Y-54582D01*
X103229Y-54389D01*
X103178Y-54266D01*
X103089Y-54246D01*
X103018Y-54317D01*
X103018Y-54176D01*
X102999Y-54087D01*
X102816Y-54024D01*
X102623Y-54036D01*
X102500Y-54087D01*
X102481Y-54176D01*
X102750Y-54445D01*
X103018Y-54176D01*
X103018Y-54317D01*
X102820Y-54515D01*
X103089Y-54784D01*
X103178Y-54765D01*
X103241Y-54582D01*
X103241Y-55200D01*
X103018Y-55200D01*
X103018Y-54855D01*
X102750Y-54586D01*
X102679Y-54657D01*
X102679Y-54515D01*
X102410Y-54246D01*
X102321Y-54266D01*
X102258Y-54449D01*
X102270Y-54642D01*
X102321Y-54765D01*
X102410Y-54784D01*
X102679Y-54515D01*
X102679Y-54657D01*
X102481Y-54855D01*
X102500Y-54944D01*
X102683Y-55007D01*
X102876Y-54995D01*
X102999Y-54944D01*
X103018Y-54855D01*
X103018Y-55200D01*
X101750Y-55200D01*
X101635Y-55222D01*
X101537Y-55287D01*
X100641Y-56184D01*
X99241Y-56184D01*
X99241Y-54582D01*
X99229Y-54389D01*
X99178Y-54266D01*
X99089Y-54246D01*
X99018Y-54317D01*
X99018Y-54176D01*
X98999Y-54087D01*
X98816Y-54024D01*
X98623Y-54036D01*
X98500Y-54087D01*
X98481Y-54176D01*
X98750Y-54445D01*
X99018Y-54176D01*
X99018Y-54317D01*
X98820Y-54515D01*
X99089Y-54784D01*
X99178Y-54765D01*
X99241Y-54582D01*
X99241Y-56184D01*
X99230Y-56184D01*
X99198Y-56106D01*
X99128Y-56036D01*
X99036Y-55998D01*
X99018Y-55998D01*
X99018Y-54855D01*
X98750Y-54586D01*
X98679Y-54657D01*
X98679Y-54515D01*
X98410Y-54246D01*
X98321Y-54266D01*
X98258Y-54449D01*
X98270Y-54642D01*
X98321Y-54765D01*
X98410Y-54784D01*
X98679Y-54515D01*
X98679Y-54657D01*
X98481Y-54855D01*
X98500Y-54944D01*
X98683Y-55007D01*
X98876Y-54995D01*
X98999Y-54944D01*
X99018Y-54855D01*
X99018Y-55998D01*
X98936Y-55997D01*
X98464Y-55997D01*
X98372Y-56035D01*
X98301Y-56106D01*
X98269Y-56184D01*
X96850Y-56184D01*
X96850Y-55850D01*
X96812Y-55758D01*
X96741Y-55688D01*
X96649Y-55650D01*
X96550Y-55649D01*
X96433Y-55649D01*
X96433Y-52862D01*
X96433Y-52133D01*
X96395Y-52041D01*
X96324Y-51971D01*
X96232Y-51933D01*
X96133Y-51932D01*
X95862Y-51933D01*
X95800Y-51995D01*
X95800Y-52448D01*
X96370Y-52448D01*
X96433Y-52385D01*
X96433Y-52133D01*
X96433Y-52862D01*
X96433Y-52610D01*
X96370Y-52548D01*
X95800Y-52548D01*
X95800Y-53000D01*
X95862Y-53063D01*
X96133Y-53063D01*
X96232Y-53062D01*
X96324Y-53024D01*
X96395Y-52954D01*
X96433Y-52862D01*
X96433Y-55649D01*
X95700Y-55649D01*
X95700Y-53000D01*
X95700Y-52548D01*
X95700Y-52448D01*
X95700Y-51995D01*
X95637Y-51933D01*
X95366Y-51932D01*
X95267Y-51933D01*
X95175Y-51971D01*
X95104Y-52041D01*
X95066Y-52133D01*
X95067Y-52385D01*
X95129Y-52448D01*
X95700Y-52448D01*
X95700Y-52548D01*
X95129Y-52548D01*
X95067Y-52610D01*
X95066Y-52862D01*
X95104Y-52954D01*
X95175Y-53024D01*
X95267Y-53062D01*
X95366Y-53063D01*
X95637Y-53063D01*
X95700Y-53000D01*
X95700Y-55649D01*
X95350Y-55649D01*
X95258Y-55687D01*
X95188Y-55758D01*
X95150Y-55850D01*
X95149Y-55949D01*
X95149Y-57149D01*
X95187Y-57241D01*
X95258Y-57311D01*
X95350Y-57349D01*
X95449Y-57350D01*
X96649Y-57350D01*
X96741Y-57312D01*
X96811Y-57241D01*
X96849Y-57149D01*
X96850Y-57050D01*
X96850Y-56784D01*
X98269Y-56784D01*
X98301Y-56861D01*
X98371Y-56932D01*
X98463Y-56970D01*
X98563Y-56970D01*
X99035Y-56970D01*
X99127Y-56932D01*
X99198Y-56862D01*
X99230Y-56784D01*
X100765Y-56784D01*
X100765Y-56784D01*
X100880Y-56761D01*
X100880Y-56761D01*
X100977Y-56696D01*
X101874Y-55800D01*
X103625Y-55800D01*
X104950Y-57124D01*
X104950Y-60250D01*
X104972Y-60364D01*
X105037Y-60462D01*
X106537Y-61962D01*
X106537Y-61962D01*
X106635Y-62027D01*
X106750Y-62050D01*
X107602Y-62050D01*
X107651Y-62169D01*
X107860Y-62378D01*
X108133Y-62491D01*
X108428Y-62492D01*
X108701Y-62379D01*
X108910Y-62170D01*
X108960Y-62050D01*
X109570Y-62050D01*
X109620Y-62169D01*
X109829Y-62378D01*
X110101Y-62491D01*
X110396Y-62492D01*
X110669Y-62379D01*
X110878Y-62170D01*
X110991Y-61898D01*
X110992Y-61603D01*
X110992Y-63603D01*
X110879Y-63330D01*
X110670Y-63121D01*
X110398Y-63008D01*
X110103Y-63007D01*
X109830Y-63120D01*
X109621Y-63329D01*
X109571Y-63450D01*
X108960Y-63450D01*
X108911Y-63330D01*
X108702Y-63121D01*
X108429Y-63008D01*
X108134Y-63007D01*
X107861Y-63120D01*
X107652Y-63329D01*
X107602Y-63450D01*
X106874Y-63450D01*
X104212Y-60787D01*
X104114Y-60722D01*
X104100Y-60719D01*
X104100Y-60350D01*
X104062Y-60258D01*
X103991Y-60188D01*
X103899Y-60150D01*
X103800Y-60149D01*
X103550Y-60149D01*
X103550Y-59160D01*
X103527Y-59045D01*
X103462Y-58947D01*
X103462Y-58947D01*
X103050Y-58535D01*
X103050Y-56964D01*
X103127Y-56932D01*
X103198Y-56862D01*
X103236Y-56770D01*
X103236Y-56670D01*
X103236Y-56198D01*
X103198Y-56106D01*
X103128Y-56036D01*
X103036Y-55998D01*
X102936Y-55997D01*
X102464Y-55997D01*
X102372Y-56035D01*
X102301Y-56106D01*
X102263Y-56198D01*
X102263Y-56297D01*
X102263Y-56769D01*
X102301Y-56861D01*
X102371Y-56932D01*
X102450Y-56964D01*
X102450Y-58660D01*
X102472Y-58774D01*
X102537Y-58872D01*
X102950Y-59284D01*
X102950Y-60149D01*
X102600Y-60149D01*
X102508Y-60187D01*
X102438Y-60258D01*
X102400Y-60350D01*
X102399Y-60449D01*
X102399Y-61649D01*
X102437Y-61741D01*
X102508Y-61811D01*
X102600Y-61849D01*
X102699Y-61850D01*
X102865Y-61850D01*
X102375Y-62340D01*
X99060Y-62340D01*
X98945Y-62362D01*
X98847Y-62427D01*
X97707Y-63567D01*
X97642Y-63665D01*
X97620Y-63780D01*
X97620Y-65655D01*
X96679Y-66595D01*
X96675Y-66584D01*
X96700Y-66524D01*
X96700Y-66362D01*
X96637Y-66300D01*
X96050Y-66300D01*
X96050Y-66307D01*
X95950Y-66307D01*
X95950Y-66300D01*
X95942Y-66300D01*
X95942Y-66200D01*
X95950Y-66200D01*
X95950Y-66192D01*
X96050Y-66192D01*
X96050Y-66200D01*
X96637Y-66200D01*
X96700Y-66137D01*
X96700Y-65975D01*
X96675Y-65915D01*
X96689Y-65881D01*
X96729Y-65881D01*
X96729Y-65880D01*
X96843Y-65858D01*
X96843Y-65858D01*
X96941Y-65793D01*
X97462Y-65272D01*
X97462Y-65272D01*
X97527Y-65174D01*
X97549Y-65060D01*
X97550Y-65060D01*
X97550Y-61850D01*
X97899Y-61850D01*
X97991Y-61812D01*
X98061Y-61741D01*
X98099Y-61649D01*
X98100Y-61550D01*
X98100Y-60350D01*
X98062Y-60258D01*
X97991Y-60188D01*
X97899Y-60150D01*
X97800Y-60149D01*
X96600Y-60149D01*
X96508Y-60187D01*
X96438Y-60258D01*
X96400Y-60350D01*
X96399Y-60449D01*
X96399Y-61649D01*
X96437Y-61741D01*
X96508Y-61811D01*
X96600Y-61849D01*
X96699Y-61850D01*
X96950Y-61850D01*
X96950Y-64935D01*
X96699Y-65185D01*
X96700Y-65086D01*
X96700Y-64636D01*
X96662Y-64544D01*
X96591Y-64474D01*
X96499Y-64436D01*
X96400Y-64435D01*
X95500Y-64435D01*
X95408Y-64473D01*
X95338Y-64544D01*
X95310Y-64611D01*
X95159Y-64611D01*
X95044Y-64633D01*
X94946Y-64698D01*
X94945Y-64700D01*
X94795Y-64700D01*
X94795Y-52180D01*
X94795Y-51987D01*
X94732Y-51925D01*
X94300Y-51925D01*
X94300Y-52318D01*
X94362Y-52381D01*
X94495Y-52381D01*
X94594Y-52380D01*
X94686Y-52342D01*
X94757Y-52272D01*
X94795Y-52180D01*
X94795Y-64700D01*
X94640Y-64700D01*
X94640Y-61557D01*
X94628Y-61379D01*
X94584Y-61274D01*
X94500Y-61259D01*
X94429Y-61330D01*
X94429Y-61188D01*
X94414Y-61104D01*
X94246Y-61047D01*
X94200Y-61051D01*
X94200Y-52318D01*
X94200Y-51925D01*
X93767Y-51925D01*
X93705Y-51987D01*
X93704Y-52180D01*
X93742Y-52272D01*
X93813Y-52342D01*
X93905Y-52380D01*
X94004Y-52381D01*
X94137Y-52381D01*
X94200Y-52318D01*
X94200Y-61051D01*
X94068Y-61060D01*
X93963Y-61104D01*
X93948Y-61188D01*
X94188Y-61429D01*
X94429Y-61188D01*
X94429Y-61330D01*
X94259Y-61500D01*
X94500Y-61740D01*
X94584Y-61725D01*
X94640Y-61557D01*
X94640Y-64700D01*
X94613Y-64700D01*
X94597Y-64661D01*
X94527Y-64591D01*
X94488Y-64575D01*
X94488Y-63428D01*
X94466Y-63314D01*
X94429Y-63259D01*
X94429Y-61811D01*
X94188Y-61570D01*
X94118Y-61641D01*
X94118Y-61500D01*
X93877Y-61259D01*
X93793Y-61274D01*
X93736Y-61442D01*
X93749Y-61620D01*
X93793Y-61725D01*
X93877Y-61740D01*
X94118Y-61500D01*
X94118Y-61641D01*
X93948Y-61811D01*
X93963Y-61895D01*
X94131Y-61952D01*
X94309Y-61939D01*
X94414Y-61895D01*
X94429Y-61811D01*
X94429Y-63259D01*
X94401Y-63216D01*
X94401Y-63216D01*
X93111Y-61926D01*
X93111Y-61924D01*
X93149Y-61908D01*
X93219Y-61838D01*
X93257Y-61746D01*
X93257Y-61647D01*
X93257Y-61253D01*
X93219Y-61161D01*
X93149Y-61091D01*
X93057Y-61053D01*
X92958Y-61053D01*
X92564Y-61053D01*
X92472Y-61091D01*
X92402Y-61161D01*
X92386Y-61200D01*
X91851Y-61200D01*
X90889Y-61200D01*
X90889Y-61189D01*
X90955Y-61162D01*
X91025Y-61091D01*
X91063Y-60999D01*
X91064Y-60900D01*
X91064Y-60000D01*
X91026Y-59908D01*
X90955Y-59838D01*
X90863Y-59800D01*
X90764Y-59799D01*
X90314Y-59799D01*
X90253Y-59824D01*
X90219Y-59810D01*
X90219Y-57350D01*
X90649Y-57350D01*
X90741Y-57312D01*
X90811Y-57241D01*
X90849Y-57149D01*
X90850Y-57050D01*
X90850Y-55850D01*
X90812Y-55758D01*
X90741Y-55688D01*
X90649Y-55650D01*
X90550Y-55649D01*
X89350Y-55649D01*
X89258Y-55687D01*
X89188Y-55758D01*
X89150Y-55850D01*
X89149Y-55949D01*
X89149Y-56200D01*
X89035Y-56222D01*
X88937Y-56287D01*
X88875Y-56350D01*
X88875Y-56300D01*
X88875Y-55199D01*
X88875Y-54400D01*
X88837Y-54308D01*
X88766Y-54238D01*
X88674Y-54200D01*
X88575Y-54199D01*
X88112Y-54200D01*
X88050Y-54262D01*
X88050Y-54750D01*
X88812Y-54750D01*
X88875Y-54687D01*
X88875Y-54400D01*
X88875Y-55199D01*
X88875Y-54912D01*
X88812Y-54850D01*
X88050Y-54850D01*
X88050Y-55337D01*
X88112Y-55400D01*
X88575Y-55400D01*
X88674Y-55399D01*
X88766Y-55361D01*
X88837Y-55291D01*
X88875Y-55199D01*
X88875Y-56300D01*
X88837Y-56208D01*
X88766Y-56138D01*
X88674Y-56100D01*
X88575Y-56099D01*
X87950Y-56099D01*
X87950Y-55337D01*
X87950Y-54850D01*
X87950Y-54750D01*
X87950Y-54262D01*
X87887Y-54200D01*
X87424Y-54199D01*
X87325Y-54200D01*
X87233Y-54238D01*
X87162Y-54308D01*
X87124Y-54400D01*
X87125Y-54687D01*
X87187Y-54750D01*
X87950Y-54750D01*
X87950Y-54850D01*
X87187Y-54850D01*
X87125Y-54912D01*
X87124Y-55199D01*
X87162Y-55291D01*
X87233Y-55361D01*
X87325Y-55399D01*
X87424Y-55400D01*
X87887Y-55400D01*
X87950Y-55337D01*
X87950Y-56099D01*
X87325Y-56099D01*
X87233Y-56137D01*
X87163Y-56208D01*
X87125Y-56300D01*
X87124Y-56399D01*
X87124Y-57099D01*
X87162Y-57191D01*
X87233Y-57261D01*
X87325Y-57299D01*
X87424Y-57300D01*
X88674Y-57300D01*
X88766Y-57262D01*
X88836Y-57191D01*
X88874Y-57099D01*
X88875Y-57000D01*
X88875Y-57000D01*
X88950Y-57000D01*
X88950Y-56999D01*
X89064Y-56977D01*
X89064Y-56977D01*
X89149Y-56920D01*
X89149Y-57149D01*
X89187Y-57241D01*
X89258Y-57311D01*
X89350Y-57349D01*
X89449Y-57350D01*
X89619Y-57350D01*
X89619Y-59810D01*
X89584Y-59824D01*
X89524Y-59799D01*
X89362Y-59800D01*
X89300Y-59862D01*
X89300Y-60450D01*
X89307Y-60450D01*
X89307Y-60550D01*
X89300Y-60550D01*
X89300Y-60557D01*
X89200Y-60557D01*
X89200Y-60550D01*
X89192Y-60550D01*
X89192Y-60450D01*
X89200Y-60450D01*
X89200Y-59862D01*
X89137Y-59800D01*
X88975Y-59799D01*
X88915Y-59824D01*
X88880Y-59810D01*
X88880Y-59623D01*
X88905Y-59597D01*
X88995Y-59634D01*
X89164Y-59635D01*
X89320Y-59570D01*
X89440Y-59451D01*
X89504Y-59294D01*
X89505Y-59125D01*
X89440Y-58969D01*
X89321Y-58849D01*
X89164Y-58785D01*
X88995Y-58784D01*
X88891Y-58828D01*
X88846Y-58783D01*
X88754Y-58745D01*
X88655Y-58744D01*
X88405Y-58744D01*
X88313Y-58782D01*
X88280Y-58816D01*
X88246Y-58783D01*
X88154Y-58745D01*
X88055Y-58744D01*
X87805Y-58744D01*
X87713Y-58782D01*
X87643Y-58853D01*
X87615Y-58920D01*
X86830Y-58920D01*
X86802Y-58877D01*
X86802Y-58877D01*
X86041Y-58117D01*
X86045Y-58108D01*
X86045Y-57892D01*
X85962Y-57691D01*
X85809Y-57538D01*
X85800Y-57534D01*
X85800Y-54834D01*
X85962Y-54672D01*
X85962Y-54672D01*
X86027Y-54574D01*
X86049Y-54460D01*
X86050Y-54460D01*
X86050Y-51818D01*
X86088Y-51802D01*
X86158Y-51732D01*
X86174Y-51693D01*
X87825Y-51693D01*
X87841Y-51731D01*
X87911Y-51802D01*
X88003Y-51840D01*
X88102Y-51840D01*
X88496Y-51840D01*
X88588Y-51802D01*
X88658Y-51732D01*
X88674Y-51693D01*
X89209Y-51693D01*
X89227Y-51712D01*
X89227Y-51712D01*
X89325Y-51777D01*
X89440Y-51800D01*
X89899Y-51800D01*
X89899Y-51899D01*
X89937Y-51991D01*
X90008Y-52061D01*
X90100Y-52099D01*
X90199Y-52100D01*
X90899Y-52100D01*
X90991Y-52062D01*
X91061Y-51991D01*
X91081Y-51945D01*
X91103Y-51967D01*
X91148Y-51922D01*
X91182Y-52022D01*
X91406Y-52104D01*
X91644Y-52094D01*
X91817Y-52022D01*
X91851Y-51922D01*
X91500Y-51570D01*
X91494Y-51576D01*
X91423Y-51505D01*
X91429Y-51500D01*
X91423Y-51494D01*
X91494Y-51423D01*
X91500Y-51429D01*
X91851Y-51077D01*
X91817Y-50977D01*
X91593Y-50895D01*
X91355Y-50905D01*
X91182Y-50977D01*
X91148Y-51077D01*
X91103Y-51032D01*
X91081Y-51054D01*
X91062Y-51008D01*
X90991Y-50938D01*
X90899Y-50900D01*
X90800Y-50899D01*
X90800Y-50899D01*
X90800Y-50574D01*
X90964Y-50410D01*
X90964Y-50410D01*
X91029Y-50312D01*
X91051Y-50198D01*
X91052Y-50198D01*
X91052Y-50183D01*
X91116Y-50183D01*
X91208Y-50145D01*
X91278Y-50074D01*
X91316Y-49982D01*
X91317Y-49883D01*
X91317Y-49017D01*
X91279Y-48925D01*
X91208Y-48855D01*
X91116Y-48817D01*
X91017Y-48816D01*
X90387Y-48816D01*
X90295Y-48854D01*
X90225Y-48925D01*
X90187Y-49017D01*
X90186Y-49116D01*
X90186Y-49982D01*
X90224Y-50074D01*
X90295Y-50144D01*
X90355Y-50169D01*
X90287Y-50237D01*
X90222Y-50335D01*
X90200Y-50450D01*
X90200Y-50899D01*
X90100Y-50899D01*
X90008Y-50937D01*
X89938Y-51008D01*
X89900Y-51100D01*
X89899Y-51199D01*
X89899Y-51200D01*
X89564Y-51200D01*
X89545Y-51181D01*
X89448Y-51116D01*
X89333Y-51093D01*
X88702Y-51093D01*
X88702Y-50663D01*
X88689Y-50486D01*
X88645Y-50380D01*
X88561Y-50365D01*
X88490Y-50436D01*
X88490Y-50295D01*
X88475Y-50210D01*
X88307Y-50154D01*
X88129Y-50166D01*
X88024Y-50210D01*
X88009Y-50295D01*
X88250Y-50535D01*
X88490Y-50295D01*
X88490Y-50436D01*
X88320Y-50606D01*
X88561Y-50846D01*
X88645Y-50832D01*
X88702Y-50663D01*
X88702Y-51093D01*
X88674Y-51093D01*
X88658Y-51055D01*
X88588Y-50985D01*
X88496Y-50946D01*
X88485Y-50946D01*
X88490Y-50917D01*
X88250Y-50677D01*
X88179Y-50747D01*
X88179Y-50606D01*
X87938Y-50365D01*
X87854Y-50380D01*
X87797Y-50549D01*
X87810Y-50726D01*
X87854Y-50832D01*
X87938Y-50846D01*
X88179Y-50606D01*
X88179Y-50747D01*
X88009Y-50917D01*
X88014Y-50946D01*
X88003Y-50946D01*
X87911Y-50984D01*
X87841Y-51055D01*
X87825Y-51093D01*
X86202Y-51093D01*
X86202Y-50663D01*
X86189Y-50486D01*
X86145Y-50380D01*
X86061Y-50365D01*
X85990Y-50436D01*
X85990Y-50295D01*
X85975Y-50210D01*
X85807Y-50154D01*
X85629Y-50166D01*
X85524Y-50210D01*
X85509Y-50295D01*
X85750Y-50535D01*
X85990Y-50295D01*
X85990Y-50436D01*
X85820Y-50606D01*
X86061Y-50846D01*
X86145Y-50832D01*
X86202Y-50663D01*
X86202Y-51093D01*
X86174Y-51093D01*
X86158Y-51055D01*
X86088Y-50985D01*
X85996Y-50946D01*
X85985Y-50946D01*
X85990Y-50917D01*
X85750Y-50677D01*
X85679Y-50747D01*
X85679Y-50606D01*
X85438Y-50365D01*
X85354Y-50380D01*
X85297Y-50549D01*
X85310Y-50726D01*
X85354Y-50832D01*
X85438Y-50846D01*
X85679Y-50606D01*
X85679Y-50747D01*
X85509Y-50917D01*
X85514Y-50946D01*
X85503Y-50946D01*
X85411Y-50984D01*
X85341Y-51055D01*
X85303Y-51146D01*
X85303Y-51246D01*
X85303Y-51640D01*
X85341Y-51731D01*
X85411Y-51802D01*
X85450Y-51818D01*
X85450Y-54335D01*
X85287Y-54497D01*
X85222Y-54595D01*
X85200Y-54710D01*
X85200Y-57533D01*
X85191Y-57537D01*
X85038Y-57690D01*
X84954Y-57891D01*
X84954Y-58107D01*
X85037Y-58308D01*
X85190Y-58461D01*
X85391Y-58545D01*
X85607Y-58545D01*
X85617Y-58541D01*
X86290Y-59214D01*
X86290Y-59220D01*
X86290Y-60820D01*
X86312Y-60934D01*
X86377Y-61032D01*
X87057Y-61712D01*
X87057Y-61712D01*
X87155Y-61777D01*
X87270Y-61800D01*
X90589Y-61800D01*
X90590Y-61800D01*
X92386Y-61800D01*
X92402Y-61838D01*
X92472Y-61908D01*
X92511Y-61924D01*
X92511Y-62051D01*
X92533Y-62165D01*
X92598Y-62263D01*
X93888Y-63553D01*
X93888Y-64575D01*
X93850Y-64591D01*
X93780Y-64661D01*
X93742Y-64753D01*
X93742Y-64852D01*
X93742Y-65246D01*
X93780Y-65338D01*
X93850Y-65408D01*
X93942Y-65446D01*
X94041Y-65446D01*
X94435Y-65446D01*
X94527Y-65408D01*
X94597Y-65338D01*
X94613Y-65300D01*
X95070Y-65300D01*
X95070Y-65299D01*
X95184Y-65277D01*
X95184Y-65277D01*
X95282Y-65212D01*
X95283Y-65211D01*
X95310Y-65211D01*
X95324Y-65246D01*
X95300Y-65306D01*
X95299Y-65360D01*
X95286Y-65368D01*
X95027Y-65627D01*
X94962Y-65725D01*
X94940Y-65840D01*
X94940Y-68187D01*
X94883Y-68186D01*
X94792Y-68186D01*
X94794Y-68180D01*
X94795Y-68081D01*
X94795Y-67569D01*
X94766Y-67500D01*
X94795Y-67430D01*
X94795Y-66819D01*
X94757Y-66727D01*
X94686Y-66657D01*
X94594Y-66619D01*
X94495Y-66618D01*
X94362Y-66619D01*
X94300Y-66681D01*
X94300Y-67075D01*
X94732Y-67075D01*
X94795Y-67012D01*
X94795Y-66819D01*
X94795Y-67430D01*
X94795Y-67237D01*
X94732Y-67175D01*
X94300Y-67175D01*
X94300Y-67182D01*
X94200Y-67182D01*
X94200Y-67175D01*
X94200Y-67075D01*
X94200Y-66681D01*
X94137Y-66619D01*
X94004Y-66618D01*
X93905Y-66619D01*
X93813Y-66657D01*
X93742Y-66727D01*
X93704Y-66819D01*
X93705Y-67012D01*
X93767Y-67075D01*
X94200Y-67075D01*
X94200Y-67175D01*
X93767Y-67175D01*
X93705Y-67237D01*
X93704Y-67430D01*
X93733Y-67500D01*
X93705Y-67569D01*
X93705Y-67575D01*
X93669Y-67575D01*
X93632Y-67537D01*
X93534Y-67472D01*
X93420Y-67450D01*
X93263Y-67450D01*
X93263Y-65057D01*
X93250Y-64879D01*
X93206Y-64774D01*
X93122Y-64759D01*
X93051Y-64830D01*
X93051Y-64688D01*
X93036Y-64604D01*
X92868Y-64547D01*
X92690Y-64560D01*
X92585Y-64604D01*
X92570Y-64688D01*
X92811Y-64929D01*
X93051Y-64688D01*
X93051Y-64830D01*
X92881Y-65000D01*
X93122Y-65240D01*
X93206Y-65225D01*
X93263Y-65057D01*
X93263Y-67450D01*
X93051Y-67450D01*
X93051Y-65311D01*
X92811Y-65070D01*
X92740Y-65141D01*
X92740Y-65000D01*
X92499Y-64759D01*
X92415Y-64774D01*
X92359Y-64942D01*
X92371Y-65120D01*
X92415Y-65225D01*
X92499Y-65240D01*
X92740Y-65000D01*
X92740Y-65141D01*
X92570Y-65311D01*
X92585Y-65395D01*
X92753Y-65452D01*
X92931Y-65439D01*
X93036Y-65395D01*
X93051Y-65311D01*
X93051Y-67450D01*
X93025Y-67450D01*
X93008Y-67410D01*
X92840Y-67241D01*
X92619Y-67150D01*
X92381Y-67149D01*
X92160Y-67241D01*
X91999Y-67401D01*
X91840Y-67241D01*
X91626Y-67152D01*
X91626Y-66668D01*
X91626Y-62831D01*
X91625Y-62731D01*
X91587Y-62639D01*
X91517Y-62569D01*
X91425Y-62531D01*
X89362Y-62531D01*
X89300Y-62594D01*
X89300Y-64700D01*
X91563Y-64700D01*
X91626Y-64637D01*
X91626Y-62831D01*
X91626Y-66668D01*
X91626Y-64862D01*
X91563Y-64800D01*
X89300Y-64800D01*
X89300Y-66906D01*
X89362Y-66968D01*
X91425Y-66968D01*
X91517Y-66930D01*
X91587Y-66860D01*
X91625Y-66768D01*
X91626Y-66668D01*
X91626Y-67152D01*
X91619Y-67150D01*
X91381Y-67149D01*
X91160Y-67241D01*
X91085Y-67315D01*
X91062Y-67258D01*
X90991Y-67188D01*
X90899Y-67150D01*
X90800Y-67149D01*
X90612Y-67150D01*
X90550Y-67212D01*
X90550Y-67700D01*
X90557Y-67700D01*
X90557Y-67800D01*
X90550Y-67800D01*
X90550Y-68287D01*
X90612Y-68350D01*
X90800Y-68350D01*
X90899Y-68349D01*
X90991Y-68311D01*
X91062Y-68241D01*
X91085Y-68184D01*
X91118Y-68217D01*
X90865Y-68470D01*
X90450Y-68470D01*
X90450Y-68287D01*
X90450Y-67800D01*
X90450Y-67700D01*
X90450Y-67212D01*
X90387Y-67150D01*
X90199Y-67149D01*
X90100Y-67150D01*
X90008Y-67188D01*
X89937Y-67258D01*
X89899Y-67350D01*
X89900Y-67637D01*
X89962Y-67700D01*
X90450Y-67700D01*
X90450Y-67800D01*
X89962Y-67800D01*
X89900Y-67862D01*
X89899Y-68149D01*
X89937Y-68241D01*
X90008Y-68311D01*
X90100Y-68349D01*
X90199Y-68350D01*
X90387Y-68350D01*
X90450Y-68287D01*
X90450Y-68470D01*
X89484Y-68470D01*
X89200Y-68185D01*
X89200Y-66906D01*
X89200Y-64800D01*
X89200Y-64700D01*
X89200Y-62594D01*
X89137Y-62531D01*
X87074Y-62531D01*
X86982Y-62569D01*
X86912Y-62639D01*
X86874Y-62731D01*
X86873Y-62831D01*
X86874Y-64637D01*
X86936Y-64700D01*
X89200Y-64700D01*
X89200Y-64800D01*
X86936Y-64800D01*
X86874Y-64862D01*
X86873Y-66668D01*
X86874Y-66768D01*
X86912Y-66860D01*
X86982Y-66930D01*
X87074Y-66968D01*
X89137Y-66968D01*
X89200Y-66906D01*
X89200Y-68185D01*
X89158Y-68144D01*
X89061Y-68079D01*
X88946Y-68056D01*
X88331Y-68056D01*
X88253Y-67977D01*
X88089Y-67909D01*
X87911Y-67909D01*
X87747Y-67977D01*
X87668Y-68056D01*
X86245Y-68056D01*
X86245Y-60923D01*
X86245Y-59387D01*
X86132Y-59113D01*
X85922Y-58903D01*
X85648Y-58790D01*
X85352Y-58790D01*
X85078Y-58903D01*
X84996Y-58985D01*
X82763Y-58985D01*
X80550Y-56772D01*
X80550Y-50043D01*
X80804Y-49788D01*
X80949Y-49439D01*
X80950Y-49061D01*
X80805Y-48712D01*
X80538Y-48445D01*
X80189Y-48300D01*
X79811Y-48299D01*
X79462Y-48444D01*
X79195Y-48711D01*
X79050Y-49060D01*
X79049Y-49438D01*
X79194Y-49787D01*
X79450Y-50043D01*
X79450Y-57000D01*
X79491Y-57210D01*
X79611Y-57388D01*
X82146Y-59924D01*
X82324Y-60043D01*
X82535Y-60085D01*
X84995Y-60085D01*
X85077Y-60166D01*
X85351Y-60280D01*
X85647Y-60280D01*
X85921Y-60167D01*
X86131Y-59958D01*
X86245Y-59684D01*
X86245Y-59387D01*
X86245Y-60923D01*
X86132Y-60649D01*
X85922Y-60439D01*
X85648Y-60325D01*
X85352Y-60325D01*
X85078Y-60438D01*
X84996Y-60520D01*
X80929Y-60520D01*
X80718Y-60562D01*
X80540Y-60681D01*
X76753Y-64468D01*
X76753Y-49379D01*
X76745Y-49081D01*
X76646Y-48841D01*
X76530Y-48790D01*
X76459Y-48860D01*
X76459Y-48719D01*
X76408Y-48603D01*
X76129Y-48496D01*
X75831Y-48504D01*
X75591Y-48603D01*
X75540Y-48719D01*
X76000Y-49179D01*
X76459Y-48719D01*
X76459Y-48860D01*
X76070Y-49250D01*
X76530Y-49709D01*
X76646Y-49658D01*
X76753Y-49379D01*
X76753Y-64468D01*
X76459Y-64762D01*
X76459Y-49780D01*
X76000Y-49320D01*
X75929Y-49391D01*
X75929Y-49250D01*
X75469Y-48790D01*
X75353Y-48841D01*
X75246Y-49120D01*
X75254Y-49418D01*
X75353Y-49658D01*
X75469Y-49709D01*
X75929Y-49250D01*
X75929Y-49391D01*
X75540Y-49780D01*
X75591Y-49896D01*
X75870Y-50003D01*
X76168Y-49995D01*
X76408Y-49896D01*
X76459Y-49780D01*
X76459Y-64762D01*
X75611Y-65611D01*
X75491Y-65789D01*
X75450Y-66000D01*
X75450Y-69456D01*
X75195Y-69711D01*
X75050Y-70060D01*
X75049Y-70438D01*
X75194Y-70787D01*
X75461Y-71054D01*
X75810Y-71199D01*
X76188Y-71200D01*
X76537Y-71055D01*
X76804Y-70788D01*
X76949Y-70439D01*
X76950Y-70061D01*
X76805Y-69712D01*
X76550Y-69456D01*
X76550Y-66227D01*
X81156Y-61620D01*
X84995Y-61620D01*
X85077Y-61702D01*
X85351Y-61816D01*
X85647Y-61816D01*
X85921Y-61703D01*
X86131Y-61493D01*
X86245Y-61219D01*
X86245Y-60923D01*
X86245Y-68056D01*
X86081Y-68056D01*
X86050Y-68024D01*
X86050Y-66470D01*
X86027Y-66355D01*
X85962Y-66257D01*
X85962Y-66257D01*
X85800Y-66095D01*
X85800Y-63072D01*
X85808Y-63068D01*
X85961Y-62915D01*
X86045Y-62715D01*
X86045Y-62498D01*
X85962Y-62297D01*
X85809Y-62144D01*
X85608Y-62061D01*
X85392Y-62060D01*
X85191Y-62143D01*
X85038Y-62297D01*
X84954Y-62497D01*
X84954Y-62714D01*
X85037Y-62914D01*
X85190Y-63068D01*
X85200Y-63072D01*
X85200Y-66220D01*
X85222Y-66334D01*
X85287Y-66432D01*
X85450Y-66594D01*
X85450Y-68024D01*
X85371Y-68102D01*
X85303Y-68267D01*
X85303Y-68444D01*
X85370Y-68609D01*
X85471Y-68709D01*
X85411Y-68735D01*
X85341Y-68805D01*
X85303Y-68897D01*
X85303Y-69031D01*
X85365Y-69093D01*
X85700Y-69093D01*
X85700Y-69085D01*
X85800Y-69085D01*
X85800Y-69093D01*
X86134Y-69093D01*
X86196Y-69031D01*
X86196Y-68897D01*
X86158Y-68805D01*
X86088Y-68735D01*
X86028Y-68709D01*
X86081Y-68656D01*
X87668Y-68656D01*
X87721Y-68709D01*
X87661Y-68735D01*
X87591Y-68805D01*
X87553Y-68897D01*
X87553Y-69031D01*
X87615Y-69093D01*
X87950Y-69093D01*
X87950Y-69085D01*
X88050Y-69085D01*
X88050Y-69093D01*
X88384Y-69093D01*
X88446Y-69031D01*
X88446Y-68897D01*
X88408Y-68805D01*
X88338Y-68735D01*
X88278Y-68709D01*
X88331Y-68656D01*
X88822Y-68656D01*
X89147Y-68982D01*
X89147Y-68982D01*
X89245Y-69047D01*
X89360Y-69070D01*
X90865Y-69070D01*
X90952Y-69156D01*
X90952Y-69316D01*
X90887Y-69316D01*
X90795Y-69354D01*
X90725Y-69425D01*
X90687Y-69517D01*
X90686Y-69616D01*
X90686Y-70482D01*
X90724Y-70574D01*
X90795Y-70644D01*
X90887Y-70682D01*
X90986Y-70683D01*
X91616Y-70683D01*
X91708Y-70645D01*
X91778Y-70574D01*
X91816Y-70482D01*
X91817Y-70383D01*
X91817Y-69517D01*
X91779Y-69425D01*
X91708Y-69355D01*
X91616Y-69317D01*
X91552Y-69316D01*
X91552Y-69032D01*
X91551Y-69031D01*
X91529Y-68917D01*
X91464Y-68819D01*
X91464Y-68819D01*
X91414Y-68769D01*
X91712Y-68472D01*
X91712Y-68472D01*
X91777Y-68374D01*
X91796Y-68276D01*
X91839Y-68258D01*
X92000Y-68098D01*
X92159Y-68258D01*
X92200Y-68275D01*
X92200Y-68810D01*
X92222Y-68924D01*
X92287Y-69022D01*
X92448Y-69182D01*
X92448Y-69316D01*
X92383Y-69316D01*
X92291Y-69354D01*
X92221Y-69425D01*
X92183Y-69517D01*
X92182Y-69616D01*
X92182Y-70482D01*
X92220Y-70574D01*
X92291Y-70644D01*
X92383Y-70682D01*
X92482Y-70683D01*
X93112Y-70683D01*
X93204Y-70645D01*
X93274Y-70574D01*
X93312Y-70482D01*
X93313Y-70383D01*
X93313Y-69517D01*
X93275Y-69425D01*
X93204Y-69355D01*
X93112Y-69317D01*
X93048Y-69316D01*
X93048Y-69058D01*
X93025Y-68943D01*
X92960Y-68845D01*
X92960Y-68845D01*
X92800Y-68685D01*
X92800Y-68275D01*
X92839Y-68258D01*
X93008Y-68090D01*
X93025Y-68050D01*
X93295Y-68050D01*
X93332Y-68087D01*
X93332Y-68087D01*
X93430Y-68152D01*
X93544Y-68174D01*
X93545Y-68175D01*
X93704Y-68175D01*
X93704Y-68180D01*
X93742Y-68272D01*
X93813Y-68342D01*
X93832Y-68350D01*
X93817Y-68387D01*
X93816Y-68486D01*
X93816Y-69116D01*
X93854Y-69208D01*
X93925Y-69278D01*
X94017Y-69316D01*
X94116Y-69317D01*
X94213Y-69317D01*
X94213Y-69317D01*
X94222Y-69364D01*
X94287Y-69462D01*
X94537Y-69712D01*
X94537Y-69712D01*
X94565Y-69730D01*
X94550Y-69745D01*
X94550Y-70198D01*
X94557Y-70198D01*
X94557Y-70298D01*
X94550Y-70298D01*
X94550Y-70750D01*
X94612Y-70813D01*
X94883Y-70813D01*
X94982Y-70812D01*
X95074Y-70774D01*
X95087Y-70761D01*
X95537Y-71212D01*
X95537Y-71212D01*
X95635Y-71277D01*
X95750Y-71300D01*
X108250Y-71300D01*
X108250Y-71299D01*
X108364Y-71277D01*
X108364Y-71277D01*
X108462Y-71212D01*
X111712Y-67962D01*
X111712Y-67962D01*
X111777Y-67864D01*
X111799Y-67750D01*
X111800Y-67750D01*
X111800Y-69706D01*
X111484Y-69575D01*
X111017Y-69574D01*
X110585Y-69753D01*
X110254Y-70083D01*
X110075Y-70515D01*
X110074Y-70982D01*
X110253Y-71414D01*
X110288Y-71450D01*
X94450Y-71450D01*
X94450Y-70750D01*
X94450Y-70298D01*
X94450Y-70198D01*
X94450Y-69745D01*
X94387Y-69683D01*
X94116Y-69682D01*
X94017Y-69683D01*
X93925Y-69721D01*
X93854Y-69791D01*
X93816Y-69883D01*
X93817Y-70135D01*
X93879Y-70198D01*
X94450Y-70198D01*
X94450Y-70298D01*
X93879Y-70298D01*
X93817Y-70360D01*
X93816Y-70612D01*
X93854Y-70704D01*
X93925Y-70774D01*
X94017Y-70812D01*
X94116Y-70813D01*
X94387Y-70813D01*
X94450Y-70750D01*
X94450Y-71450D01*
X88446Y-71450D01*
X88446Y-69390D01*
X88446Y-69256D01*
X88384Y-69193D01*
X88050Y-69193D01*
X88050Y-69528D01*
X88112Y-69590D01*
X88147Y-69590D01*
X88246Y-69590D01*
X88338Y-69552D01*
X88408Y-69481D01*
X88446Y-69390D01*
X88446Y-71450D01*
X87950Y-71450D01*
X87950Y-69528D01*
X87950Y-69193D01*
X87615Y-69193D01*
X87553Y-69256D01*
X87553Y-69390D01*
X87591Y-69481D01*
X87661Y-69552D01*
X87753Y-69590D01*
X87852Y-69590D01*
X87887Y-69590D01*
X87950Y-69528D01*
X87950Y-71450D01*
X86196Y-71450D01*
X86196Y-69390D01*
X86196Y-69256D01*
X86134Y-69193D01*
X85800Y-69193D01*
X85800Y-69528D01*
X85862Y-69590D01*
X85897Y-69590D01*
X85996Y-69590D01*
X86088Y-69552D01*
X86158Y-69481D01*
X86196Y-69390D01*
X86196Y-71450D01*
X85700Y-71450D01*
X85700Y-69528D01*
X85700Y-69193D01*
X85365Y-69193D01*
X85303Y-69256D01*
X85303Y-69390D01*
X85341Y-69481D01*
X85411Y-69552D01*
X85503Y-69590D01*
X85602Y-69590D01*
X85637Y-69590D01*
X85700Y-69528D01*
X85700Y-71450D01*
X80753Y-71450D01*
X80753Y-70379D01*
X80745Y-70081D01*
X80646Y-69841D01*
X80530Y-69790D01*
X80459Y-69860D01*
X80459Y-69719D01*
X80408Y-69603D01*
X80129Y-69496D01*
X79831Y-69504D01*
X79591Y-69603D01*
X79540Y-69719D01*
X80000Y-70179D01*
X80459Y-69719D01*
X80459Y-69860D01*
X80070Y-70250D01*
X80530Y-70709D01*
X80646Y-70658D01*
X80753Y-70379D01*
X80753Y-71450D01*
X80459Y-71450D01*
X80459Y-70780D01*
X80000Y-70320D01*
X79929Y-70391D01*
X79929Y-70250D01*
X79469Y-69790D01*
X79353Y-69841D01*
X79246Y-70120D01*
X79254Y-70418D01*
X79353Y-70658D01*
X79469Y-70709D01*
X79929Y-70250D01*
X79929Y-70391D01*
X79540Y-70780D01*
X79591Y-70896D01*
X79870Y-71003D01*
X80168Y-70995D01*
X80408Y-70896D01*
X80459Y-70780D01*
X80459Y-71450D01*
X72950Y-71450D01*
X72950Y-70061D01*
X72950Y-49061D01*
X72805Y-48712D01*
X72538Y-48445D01*
X72189Y-48300D01*
X71811Y-48299D01*
X71462Y-48444D01*
X71195Y-48711D01*
X71050Y-49060D01*
X71049Y-49438D01*
X71194Y-49787D01*
X71350Y-49943D01*
X71350Y-51980D01*
X66022Y-57307D01*
X65813Y-57307D01*
X65467Y-57450D01*
X65201Y-57715D01*
X65058Y-58061D01*
X65057Y-58436D01*
X65200Y-58782D01*
X65350Y-58932D01*
X65350Y-59567D01*
X65201Y-59715D01*
X65058Y-60061D01*
X65057Y-60436D01*
X65200Y-60782D01*
X65465Y-61048D01*
X65811Y-61191D01*
X66186Y-61192D01*
X66532Y-61049D01*
X66798Y-60784D01*
X66941Y-60438D01*
X66942Y-60063D01*
X66799Y-59717D01*
X66650Y-59567D01*
X66650Y-58932D01*
X66798Y-58784D01*
X66941Y-58438D01*
X66942Y-58227D01*
X72459Y-52709D01*
X72459Y-52709D01*
X72553Y-52568D01*
X72600Y-52498D01*
X72600Y-52498D01*
X72649Y-52250D01*
X72650Y-52250D01*
X72650Y-49943D01*
X72804Y-49788D01*
X72949Y-49439D01*
X72950Y-49061D01*
X72950Y-70061D01*
X72805Y-69712D01*
X72538Y-69445D01*
X72189Y-69300D01*
X71811Y-69299D01*
X71462Y-69444D01*
X71306Y-69600D01*
X70269Y-69600D01*
X64650Y-63980D01*
X64650Y-60932D01*
X64798Y-60784D01*
X64941Y-60438D01*
X64942Y-60063D01*
X64799Y-59717D01*
X64650Y-59567D01*
X64650Y-58963D01*
X64798Y-58815D01*
X64941Y-58469D01*
X64942Y-58094D01*
X64799Y-57748D01*
X64534Y-57483D01*
X64188Y-57339D01*
X63813Y-57339D01*
X63467Y-57482D01*
X63201Y-57747D01*
X63058Y-58093D01*
X63057Y-58468D01*
X63200Y-58814D01*
X63350Y-58963D01*
X63350Y-59567D01*
X63201Y-59715D01*
X63058Y-60061D01*
X63057Y-60436D01*
X63200Y-60782D01*
X63350Y-60932D01*
X63350Y-64250D01*
X63399Y-64498D01*
X63540Y-64709D01*
X69540Y-70709D01*
X69540Y-70709D01*
X69681Y-70803D01*
X69751Y-70850D01*
X69751Y-70850D01*
X70000Y-70900D01*
X71306Y-70900D01*
X71461Y-71054D01*
X71810Y-71199D01*
X72188Y-71200D01*
X72537Y-71055D01*
X72804Y-70788D01*
X72949Y-70439D01*
X72950Y-70061D01*
X72950Y-71450D01*
X64711Y-71450D01*
X64745Y-71416D01*
X64924Y-70984D01*
X64925Y-70517D01*
X64746Y-70085D01*
X64416Y-69754D01*
X63984Y-69575D01*
X63517Y-69574D01*
X63085Y-69753D01*
X63050Y-69788D01*
X63050Y-49711D01*
X63083Y-49745D01*
X63515Y-49924D01*
X63982Y-49925D01*
X64414Y-49746D01*
X64745Y-49416D01*
X64924Y-48984D01*
X64925Y-48517D01*
X64746Y-48085D01*
X64711Y-48050D01*
X110288Y-48050D01*
X110254Y-48083D01*
X110075Y-48515D01*
X110074Y-48982D01*
X110253Y-49414D01*
X110583Y-49745D01*
X111015Y-49924D01*
X111482Y-49925D01*
X111914Y-49746D01*
X111950Y-49711D01*
X111950Y-69788D01*
X111950Y-69788D01*
G37*
G54D33*
X111950Y-69788D02*
X111916Y-69754D01*
X111800Y-69706D01*
X111800Y-67750D01*
X111800Y-58000D01*
X111777Y-57885D01*
X111712Y-57787D01*
X111712Y-57787D01*
X111462Y-57537D01*
X111364Y-57472D01*
X111250Y-57450D01*
X110995Y-57450D01*
X110995Y-55877D01*
X110987Y-55582D01*
X110890Y-55346D01*
X110774Y-55295D01*
X110704Y-55366D01*
X110704Y-55225D01*
X110653Y-55109D01*
X110377Y-55004D01*
X110082Y-55012D01*
X109846Y-55109D01*
X109795Y-55225D01*
X110250Y-55679D01*
X110704Y-55225D01*
X110704Y-55366D01*
X110320Y-55750D01*
X110774Y-56204D01*
X110890Y-56153D01*
X110995Y-55877D01*
X110995Y-57450D01*
X110929Y-57450D01*
X110879Y-57330D01*
X110704Y-57154D01*
X110704Y-56274D01*
X110250Y-55820D01*
X110179Y-55891D01*
X110179Y-55750D01*
X109725Y-55295D01*
X109609Y-55346D01*
X109504Y-55622D01*
X109512Y-55917D01*
X109609Y-56153D01*
X109725Y-56204D01*
X110179Y-55750D01*
X110179Y-55891D01*
X109795Y-56274D01*
X109846Y-56390D01*
X110122Y-56495D01*
X110417Y-56487D01*
X110653Y-56390D01*
X110704Y-56274D01*
X110704Y-57154D01*
X110670Y-57121D01*
X110398Y-57008D01*
X110103Y-57007D01*
X109830Y-57120D01*
X109621Y-57329D01*
X109571Y-57450D01*
X109027Y-57450D01*
X109027Y-55877D01*
X109019Y-55582D01*
X108921Y-55346D01*
X108806Y-55295D01*
X108735Y-55366D01*
X108735Y-55225D01*
X108684Y-55109D01*
X108409Y-55004D01*
X108114Y-55012D01*
X107878Y-55109D01*
X107827Y-55225D01*
X108281Y-55679D01*
X108735Y-55225D01*
X108735Y-55366D01*
X108352Y-55750D01*
X108806Y-56204D01*
X108921Y-56153D01*
X109027Y-55877D01*
X109027Y-57450D01*
X108960Y-57450D01*
X108911Y-57330D01*
X108735Y-57154D01*
X108735Y-56274D01*
X108281Y-55820D01*
X108210Y-55891D01*
X108210Y-55750D01*
X107756Y-55295D01*
X107641Y-55346D01*
X107535Y-55622D01*
X107543Y-55917D01*
X107641Y-56153D01*
X107756Y-56204D01*
X108210Y-55750D01*
X108210Y-55891D01*
X107827Y-56274D01*
X107878Y-56390D01*
X108153Y-56495D01*
X108448Y-56487D01*
X108684Y-56390D01*
X108735Y-56274D01*
X108735Y-57154D01*
X108702Y-57121D01*
X108429Y-57008D01*
X108134Y-57007D01*
X107861Y-57120D01*
X107652Y-57329D01*
X107539Y-57601D01*
X107539Y-57896D01*
X107651Y-58169D01*
X107860Y-58378D01*
X108133Y-58491D01*
X108428Y-58492D01*
X108701Y-58379D01*
X108910Y-58170D01*
X108960Y-58050D01*
X109570Y-58050D01*
X109620Y-58169D01*
X109829Y-58378D01*
X110101Y-58491D01*
X110396Y-58492D01*
X110669Y-58379D01*
X110878Y-58170D01*
X110928Y-58050D01*
X111125Y-58050D01*
X111200Y-58124D01*
X111200Y-67625D01*
X108125Y-70700D01*
X102468Y-70700D01*
X102468Y-68425D01*
X102468Y-64074D01*
X102430Y-63982D01*
X102360Y-63912D01*
X102268Y-63874D01*
X102168Y-63873D01*
X100362Y-63874D01*
X100300Y-63936D01*
X100300Y-66200D01*
X102406Y-66200D01*
X102468Y-66137D01*
X102468Y-64074D01*
X102468Y-68425D01*
X102468Y-66362D01*
X102406Y-66300D01*
X100300Y-66300D01*
X100300Y-68563D01*
X100362Y-68626D01*
X102168Y-68626D01*
X102268Y-68625D01*
X102360Y-68587D01*
X102430Y-68517D01*
X102468Y-68425D01*
X102468Y-70700D01*
X100200Y-70700D01*
X100200Y-68563D01*
X100200Y-66300D01*
X98094Y-66300D01*
X98031Y-66362D01*
X98031Y-68425D01*
X98069Y-68517D01*
X98139Y-68587D01*
X98231Y-68625D01*
X98331Y-68626D01*
X100137Y-68626D01*
X100200Y-68563D01*
X100200Y-70700D01*
X98800Y-70700D01*
X98800Y-70325D01*
X98800Y-69174D01*
X98799Y-69075D01*
X98761Y-68983D01*
X98691Y-68912D01*
X98599Y-68874D01*
X98312Y-68875D01*
X98250Y-68937D01*
X98250Y-69700D01*
X98737Y-69700D01*
X98800Y-69637D01*
X98800Y-69174D01*
X98800Y-70325D01*
X98800Y-69862D01*
X98737Y-69800D01*
X98250Y-69800D01*
X98250Y-70562D01*
X98312Y-70625D01*
X98599Y-70625D01*
X98691Y-70587D01*
X98761Y-70516D01*
X98799Y-70424D01*
X98800Y-70325D01*
X98800Y-70700D01*
X98150Y-70700D01*
X98150Y-70562D01*
X98150Y-69800D01*
X98150Y-69700D01*
X98150Y-68937D01*
X98087Y-68875D01*
X97800Y-68874D01*
X97708Y-68912D01*
X97638Y-68983D01*
X97600Y-69075D01*
X97599Y-69174D01*
X97600Y-69637D01*
X97662Y-69700D01*
X98150Y-69700D01*
X98150Y-69800D01*
X97662Y-69800D01*
X97600Y-69862D01*
X97599Y-70325D01*
X97600Y-70424D01*
X97638Y-70516D01*
X97708Y-70587D01*
X97800Y-70625D01*
X98087Y-70625D01*
X98150Y-70562D01*
X98150Y-70700D01*
X95874Y-70700D01*
X95550Y-70375D01*
X95550Y-69750D01*
X95527Y-69635D01*
X95462Y-69537D01*
X95462Y-69537D01*
X95212Y-69287D01*
X95124Y-69229D01*
X95144Y-69208D01*
X95182Y-69116D01*
X95183Y-69017D01*
X95183Y-68857D01*
X95699Y-69374D01*
X95699Y-70424D01*
X95737Y-70516D01*
X95808Y-70586D01*
X95900Y-70624D01*
X95999Y-70625D01*
X96699Y-70625D01*
X96791Y-70587D01*
X96861Y-70516D01*
X96899Y-70424D01*
X96900Y-70325D01*
X96900Y-69075D01*
X96862Y-68983D01*
X96791Y-68913D01*
X96700Y-68875D01*
X96700Y-67863D01*
X96700Y-67701D01*
X96637Y-67639D01*
X96050Y-67639D01*
X96050Y-68001D01*
X96112Y-68064D01*
X96400Y-68064D01*
X96499Y-68063D01*
X96591Y-68025D01*
X96662Y-67955D01*
X96700Y-67863D01*
X96700Y-68875D01*
X96699Y-68875D01*
X96600Y-68874D01*
X96049Y-68874D01*
X95540Y-68365D01*
X95540Y-68063D01*
X95599Y-68064D01*
X95887Y-68064D01*
X95950Y-68001D01*
X95950Y-67639D01*
X95942Y-67639D01*
X95942Y-67539D01*
X95950Y-67539D01*
X95950Y-67531D01*
X96050Y-67531D01*
X96050Y-67539D01*
X96637Y-67539D01*
X96700Y-67476D01*
X96700Y-67314D01*
X96675Y-67253D01*
X96689Y-67219D01*
X96781Y-67219D01*
X96781Y-67218D01*
X96895Y-67196D01*
X96895Y-67196D01*
X96993Y-67131D01*
X98031Y-66092D01*
X98031Y-66137D01*
X98094Y-66200D01*
X100200Y-66200D01*
X100200Y-63936D01*
X100137Y-63874D01*
X98331Y-63873D01*
X98250Y-63874D01*
X99184Y-62940D01*
X102500Y-62940D01*
X102500Y-62939D01*
X102614Y-62917D01*
X102614Y-62917D01*
X102712Y-62852D01*
X103462Y-62102D01*
X103462Y-62102D01*
X103527Y-62004D01*
X103549Y-61890D01*
X103550Y-61890D01*
X103550Y-61850D01*
X103899Y-61850D01*
X103991Y-61812D01*
X104061Y-61741D01*
X104099Y-61649D01*
X104100Y-61550D01*
X104100Y-61524D01*
X106537Y-63962D01*
X106537Y-63962D01*
X106635Y-64027D01*
X106749Y-64049D01*
X106750Y-64050D01*
X107602Y-64050D01*
X107651Y-64169D01*
X107860Y-64378D01*
X108133Y-64491D01*
X108428Y-64492D01*
X108701Y-64379D01*
X108910Y-64170D01*
X108960Y-64050D01*
X109570Y-64050D01*
X109620Y-64169D01*
X109829Y-64378D01*
X110101Y-64491D01*
X110396Y-64492D01*
X110669Y-64379D01*
X110878Y-64170D01*
X110991Y-63898D01*
X110992Y-63603D01*
X110992Y-61603D01*
X110992Y-59603D01*
X110879Y-59330D01*
X110670Y-59121D01*
X110398Y-59008D01*
X110103Y-59007D01*
X109830Y-59120D01*
X109621Y-59329D01*
X109571Y-59450D01*
X108960Y-59450D01*
X108911Y-59330D01*
X108702Y-59121D01*
X108429Y-59008D01*
X108134Y-59007D01*
X107861Y-59120D01*
X107652Y-59329D01*
X107602Y-59450D01*
X107374Y-59450D01*
X106800Y-58875D01*
X106800Y-55750D01*
X106777Y-55635D01*
X106712Y-55537D01*
X106712Y-55537D01*
X101964Y-50789D01*
X101866Y-50724D01*
X101752Y-50702D01*
X101502Y-50702D01*
X96433Y-50702D01*
X96433Y-50637D01*
X96395Y-50545D01*
X96324Y-50475D01*
X96232Y-50437D01*
X96133Y-50436D01*
X95267Y-50436D01*
X95175Y-50474D01*
X95105Y-50545D01*
X95067Y-50637D01*
X95066Y-50702D01*
X95038Y-50702D01*
X94923Y-50724D01*
X94825Y-50789D01*
X94795Y-50820D01*
X94795Y-50819D01*
X94757Y-50727D01*
X94686Y-50657D01*
X94594Y-50619D01*
X94495Y-50618D01*
X93905Y-50618D01*
X93813Y-50656D01*
X93743Y-50727D01*
X93705Y-50819D01*
X93705Y-50825D01*
X93235Y-50825D01*
X93120Y-50847D01*
X93022Y-50912D01*
X92892Y-51043D01*
X92840Y-50991D01*
X92800Y-50974D01*
X92800Y-50460D01*
X92799Y-50459D01*
X92777Y-50345D01*
X92712Y-50247D01*
X92712Y-50247D01*
X92637Y-50172D01*
X92704Y-50145D01*
X92774Y-50074D01*
X92812Y-49982D01*
X92813Y-49883D01*
X92813Y-49017D01*
X92775Y-48925D01*
X92704Y-48855D01*
X92612Y-48817D01*
X92513Y-48816D01*
X91883Y-48816D01*
X91791Y-48854D01*
X91721Y-48925D01*
X91683Y-49017D01*
X91682Y-49116D01*
X91682Y-49982D01*
X91720Y-50074D01*
X91791Y-50144D01*
X91883Y-50182D01*
X91948Y-50183D01*
X91948Y-50208D01*
X91970Y-50322D01*
X92035Y-50420D01*
X92200Y-50584D01*
X92200Y-50974D01*
X92160Y-50991D01*
X91991Y-51159D01*
X91987Y-51170D01*
X91922Y-51148D01*
X91851Y-51219D01*
X91570Y-51500D01*
X91922Y-51851D01*
X91987Y-51829D01*
X91991Y-51839D01*
X92159Y-52008D01*
X92380Y-52099D01*
X92618Y-52100D01*
X92839Y-52008D01*
X93008Y-51840D01*
X93057Y-51721D01*
X93072Y-51712D01*
X93359Y-51425D01*
X93704Y-51425D01*
X93704Y-51430D01*
X93733Y-51500D01*
X93704Y-51569D01*
X93705Y-51762D01*
X93767Y-51825D01*
X94200Y-51825D01*
X94200Y-51817D01*
X94300Y-51817D01*
X94300Y-51825D01*
X94732Y-51825D01*
X94795Y-51762D01*
X94795Y-51569D01*
X94766Y-51499D01*
X94794Y-51430D01*
X94794Y-51425D01*
X94915Y-51425D01*
X94915Y-51424D01*
X95029Y-51402D01*
X95029Y-51402D01*
X95070Y-51374D01*
X95104Y-51458D01*
X95175Y-51528D01*
X95267Y-51566D01*
X95366Y-51567D01*
X96232Y-51567D01*
X96324Y-51529D01*
X96394Y-51458D01*
X96432Y-51366D01*
X96433Y-51302D01*
X101502Y-51302D01*
X101627Y-51302D01*
X106200Y-55874D01*
X106200Y-59000D01*
X106222Y-59114D01*
X106287Y-59212D01*
X107037Y-59962D01*
X107037Y-59962D01*
X107135Y-60027D01*
X107249Y-60049D01*
X107250Y-60050D01*
X107602Y-60050D01*
X107651Y-60169D01*
X107860Y-60378D01*
X108133Y-60491D01*
X108428Y-60492D01*
X108701Y-60379D01*
X108910Y-60170D01*
X108960Y-60050D01*
X109570Y-60050D01*
X109620Y-60169D01*
X109829Y-60378D01*
X110101Y-60491D01*
X110396Y-60492D01*
X110669Y-60379D01*
X110878Y-60170D01*
X110991Y-59898D01*
X110992Y-59603D01*
X110992Y-61603D01*
X110879Y-61330D01*
X110670Y-61121D01*
X110398Y-61008D01*
X110103Y-61007D01*
X109830Y-61120D01*
X109621Y-61329D01*
X109571Y-61450D01*
X108960Y-61450D01*
X108911Y-61330D01*
X108702Y-61121D01*
X108429Y-61008D01*
X108134Y-61007D01*
X107861Y-61120D01*
X107652Y-61329D01*
X107602Y-61450D01*
X106874Y-61450D01*
X105550Y-60125D01*
X105550Y-57000D01*
X105527Y-56885D01*
X105462Y-56787D01*
X105462Y-56787D01*
X103962Y-55287D01*
X103864Y-55222D01*
X103750Y-55200D01*
X103241Y-55200D01*
X103241Y-54582D01*
X103229Y-54389D01*
X103178Y-54266D01*
X103089Y-54246D01*
X103018Y-54317D01*
X103018Y-54176D01*
X102999Y-54087D01*
X102816Y-54024D01*
X102623Y-54036D01*
X102500Y-54087D01*
X102481Y-54176D01*
X102750Y-54445D01*
X103018Y-54176D01*
X103018Y-54317D01*
X102820Y-54515D01*
X103089Y-54784D01*
X103178Y-54765D01*
X103241Y-54582D01*
X103241Y-55200D01*
X103018Y-55200D01*
X103018Y-54855D01*
X102750Y-54586D01*
X102679Y-54657D01*
X102679Y-54515D01*
X102410Y-54246D01*
X102321Y-54266D01*
X102258Y-54449D01*
X102270Y-54642D01*
X102321Y-54765D01*
X102410Y-54784D01*
X102679Y-54515D01*
X102679Y-54657D01*
X102481Y-54855D01*
X102500Y-54944D01*
X102683Y-55007D01*
X102876Y-54995D01*
X102999Y-54944D01*
X103018Y-54855D01*
X103018Y-55200D01*
X101750Y-55200D01*
X101635Y-55222D01*
X101537Y-55287D01*
X100641Y-56184D01*
X99241Y-56184D01*
X99241Y-54582D01*
X99229Y-54389D01*
X99178Y-54266D01*
X99089Y-54246D01*
X99018Y-54317D01*
X99018Y-54176D01*
X98999Y-54087D01*
X98816Y-54024D01*
X98623Y-54036D01*
X98500Y-54087D01*
X98481Y-54176D01*
X98750Y-54445D01*
X99018Y-54176D01*
X99018Y-54317D01*
X98820Y-54515D01*
X99089Y-54784D01*
X99178Y-54765D01*
X99241Y-54582D01*
X99241Y-56184D01*
X99230Y-56184D01*
X99198Y-56106D01*
X99128Y-56036D01*
X99036Y-55998D01*
X99018Y-55998D01*
X99018Y-54855D01*
X98750Y-54586D01*
X98679Y-54657D01*
X98679Y-54515D01*
X98410Y-54246D01*
X98321Y-54266D01*
X98258Y-54449D01*
X98270Y-54642D01*
X98321Y-54765D01*
X98410Y-54784D01*
X98679Y-54515D01*
X98679Y-54657D01*
X98481Y-54855D01*
X98500Y-54944D01*
X98683Y-55007D01*
X98876Y-54995D01*
X98999Y-54944D01*
X99018Y-54855D01*
X99018Y-55998D01*
X98936Y-55997D01*
X98464Y-55997D01*
X98372Y-56035D01*
X98301Y-56106D01*
X98269Y-56184D01*
X96850Y-56184D01*
X96850Y-55850D01*
X96812Y-55758D01*
X96741Y-55688D01*
X96649Y-55650D01*
X96550Y-55649D01*
X96433Y-55649D01*
X96433Y-52862D01*
X96433Y-52133D01*
X96395Y-52041D01*
X96324Y-51971D01*
X96232Y-51933D01*
X96133Y-51932D01*
X95862Y-51933D01*
X95800Y-51995D01*
X95800Y-52448D01*
X96370Y-52448D01*
X96433Y-52385D01*
X96433Y-52133D01*
X96433Y-52862D01*
X96433Y-52610D01*
X96370Y-52548D01*
X95800Y-52548D01*
X95800Y-53000D01*
X95862Y-53063D01*
X96133Y-53063D01*
X96232Y-53062D01*
X96324Y-53024D01*
X96395Y-52954D01*
X96433Y-52862D01*
X96433Y-55649D01*
X95700Y-55649D01*
X95700Y-53000D01*
X95700Y-52548D01*
X95700Y-52448D01*
X95700Y-51995D01*
X95637Y-51933D01*
X95366Y-51932D01*
X95267Y-51933D01*
X95175Y-51971D01*
X95104Y-52041D01*
X95066Y-52133D01*
X95067Y-52385D01*
X95129Y-52448D01*
X95700Y-52448D01*
X95700Y-52548D01*
X95129Y-52548D01*
X95067Y-52610D01*
X95066Y-52862D01*
X95104Y-52954D01*
X95175Y-53024D01*
X95267Y-53062D01*
X95366Y-53063D01*
X95637Y-53063D01*
X95700Y-53000D01*
X95700Y-55649D01*
X95350Y-55649D01*
X95258Y-55687D01*
X95188Y-55758D01*
X95150Y-55850D01*
X95149Y-55949D01*
X95149Y-57149D01*
X95187Y-57241D01*
X95258Y-57311D01*
X95350Y-57349D01*
X95449Y-57350D01*
X96649Y-57350D01*
X96741Y-57312D01*
X96811Y-57241D01*
X96849Y-57149D01*
X96850Y-57050D01*
X96850Y-56784D01*
X98269Y-56784D01*
X98301Y-56861D01*
X98371Y-56932D01*
X98463Y-56970D01*
X98563Y-56970D01*
X99035Y-56970D01*
X99127Y-56932D01*
X99198Y-56862D01*
X99230Y-56784D01*
X100765Y-56784D01*
X100765Y-56784D01*
X100880Y-56761D01*
X100880Y-56761D01*
X100977Y-56696D01*
X101874Y-55800D01*
X103625Y-55800D01*
X104950Y-57124D01*
X104950Y-60250D01*
X104972Y-60364D01*
X105037Y-60462D01*
X106537Y-61962D01*
X106537Y-61962D01*
X106635Y-62027D01*
X106750Y-62050D01*
X107602Y-62050D01*
X107651Y-62169D01*
X107860Y-62378D01*
X108133Y-62491D01*
X108428Y-62492D01*
X108701Y-62379D01*
X108910Y-62170D01*
X108960Y-62050D01*
X109570Y-62050D01*
X109620Y-62169D01*
X109829Y-62378D01*
X110101Y-62491D01*
X110396Y-62492D01*
X110669Y-62379D01*
X110878Y-62170D01*
X110991Y-61898D01*
X110992Y-61603D01*
X110992Y-63603D01*
X110879Y-63330D01*
X110670Y-63121D01*
X110398Y-63008D01*
X110103Y-63007D01*
X109830Y-63120D01*
X109621Y-63329D01*
X109571Y-63450D01*
X108960Y-63450D01*
X108911Y-63330D01*
X108702Y-63121D01*
X108429Y-63008D01*
X108134Y-63007D01*
X107861Y-63120D01*
X107652Y-63329D01*
X107602Y-63450D01*
X106874Y-63450D01*
X104212Y-60787D01*
X104114Y-60722D01*
X104100Y-60719D01*
X104100Y-60350D01*
X104062Y-60258D01*
X103991Y-60188D01*
X103899Y-60150D01*
X103800Y-60149D01*
X103550Y-60149D01*
X103550Y-59160D01*
X103527Y-59045D01*
X103462Y-58947D01*
X103462Y-58947D01*
X103050Y-58535D01*
X103050Y-56964D01*
X103127Y-56932D01*
X103198Y-56862D01*
X103236Y-56770D01*
X103236Y-56670D01*
X103236Y-56198D01*
X103198Y-56106D01*
X103128Y-56036D01*
X103036Y-55998D01*
X102936Y-55997D01*
X102464Y-55997D01*
X102372Y-56035D01*
X102301Y-56106D01*
X102263Y-56198D01*
X102263Y-56297D01*
X102263Y-56769D01*
X102301Y-56861D01*
X102371Y-56932D01*
X102450Y-56964D01*
X102450Y-58660D01*
X102472Y-58774D01*
X102537Y-58872D01*
X102950Y-59284D01*
X102950Y-60149D01*
X102600Y-60149D01*
X102508Y-60187D01*
X102438Y-60258D01*
X102400Y-60350D01*
X102399Y-60449D01*
X102399Y-61649D01*
X102437Y-61741D01*
X102508Y-61811D01*
X102600Y-61849D01*
X102699Y-61850D01*
X102865Y-61850D01*
X102375Y-62340D01*
X99060Y-62340D01*
X98945Y-62362D01*
X98847Y-62427D01*
X97707Y-63567D01*
X97642Y-63665D01*
X97620Y-63780D01*
X97620Y-65655D01*
X96679Y-66595D01*
X96675Y-66584D01*
X96700Y-66524D01*
X96700Y-66362D01*
X96637Y-66300D01*
X96050Y-66300D01*
X96050Y-66307D01*
X95950Y-66307D01*
X95950Y-66300D01*
X95942Y-66300D01*
X95942Y-66200D01*
X95950Y-66200D01*
X95950Y-66192D01*
X96050Y-66192D01*
X96050Y-66200D01*
X96637Y-66200D01*
X96700Y-66137D01*
X96700Y-65975D01*
X96675Y-65915D01*
X96689Y-65881D01*
X96729Y-65881D01*
X96729Y-65880D01*
X96843Y-65858D01*
X96843Y-65858D01*
X96941Y-65793D01*
X97462Y-65272D01*
X97462Y-65272D01*
X97527Y-65174D01*
X97549Y-65060D01*
X97550Y-65060D01*
X97550Y-61850D01*
X97899Y-61850D01*
X97991Y-61812D01*
X98061Y-61741D01*
X98099Y-61649D01*
X98100Y-61550D01*
X98100Y-60350D01*
X98062Y-60258D01*
X97991Y-60188D01*
X97899Y-60150D01*
X97800Y-60149D01*
X96600Y-60149D01*
X96508Y-60187D01*
X96438Y-60258D01*
X96400Y-60350D01*
X96399Y-60449D01*
X96399Y-61649D01*
X96437Y-61741D01*
X96508Y-61811D01*
X96600Y-61849D01*
X96699Y-61850D01*
X96950Y-61850D01*
X96950Y-64935D01*
X96699Y-65185D01*
X96700Y-65086D01*
X96700Y-64636D01*
X96662Y-64544D01*
X96591Y-64474D01*
X96499Y-64436D01*
X96400Y-64435D01*
X95500Y-64435D01*
X95408Y-64473D01*
X95338Y-64544D01*
X95310Y-64611D01*
X95159Y-64611D01*
X95044Y-64633D01*
X94946Y-64698D01*
X94945Y-64700D01*
X94795Y-64700D01*
X94795Y-52180D01*
X94795Y-51987D01*
X94732Y-51925D01*
X94300Y-51925D01*
X94300Y-52318D01*
X94362Y-52381D01*
X94495Y-52381D01*
X94594Y-52380D01*
X94686Y-52342D01*
X94757Y-52272D01*
X94795Y-52180D01*
X94795Y-64700D01*
X94640Y-64700D01*
X94640Y-61557D01*
X94628Y-61379D01*
X94584Y-61274D01*
X94500Y-61259D01*
X94429Y-61330D01*
X94429Y-61188D01*
X94414Y-61104D01*
X94246Y-61047D01*
X94200Y-61051D01*
X94200Y-52318D01*
X94200Y-51925D01*
X93767Y-51925D01*
X93705Y-51987D01*
X93704Y-52180D01*
X93742Y-52272D01*
X93813Y-52342D01*
X93905Y-52380D01*
X94004Y-52381D01*
X94137Y-52381D01*
X94200Y-52318D01*
X94200Y-61051D01*
X94068Y-61060D01*
X93963Y-61104D01*
X93948Y-61188D01*
X94188Y-61429D01*
X94429Y-61188D01*
X94429Y-61330D01*
X94259Y-61500D01*
X94500Y-61740D01*
X94584Y-61725D01*
X94640Y-61557D01*
X94640Y-64700D01*
X94613Y-64700D01*
X94597Y-64661D01*
X94527Y-64591D01*
X94488Y-64575D01*
X94488Y-63428D01*
X94466Y-63314D01*
X94429Y-63259D01*
X94429Y-61811D01*
X94188Y-61570D01*
X94118Y-61641D01*
X94118Y-61500D01*
X93877Y-61259D01*
X93793Y-61274D01*
X93736Y-61442D01*
X93749Y-61620D01*
X93793Y-61725D01*
X93877Y-61740D01*
X94118Y-61500D01*
X94118Y-61641D01*
X93948Y-61811D01*
X93963Y-61895D01*
X94131Y-61952D01*
X94309Y-61939D01*
X94414Y-61895D01*
X94429Y-61811D01*
X94429Y-63259D01*
X94401Y-63216D01*
X94401Y-63216D01*
X93111Y-61926D01*
X93111Y-61924D01*
X93149Y-61908D01*
X93219Y-61838D01*
X93257Y-61746D01*
X93257Y-61647D01*
X93257Y-61253D01*
X93219Y-61161D01*
X93149Y-61091D01*
X93057Y-61053D01*
X92958Y-61053D01*
X92564Y-61053D01*
X92472Y-61091D01*
X92402Y-61161D01*
X92386Y-61200D01*
X91851Y-61200D01*
X90889Y-61200D01*
X90889Y-61189D01*
X90955Y-61162D01*
X91025Y-61091D01*
X91063Y-60999D01*
X91064Y-60900D01*
X91064Y-60000D01*
X91026Y-59908D01*
X90955Y-59838D01*
X90863Y-59800D01*
X90764Y-59799D01*
X90314Y-59799D01*
X90253Y-59824D01*
X90219Y-59810D01*
X90219Y-57350D01*
X90649Y-57350D01*
X90741Y-57312D01*
X90811Y-57241D01*
X90849Y-57149D01*
X90850Y-57050D01*
X90850Y-55850D01*
X90812Y-55758D01*
X90741Y-55688D01*
X90649Y-55650D01*
X90550Y-55649D01*
X89350Y-55649D01*
X89258Y-55687D01*
X89188Y-55758D01*
X89150Y-55850D01*
X89149Y-55949D01*
X89149Y-56200D01*
X89035Y-56222D01*
X88937Y-56287D01*
X88875Y-56350D01*
X88875Y-56300D01*
X88875Y-55199D01*
X88875Y-54400D01*
X88837Y-54308D01*
X88766Y-54238D01*
X88674Y-54200D01*
X88575Y-54199D01*
X88112Y-54200D01*
X88050Y-54262D01*
X88050Y-54750D01*
X88812Y-54750D01*
X88875Y-54687D01*
X88875Y-54400D01*
X88875Y-55199D01*
X88875Y-54912D01*
X88812Y-54850D01*
X88050Y-54850D01*
X88050Y-55337D01*
X88112Y-55400D01*
X88575Y-55400D01*
X88674Y-55399D01*
X88766Y-55361D01*
X88837Y-55291D01*
X88875Y-55199D01*
X88875Y-56300D01*
X88837Y-56208D01*
X88766Y-56138D01*
X88674Y-56100D01*
X88575Y-56099D01*
X87950Y-56099D01*
X87950Y-55337D01*
X87950Y-54850D01*
X87950Y-54750D01*
X87950Y-54262D01*
X87887Y-54200D01*
X87424Y-54199D01*
X87325Y-54200D01*
X87233Y-54238D01*
X87162Y-54308D01*
X87124Y-54400D01*
X87125Y-54687D01*
X87187Y-54750D01*
X87950Y-54750D01*
X87950Y-54850D01*
X87187Y-54850D01*
X87125Y-54912D01*
X87124Y-55199D01*
X87162Y-55291D01*
X87233Y-55361D01*
X87325Y-55399D01*
X87424Y-55400D01*
X87887Y-55400D01*
X87950Y-55337D01*
X87950Y-56099D01*
X87325Y-56099D01*
X87233Y-56137D01*
X87163Y-56208D01*
X87125Y-56300D01*
X87124Y-56399D01*
X87124Y-57099D01*
X87162Y-57191D01*
X87233Y-57261D01*
X87325Y-57299D01*
X87424Y-57300D01*
X88674Y-57300D01*
X88766Y-57262D01*
X88836Y-57191D01*
X88874Y-57099D01*
X88875Y-57000D01*
X88875Y-57000D01*
X88950Y-57000D01*
X88950Y-56999D01*
X89064Y-56977D01*
X89064Y-56977D01*
X89149Y-56920D01*
X89149Y-57149D01*
X89187Y-57241D01*
X89258Y-57311D01*
X89350Y-57349D01*
X89449Y-57350D01*
X89619Y-57350D01*
X89619Y-59810D01*
X89584Y-59824D01*
X89524Y-59799D01*
X89362Y-59800D01*
X89300Y-59862D01*
X89300Y-60450D01*
X89307Y-60450D01*
X89307Y-60550D01*
X89300Y-60550D01*
X89300Y-60557D01*
X89200Y-60557D01*
X89200Y-60550D01*
X89192Y-60550D01*
X89192Y-60450D01*
X89200Y-60450D01*
X89200Y-59862D01*
X89137Y-59800D01*
X88975Y-59799D01*
X88915Y-59824D01*
X88880Y-59810D01*
X88880Y-59623D01*
X88905Y-59597D01*
X88995Y-59634D01*
X89164Y-59635D01*
X89320Y-59570D01*
X89440Y-59451D01*
X89504Y-59294D01*
X89505Y-59125D01*
X89440Y-58969D01*
X89321Y-58849D01*
X89164Y-58785D01*
X88995Y-58784D01*
X88891Y-58828D01*
X88846Y-58783D01*
X88754Y-58745D01*
X88655Y-58744D01*
X88405Y-58744D01*
X88313Y-58782D01*
X88280Y-58816D01*
X88246Y-58783D01*
X88154Y-58745D01*
X88055Y-58744D01*
X87805Y-58744D01*
X87713Y-58782D01*
X87643Y-58853D01*
X87615Y-58920D01*
X86830Y-58920D01*
X86802Y-58877D01*
X86802Y-58877D01*
X86041Y-58117D01*
X86045Y-58108D01*
X86045Y-57892D01*
X85962Y-57691D01*
X85809Y-57538D01*
X85800Y-57534D01*
X85800Y-54834D01*
X85962Y-54672D01*
X85962Y-54672D01*
X86027Y-54574D01*
X86049Y-54460D01*
X86050Y-54460D01*
X86050Y-51818D01*
X86088Y-51802D01*
X86158Y-51732D01*
X86174Y-51693D01*
X87825Y-51693D01*
X87841Y-51731D01*
X87911Y-51802D01*
X88003Y-51840D01*
X88102Y-51840D01*
X88496Y-51840D01*
X88588Y-51802D01*
X88658Y-51732D01*
X88674Y-51693D01*
X89209Y-51693D01*
X89227Y-51712D01*
X89227Y-51712D01*
X89325Y-51777D01*
X89440Y-51800D01*
X89899Y-51800D01*
X89899Y-51899D01*
X89937Y-51991D01*
X90008Y-52061D01*
X90100Y-52099D01*
X90199Y-52100D01*
X90899Y-52100D01*
X90991Y-52062D01*
X91061Y-51991D01*
X91081Y-51945D01*
X91103Y-51967D01*
X91148Y-51922D01*
X91182Y-52022D01*
X91406Y-52104D01*
X91644Y-52094D01*
X91817Y-52022D01*
X91851Y-51922D01*
X91500Y-51570D01*
X91494Y-51576D01*
X91423Y-51505D01*
X91429Y-51500D01*
X91423Y-51494D01*
X91494Y-51423D01*
X91500Y-51429D01*
X91851Y-51077D01*
X91817Y-50977D01*
X91593Y-50895D01*
X91355Y-50905D01*
X91182Y-50977D01*
X91148Y-51077D01*
X91103Y-51032D01*
X91081Y-51054D01*
X91062Y-51008D01*
X90991Y-50938D01*
X90899Y-50900D01*
X90800Y-50899D01*
X90800Y-50899D01*
X90800Y-50574D01*
X90964Y-50410D01*
X90964Y-50410D01*
X91029Y-50312D01*
X91051Y-50198D01*
X91052Y-50198D01*
X91052Y-50183D01*
X91116Y-50183D01*
X91208Y-50145D01*
X91278Y-50074D01*
X91316Y-49982D01*
X91317Y-49883D01*
X91317Y-49017D01*
X91279Y-48925D01*
X91208Y-48855D01*
X91116Y-48817D01*
X91017Y-48816D01*
X90387Y-48816D01*
X90295Y-48854D01*
X90225Y-48925D01*
X90187Y-49017D01*
X90186Y-49116D01*
X90186Y-49982D01*
X90224Y-50074D01*
X90295Y-50144D01*
X90355Y-50169D01*
X90287Y-50237D01*
X90222Y-50335D01*
X90200Y-50450D01*
X90200Y-50899D01*
X90100Y-50899D01*
X90008Y-50937D01*
X89938Y-51008D01*
X89900Y-51100D01*
X89899Y-51199D01*
X89899Y-51200D01*
X89564Y-51200D01*
X89545Y-51181D01*
X89448Y-51116D01*
X89333Y-51093D01*
X88702Y-51093D01*
X88702Y-50663D01*
X88689Y-50486D01*
X88645Y-50380D01*
X88561Y-50365D01*
X88490Y-50436D01*
X88490Y-50295D01*
X88475Y-50210D01*
X88307Y-50154D01*
X88129Y-50166D01*
X88024Y-50210D01*
X88009Y-50295D01*
X88250Y-50535D01*
X88490Y-50295D01*
X88490Y-50436D01*
X88320Y-50606D01*
X88561Y-50846D01*
X88645Y-50832D01*
X88702Y-50663D01*
X88702Y-51093D01*
X88674Y-51093D01*
X88658Y-51055D01*
X88588Y-50985D01*
X88496Y-50946D01*
X88485Y-50946D01*
X88490Y-50917D01*
X88250Y-50677D01*
X88179Y-50747D01*
X88179Y-50606D01*
X87938Y-50365D01*
X87854Y-50380D01*
X87797Y-50549D01*
X87810Y-50726D01*
X87854Y-50832D01*
X87938Y-50846D01*
X88179Y-50606D01*
X88179Y-50747D01*
X88009Y-50917D01*
X88014Y-50946D01*
X88003Y-50946D01*
X87911Y-50984D01*
X87841Y-51055D01*
X87825Y-51093D01*
X86202Y-51093D01*
X86202Y-50663D01*
X86189Y-50486D01*
X86145Y-50380D01*
X86061Y-50365D01*
X85990Y-50436D01*
X85990Y-50295D01*
X85975Y-50210D01*
X85807Y-50154D01*
X85629Y-50166D01*
X85524Y-50210D01*
X85509Y-50295D01*
X85750Y-50535D01*
X85990Y-50295D01*
X85990Y-50436D01*
X85820Y-50606D01*
X86061Y-50846D01*
X86145Y-50832D01*
X86202Y-50663D01*
X86202Y-51093D01*
X86174Y-51093D01*
X86158Y-51055D01*
X86088Y-50985D01*
X85996Y-50946D01*
X85985Y-50946D01*
X85990Y-50917D01*
X85750Y-50677D01*
X85679Y-50747D01*
X85679Y-50606D01*
X85438Y-50365D01*
X85354Y-50380D01*
X85297Y-50549D01*
X85310Y-50726D01*
X85354Y-50832D01*
X85438Y-50846D01*
X85679Y-50606D01*
X85679Y-50747D01*
X85509Y-50917D01*
X85514Y-50946D01*
X85503Y-50946D01*
X85411Y-50984D01*
X85341Y-51055D01*
X85303Y-51146D01*
X85303Y-51246D01*
X85303Y-51640D01*
X85341Y-51731D01*
X85411Y-51802D01*
X85450Y-51818D01*
X85450Y-54335D01*
X85287Y-54497D01*
X85222Y-54595D01*
X85200Y-54710D01*
X85200Y-57533D01*
X85191Y-57537D01*
X85038Y-57690D01*
X84954Y-57891D01*
X84954Y-58107D01*
X85037Y-58308D01*
X85190Y-58461D01*
X85391Y-58545D01*
X85607Y-58545D01*
X85617Y-58541D01*
X86290Y-59214D01*
X86290Y-59220D01*
X86290Y-60820D01*
X86312Y-60934D01*
X86377Y-61032D01*
X87057Y-61712D01*
X87057Y-61712D01*
X87155Y-61777D01*
X87270Y-61800D01*
X90589Y-61800D01*
X90590Y-61800D01*
X92386Y-61800D01*
X92402Y-61838D01*
X92472Y-61908D01*
X92511Y-61924D01*
X92511Y-62051D01*
X92533Y-62165D01*
X92598Y-62263D01*
X93888Y-63553D01*
X93888Y-64575D01*
X93850Y-64591D01*
X93780Y-64661D01*
X93742Y-64753D01*
X93742Y-64852D01*
X93742Y-65246D01*
X93780Y-65338D01*
X93850Y-65408D01*
X93942Y-65446D01*
X94041Y-65446D01*
X94435Y-65446D01*
X94527Y-65408D01*
X94597Y-65338D01*
X94613Y-65300D01*
X95070Y-65300D01*
X95070Y-65299D01*
X95184Y-65277D01*
X95184Y-65277D01*
X95282Y-65212D01*
X95283Y-65211D01*
X95310Y-65211D01*
X95324Y-65246D01*
X95300Y-65306D01*
X95299Y-65360D01*
X95286Y-65368D01*
X95027Y-65627D01*
X94962Y-65725D01*
X94940Y-65840D01*
X94940Y-68187D01*
X94883Y-68186D01*
X94792Y-68186D01*
X94794Y-68180D01*
X94795Y-68081D01*
X94795Y-67569D01*
X94766Y-67500D01*
X94795Y-67430D01*
X94795Y-66819D01*
X94757Y-66727D01*
X94686Y-66657D01*
X94594Y-66619D01*
X94495Y-66618D01*
X94362Y-66619D01*
X94300Y-66681D01*
X94300Y-67075D01*
X94732Y-67075D01*
X94795Y-67012D01*
X94795Y-66819D01*
X94795Y-67430D01*
X94795Y-67237D01*
X94732Y-67175D01*
X94300Y-67175D01*
X94300Y-67182D01*
X94200Y-67182D01*
X94200Y-67175D01*
X94200Y-67075D01*
X94200Y-66681D01*
X94137Y-66619D01*
X94004Y-66618D01*
X93905Y-66619D01*
X93813Y-66657D01*
X93742Y-66727D01*
X93704Y-66819D01*
X93705Y-67012D01*
X93767Y-67075D01*
X94200Y-67075D01*
X94200Y-67175D01*
X93767Y-67175D01*
X93705Y-67237D01*
X93704Y-67430D01*
X93733Y-67500D01*
X93705Y-67569D01*
X93705Y-67575D01*
X93669Y-67575D01*
X93632Y-67537D01*
X93534Y-67472D01*
X93420Y-67450D01*
X93263Y-67450D01*
X93263Y-65057D01*
X93250Y-64879D01*
X93206Y-64774D01*
X93122Y-64759D01*
X93051Y-64830D01*
X93051Y-64688D01*
X93036Y-64604D01*
X92868Y-64547D01*
X92690Y-64560D01*
X92585Y-64604D01*
X92570Y-64688D01*
X92811Y-64929D01*
X93051Y-64688D01*
X93051Y-64830D01*
X92881Y-65000D01*
X93122Y-65240D01*
X93206Y-65225D01*
X93263Y-65057D01*
X93263Y-67450D01*
X93051Y-67450D01*
X93051Y-65311D01*
X92811Y-65070D01*
X92740Y-65141D01*
X92740Y-65000D01*
X92499Y-64759D01*
X92415Y-64774D01*
X92359Y-64942D01*
X92371Y-65120D01*
X92415Y-65225D01*
X92499Y-65240D01*
X92740Y-65000D01*
X92740Y-65141D01*
X92570Y-65311D01*
X92585Y-65395D01*
X92753Y-65452D01*
X92931Y-65439D01*
X93036Y-65395D01*
X93051Y-65311D01*
X93051Y-67450D01*
X93025Y-67450D01*
X93008Y-67410D01*
X92840Y-67241D01*
X92619Y-67150D01*
X92381Y-67149D01*
X92160Y-67241D01*
X91999Y-67401D01*
X91840Y-67241D01*
X91626Y-67152D01*
X91626Y-66668D01*
X91626Y-62831D01*
X91625Y-62731D01*
X91587Y-62639D01*
X91517Y-62569D01*
X91425Y-62531D01*
X89362Y-62531D01*
X89300Y-62594D01*
X89300Y-64700D01*
X91563Y-64700D01*
X91626Y-64637D01*
X91626Y-62831D01*
X91626Y-66668D01*
X91626Y-64862D01*
X91563Y-64800D01*
X89300Y-64800D01*
X89300Y-66906D01*
X89362Y-66968D01*
X91425Y-66968D01*
X91517Y-66930D01*
X91587Y-66860D01*
X91625Y-66768D01*
X91626Y-66668D01*
X91626Y-67152D01*
X91619Y-67150D01*
X91381Y-67149D01*
X91160Y-67241D01*
X91085Y-67315D01*
X91062Y-67258D01*
X90991Y-67188D01*
X90899Y-67150D01*
X90800Y-67149D01*
X90612Y-67150D01*
X90550Y-67212D01*
X90550Y-67700D01*
X90557Y-67700D01*
X90557Y-67800D01*
X90550Y-67800D01*
X90550Y-68287D01*
X90612Y-68350D01*
X90800Y-68350D01*
X90899Y-68349D01*
X90991Y-68311D01*
X91062Y-68241D01*
X91085Y-68184D01*
X91118Y-68217D01*
X90865Y-68470D01*
X90450Y-68470D01*
X90450Y-68287D01*
X90450Y-67800D01*
X90450Y-67700D01*
X90450Y-67212D01*
X90387Y-67150D01*
X90199Y-67149D01*
X90100Y-67150D01*
X90008Y-67188D01*
X89937Y-67258D01*
X89899Y-67350D01*
X89900Y-67637D01*
X89962Y-67700D01*
X90450Y-67700D01*
X90450Y-67800D01*
X89962Y-67800D01*
X89900Y-67862D01*
X89899Y-68149D01*
X89937Y-68241D01*
X90008Y-68311D01*
X90100Y-68349D01*
X90199Y-68350D01*
X90387Y-68350D01*
X90450Y-68287D01*
X90450Y-68470D01*
X89484Y-68470D01*
X89200Y-68185D01*
X89200Y-66906D01*
X89200Y-64800D01*
X89200Y-64700D01*
X89200Y-62594D01*
X89137Y-62531D01*
X87074Y-62531D01*
X86982Y-62569D01*
X86912Y-62639D01*
X86874Y-62731D01*
X86873Y-62831D01*
X86874Y-64637D01*
X86936Y-64700D01*
X89200Y-64700D01*
X89200Y-64800D01*
X86936Y-64800D01*
X86874Y-64862D01*
X86873Y-66668D01*
X86874Y-66768D01*
X86912Y-66860D01*
X86982Y-66930D01*
X87074Y-66968D01*
X89137Y-66968D01*
X89200Y-66906D01*
X89200Y-68185D01*
X89158Y-68144D01*
X89061Y-68079D01*
X88946Y-68056D01*
X88331Y-68056D01*
X88253Y-67977D01*
X88089Y-67909D01*
X87911Y-67909D01*
X87747Y-67977D01*
X87668Y-68056D01*
X86245Y-68056D01*
X86245Y-60923D01*
X86245Y-59387D01*
X86132Y-59113D01*
X85922Y-58903D01*
X85648Y-58790D01*
X85352Y-58790D01*
X85078Y-58903D01*
X84996Y-58985D01*
X82763Y-58985D01*
X80550Y-56772D01*
X80550Y-50043D01*
X80804Y-49788D01*
X80949Y-49439D01*
X80950Y-49061D01*
X80805Y-48712D01*
X80538Y-48445D01*
X80189Y-48300D01*
X79811Y-48299D01*
X79462Y-48444D01*
X79195Y-48711D01*
X79050Y-49060D01*
X79049Y-49438D01*
X79194Y-49787D01*
X79450Y-50043D01*
X79450Y-57000D01*
X79491Y-57210D01*
X79611Y-57388D01*
X82146Y-59924D01*
X82324Y-60043D01*
X82535Y-60085D01*
X84995Y-60085D01*
X85077Y-60166D01*
X85351Y-60280D01*
X85647Y-60280D01*
X85921Y-60167D01*
X86131Y-59958D01*
X86245Y-59684D01*
X86245Y-59387D01*
X86245Y-60923D01*
X86132Y-60649D01*
X85922Y-60439D01*
X85648Y-60325D01*
X85352Y-60325D01*
X85078Y-60438D01*
X84996Y-60520D01*
X80929Y-60520D01*
X80718Y-60562D01*
X80540Y-60681D01*
X76753Y-64468D01*
X76753Y-49379D01*
X76745Y-49081D01*
X76646Y-48841D01*
X76530Y-48790D01*
X76459Y-48860D01*
X76459Y-48719D01*
X76408Y-48603D01*
X76129Y-48496D01*
X75831Y-48504D01*
X75591Y-48603D01*
X75540Y-48719D01*
X76000Y-49179D01*
X76459Y-48719D01*
X76459Y-48860D01*
X76070Y-49250D01*
X76530Y-49709D01*
X76646Y-49658D01*
X76753Y-49379D01*
X76753Y-64468D01*
X76459Y-64762D01*
X76459Y-49780D01*
X76000Y-49320D01*
X75929Y-49391D01*
X75929Y-49250D01*
X75469Y-48790D01*
X75353Y-48841D01*
X75246Y-49120D01*
X75254Y-49418D01*
X75353Y-49658D01*
X75469Y-49709D01*
X75929Y-49250D01*
X75929Y-49391D01*
X75540Y-49780D01*
X75591Y-49896D01*
X75870Y-50003D01*
X76168Y-49995D01*
X76408Y-49896D01*
X76459Y-49780D01*
X76459Y-64762D01*
X75611Y-65611D01*
X75491Y-65789D01*
X75450Y-66000D01*
X75450Y-69456D01*
X75195Y-69711D01*
X75050Y-70060D01*
X75049Y-70438D01*
X75194Y-70787D01*
X75461Y-71054D01*
X75810Y-71199D01*
X76188Y-71200D01*
X76537Y-71055D01*
X76804Y-70788D01*
X76949Y-70439D01*
X76950Y-70061D01*
X76805Y-69712D01*
X76550Y-69456D01*
X76550Y-66227D01*
X81156Y-61620D01*
X84995Y-61620D01*
X85077Y-61702D01*
X85351Y-61816D01*
X85647Y-61816D01*
X85921Y-61703D01*
X86131Y-61493D01*
X86245Y-61219D01*
X86245Y-60923D01*
X86245Y-68056D01*
X86081Y-68056D01*
X86050Y-68024D01*
X86050Y-66470D01*
X86027Y-66355D01*
X85962Y-66257D01*
X85962Y-66257D01*
X85800Y-66095D01*
X85800Y-63072D01*
X85808Y-63068D01*
X85961Y-62915D01*
X86045Y-62715D01*
X86045Y-62498D01*
X85962Y-62297D01*
X85809Y-62144D01*
X85608Y-62061D01*
X85392Y-62060D01*
X85191Y-62143D01*
X85038Y-62297D01*
X84954Y-62497D01*
X84954Y-62714D01*
X85037Y-62914D01*
X85190Y-63068D01*
X85200Y-63072D01*
X85200Y-66220D01*
X85222Y-66334D01*
X85287Y-66432D01*
X85450Y-66594D01*
X85450Y-68024D01*
X85371Y-68102D01*
X85303Y-68267D01*
X85303Y-68444D01*
X85370Y-68609D01*
X85471Y-68709D01*
X85411Y-68735D01*
X85341Y-68805D01*
X85303Y-68897D01*
X85303Y-69031D01*
X85365Y-69093D01*
X85700Y-69093D01*
X85700Y-69085D01*
X85800Y-69085D01*
X85800Y-69093D01*
X86134Y-69093D01*
X86196Y-69031D01*
X86196Y-68897D01*
X86158Y-68805D01*
X86088Y-68735D01*
X86028Y-68709D01*
X86081Y-68656D01*
X87668Y-68656D01*
X87721Y-68709D01*
X87661Y-68735D01*
X87591Y-68805D01*
X87553Y-68897D01*
X87553Y-69031D01*
X87615Y-69093D01*
X87950Y-69093D01*
X87950Y-69085D01*
X88050Y-69085D01*
X88050Y-69093D01*
X88384Y-69093D01*
X88446Y-69031D01*
X88446Y-68897D01*
X88408Y-68805D01*
X88338Y-68735D01*
X88278Y-68709D01*
X88331Y-68656D01*
X88822Y-68656D01*
X89147Y-68982D01*
X89147Y-68982D01*
X89245Y-69047D01*
X89360Y-69070D01*
X90865Y-69070D01*
X90952Y-69156D01*
X90952Y-69316D01*
X90887Y-69316D01*
X90795Y-69354D01*
X90725Y-69425D01*
X90687Y-69517D01*
X90686Y-69616D01*
X90686Y-70482D01*
X90724Y-70574D01*
X90795Y-70644D01*
X90887Y-70682D01*
X90986Y-70683D01*
X91616Y-70683D01*
X91708Y-70645D01*
X91778Y-70574D01*
X91816Y-70482D01*
X91817Y-70383D01*
X91817Y-69517D01*
X91779Y-69425D01*
X91708Y-69355D01*
X91616Y-69317D01*
X91552Y-69316D01*
X91552Y-69032D01*
X91551Y-69031D01*
X91529Y-68917D01*
X91464Y-68819D01*
X91464Y-68819D01*
X91414Y-68769D01*
X91712Y-68472D01*
X91712Y-68472D01*
X91777Y-68374D01*
X91796Y-68276D01*
X91839Y-68258D01*
X92000Y-68098D01*
X92159Y-68258D01*
X92200Y-68275D01*
X92200Y-68810D01*
X92222Y-68924D01*
X92287Y-69022D01*
X92448Y-69182D01*
X92448Y-69316D01*
X92383Y-69316D01*
X92291Y-69354D01*
X92221Y-69425D01*
X92183Y-69517D01*
X92182Y-69616D01*
X92182Y-70482D01*
X92220Y-70574D01*
X92291Y-70644D01*
X92383Y-70682D01*
X92482Y-70683D01*
X93112Y-70683D01*
X93204Y-70645D01*
X93274Y-70574D01*
X93312Y-70482D01*
X93313Y-70383D01*
X93313Y-69517D01*
X93275Y-69425D01*
X93204Y-69355D01*
X93112Y-69317D01*
X93048Y-69316D01*
X93048Y-69058D01*
X93025Y-68943D01*
X92960Y-68845D01*
X92960Y-68845D01*
X92800Y-68685D01*
X92800Y-68275D01*
X92839Y-68258D01*
X93008Y-68090D01*
X93025Y-68050D01*
X93295Y-68050D01*
X93332Y-68087D01*
X93332Y-68087D01*
X93430Y-68152D01*
X93544Y-68174D01*
X93545Y-68175D01*
X93704Y-68175D01*
X93704Y-68180D01*
X93742Y-68272D01*
X93813Y-68342D01*
X93832Y-68350D01*
X93817Y-68387D01*
X93816Y-68486D01*
X93816Y-69116D01*
X93854Y-69208D01*
X93925Y-69278D01*
X94017Y-69316D01*
X94116Y-69317D01*
X94213Y-69317D01*
X94213Y-69317D01*
X94222Y-69364D01*
X94287Y-69462D01*
X94537Y-69712D01*
X94537Y-69712D01*
X94565Y-69730D01*
X94550Y-69745D01*
X94550Y-70198D01*
X94557Y-70198D01*
X94557Y-70298D01*
X94550Y-70298D01*
X94550Y-70750D01*
X94612Y-70813D01*
X94883Y-70813D01*
X94982Y-70812D01*
X95074Y-70774D01*
X95087Y-70761D01*
X95537Y-71212D01*
X95537Y-71212D01*
X95635Y-71277D01*
X95750Y-71300D01*
X108250Y-71300D01*
X108250Y-71299D01*
X108364Y-71277D01*
X108364Y-71277D01*
X108462Y-71212D01*
X111712Y-67962D01*
X111712Y-67962D01*
X111777Y-67864D01*
X111799Y-67750D01*
X111800Y-67750D01*
X111800Y-69706D01*
X111484Y-69575D01*
X111017Y-69574D01*
X110585Y-69753D01*
X110254Y-70083D01*
X110075Y-70515D01*
X110074Y-70982D01*
X110253Y-71414D01*
X110288Y-71450D01*
X94450Y-71450D01*
X94450Y-70750D01*
X94450Y-70298D01*
X94450Y-70198D01*
X94450Y-69745D01*
X94387Y-69683D01*
X94116Y-69682D01*
X94017Y-69683D01*
X93925Y-69721D01*
X93854Y-69791D01*
X93816Y-69883D01*
X93817Y-70135D01*
X93879Y-70198D01*
X94450Y-70198D01*
X94450Y-70298D01*
X93879Y-70298D01*
X93817Y-70360D01*
X93816Y-70612D01*
X93854Y-70704D01*
X93925Y-70774D01*
X94017Y-70812D01*
X94116Y-70813D01*
X94387Y-70813D01*
X94450Y-70750D01*
X94450Y-71450D01*
X88446Y-71450D01*
X88446Y-69390D01*
X88446Y-69256D01*
X88384Y-69193D01*
X88050Y-69193D01*
X88050Y-69528D01*
X88112Y-69590D01*
X88147Y-69590D01*
X88246Y-69590D01*
X88338Y-69552D01*
X88408Y-69481D01*
X88446Y-69390D01*
X88446Y-71450D01*
X87950Y-71450D01*
X87950Y-69528D01*
X87950Y-69193D01*
X87615Y-69193D01*
X87553Y-69256D01*
X87553Y-69390D01*
X87591Y-69481D01*
X87661Y-69552D01*
X87753Y-69590D01*
X87852Y-69590D01*
X87887Y-69590D01*
X87950Y-69528D01*
X87950Y-71450D01*
X86196Y-71450D01*
X86196Y-69390D01*
X86196Y-69256D01*
X86134Y-69193D01*
X85800Y-69193D01*
X85800Y-69528D01*
X85862Y-69590D01*
X85897Y-69590D01*
X85996Y-69590D01*
X86088Y-69552D01*
X86158Y-69481D01*
X86196Y-69390D01*
X86196Y-71450D01*
X85700Y-71450D01*
X85700Y-69528D01*
X85700Y-69193D01*
X85365Y-69193D01*
X85303Y-69256D01*
X85303Y-69390D01*
X85341Y-69481D01*
X85411Y-69552D01*
X85503Y-69590D01*
X85602Y-69590D01*
X85637Y-69590D01*
X85700Y-69528D01*
X85700Y-71450D01*
X80753Y-71450D01*
X80753Y-70379D01*
X80745Y-70081D01*
X80646Y-69841D01*
X80530Y-69790D01*
X80459Y-69860D01*
X80459Y-69719D01*
X80408Y-69603D01*
X80129Y-69496D01*
X79831Y-69504D01*
X79591Y-69603D01*
X79540Y-69719D01*
X80000Y-70179D01*
X80459Y-69719D01*
X80459Y-69860D01*
X80070Y-70250D01*
X80530Y-70709D01*
X80646Y-70658D01*
X80753Y-70379D01*
X80753Y-71450D01*
X80459Y-71450D01*
X80459Y-70780D01*
X80000Y-70320D01*
X79929Y-70391D01*
X79929Y-70250D01*
X79469Y-69790D01*
X79353Y-69841D01*
X79246Y-70120D01*
X79254Y-70418D01*
X79353Y-70658D01*
X79469Y-70709D01*
X79929Y-70250D01*
X79929Y-70391D01*
X79540Y-70780D01*
X79591Y-70896D01*
X79870Y-71003D01*
X80168Y-70995D01*
X80408Y-70896D01*
X80459Y-70780D01*
X80459Y-71450D01*
X72950Y-71450D01*
X72950Y-70061D01*
X72950Y-49061D01*
X72805Y-48712D01*
X72538Y-48445D01*
X72189Y-48300D01*
X71811Y-48299D01*
X71462Y-48444D01*
X71195Y-48711D01*
X71050Y-49060D01*
X71049Y-49438D01*
X71194Y-49787D01*
X71350Y-49943D01*
X71350Y-51980D01*
X66022Y-57307D01*
X65813Y-57307D01*
X65467Y-57450D01*
X65201Y-57715D01*
X65058Y-58061D01*
X65057Y-58436D01*
X65200Y-58782D01*
X65350Y-58932D01*
X65350Y-59567D01*
X65201Y-59715D01*
X65058Y-60061D01*
X65057Y-60436D01*
X65200Y-60782D01*
X65465Y-61048D01*
X65811Y-61191D01*
X66186Y-61192D01*
X66532Y-61049D01*
X66798Y-60784D01*
X66941Y-60438D01*
X66942Y-60063D01*
X66799Y-59717D01*
X66650Y-59567D01*
X66650Y-58932D01*
X66798Y-58784D01*
X66941Y-58438D01*
X66942Y-58227D01*
X72459Y-52709D01*
X72459Y-52709D01*
X72553Y-52568D01*
X72600Y-52498D01*
X72600Y-52498D01*
X72649Y-52250D01*
X72650Y-52250D01*
X72650Y-49943D01*
X72804Y-49788D01*
X72949Y-49439D01*
X72950Y-49061D01*
X72950Y-70061D01*
X72805Y-69712D01*
X72538Y-69445D01*
X72189Y-69300D01*
X71811Y-69299D01*
X71462Y-69444D01*
X71306Y-69600D01*
X70269Y-69600D01*
X64650Y-63980D01*
X64650Y-60932D01*
X64798Y-60784D01*
X64941Y-60438D01*
X64942Y-60063D01*
X64799Y-59717D01*
X64650Y-59567D01*
X64650Y-58963D01*
X64798Y-58815D01*
X64941Y-58469D01*
X64942Y-58094D01*
X64799Y-57748D01*
X64534Y-57483D01*
X64188Y-57339D01*
X63813Y-57339D01*
X63467Y-57482D01*
X63201Y-57747D01*
X63058Y-58093D01*
X63057Y-58468D01*
X63200Y-58814D01*
X63350Y-58963D01*
X63350Y-59567D01*
X63201Y-59715D01*
X63058Y-60061D01*
X63057Y-60436D01*
X63200Y-60782D01*
X63350Y-60932D01*
X63350Y-64250D01*
X63399Y-64498D01*
X63540Y-64709D01*
X69540Y-70709D01*
X69540Y-70709D01*
X69681Y-70803D01*
X69751Y-70850D01*
X69751Y-70850D01*
X70000Y-70900D01*
X71306Y-70900D01*
X71461Y-71054D01*
X71810Y-71199D01*
X72188Y-71200D01*
X72537Y-71055D01*
X72804Y-70788D01*
X72949Y-70439D01*
X72950Y-70061D01*
X72950Y-71450D01*
X64711Y-71450D01*
X64745Y-71416D01*
X64924Y-70984D01*
X64925Y-70517D01*
X64746Y-70085D01*
X64416Y-69754D01*
X63984Y-69575D01*
X63517Y-69574D01*
X63085Y-69753D01*
X63050Y-69788D01*
X63050Y-49711D01*
X63083Y-49745D01*
X63515Y-49924D01*
X63982Y-49925D01*
X64414Y-49746D01*
X64745Y-49416D01*
X64924Y-48984D01*
X64925Y-48517D01*
X64746Y-48085D01*
X64711Y-48050D01*
X110288Y-48050D01*
X110254Y-48083D01*
X110075Y-48515D01*
X110074Y-48982D01*
X110253Y-49414D01*
X110583Y-49745D01*
X111015Y-49924D01*
X111482Y-49925D01*
X111914Y-49746D01*
X111950Y-49711D01*
X111950Y-69788D01*
M02*
