G04 (created by PCBNEW (2013-07-07 BZR 4022)-stable) date 4/14/2014 10:19:51 AM*
%MOIN*%
G04 Gerber Fmt 3.4, Leading zero omitted, Abs format*
%FSLAX34Y34*%
G01*
G70*
G90*
G04 APERTURE LIST*
%ADD10C,0.00590551*%
%ADD11C,0.005*%
%ADD12C,0.0045*%
%ADD13C,0.00433071*%
G04 APERTURE END LIST*
G54D10*
G54D11*
X90053Y-58525D02*
X89775Y-58525D01*
X89775Y-58525D02*
X89775Y-57975D01*
X89775Y-57975D02*
X90053Y-57975D01*
X90725Y-58525D02*
X90447Y-58525D01*
X90725Y-58525D02*
X90725Y-57975D01*
X90725Y-57975D02*
X90447Y-57975D01*
X90030Y-59160D02*
X90030Y-58840D01*
X90470Y-58850D02*
X90470Y-59160D01*
X90570Y-58840D02*
X89930Y-58840D01*
X89930Y-58840D02*
X89930Y-59160D01*
X89930Y-59160D02*
X90570Y-59160D01*
X90570Y-59160D02*
X90570Y-58840D01*
G54D12*
X91030Y-58329D02*
X91090Y-58235D01*
X91132Y-58329D02*
X91132Y-58132D01*
X91064Y-58132D01*
X91047Y-58142D01*
X91038Y-58151D01*
X91030Y-58170D01*
X91030Y-58198D01*
X91038Y-58217D01*
X91047Y-58226D01*
X91064Y-58235D01*
X91132Y-58235D01*
X90961Y-58151D02*
X90952Y-58142D01*
X90935Y-58132D01*
X90892Y-58132D01*
X90875Y-58142D01*
X90867Y-58151D01*
X90858Y-58170D01*
X90858Y-58189D01*
X90867Y-58217D01*
X90970Y-58329D01*
X90858Y-58329D01*
G54D13*
X91029Y-59060D02*
X91037Y-59070D01*
X91063Y-59079D01*
X91080Y-59079D01*
X91105Y-59070D01*
X91122Y-59051D01*
X91130Y-59032D01*
X91139Y-58995D01*
X91139Y-58967D01*
X91130Y-58929D01*
X91122Y-58910D01*
X91105Y-58892D01*
X91080Y-58882D01*
X91063Y-58882D01*
X91037Y-58892D01*
X91029Y-58901D01*
X90869Y-58882D02*
X90953Y-58882D01*
X90962Y-58976D01*
X90953Y-58967D01*
X90936Y-58957D01*
X90894Y-58957D01*
X90877Y-58967D01*
X90869Y-58976D01*
X90860Y-58995D01*
X90860Y-59042D01*
X90869Y-59060D01*
X90877Y-59070D01*
X90894Y-59079D01*
X90936Y-59079D01*
X90953Y-59070D01*
X90962Y-59060D01*
M02*
